<svg width="125" height="36" viewBox="0 0 125 36" fill="none" xmlns="http://www.w3.org/2000/svg">
<path d="M124.306 31.8487C124.306 33.7672 122.715 35.3212 120.747 35.3212H4.2595C2.29219 35.3212 0.695312 33.7672 0.695312 31.8487V4.15671C0.695312 2.23914 2.29219 0.679688 4.2595 0.679688H120.746C122.715 0.679688 124.306 2.23914 124.306 4.15671L124.306 31.8487Z" fill="#131313"/>
<path d="M120.37 0.721125C122.514 0.721125 124.258 2.4165 124.258 4.5V31.5C124.258 33.5835 122.514 35.2789 120.37 35.2789H4.62963C2.48611 35.2789 0.741898 33.5835 0.741898 31.5V4.5C0.741898 2.4165 2.48611 0.721125 4.62963 0.721125H120.37ZM120.37 1.90258e-06H4.62963C2.08449 1.90258e-06 0 2.02613 0 4.5V31.5C0 33.9739 2.08449 36 4.62963 36H120.37C122.916 36 125 33.9739 125 31.5V4.5C125 2.02613 122.916 1.90258e-06 120.37 1.90258e-06Z" fill="white"/>
<path d="M27.8957 17.806C27.8688 14.9053 30.3392 13.4941 30.4522 13.4284C29.0531 11.4457 26.8846 11.1748 26.1225 11.1532C24.3012 10.9669 22.5346 12.2125 21.6068 12.2125C20.6605 12.2125 19.2318 11.1712 17.692 11.2018C15.7105 11.2315 13.8568 12.3466 12.8401 14.0782C10.742 17.6089 12.3068 22.7974 14.317 25.6513C15.3225 27.049 16.4975 28.6096 18.0355 28.5547C19.5401 28.4944 20.1022 27.6223 21.9179 27.6223C23.717 27.6223 24.2448 28.5547 25.8133 28.5196C27.4281 28.4944 28.4448 27.1156 29.4151 25.7053C30.5772 24.1033 31.0438 22.5256 31.0624 22.4446C31.0244 22.432 27.9262 21.2827 27.8957 17.806Z" fill="white"/>
<path d="M24.9327 9.2758C25.742 8.2921 26.2957 6.9538 26.142 5.5957C24.9707 5.6461 23.5059 6.3832 22.6624 7.3453C21.9161 8.1931 21.2494 9.5827 21.4216 10.8895C22.7374 10.9849 24.0883 10.2442 24.9327 9.2758Z" fill="white"/>
<path d="M49.2895 28.3542H47.1867L46.0349 24.8361H42.0312L40.9339 28.3542H38.8867L42.8534 16.377H45.3034L49.2895 28.3542ZM45.6876 23.3601L44.646 20.2326C44.5358 19.9131 44.3293 19.1607 44.0247 17.9763H43.9876C43.8663 18.4857 43.671 19.2381 43.4025 20.2326L42.3793 23.3601H45.6876Z" fill="white"/>
<path d="M59.4901 23.9303C59.4901 25.3991 59.0817 26.5601 58.2651 27.4124C57.5336 28.1711 56.6253 28.55 55.541 28.55C54.3706 28.55 53.5299 28.1414 53.0179 27.3242H52.9808V31.8737H51.0067V22.5614C51.0067 21.638 50.9817 20.6903 50.9336 19.7183H52.6697L52.7799 21.0872H52.8169C53.4753 20.0558 54.4743 19.541 55.8151 19.541C56.8632 19.541 57.7382 19.9433 58.4382 20.7488C59.1401 21.5552 59.4901 22.6154 59.4901 23.9303ZM57.479 24.0005C57.479 23.1599 57.2845 22.4669 56.8938 21.9215C56.4669 21.3527 55.8938 21.0683 55.1753 21.0683C54.6882 21.0683 54.2456 21.2267 53.8503 21.539C53.454 21.854 53.1947 22.2653 53.0734 22.7747C53.0123 23.0123 52.9817 23.2067 52.9817 23.3597V24.7997C52.9817 25.4279 53.1799 25.958 53.5762 26.3909C53.9725 26.8238 54.4873 27.0398 55.1206 27.0398C55.8641 27.0398 56.4429 26.7608 56.8567 26.2046C57.2716 25.6475 57.479 24.9131 57.479 24.0005Z" fill="white"/>
<path d="M69.7118 23.9303C69.7118 25.3991 69.3035 26.5601 68.4859 27.4124C67.7553 28.1711 66.847 28.55 65.7627 28.55C64.5924 28.55 63.7516 28.1414 63.2405 27.3242H63.2035V31.8737H61.2294V22.5614C61.2294 21.638 61.2044 20.6903 61.1562 19.7183H62.8924L63.0025 21.0872H63.0396C63.697 20.0558 64.6961 19.541 66.0377 19.541C67.085 19.541 67.96 19.9433 68.6618 20.7488C69.3609 21.5552 69.7118 22.6154 69.7118 23.9303ZM67.7007 24.0005C67.7007 23.1599 67.5053 22.4669 67.1146 21.9215C66.6877 21.3527 66.1164 21.0683 65.397 21.0683C64.909 21.0683 64.4674 21.2267 64.0711 21.539C63.6748 21.854 63.4164 22.2653 63.2951 22.7747C63.235 23.0123 63.2035 23.2067 63.2035 23.3597V24.7997C63.2035 25.4279 63.4016 25.958 63.7961 26.3909C64.1924 26.8229 64.7072 27.0398 65.3424 27.0398C66.0859 27.0398 66.6646 26.7608 67.0785 26.2046C67.4933 25.6475 67.7007 24.9131 67.7007 24.0005Z" fill="white"/>
<path d="M81.1367 24.9951C81.1367 26.0139 80.7729 26.8428 80.0423 27.4827C79.2395 28.182 78.1219 28.5312 76.6858 28.5312C75.3599 28.5312 74.2969 28.2828 73.4923 27.7851L73.9497 26.1858C74.8164 26.6952 75.7673 26.9508 76.8034 26.9508C77.5469 26.9508 78.1256 26.787 78.5414 26.4612C78.9553 26.1354 79.1617 25.698 79.1617 25.1526C79.1617 24.6666 78.9914 24.2571 78.6497 23.925C78.3099 23.5929 77.7423 23.2842 76.9497 22.9989C74.7923 22.2168 73.7145 21.0711 73.7145 19.5645C73.7145 18.5799 74.0923 17.7726 74.8488 17.1444C75.6025 16.5153 76.608 16.2012 77.8654 16.2012C78.9867 16.2012 79.9182 16.3911 80.6617 16.77L80.1682 18.3342C79.4738 17.967 78.6886 17.7834 77.8099 17.7834C77.1154 17.7834 76.5729 17.9499 76.184 18.2811C75.8553 18.5772 75.6904 18.9381 75.6904 19.3656C75.6904 19.839 75.8784 20.2305 76.2562 20.5383C76.5849 20.8227 77.1821 21.1305 78.0488 21.4626C79.109 21.8775 79.8877 22.3626 80.3886 22.9188C80.8877 23.4732 81.1367 24.1671 81.1367 24.9951Z" fill="white"/>
<path d="M87.6611 21.1583H85.4852V25.3514C85.4852 26.4179 85.8685 26.9507 86.637 26.9507C86.9898 26.9507 87.2824 26.921 87.5139 26.8616L87.5685 28.3187C87.1796 28.46 86.6676 28.5311 86.0333 28.5311C85.2537 28.5311 84.6444 28.2998 84.2046 27.8381C83.7667 27.3755 83.5463 26.5997 83.5463 25.5098V21.1565H82.25V19.7165H83.5463V18.1352L85.4852 17.5664V19.7165H87.6611V21.1583Z" fill="white"/>
<path d="M97.4801 23.9645C97.4801 25.292 97.0894 26.3819 96.3098 27.2342C95.4922 28.1117 94.407 28.5491 93.0542 28.5491C91.7505 28.5491 90.7125 28.1288 89.9385 27.2882C89.1644 26.4476 88.7773 25.3865 88.7773 24.1076C88.7773 22.7693 89.1755 21.6731 89.9746 20.8208C90.7718 19.9676 91.8477 19.541 93.2005 19.541C94.5042 19.541 95.5533 19.9613 96.3449 20.8028C97.1023 21.6191 97.4801 22.673 97.4801 23.9645ZM95.432 24.0266C95.432 23.2301 95.257 22.547 94.9023 21.9773C94.4885 21.2879 93.8968 20.9441 93.1301 20.9441C92.3366 20.9441 91.7338 21.2888 91.3199 21.9773C90.9653 22.5479 90.7903 23.2418 90.7903 24.0626C90.7903 24.8591 90.9653 25.5422 91.3199 26.111C91.7468 26.8004 92.3431 27.1442 93.1125 27.1442C93.8662 27.1442 94.4579 26.7932 94.8847 26.093C95.2486 25.5125 95.432 24.8222 95.432 24.0266Z" fill="white"/>
<path d="M103.898 21.4058C103.703 21.3707 103.495 21.3527 103.276 21.3527C102.582 21.3527 102.045 21.6074 101.667 22.1177C101.338 22.5677 101.173 23.1365 101.173 23.8232V28.3547H99.2001L99.2186 22.4381C99.2186 21.4427 99.1936 20.5364 99.1445 19.7192H100.864L100.936 21.3716H100.991C101.199 20.8037 101.528 20.3465 101.978 20.0036C102.418 19.6949 102.893 19.541 103.405 19.541C103.587 19.541 103.752 19.5536 103.898 19.5761V21.4058Z" fill="white"/>
<path d="M112.724 23.6265C112.724 23.9703 112.701 24.2601 112.652 24.4968H106.73C106.753 25.35 107.039 26.0025 107.589 26.4525C108.088 26.8548 108.734 27.0564 109.526 27.0564C110.403 27.0564 111.203 26.9205 111.923 26.6478L112.232 27.9798C111.391 28.3362 110.398 28.5135 109.253 28.5135C107.875 28.5135 106.794 28.1193 106.007 27.3318C105.222 26.5443 104.828 25.4868 104.828 24.1602C104.828 22.8579 105.194 21.7734 105.926 20.9085C106.693 19.9851 107.729 19.5234 109.033 19.5234C110.313 19.5234 111.283 19.9851 111.941 20.9085C112.462 21.642 112.724 22.5492 112.724 23.6265ZM110.842 23.1288C110.855 22.56 110.726 22.0686 110.459 21.6537C110.117 21.12 109.592 20.8536 108.886 20.8536C108.24 20.8536 107.715 21.1137 107.314 21.6357C106.986 22.0506 106.79 22.5483 106.73 23.1279H110.842V23.1288Z" fill="white"/>
<path d="M44.6392 8.02539H43.3949C43.3722 7.86441 43.3258 7.72141 43.2557 7.59641C43.1856 7.46952 43.0956 7.36156 42.9858 7.27255C42.8759 7.18353 42.7491 7.11535 42.6051 7.068C42.4631 7.02066 42.3087 6.99698 42.142 6.99698C41.8409 6.99698 41.5786 7.07179 41.3551 7.22141C41.1316 7.36914 40.9583 7.58505 40.8352 7.86914C40.7121 8.15134 40.6506 8.49414 40.6506 8.89755C40.6506 9.31232 40.7121 9.66081 40.8352 9.943C40.9602 10.2252 41.1345 10.4383 41.358 10.5822C41.5814 10.7261 41.84 10.7981 42.1335 10.7981C42.2983 10.7981 42.4508 10.7763 42.5909 10.7328C42.733 10.6892 42.8589 10.6258 42.9688 10.5424C43.0786 10.4572 43.1695 10.354 43.2415 10.2328C43.3153 10.1116 43.3665 9.97331 43.3949 9.818L44.6392 9.82369C44.607 10.0907 44.5265 10.3483 44.3977 10.5964C44.2708 10.8426 44.0994 11.0633 43.8835 11.2583C43.6695 11.4515 43.4138 11.6049 43.1165 11.7186C42.821 11.8303 42.4867 11.8862 42.1136 11.8862C41.5947 11.8862 41.1307 11.7688 40.7216 11.5339C40.3144 11.2991 39.9924 10.9591 39.7557 10.514C39.5208 10.069 39.4034 9.53013 39.4034 8.89755C39.4034 8.26308 39.5227 7.72331 39.7614 7.27823C40 6.83316 40.3239 6.49414 40.733 6.26119C41.142 6.02634 41.6023 5.90891 42.1136 5.90891C42.4508 5.90891 42.7633 5.95626 43.0511 6.05096C43.3409 6.14566 43.5975 6.28391 43.821 6.46573C44.0445 6.64566 44.2263 6.8663 44.3665 7.12766C44.5085 7.38903 44.5994 7.68827 44.6392 8.02539ZM45.4986 11.8066V7.443H46.7088V9.13619H47.0497L48.2372 7.443H49.6577L48.1151 9.60778L49.6747 11.8066H48.2372L47.1605 10.2583H46.7088V11.8066H45.4986ZM51.4304 11.889C51.152 11.889 50.9039 11.8407 50.6861 11.7441C50.4683 11.6457 50.2959 11.5008 50.169 11.3095C50.044 11.1163 49.9815 10.8758 49.9815 10.5879C49.9815 10.3455 50.026 10.1419 50.1151 9.9771C50.2041 9.81232 50.3253 9.67975 50.4787 9.57937C50.6321 9.47899 50.8063 9.40323 51.0014 9.3521C51.1984 9.30096 51.4048 9.26497 51.6207 9.24414C51.8745 9.21763 52.0791 9.193 52.2344 9.17028C52.3897 9.14566 52.5024 9.10967 52.5724 9.06232C52.6425 9.01497 52.6776 8.9449 52.6776 8.8521V8.83505C52.6776 8.65513 52.6207 8.51592 52.5071 8.41744C52.3954 8.31895 52.2363 8.26971 52.0298 8.26971C51.812 8.26971 51.6387 8.318 51.5099 8.4146C51.3812 8.50929 51.2959 8.62861 51.2543 8.77255L50.1349 8.68164C50.1918 8.41649 50.3035 8.18732 50.4702 7.99414C50.6368 7.79906 50.8518 7.64944 51.1151 7.54528C51.3802 7.43922 51.687 7.38619 52.0355 7.38619C52.2779 7.38619 52.5099 7.4146 52.7315 7.47141C52.955 7.52823 53.1529 7.6163 53.3253 7.73562C53.4995 7.85494 53.6368 8.00835 53.7372 8.19585C53.8376 8.38145 53.8878 8.60399 53.8878 8.86346V11.8066H52.7401V11.2015H52.706C52.6359 11.3379 52.5421 11.4582 52.4247 11.5623C52.3073 11.6646 52.1662 11.7451 52.0014 11.8038C51.8366 11.8606 51.6463 11.889 51.4304 11.889ZM51.777 11.0538C51.955 11.0538 52.1122 11.0188 52.2486 10.9487C52.3849 10.8767 52.492 10.7801 52.5696 10.6589C52.6473 10.5377 52.6861 10.4004 52.6861 10.247V9.78391C52.6482 9.80853 52.5961 9.83126 52.5298 9.8521C52.4654 9.87103 52.3925 9.88903 52.3111 9.90607C52.2296 9.92122 52.1482 9.93543 52.0668 9.94869C51.9853 9.96005 51.9115 9.97047 51.8452 9.97994C51.7031 10.0008 51.5791 10.0339 51.473 10.0794C51.367 10.1248 51.2846 10.1864 51.2259 10.264C51.1671 10.3398 51.1378 10.4345 51.1378 10.5481C51.1378 10.7129 51.1974 10.8388 51.3168 10.926C51.438 11.0112 51.5914 11.0538 51.777 11.0538ZM58.6136 7.443V11.8066H57.4659V7.443H58.6136ZM58.054 9.35778V10.3123C57.9612 10.354 57.8456 10.3938 57.7074 10.4316C57.5691 10.4676 57.4242 10.497 57.2727 10.5197C57.1212 10.5424 56.9792 10.5538 56.8466 10.5538C56.2197 10.5538 55.7263 10.425 55.3665 10.1674C55.0066 9.90797 54.8267 9.49414 54.8267 8.92596V7.43732H55.9688V8.92596C55.9688 9.09452 55.9972 9.22804 56.054 9.32653C56.1127 9.42501 56.2055 9.49603 56.3324 9.5396C56.4612 9.58126 56.6326 9.6021 56.8466 9.6021C57.0455 9.6021 57.2405 9.58126 57.4318 9.5396C57.6231 9.49793 57.8305 9.43732 58.054 9.35778ZM60.7976 11.889C60.5192 11.889 60.2711 11.8407 60.0533 11.7441C59.8355 11.6457 59.6631 11.5008 59.5362 11.3095C59.4112 11.1163 59.3487 10.8758 59.3487 10.5879C59.3487 10.3455 59.3932 10.1419 59.4822 9.9771C59.5713 9.81232 59.6925 9.67975 59.8459 9.57937C59.9993 9.47899 60.1735 9.40323 60.3686 9.3521C60.5656 9.30096 60.772 9.26497 60.9879 9.24414C61.2417 9.21763 61.4463 9.193 61.6016 9.17028C61.7569 9.14566 61.8696 9.10967 61.9396 9.06232C62.0097 9.01497 62.0447 8.9449 62.0447 8.8521V8.83505C62.0447 8.65513 61.9879 8.51592 61.8743 8.41744C61.7625 8.31895 61.6035 8.26971 61.397 8.26971C61.1792 8.26971 61.0059 8.318 60.8771 8.4146C60.7483 8.50929 60.6631 8.62861 60.6214 8.77255L59.5021 8.68164C59.5589 8.41649 59.6707 8.18732 59.8374 7.99414C60.004 7.79906 60.219 7.64944 60.4822 7.54528C60.7474 7.43922 61.0542 7.38619 61.4027 7.38619C61.6451 7.38619 61.8771 7.4146 62.0987 7.47141C62.3222 7.52823 62.5201 7.6163 62.6925 7.73562C62.8667 7.85494 63.004 8.00835 63.1044 8.19585C63.2048 8.38145 63.255 8.60399 63.255 8.86346V11.8066H62.1072V11.2015H62.0732C62.0031 11.3379 61.9093 11.4582 61.7919 11.5623C61.6745 11.6646 61.5334 11.7451 61.3686 11.8038C61.2038 11.8606 61.0135 11.889 60.7976 11.889ZM61.1442 11.0538C61.3222 11.0538 61.4794 11.0188 61.6158 10.9487C61.7521 10.8767 61.8591 10.7801 61.9368 10.6589C62.0144 10.5377 62.0533 10.4004 62.0533 10.247V9.78391C62.0154 9.80853 61.9633 9.83126 61.897 9.8521C61.8326 9.87103 61.7597 9.88903 61.6783 9.90607C61.5968 9.92122 61.5154 9.93543 61.4339 9.94869C61.3525 9.96005 61.2786 9.97047 61.2124 9.97994C61.0703 10.0008 60.9463 10.0339 60.8402 10.0794C60.7341 10.1248 60.6518 10.1864 60.593 10.264C60.5343 10.3398 60.505 10.4345 60.505 10.5481C60.505 10.7129 60.5646 10.8388 60.6839 10.926C60.8052 11.0112 60.9586 11.0538 61.1442 11.0538ZM63.7557 8.39471V7.443H67.7102V8.39471H66.304V11.8066H65.1506V8.39471H63.7557ZM69.2024 8.78391H70.5064C71.084 8.78391 71.5348 8.92217 71.8587 9.19869C72.1825 9.47331 72.3445 9.84073 72.3445 10.301C72.3445 10.6002 72.2715 10.8635 72.1257 11.0907C71.9799 11.3161 71.7696 11.4922 71.495 11.6191C71.2204 11.7441 70.8909 11.8066 70.5064 11.8066H68.4439V7.443H69.6001V10.8549H70.5064C70.709 10.8549 70.8757 10.8038 71.0064 10.7015C71.1371 10.5993 71.2034 10.4686 71.2053 10.3095C71.2034 10.1409 71.1371 10.0036 71.0064 9.89755C70.8757 9.7896 70.709 9.73562 70.5064 9.73562H69.2024V8.78391ZM74.9986 11.8066V7.443H76.8594C77.3973 7.443 77.8224 7.54528 78.1349 7.74982C78.4474 7.95437 78.6037 8.24509 78.6037 8.62198C78.6037 8.85872 78.5156 9.05569 78.3395 9.21289C78.1634 9.37009 77.919 9.47615 77.6065 9.53107C77.8679 9.55001 78.0904 9.60967 78.2741 9.71005C78.4598 9.80853 78.6009 9.93638 78.6974 10.0936C78.7959 10.2508 78.8452 10.425 78.8452 10.6163C78.8452 10.8644 78.7789 11.0775 78.6463 11.2555C78.5156 11.4335 78.3234 11.5699 78.0696 11.6646C77.8177 11.7593 77.5099 11.8066 77.1463 11.8066H74.9986ZM76.1264 10.9004H77.1463C77.3149 10.9004 77.4465 10.8606 77.5412 10.7811C77.6378 10.6996 77.6861 10.5888 77.6861 10.4487C77.6861 10.2934 77.6378 10.1712 77.5412 10.0822C77.4465 9.99319 77.3149 9.94869 77.1463 9.94869H76.1264V10.9004ZM76.1264 9.23846H76.8849C77.0062 9.23846 77.1094 9.22141 77.1946 9.18732C77.2817 9.15134 77.348 9.1002 77.3935 9.03391C77.4408 8.96763 77.4645 8.88903 77.4645 8.79812C77.4645 8.66365 77.4105 8.55853 77.3026 8.48278C77.1946 8.40702 77.0469 8.36914 76.8594 8.36914H76.1264V9.23846Z" fill="white"/>
</svg>
