<svg width="125" height="36" viewBox="0 0 125 36" fill="none" xmlns="http://www.w3.org/2000/svg">
<path d="M120.37 36H4.62963C2.08449 36 0 33.9739 0 31.5V4.5C0 2.02613 2.08449 1.90258e-06 4.62963 1.90258e-06H120.37C122.916 1.90258e-06 125 2.02613 125 4.5V31.5C125 33.9739 122.916 36 120.37 36Z" fill="#131313"/>
<path d="M120.37 0.721125C122.514 0.721125 124.258 2.4165 124.258 4.5V31.5C124.258 33.5835 122.514 35.2789 120.37 35.2789H4.62963C2.48611 35.2789 0.741898 33.5835 0.741898 31.5V4.5C0.741898 2.4165 2.48611 0.721125 4.62963 0.721125H120.37ZM120.37 1.90258e-06H4.62963C2.08449 1.90258e-06 0 2.02613 0 4.5V31.5C0 33.9739 2.08449 36 4.62963 36H120.37C122.916 36 125 33.9739 125 31.5V4.5C125 2.02613 122.916 1.90258e-06 120.37 1.90258e-06Z" fill="white"/>
<path d="M64.0294 20.2688C61.8546 20.2688 60.078 21.8776 60.078 24.0972C60.078 26.2988 61.8546 27.9245 64.0294 27.9245C66.2088 27.9245 67.9854 26.2988 67.9854 24.0972C67.9854 21.8776 66.2088 20.2688 64.0294 20.2688ZM64.0294 26.417C62.8361 26.417 61.8095 25.4596 61.8095 24.0972C61.8095 22.7168 62.8361 21.7763 64.0294 21.7763C65.2226 21.7763 66.2539 22.7168 66.2539 24.0972C66.2539 25.4596 65.2226 26.417 64.0294 26.417ZM55.4078 20.2688C53.2284 20.2688 51.4564 21.8776 51.4564 24.0972C51.4564 26.2988 53.2284 27.9245 55.4078 27.9245C57.5861 27.9245 59.3592 26.2988 59.3592 24.0972C59.3592 21.8776 57.5861 20.2688 55.4078 20.2688ZM55.4078 26.417C54.2134 26.417 53.1833 25.4596 53.1833 24.0972C53.1833 22.7168 54.2134 21.7763 55.4078 21.7763C56.6011 21.7763 57.6277 22.7168 57.6277 24.0972C57.6277 25.4596 56.6011 26.417 55.4078 26.417ZM45.1486 21.4422V23.069H49.1451C49.0282 23.978 48.7157 24.6462 48.2365 25.112C47.6532 25.6745 46.7446 26.2988 45.1486 26.2988C42.6891 26.2988 40.7632 24.3695 40.7632 21.9788C40.7632 19.5882 42.6891 17.6588 45.1486 17.6588C46.4784 17.6588 47.446 18.164 48.1602 18.8187L49.3396 17.6723C48.3407 16.7453 47.012 16.0332 45.1486 16.0332C41.7759 16.0332 38.9414 18.7006 38.9414 21.9788C38.9414 25.2571 41.7759 27.9245 45.1486 27.9245C46.9715 27.9245 48.3407 27.344 49.4171 26.255C50.5201 25.1828 50.8639 23.6753 50.8639 22.4581C50.8639 22.0801 50.8314 21.7325 50.7736 21.4422H45.1486ZM87.1 22.7033C86.7747 21.8472 85.7712 20.2688 83.7273 20.2688C81.7018 20.2688 80.0155 21.8202 80.0155 24.0972C80.0155 26.2415 81.6844 27.9245 83.9217 27.9245C85.7307 27.9245 86.7747 26.8523 87.2041 26.228L85.8615 25.3583C85.4136 25.9951 84.8037 26.417 83.9217 26.417C83.0456 26.417 82.4171 26.0266 82.0143 25.2571L87.2817 23.1387L87.1 22.7033ZM81.7296 23.978C81.6844 22.502 82.909 21.746 83.7863 21.746C84.4738 21.746 85.0571 22.0801 85.2516 22.5582L81.7296 23.978ZM77.4483 27.6916H79.1798V16.4416H77.4483V27.6916ZM74.6127 21.1216H74.5548C74.1659 20.6738 73.424 20.2688 72.4842 20.2688C70.512 20.2688 68.7088 21.9518 68.7088 24.1096C68.7088 26.255 70.512 27.9245 72.4842 27.9245C73.424 27.9245 74.1659 27.5161 74.5548 27.0548H74.6127V27.6038C74.6127 29.0675 73.8083 29.8538 72.5108 29.8538C71.453 29.8538 70.7967 29.1113 70.5259 28.487L69.0201 29.0978C69.4541 30.1126 70.6034 31.3613 72.5108 31.3613C74.5409 31.3613 76.2539 30.2003 76.2539 27.3755V20.5017H74.6127V21.1216ZM72.6324 26.417C71.4391 26.417 70.4402 25.4461 70.4402 24.1096C70.4402 22.7607 71.4391 21.7763 72.6324 21.7763C73.8083 21.7763 74.7354 22.7607 74.7354 24.1096C74.7354 25.4461 73.8083 26.417 72.6324 26.417ZM95.2064 16.4416H91.0652V27.6916H92.7921V23.429H95.2064C97.1243 23.429 99.005 22.0801 99.005 19.9347C99.005 17.7905 97.1196 16.4416 95.2064 16.4416ZM95.2516 21.8641H92.7921V18.0065H95.2516C96.5409 18.0065 97.277 19.0471 97.277 19.9347C97.277 20.8055 96.5409 21.8641 95.2516 21.8641ZM105.926 20.2475C104.679 20.2475 103.381 20.783 102.848 21.9698L104.38 22.5942C104.71 21.9698 105.316 21.7673 105.958 21.7673C106.853 21.7673 107.762 22.2905 107.776 23.2141V23.3322C107.463 23.1567 106.794 22.8968 105.971 22.8968C104.321 22.8968 102.639 23.78 102.639 25.4281C102.639 26.9356 103.991 27.9065 105.511 27.9065C106.673 27.9065 107.314 27.3968 107.717 26.804H107.776V27.6736H109.444V23.3581C109.444 21.3635 107.911 20.2475 105.926 20.2475ZM105.718 26.4125C105.153 26.4125 104.366 26.1402 104.366 25.4596C104.366 24.5888 105.348 24.2547 106.197 24.2547C106.958 24.2547 107.314 24.4178 107.776 24.6327C107.64 25.6745 106.718 26.4125 105.718 26.4125ZM115.52 20.4938L113.535 25.3707H113.476L111.424 20.4938H109.562L112.645 27.3091L110.886 31.1015H112.69L117.441 20.4938H115.52ZM99.9541 27.6916H101.686V16.4416H99.9541V27.6916Z" fill="white"/>
<path d="M9.65987 6.78575C9.38788 7.0625 9.23047 7.49337 9.23047 8.05137V27.9549C9.23047 28.5129 9.38788 28.9437 9.65987 29.2205L9.727 29.2812L21.2015 18.1325V17.8693L9.727 6.7205L9.65987 6.78575Z" fill="url(#paint0_linear_1105_15481)"/>
<path d="M25.0237 21.8496L21.2031 18.1315V17.8682L25.0284 14.1501L25.114 14.1985L29.6441 16.7039C30.9369 17.4149 30.9369 18.5849 29.6441 19.3004L25.114 21.8012L25.0237 21.8496Z" fill="url(#paint1_linear_1105_15481)"/>
<path d="M25.1127 21.8012L21.2018 17.9999L9.66016 29.2195C10.0896 29.6582 10.7898 29.7111 11.5861 29.2724L25.1127 21.8012Z" fill="url(#paint2_linear_1105_15481)"/>
<path d="M25.1127 14.1986L11.5861 6.7275C10.7898 6.29325 10.0896 6.34613 9.66016 6.78488L21.2018 18L25.1127 14.1986Z" fill="url(#paint3_linear_1105_15481)"/>
<path d="M44.6392 8.49805H43.3949C43.3722 8.33706 43.3258 8.19407 43.2557 8.06907C43.1856 7.94218 43.0956 7.83422 42.9858 7.74521C42.8759 7.65619 42.7491 7.58801 42.6051 7.54066C42.4631 7.49331 42.3087 7.46964 42.142 7.46964C41.8409 7.46964 41.5786 7.54445 41.3551 7.69407C41.1316 7.8418 40.9583 8.05771 40.8352 8.3418C40.7121 8.62399 40.6506 8.9668 40.6506 9.37021C40.6506 9.78498 40.7121 10.1335 40.8352 10.4157C40.9602 10.6979 41.1345 10.9109 41.358 11.0549C41.5814 11.1988 41.84 11.2708 42.1335 11.2708C42.2983 11.2708 42.4508 11.249 42.5909 11.2054C42.733 11.1619 42.8589 11.0984 42.9688 11.0151C43.0786 10.9299 43.1695 10.8266 43.2415 10.7054C43.3153 10.5842 43.3665 10.446 43.3949 10.2907L44.6392 10.2963C44.607 10.5634 44.5265 10.821 44.3977 11.0691C44.2708 11.3153 44.0994 11.5359 43.8835 11.731C43.6695 11.9242 43.4138 12.0776 43.1165 12.1912C42.821 12.303 42.4867 12.3588 42.1136 12.3588C41.5947 12.3588 41.1307 12.2414 40.7216 12.0066C40.3144 11.7717 39.9924 11.4318 39.7557 10.9867C39.5208 10.5416 39.4034 10.0028 39.4034 9.37021C39.4034 8.73574 39.5227 8.19596 39.7614 7.75089C40 7.30581 40.3239 6.9668 40.733 6.73384C41.142 6.49899 41.6023 6.38157 42.1136 6.38157C42.4508 6.38157 42.7633 6.42892 43.0511 6.52361C43.3409 6.61831 43.5975 6.75657 43.821 6.93839C44.0445 7.11831 44.2263 7.33896 44.3665 7.60032C44.5085 7.86168 44.5994 8.16093 44.6392 8.49805ZM45.4986 12.2793V7.91566H46.7088V9.60884H47.0497L48.2372 7.91566H49.6577L48.1151 10.0804L49.6747 12.2793H48.2372L47.1605 10.731H46.7088V12.2793H45.4986ZM51.4304 12.3617C51.152 12.3617 50.9039 12.3134 50.6861 12.2168C50.4683 12.1183 50.2959 11.9734 50.169 11.7821C50.044 11.589 49.9815 11.3484 49.9815 11.0605C49.9815 10.8181 50.026 10.6145 50.1151 10.4498C50.2041 10.285 50.3253 10.1524 50.4787 10.052C50.6321 9.95165 50.8063 9.87589 51.0014 9.82475C51.1984 9.77362 51.4048 9.73763 51.6207 9.7168C51.8745 9.69028 52.0791 9.66566 52.2344 9.64293C52.3897 9.61831 52.5024 9.58233 52.5724 9.53498C52.6425 9.48763 52.6776 9.41755 52.6776 9.32475V9.30771C52.6776 9.12778 52.6207 8.98858 52.5071 8.89009C52.3954 8.79161 52.2363 8.74236 52.0298 8.74236C51.812 8.74236 51.6387 8.79066 51.5099 8.88725C51.3812 8.98195 51.2959 9.10127 51.2543 9.24521L50.1349 9.1543C50.1918 8.88915 50.3035 8.65998 50.4702 8.4668C50.6368 8.27172 50.8518 8.1221 51.1151 8.01793C51.3802 7.91187 51.687 7.85884 52.0355 7.85884C52.2779 7.85884 52.5099 7.88725 52.7315 7.94407C52.955 8.00089 53.1529 8.08896 53.3253 8.20827C53.4995 8.32759 53.6368 8.481 53.7372 8.6685C53.8376 8.85411 53.8878 9.07665 53.8878 9.33611V12.2793H52.7401V11.6742H52.706C52.6359 11.8105 52.5421 11.9308 52.4247 12.035C52.3073 12.1373 52.1662 12.2177 52.0014 12.2765C51.8366 12.3333 51.6463 12.3617 51.4304 12.3617ZM51.777 11.5265C51.955 11.5265 52.1122 11.4914 52.2486 11.4213C52.3849 11.3494 52.492 11.2528 52.5696 11.1316C52.6473 11.0104 52.6861 10.873 52.6861 10.7196V10.2566C52.6482 10.2812 52.5961 10.3039 52.5298 10.3248C52.4654 10.3437 52.3925 10.3617 52.3111 10.3787C52.2296 10.3939 52.1482 10.4081 52.0668 10.4213C51.9853 10.4327 51.9115 10.4431 51.8452 10.4526C51.7031 10.4734 51.5791 10.5066 51.473 10.552C51.367 10.5975 51.2846 10.659 51.2259 10.7367C51.1671 10.8124 51.1378 10.9071 51.1378 11.0208C51.1378 11.1855 51.1974 11.3115 51.3168 11.3986C51.438 11.4838 51.5914 11.5265 51.777 11.5265ZM58.6136 7.91566V12.2793H57.4659V7.91566H58.6136ZM58.054 9.83043V10.785C57.9612 10.8266 57.8456 10.8664 57.7074 10.9043C57.5691 10.9403 57.4242 10.9696 57.2727 10.9924C57.1212 11.0151 56.9792 11.0265 56.8466 11.0265C56.2197 11.0265 55.7263 10.8977 55.3665 10.6401C55.0066 10.3806 54.8267 9.9668 54.8267 9.39861V7.90998H55.9688V9.39861C55.9688 9.56718 55.9972 9.7007 56.054 9.79918C56.1127 9.89767 56.2055 9.96869 56.3324 10.0123C56.4612 10.0539 56.6326 10.0748 56.8466 10.0748C57.0455 10.0748 57.2405 10.0539 57.4318 10.0123C57.6231 9.97058 57.8305 9.90998 58.054 9.83043ZM60.7976 12.3617C60.5192 12.3617 60.2711 12.3134 60.0533 12.2168C59.8355 12.1183 59.6631 11.9734 59.5362 11.7821C59.4112 11.589 59.3487 11.3484 59.3487 11.0605C59.3487 10.8181 59.3932 10.6145 59.4822 10.4498C59.5713 10.285 59.6925 10.1524 59.8459 10.052C59.9993 9.95165 60.1735 9.87589 60.3686 9.82475C60.5656 9.77362 60.772 9.73763 60.9879 9.7168C61.2417 9.69028 61.4463 9.66566 61.6016 9.64293C61.7569 9.61831 61.8696 9.58233 61.9396 9.53498C62.0097 9.48763 62.0447 9.41755 62.0447 9.32475V9.30771C62.0447 9.12778 61.9879 8.98858 61.8743 8.89009C61.7625 8.79161 61.6035 8.74236 61.397 8.74236C61.1792 8.74236 61.0059 8.79066 60.8771 8.88725C60.7483 8.98195 60.6631 9.10127 60.6214 9.24521L59.5021 9.1543C59.5589 8.88915 59.6707 8.65998 59.8374 8.4668C60.004 8.27172 60.219 8.1221 60.4822 8.01793C60.7474 7.91187 61.0542 7.85884 61.4027 7.85884C61.6451 7.85884 61.8771 7.88725 62.0987 7.94407C62.3222 8.00089 62.5201 8.08896 62.6925 8.20827C62.8667 8.32759 63.004 8.481 63.1044 8.6685C63.2048 8.85411 63.255 9.07665 63.255 9.33611V12.2793H62.1072V11.6742H62.0732C62.0031 11.8105 61.9093 11.9308 61.7919 12.035C61.6745 12.1373 61.5334 12.2177 61.3686 12.2765C61.2038 12.3333 61.0135 12.3617 60.7976 12.3617ZM61.1442 11.5265C61.3222 11.5265 61.4794 11.4914 61.6158 11.4213C61.7521 11.3494 61.8591 11.2528 61.9368 11.1316C62.0144 11.0104 62.0533 10.873 62.0533 10.7196V10.2566C62.0154 10.2812 61.9633 10.3039 61.897 10.3248C61.8326 10.3437 61.7597 10.3617 61.6783 10.3787C61.5968 10.3939 61.5154 10.4081 61.4339 10.4213C61.3525 10.4327 61.2786 10.4431 61.2124 10.4526C61.0703 10.4734 60.9463 10.5066 60.8402 10.552C60.7341 10.5975 60.6518 10.659 60.593 10.7367C60.5343 10.8124 60.505 10.9071 60.505 11.0208C60.505 11.1855 60.5646 11.3115 60.6839 11.3986C60.8052 11.4838 60.9586 11.5265 61.1442 11.5265ZM63.7557 8.86736V7.91566H67.7102V8.86736H66.304V12.2793H65.1506V8.86736H63.7557ZM69.2024 9.25657H70.5064C71.084 9.25657 71.5348 9.39483 71.8587 9.67134C72.1825 9.94596 72.3445 10.3134 72.3445 10.7736C72.3445 11.0729 72.2715 11.3361 72.1257 11.5634C71.9799 11.7888 71.7696 11.9649 71.495 12.0918C71.2204 12.2168 70.8909 12.2793 70.5064 12.2793H68.4439V7.91566H69.6001V11.3276H70.5064C70.709 11.3276 70.8757 11.2765 71.0064 11.1742C71.1371 11.0719 71.2034 10.9412 71.2053 10.7821C71.2034 10.6136 71.1371 10.4763 71.0064 10.3702C70.8757 10.2623 70.709 10.2083 70.5064 10.2083H69.2024V9.25657ZM74.9986 12.2793V7.91566H76.8594C77.3973 7.91566 77.8224 8.01793 78.1349 8.22248C78.4474 8.42702 78.6037 8.71774 78.6037 9.09464C78.6037 9.33138 78.5156 9.52835 78.3395 9.68555C78.1634 9.84274 77.919 9.9488 77.6065 10.0037C77.8679 10.0227 78.0904 10.0823 78.2741 10.1827C78.4598 10.2812 78.6009 10.409 78.6974 10.5662C78.7959 10.7234 78.8452 10.8977 78.8452 11.089C78.8452 11.3371 78.7789 11.5501 78.6463 11.7282C78.5156 11.9062 78.3234 12.0426 78.0696 12.1373C77.8177 12.2319 77.5099 12.2793 77.1463 12.2793H74.9986ZM76.1264 11.373H77.1463C77.3149 11.373 77.4465 11.3333 77.5412 11.2537C77.6378 11.1723 77.6861 11.0615 77.6861 10.9213C77.6861 10.766 77.6378 10.6439 77.5412 10.5549C77.4465 10.4658 77.3149 10.4213 77.1463 10.4213H76.1264V11.373ZM76.1264 9.71111H76.8849C77.0062 9.71111 77.1094 9.69407 77.1946 9.65998C77.2817 9.62399 77.348 9.57286 77.3935 9.50657C77.4408 9.44028 77.4645 9.36168 77.4645 9.27077C77.4645 9.1363 77.4105 9.03119 77.3026 8.95543C77.1946 8.87968 77.0469 8.8418 76.8594 8.8418H76.1264V9.71111Z" fill="white"/>
<defs>
<linearGradient id="paint0_linear_1105_15481" x1="20.1827" y1="28.1621" x2="5.08466" y2="12.6292" gradientUnits="userSpaceOnUse">
<stop stop-color="#00A0FF"/>
<stop offset="0.0066" stop-color="#00A1FF"/>
<stop offset="0.2601" stop-color="#00BEFF"/>
<stop offset="0.5122" stop-color="#00D2FF"/>
<stop offset="0.7604" stop-color="#00DFFF"/>
<stop offset="1" stop-color="#00E3FF"/>
</linearGradient>
<linearGradient id="paint1_linear_1105_15481" x1="31.3276" y1="17.9986" x2="8.92304" y2="17.9986" gradientUnits="userSpaceOnUse">
<stop stop-color="#FFE000"/>
<stop offset="0.4087" stop-color="#FFBD00"/>
<stop offset="0.7754" stop-color="#FFA500"/>
<stop offset="1" stop-color="#FF9C00"/>
</linearGradient>
<linearGradient id="paint2_linear_1105_15481" x1="22.9861" y1="15.9334" x2="2.51187" y2="-5.13064" gradientUnits="userSpaceOnUse">
<stop stop-color="#FF3A44"/>
<stop offset="1" stop-color="#C31162"/>
</linearGradient>
<linearGradient id="paint3_linear_1105_15481" x1="6.75488" y1="35.8414" x2="15.8975" y2="26.4355" gradientUnits="userSpaceOnUse">
<stop stop-color="#32A071"/>
<stop offset="0.0685" stop-color="#2DA771"/>
<stop offset="0.4762" stop-color="#15CF74"/>
<stop offset="0.8009" stop-color="#06E775"/>
<stop offset="1" stop-color="#00F076"/>
</linearGradient>
</defs>
</svg>
