<svg width="207" height="144" viewBox="0 0 207 144" fill="none" xmlns="http://www.w3.org/2000/svg">
<g id="Group 626006">
<path id="Vector" d="M138.521 132.843L139.149 131.436C139.323 131.046 139.495 130.661 139.666 130.279C143.454 121.806 146.351 115.325 147.747 106.151L147.747 106.15C148.906 98.5843 148.263 93.4149 147.207 89.9374C146.264 86.8295 144.982 85.0303 144.238 83.9865C144.152 83.8652 144.073 83.7541 144.002 83.6523C144.002 83.652 144.002 83.6518 144.002 83.6516L144.824 83.0821C142.735 80.079 141.593 77.6618 141.617 74.0483L138.521 132.843ZM138.521 132.843H140.062H176.519M138.521 132.843H176.519M167.498 39.3533C167.198 38.9541 166.831 38.5743 166.38 38.2231L166.379 38.2219C165.179 37.2903 163.486 37.4086 162.235 37.9633C160.962 38.528 159.72 39.7367 159.737 41.4616L167.498 39.3533ZM167.498 39.3533C167.577 38.3911 168.044 37.6335 168.799 37.1917C169.576 36.7373 170.517 36.6993 171.344 36.8815C172.185 37.0668 173.085 37.5294 173.757 38.244L173.173 26.5608L173.173 26.5598C172.81 19.1476 166.775 13.2943 159.388 13.2032L159.387 13.2032L84.0071 12.1695M167.498 39.3533L84.0071 12.1695M176.519 132.843C175.407 135.058 173.83 137.383 171.941 139.252C169.64 141.528 166.991 143.021 164.243 142.999L164.241 142.999L17.333 142.169C9.76353 142.124 3.5915 136.041 3.40992 128.423L2.80259 101.762L2.80257 101.761L1.29633 38.2317L1.29631 38.2311L1.00479 25.6332L1.00473 25.6308C0.80057 17.6516 7.24141 11.135 15.1764 11.2255C15.1768 11.2255 15.1772 11.2256 15.1776 11.2256L59.1678 11.8288C56.3213 12.5442 53.6161 13.5006 51.1741 14.6709L51.1683 14.6737C49.9791 15.2532 49.481 16.4277 49.4426 17.4899C48.9394 19.4927 48.5216 21.4858 48.1156 23.4226C47.9936 24.0049 47.8726 24.5821 47.7506 25.153C47.2124 27.6728 46.6531 30.0842 45.8926 32.3727C44.3802 36.9238 42.0815 40.9605 37.6054 44.2353L37.6036 44.2366C37.2218 44.5172 36.8341 44.7936 36.4468 45.0697C34.9527 46.1346 33.4649 47.1951 32.3493 48.475C30.8652 50.1775 30.0021 52.281 30.2011 55.3371L176.519 132.843ZM84.0071 12.1695C85.6083 12.6881 87.1427 13.3214 88.5846 14.0764L88.5857 14.077C93.259 16.5314 95.289 20.826 96.2458 25.4762C96.9171 28.7389 97.082 32.3246 97.2361 35.6768C97.2986 37.0343 97.3592 38.3534 97.451 39.5974L97.4511 39.5988C97.5596 41.0983 97.7388 42.8875 97.9382 44.8781C98.5499 50.9838 99.3513 58.984 98.882 66.3295C98.5701 71.2131 97.6945 75.9254 95.7689 79.687C93.8597 83.4166 90.9045 86.2278 86.4957 87.2966C84.2814 89.1973 82.4223 91.2315 81.563 93.8224L81.562 93.8254C81.2864 94.6474 81.1884 95.4796 81.0771 96.4239C81.0477 96.6726 81.0175 96.9291 80.9829 97.1952C80.824 98.4167 80.5723 99.7717 79.7572 101.051C76.8454 105.645 71.7389 106.385 67.1402 105.754C61.5017 104.98 55.9822 103.007 51.8658 99.6108C47.7198 96.1905 45.0277 91.3461 45.0915 84.9772C45.0915 84.9769 45.0915 84.9767 45.0915 84.9765L46.0915 84.9865C46.1002 83.7754 46.3161 82.331 46.5418 80.822L84.0071 12.1695ZM140.442 68.4205C139.92 70.2718 140.082 72.2413 140.617 74.1842L159.737 41.4636C159.753 43.4202 159.78 45.3707 159.807 47.318C159.841 49.7411 159.874 52.1592 159.887 54.5776C158.065 52.7023 156.034 51.3217 153.712 51.2246C150.787 51.1023 147.875 53.0185 144.796 57.2191C144.302 57.8894 144.132 58.7038 144.139 59.4598C144.146 60.2214 144.33 60.9989 144.632 61.6807C144.848 62.1677 145.139 62.641 145.503 63.0343C145.095 63.0961 144.697 63.2327 144.335 63.4628L144.332 63.4651C142.233 64.8135 140.984 66.5002 140.442 68.4205ZM149.539 66.7683C149.971 65.4763 149.33 64.4452 148.52 63.821C149.203 63.5659 149.9 63.1405 150.517 62.7646C150.553 62.743 150.588 62.7215 150.623 62.7003C151.415 62.218 152.139 61.7864 152.851 61.5456C153.538 61.3136 154.115 61.2933 154.655 61.5326C155.186 61.7682 155.835 62.3235 156.528 63.5579C156.512 64.9054 156.37 66.9884 156 68.9562C155.804 70.0037 155.548 70.9896 155.226 71.8031C154.897 72.6367 154.538 73.1879 154.193 73.4755L154.191 73.477C153.482 74.0708 152.817 74.2033 152.241 74.1019C151.636 73.9954 151 73.6061 150.448 72.9244C149.339 71.5556 148.743 69.2028 149.539 66.7683Z" fill="#DBC9F2" stroke="#131313" stroke-width="2"/>
<path id="Vector_2" d="M193.136 18.7222C190.222 15.6524 186.964 13.0247 183.707 10.4216C182.743 9.63576 181.779 11.4039 182.743 12.1652C185.886 14.6701 189.006 17.1996 191.806 20.1711C192.677 21.0552 194.008 19.6308 193.136 18.7222Z" fill="#131313"/>
<path id="Vector_3" d="M192.595 9.65783C189.281 12.9692 185.943 16.3045 182.629 19.6158C181.74 20.5036 183.133 21.9193 184.022 21.0075L193.988 11.0495C194.876 10.1617 193.483 8.77001 192.595 9.65783Z" fill="#131313"/>
<g id="Vector_4">
<path d="M190.253 134.627C190.204 134.627 190.18 134.627 190.131 134.627L43.0757 133.804C34.3696 133.731 27.3658 126.903 27.1469 118.235L24.7151 16.3199C24.6178 11.9615 26.2471 7.84518 29.3356 4.74585C32.3755 1.69494 36.4124 0 40.7411 0C40.8141 0 40.8627 0 40.9357 0L185.292 1.96129C193.706 2.05814 200.637 8.71686 201.05 17.0947L206.182 117.896C206.401 122.303 204.844 126.516 201.756 129.712C198.765 132.884 194.655 134.627 190.253 134.627ZM40.7654 1.9855C36.9717 1.9855 33.4455 3.46253 30.7947 6.12602C28.0954 8.83793 26.6605 12.4457 26.7578 16.2715L29.1897 118.186C29.3842 125.765 35.4883 131.77 43.1244 131.818L190.18 132.642C190.204 132.642 190.253 132.642 190.277 132.642C194.12 132.642 197.719 131.116 200.37 128.332C203.069 125.523 204.431 121.867 204.236 117.993L199.105 17.1916C198.74 9.85491 192.661 4.04366 185.292 3.9468L40.9357 1.9855C40.887 1.9855 40.8141 1.9855 40.7654 1.9855Z" fill="#131313"/>
<path d="M40.7654 1.9855C36.9717 1.9855 33.4455 3.46253 30.7947 6.12602C28.0954 8.83793 26.6605 12.4457 26.7578 16.2715L29.1897 118.186C29.3842 125.765 35.4883 131.77 43.1244 131.818L190.18 132.642H190.277C194.12 132.642 197.719 131.116 200.37 128.332C203.069 125.523 204.431 121.867 204.236 117.993L199.105 17.1916C198.74 9.85491 192.661 4.04366 185.292 3.9468L40.9357 1.9855H40.7654Z" fill="white"/>
</g>
<g id="Woman">
<path id="Vector_5" d="M78.5574 57.7521C78.0474 57.7521 77.5861 57.3394 77.5618 56.8296C77.5375 56.2713 77.9503 55.8101 78.4845 55.7615C80.2085 55.6402 81.5926 55.1061 82.1996 54.305C82.5396 53.8681 82.6124 53.3341 82.4667 52.7029C82.1511 51.295 78.7759 50.6881 77.319 50.6153C76.8091 50.591 76.3963 50.1783 76.372 49.6928L75.8135 41.1724C75.7892 40.6141 76.202 40.1528 76.7362 40.1043C77.2704 40.0557 77.7561 40.4927 77.8046 41.0267L78.2903 48.6976C80.0871 48.8918 83.8022 49.6443 84.4093 52.2417C84.7006 53.4554 84.4821 54.5721 83.8022 55.4945C82.8309 56.8054 80.9855 57.6064 78.6302 57.7763C78.6059 57.7521 78.5816 57.7521 78.5574 57.7521Z" fill="#131313"/>
<path id="Vector_6" d="M82.7307 39.109L82.8521 40.9782C82.9978 43.3814 86.7372 43.1386 86.5672 40.7354L86.4458 38.8663C86.3002 36.4631 82.585 36.7058 82.7307 39.109Z" fill="#131313"/>
<path id="Vector_7" d="M60.3206 40.5661L60.442 42.4352C60.5877 44.8384 64.3271 44.5957 64.1571 42.1925L64.0357 40.3233C63.89 37.9201 60.1749 38.1629 60.3206 40.5661Z" fill="#131313"/>
<path id="Vector_8" d="M60.44 31.5116C58.9588 31.9242 57.5504 32.434 56.1664 33.1137C55.098 33.6478 56.1421 35.2013 57.2105 34.6673C58.4246 34.0604 59.7358 33.6478 61.047 33.2594C62.1883 32.9438 61.5812 31.196 60.44 31.5116Z" fill="#131313"/>
<path id="Vector_9" d="M86.3259 29.521C85.3303 28.9384 84.2376 28.55 83.2906 27.8946C82.3194 27.2149 81.081 28.6228 82.0523 29.3025C83.145 30.055 84.3348 30.5405 85.476 31.196C86.5201 31.8028 87.3457 30.1279 86.3259 29.521Z" fill="#131313"/>
<path id="Vector_10" d="M67.5306 66.8558C66.1223 66.7344 64.2283 66.2004 64.034 64.574C63.8883 63.3845 62.0186 63.5059 62.1643 64.6953C62.48 67.2199 64.811 68.4822 67.1421 68.7007C68.3319 68.7735 68.7204 66.9529 67.5306 66.8558Z" fill="#131313"/>
<path id="Vector_11" d="M122.261 133.733C121.8 133.733 121.387 133.418 121.29 132.932C116.749 111.449 92.1031 96.8597 79.938 93.8253C79.4038 93.6797 79.0881 93.1456 79.2095 92.6116C79.3309 92.0775 79.8894 91.762 80.4236 91.8833C94.9926 95.5003 118.692 110.939 123.257 132.495C123.378 133.029 123.038 133.563 122.48 133.685C122.407 133.733 122.334 133.733 122.261 133.733Z" fill="#131313"/>
<path id="Vector_12" d="M70.0302 106.254C62.6243 106.254 53.3972 101.253 46.0642 92.9514C37.1285 94.9904 29.334 98.8501 29.2369 98.8987C28.7513 99.1414 28.1442 98.9472 27.9014 98.4617C27.6586 97.9763 27.8528 97.3694 28.3385 97.1266C28.6784 96.9567 36.7642 92.9271 46.2098 90.888C46.5741 90.8152 46.9383 90.9365 47.1811 91.2036C55.3883 100.695 66.4851 105.987 73.5997 103.754C77.5333 102.516 79.9129 99.0686 80.4714 93.801C80.52 93.2427 81.0299 92.8543 81.5641 92.9028C82.1225 92.9514 82.5111 93.4611 82.4625 93.9952C81.6369 101.739 77.509 104.603 74.2067 105.647C72.8955 106.06 71.4871 106.254 70.0302 106.254Z" fill="#131313"/>
<path id="Vector_13" d="M96.7421 34.9586C96.4993 32.0699 96.2565 29.0598 95.9894 25.9284C94.7996 11.2178 84.8441 4.37235 66.4871 5.56182C56.2645 6.21724 48.81 8.62044 43.9779 12.8685C43.8079 12.8928 43.6622 12.9656 43.5165 13.087C37.349 14.7377 32.3712 20.2481 28.6561 25.2001C27.8305 26.2682 27.0535 27.3849 26.3008 28.5258L27.8063 91.6889C30.7443 91.9802 33.7553 91.8345 36.4991 91.4947C39.6557 91.1063 42.5696 90.0867 45.0706 88.4846L45.4105 91.9559C45.4591 92.4657 45.8962 92.8541 46.4061 92.8541C46.4304 92.8541 46.4789 92.8541 46.5032 92.8541C47.0617 92.8055 47.4502 92.32 47.4016 91.7617L46.9403 87.1252C49.3199 85.1104 51.1896 82.4402 52.2822 79.1631C54.1519 73.5556 54.0063 63.5301 47.523 60.7142C46.3575 60.2044 45.1191 60.0345 43.8565 59.986C42.7153 59.8646 37.4947 59.6218 35.8678 58.2382C34.4109 57.0002 34.0952 55.4951 34.0467 54.694C33.9738 53.4075 34.3623 52.2666 35.2365 51.3199C37.0576 49.3536 40.9427 48.2612 46.4546 48.1884C46.9403 48.1884 47.3531 47.8 47.6444 47.3873C53.3507 38.6484 53.3507 17.7478 53.3507 17.7478C58.0856 21.5832 86.8352 23.331 93.3184 21.656C93.6583 23.0397 93.9012 24.5447 94.0468 26.1469C94.2897 29.2783 94.5568 32.2884 94.7996 35.1771C97.0821 62.4134 98.4904 78.8718 89.8461 84.6249C82.4402 89.577 68.4296 89.6255 68.2839 89.6255C67.944 89.6255 67.6283 89.7954 67.4341 90.0867C67.2398 90.378 67.2155 90.7422 67.3612 91.0335C70.1536 97.1993 79.6963 98.9471 80.0848 99.0199C80.1334 99.0199 80.2063 99.0441 80.2548 99.0441C80.7162 99.0441 81.1532 98.7043 81.2261 98.2188L82.7801 89.9896C82.8044 89.8925 82.8044 89.7954 82.8044 89.6983C85.7182 88.9215 88.5835 87.8049 90.9145 86.2513C100.53 79.8185 99.0975 62.9475 96.7421 34.9586Z" fill="#131313"/>
<path id="Vector_14" d="M115.607 42.4105C109.803 37.6284 100.455 39.0849 95.5742 33.1133C96.327 40.4928 97.6867 47.6539 97.4682 55.0092C97.881 59.5728 97.7839 64.0879 96.6912 68.3846C96.6669 71.4918 96.5698 74.5747 96.3998 77.6818C103.004 77.7304 109.245 77.342 114.733 73.1424C119.54 69.477 121.944 63.8209 121.896 57.8493C121.896 52.1205 120.172 46.1731 115.607 42.4105Z" fill="#131313"/>
<path id="Vector_15" d="M141.931 132.665C141.81 132.665 141.689 132.641 141.591 132.593C141.081 132.398 140.062 133.709 140.256 133.199C148.269 111.765 150.94 94.0441 146.278 87.8298C143.704 84.407 135.764 72.6823 141.446 65.5941C142.66 64.0647 143.728 63.3122 144.602 63.0209C143.801 62.1228 143.51 60.8605 143.874 59.5496C144.432 57.4863 146.569 53.5295 149.92 51.7817C151.741 50.8107 153.611 50.665 155.481 51.3205C161.308 53.3353 162.547 57.729 162.595 57.9232C162.741 58.4573 162.425 59.0156 161.891 59.137C161.357 59.2826 160.798 58.967 160.677 58.433C160.628 58.2873 159.633 54.8646 154.849 53.2139C153.514 52.7527 152.178 52.8741 150.867 53.5538C148.269 54.9374 146.326 58.2631 145.816 60.0837C145.525 61.1275 146.035 61.7829 146.569 62.0499C147.225 62.3655 148.317 62.2684 149.289 60.9333C150.673 59.0884 152.931 58.3602 154.776 59.137C156.088 59.671 158.977 61.8072 157.763 69.6965C157.107 73.9689 155.383 75.4496 154.048 75.9351C152.47 76.5177 150.576 76.008 148.949 74.6C147.492 73.3377 146.229 71.2258 146.642 69.3324C147.079 67.3176 146.545 65.2785 145.816 64.9144C145.379 64.6959 144.408 65.1086 143 66.8564C139.212 71.5899 143.024 80.1832 147.856 86.6403C153.004 93.5101 151.231 109.629 142.878 132.034C142.733 132.398 142.344 132.665 141.931 132.665ZM147.807 64.1133C148.754 65.497 148.997 67.8031 148.56 69.7208C148.366 70.6189 149.094 72.0512 150.236 73.0707C151.28 73.9931 152.445 74.3573 153.319 74.0417C154.485 73.6047 155.359 71.9541 155.748 69.3809C156.549 64.0647 155.359 61.5402 153.951 60.9576C152.955 60.5206 151.644 61.0061 150.818 62.1228C149.896 63.3608 148.827 63.9434 147.807 64.1133Z" fill="#131313"/>
<path id="Vector_16" d="M162.132 63.7006C161.622 63.7006 161.185 63.3122 161.137 62.7781C159.753 45.2031 159.631 40.154 161.404 38.1149C161.938 37.508 162.642 37.1682 163.541 37.0953C167.426 36.8283 168.397 42.9699 169.028 46.6354L169.077 46.9024C169.174 47.4364 168.81 47.9705 168.251 48.0676C167.717 48.1647 167.183 47.8005 167.086 47.2422L167.037 46.9752C166.673 44.8147 165.677 39.0859 163.735 39.0859C163.711 39.0859 163.686 39.0859 163.662 39.0859C163.201 39.1102 163.031 39.2558 162.909 39.4014C161.55 40.9793 162.084 49.2328 163.128 62.6082C163.176 63.1665 162.764 63.6277 162.205 63.6763C162.205 63.7005 162.181 63.7006 162.132 63.7006Z" fill="#131313"/>
<path id="Vector_17" d="M169.125 63.1663C168.615 63.1663 168.177 62.7779 168.129 62.2439C166.745 44.6689 166.623 39.6197 168.396 37.5807C168.93 36.9738 169.634 36.634 170.533 36.5611C174.102 36.3669 174.976 41.3918 175.511 44.7417L175.656 45.6642C175.753 46.1982 175.389 46.7323 174.831 46.8294C174.272 46.9265 173.762 46.5623 173.665 46.004L173.519 45.0573C173.131 42.6056 172.475 38.5517 170.727 38.5517C170.703 38.5517 170.679 38.5517 170.654 38.5517C170.193 38.5759 170.023 38.7216 169.902 38.8672C168.542 40.4451 169.076 48.6985 170.12 62.074C170.169 62.6323 169.756 63.0935 169.197 63.1421C169.197 63.1663 169.173 63.1663 169.125 63.1663Z" fill="#131313"/>
<path id="Vector_18" d="M175.804 63.6997C176.363 63.6511 176.775 63.1656 176.727 62.6316C175.683 49.2562 175.149 41.027 176.508 39.4249C176.63 39.2792 176.824 39.1336 177.261 39.1093H177.285C177.698 39.1093 179.495 39.6919 180.685 49.1348C181.462 55.4462 184.74 108.899 175.076 133.393C175.003 133.563 175.003 133.757 175.027 133.927C175.051 133.927 175.076 133.927 175.124 133.927C175.756 133.878 176.387 133.878 177.018 133.927C186.901 108.608 183.501 55.5676 182.676 48.892C182.02 43.7215 180.733 36.9003 177.14 37.143C176.241 37.2158 175.537 37.5314 175.003 38.1626C173.255 40.2017 173.376 45.2508 174.736 62.8258C174.76 63.3355 175.27 63.7968 175.804 63.6997Z" fill="#131313"/>
<path id="Vector_19" d="M165.654 86.5432C164.367 82.4407 161.818 79.552 158.2 77.2945C157.107 76.6148 156.112 78.3383 157.18 79.018C160.337 80.9842 162.571 83.4846 163.712 87.0772C164.125 88.291 166.043 87.7569 165.654 86.5432Z" fill="#131313"/>
</g>
</g>
</svg>
