<svg width="200" height="145" viewBox="0 0 200 145" fill="none" xmlns="http://www.w3.org/2000/svg">
<path d="M138.521 134.843L139.149 133.436C143.175 124.417 146.286 116.753 147.747 107.151L147.747 107.15C148.906 99.5843 148.263 94.4149 147.207 90.9374C146.264 87.8295 144.982 86.0303 144.238 84.9865C144.152 84.8652 144.073 84.7541 144.002 84.6523C144.002 84.652 144.002 84.6518 144.002 84.6516L144.824 84.0821C142.735 81.079 141.593 78.6618 141.617 75.0483L138.521 134.843ZM138.521 134.843H140.062H176.507M138.521 134.843H176.507M167.498 40.3533C167.198 39.9541 166.831 39.5743 166.38 39.2231L166.379 39.2219C165.179 38.2903 163.486 38.4086 162.235 38.9633C160.962 39.528 159.72 40.7367 159.737 42.4616L167.498 40.3533ZM167.498 40.3533C167.577 39.3911 168.044 38.6335 168.799 38.1917C169.576 37.7373 170.517 37.6993 171.344 37.8815C172.185 38.0668 173.085 38.5294 173.757 39.244L173.173 27.5608L173.173 27.5598C172.81 20.1476 166.775 14.2943 159.388 14.2032L159.387 14.2032L84.0071 13.1695M167.498 40.3533L84.0071 13.1695M176.507 134.843C175.406 136.965 173.848 139.062 171.981 140.714C169.705 142.729 167.043 144.021 164.243 143.999L164.241 143.999L17.333 143.169C9.76353 143.124 3.5915 137.041 3.40992 129.423L2.80259 102.762L2.80257 102.761L1.29633 39.2317L1.29631 39.2311L1.00479 26.6332L1.00473 26.6308C0.80057 18.6516 7.24141 12.135 15.1764 12.2255C15.1768 12.2255 15.1772 12.2256 15.1776 12.2256L59.1678 12.8288C56.3213 13.5442 53.6161 14.5006 51.1741 15.6709L51.1683 15.6737C49.9791 16.2532 49.481 17.4277 49.4426 18.4899C48.9394 20.4927 48.5216 22.4858 48.1156 24.4226C47.9936 25.0049 47.8726 25.5821 47.7506 26.153C47.2124 28.6728 46.6531 31.0842 45.8926 33.3727C44.3802 37.9238 42.0815 41.9605 37.6054 45.2353L37.6036 45.2366C37.2218 45.5172 36.8341 45.7936 36.4468 46.0697C34.9527 47.1346 33.4649 48.1951 32.3493 49.475C30.8652 51.1775 30.0021 53.281 30.2011 56.3371L176.507 134.843ZM84.0071 13.1695C85.6083 13.6881 87.1427 14.3214 88.5846 15.0764L88.5857 15.077C93.259 17.5314 95.289 21.826 96.2458 26.4762C96.9171 29.7389 97.082 33.3246 97.2361 36.6768C97.2986 38.0343 97.3592 39.3534 97.451 40.5974L97.4511 40.5988C97.5596 42.0983 97.7388 43.8875 97.9382 45.8781C98.5499 51.9838 99.3513 59.984 98.882 67.3295C98.5701 72.2131 97.6945 76.9254 95.7689 80.687C93.8597 84.4166 90.9045 87.2278 86.4957 88.2966C84.2814 90.1973 82.4223 92.2315 81.563 94.8224L81.562 94.8254C81.2864 95.6474 81.1884 96.4796 81.0771 97.4239C81.0477 97.6726 81.0175 97.9291 80.9829 98.1952C80.824 99.4167 80.5723 100.772 79.7572 102.051C76.8454 106.645 71.7389 107.385 67.1402 106.754C61.5017 105.98 55.9822 104.007 51.8658 100.611C47.7198 97.1905 45.0277 92.3461 45.0915 85.9772C45.0915 85.9769 45.0915 85.9767 45.0915 85.9765L46.0915 85.9865C46.1002 84.7754 46.3161 83.331 46.5418 81.822L84.0071 13.1695ZM140.442 69.4205C139.92 71.2718 140.082 73.2413 140.617 75.1842L159.737 42.4636C159.753 44.4202 159.78 46.3707 159.807 48.318C159.841 50.7411 159.874 53.1592 159.887 55.5776C158.065 53.7023 156.034 52.3217 153.712 52.2246C150.787 52.1023 147.875 54.0185 144.796 58.2191C144.302 58.8894 144.132 59.7038 144.139 60.4598C144.146 61.2214 144.33 61.9989 144.632 62.6807C144.848 63.1677 145.139 63.641 145.503 64.0343C145.095 64.0961 144.697 64.2327 144.335 64.4628L144.332 64.4651C142.233 65.8135 140.984 67.5002 140.442 69.4205ZM149.539 67.7683C149.971 66.4763 149.33 65.4452 148.52 64.821C149.203 64.5659 149.9 64.1405 150.517 63.7646C150.553 63.743 150.588 63.7215 150.623 63.7003C151.415 63.218 152.139 62.7864 152.851 62.5456C153.538 62.3136 154.115 62.2933 154.655 62.5326C155.186 62.7682 155.835 63.3235 156.528 64.5579C156.512 65.9054 156.37 67.9884 156 69.9562C155.804 71.0037 155.548 71.9896 155.226 72.8031C154.897 73.6367 154.538 74.1879 154.193 74.4755L154.191 74.477C153.482 75.0708 152.817 75.2033 152.241 75.1019C151.636 74.9954 151 74.6061 150.448 73.9244C149.339 72.5556 148.743 70.2028 149.539 67.7683Z" fill="#F9E59C" stroke="#131313" stroke-width="2"/>
<path d="M183.918 136C183.869 136 183.845 136 183.796 136L43.5175 135.175C34.739 135.102 27.6769 128.255 27.4562 119.562L25.0042 17.3652C24.9061 12.9947 26.549 8.86698 29.6631 5.75906C32.7283 2.69971 36.7987 1.00008 41.1635 1.00008C41.237 1.00008 41.2861 1.00008 41.3596 1.00008L185.916 0.966797C194.4 1.06392 195.389 8.74108 195.806 17.1422L199.98 119.222C200.2 123.641 198.631 127.866 195.517 131.071C192.501 134.252 188.357 136 183.918 136ZM41.188 2.99107C37.3627 2.99107 33.8072 4.4722 31.1344 7.14306C28.4126 9.86248 26.9658 13.4803 27.0639 17.3166L29.516 119.514C29.7122 127.113 35.8669 133.135 43.5665 133.184L183.845 134.009C183.869 134.009 183.918 134.009 183.943 134.009C187.817 134.009 191.446 132.479 194.119 129.687C196.841 126.871 198.214 123.204 198.018 119.319L193.844 17.2393C193.476 9.88227 193.346 3.05493 185.916 2.95781L41.3596 2.99107C41.3106 2.99107 41.237 2.99107 41.188 2.99107Z" fill="#131313"/>
<path d="M41.188 2.99107C37.3627 2.99107 33.8072 4.4722 31.1344 7.14306C28.4126 9.86248 26.9658 13.4803 27.0639 17.3166L29.516 119.514C29.7122 127.113 35.8669 133.135 43.5665 133.184L183.845 134.009H183.943C187.817 134.009 191.446 132.479 194.119 129.687C196.841 126.871 198.214 123.204 198.018 119.319L193.844 17.2393C193.476 9.88227 193.346 3.05493 185.916 2.95781L41.3596 2.99107H41.188Z" fill="white"/>
<path d="M198.481 124.631C198.33 124.631 198.178 124.576 198.068 124.466L105.177 32.0041C104.943 31.7836 104.943 31.4116 105.164 31.1774C105.398 30.9432 105.769 30.9432 105.99 31.1636L198.88 123.612C199.114 123.832 199.114 124.204 198.894 124.438C198.784 124.562 198.632 124.631 198.481 124.631Z" fill="#131313" stroke="#131313" stroke-width="0.7"/>
<path d="M106.314 33C106.133 33 105.953 32.935 105.822 32.805L75.211 3.18415C74.9325 2.92418 74.9324 2.48547 75.1946 2.20925C75.4732 1.93302 75.9157 1.93302 76.1779 2.193L106.789 31.8301C107.068 32.0901 107.068 32.5288 106.805 32.805C106.674 32.935 106.494 33 106.314 33Z" fill="#131313" stroke="#131313" stroke-width="0.7"/>
<path d="M82.6865 121.885C82.5143 121.885 82.3422 121.793 82.2503 121.621C73.9744 105.828 65.4919 100.878 58.5475 97.1565L60.6595 116.004C60.6825 116.176 60.6021 116.349 60.4644 116.452C60.3266 116.555 60.143 116.578 59.9823 116.521L52.682 113.592L47.7234 120.782C47.643 120.897 47.5282 120.966 47.3905 120.989C47.2528 121.012 47.115 120.966 47.0117 120.886L29.2317 106.299C29.0251 106.127 28.4167 105.242 28.5889 105.036C28.7611 104.829 29.6449 105.369 29.8515 105.541L47.2183 119.794L52.0966 112.719C52.2229 112.524 52.4639 112.455 52.682 112.547L59.5805 115.315L57.457 96.364C57.4341 96.1803 57.5144 96.008 57.6636 95.9046C57.8129 95.8012 58.008 95.7898 58.1687 95.8816C65.3771 99.7178 74.3532 104.496 83.0997 121.184C83.226 121.425 83.1342 121.724 82.8931 121.85C82.8472 121.862 82.7669 121.885 82.6865 121.885Z" fill="#131313" stroke="#131313" stroke-width="0.7"/>
<path d="M56.7101 133.45C56.4576 133.45 56.2395 133.255 56.2165 133.002L54.908 117.21L52.0958 113.259C51.9351 113.04 51.9925 112.73 52.2106 112.57C52.4287 112.409 52.7386 112.466 52.8993 112.684L55.7919 116.739C55.8378 116.808 55.8722 116.9 55.8837 116.98L57.2037 132.91C57.2267 133.186 57.02 133.416 56.756 133.439C56.7446 133.45 56.7331 133.45 56.7101 133.45Z" fill="#131313" stroke="#131313" stroke-width="0.7"/>
<path d="M72.8956 133.45C72.6546 133.45 72.448 133.266 72.4135 133.025L71.0705 123.033C71.0361 122.768 71.2198 122.516 71.4953 122.481C71.7593 122.435 72.0118 122.631 72.0462 122.906L73.3892 132.899C73.4236 133.163 73.24 133.415 72.9645 133.45C72.9415 133.45 72.9186 133.45 72.8956 133.45Z" fill="#131313" stroke="#131313" stroke-width="0.7"/>
<path d="M31.1392 68.2015C29.8078 68.2015 28.614 68.0522 27.5695 67.7536C27.3055 67.6732 27.1562 67.4091 27.2366 67.1449C27.3169 66.8807 27.581 66.7314 27.845 66.8118C28.8321 67.0989 29.9799 67.2253 31.254 67.2253C31.5754 67.2368 31.7476 67.4435 31.7476 67.7077C31.7476 67.9833 31.5295 68.2015 31.2655 68.2015C31.2196 68.2015 31.1852 68.2015 31.1392 68.2015Z" fill="#131313" stroke="#131313" stroke-width="0.7"/>
<path d="M52.5136 113.477C52.4218 113.477 52.3185 113.454 52.2382 113.397L28.2828 97.4664C28.0532 97.3171 27.9958 97.007 28.145 96.7888C28.2942 96.5591 28.6042 96.5016 28.8223 96.6509L52.1578 112.179L53.7533 103.37C53.7992 103.106 54.0632 102.933 54.3272 102.979C54.5912 103.025 54.7749 103.278 54.7175 103.554L52.9957 113.087C52.9613 113.247 52.858 113.385 52.7088 113.454C52.6399 113.454 52.5825 113.477 52.5136 113.477Z" fill="#131313" stroke="#131313" stroke-width="0.7"/>
<path d="M27.4181 57.4278C27.2115 57.4278 27.0049 57.29 26.9475 57.0718C26.8672 56.8076 27.0164 56.5435 27.2804 56.4631C29.3006 55.8773 31.9062 55.705 35.0513 55.9692C35.3268 55.9922 35.5219 56.2334 35.4989 56.4975C35.476 56.7732 35.2349 56.9684 34.9709 56.9455C31.9521 56.6928 29.4613 56.8421 27.5559 57.3934C27.51 57.4278 27.4641 57.4278 27.4181 57.4278Z" fill="#131313" stroke="#131313" stroke-width="0.7"/>
<path d="M62.7599 69.2008C62.6566 69.2008 62.5533 69.2008 62.45 69.2008C62.1745 69.1893 61.9679 68.9596 61.9794 68.6955C61.9909 68.4198 62.2434 68.236 62.4844 68.2246C64.0685 68.282 65.354 67.8915 66.0083 67.1794C66.3986 66.7544 66.5478 66.2031 66.456 65.5599C66.2493 64.0094 63.1502 63.2399 61.9794 63.0676C61.7269 63.0331 61.5547 62.8149 61.5547 62.5622L61.7957 55.3264C61.8072 55.0622 62.0253 54.8555 62.2893 54.8555C62.3008 54.8555 62.3008 54.8555 62.3008 54.8555C62.5763 54.867 62.7829 55.0967 62.7714 55.3608L62.5418 62.1602C63.8045 62.4014 67.1217 63.2284 67.4201 65.4221C67.5464 66.3524 67.3054 67.1909 66.72 67.8341C65.928 68.707 64.4932 69.2008 62.7599 69.2008Z" fill="#131313" stroke="#131313" stroke-width="0.7"/>
<path d="M54.209 54.9707L53.9221 56.5212C53.5433 58.5197 50.4441 57.9454 50.8114 55.9354L51.0984 54.3849C51.4772 52.3864 54.5878 52.9607 54.209 54.9707Z" fill="#131313" stroke="#131313" stroke-width="0.7"/>
<path d="M69.2715 56.5089L68.9846 58.0594C68.6058 60.0579 65.5066 59.4836 65.8739 57.4852L66.1609 55.9346C66.5397 53.9362 69.6503 54.5104 69.2715 56.5089Z" fill="#131313" stroke="#131313" stroke-width="0.7"/>
<path d="M51.8224 46.8961C50.5483 47.1258 49.3087 47.4244 48.092 47.9068C47.1507 48.2743 47.9083 49.6641 48.838 49.2965C49.9055 48.8716 51.0534 48.6419 52.1783 48.4351C53.1884 48.2513 52.821 46.7123 51.8224 46.8961Z" fill="#131313" stroke="#131313" stroke-width="0.7"/>
<path d="M69.8213 48.4809C69.0408 47.9181 68.1455 47.4817 67.4109 46.8615C66.6418 46.2068 65.4825 47.2864 66.263 47.9411C67.1124 48.6647 68.0881 49.1701 68.9834 49.8247C69.8099 50.4105 70.6478 49.0667 69.8213 48.4809Z" fill="#131313" stroke="#131313" stroke-width="0.7"/>
<path d="M52.3271 76.2988C51.1563 76.0805 49.6067 75.4833 49.5608 74.0706C49.5379 73.0598 47.9539 73.0024 47.9768 74.0131C48.0342 76.1724 49.8822 77.4243 51.845 77.8033C52.8551 77.9986 53.3257 76.494 52.3271 76.2988Z" fill="#131313" stroke="#131313" stroke-width="0.7"/>
<path d="M49.4924 25.5903C37.9452 25.2113 30.3924 27.8529 26.4094 33.6991C26.375 33.7335 26.3405 33.7794 26.329 33.8254C26.2487 33.9977 26.2946 34.2159 26.4209 34.3652C26.5242 34.4801 26.6619 34.526 26.7996 34.526L27.4195 56.9457V56.9801C28.7969 56.7045 30.2087 56.7045 31.6321 56.8997C32.9521 56.6355 34.6394 56.4862 35.5003 56.5207C38.2321 49.4112 36.6711 40.2573 42.4906 38.3507C46.9213 36.892 66.1935 36.7542 70.9799 40.2687C71.2325 41.6815 71.3473 43.209 71.3243 44.8514C71.2784 47.5046 71.2439 50.0544 71.2095 52.5008C70.8766 75.8048 70.6815 89.863 62.7499 94.1012C55.9892 97.7076 44.1091 96.582 43.9828 96.5705C43.8106 96.5591 43.6499 96.628 43.5466 96.7543C43.4433 96.8807 43.4089 97.0644 43.4663 97.2137C45.2569 102.509 53.7968 103.887 54.1641 103.944C54.1871 103.944 54.21 103.956 54.2445 103.956C54.474 103.956 54.6806 103.795 54.7266 103.565L55.8973 97.6157C55.9203 97.4779 55.8859 97.3401 55.817 97.2367C58.4226 96.8347 61.0511 96.1341 63.2206 94.9855C71.6686 90.4718 71.8638 76.1953 72.1967 52.5352C72.2311 50.0773 72.2655 47.5276 72.3114 44.8859C72.518 32.4127 65.0571 26.1186 49.4924 25.5903Z" fill="#131313" stroke="#131313" stroke-width="0.7"/>
<path d="M30.9686 67.708L27.6055 67.7654L27.9039 75.2195C29.3846 73.0028 30.4062 70.5334 30.9686 67.708Z" fill="#131313" stroke="#131313" stroke-width="0.7"/>
<path d="M77.7523 134.036C77.6949 134.036 77.626 134.024 77.5686 134.001C77.3161 133.898 77.2013 133.611 77.2931 133.358C77.7752 132.163 78.2573 130.957 78.7279 129.763C82.9749 119.07 86.9809 108.963 93.0185 106.666C95.165 105.85 97.5066 106.057 99.9515 107.286C100.192 107.412 100.296 107.699 100.17 107.941C100.055 108.182 99.7563 108.285 99.5153 108.159C97.2885 107.045 95.2797 106.849 93.3629 107.573C87.727 109.721 83.8014 119.633 79.6347 130.119C79.1641 131.313 78.682 132.508 78.1999 133.714C78.131 133.921 77.9474 134.036 77.7523 134.036Z" fill="#131313" stroke="#131313" stroke-width="0.7"/>
<path d="M103.81 124.503C103.695 124.503 103.58 124.503 103.477 124.491C103.201 124.468 103.006 124.239 103.018 123.974C103.041 123.699 103.27 123.504 103.534 123.515C106.048 123.664 115.173 121.459 117.687 120.069C119.581 119.013 119.994 117.37 119.558 116.578C119.214 115.958 118.33 115.935 117.251 116.52C113.256 118.714 98.4607 119.702 95.109 119.702C94.1333 119.702 93.6627 119.219 93.4446 118.818C92.9511 117.91 93.2265 116.394 94.1563 114.97C95.2353 113.304 96.7619 112.374 98.2196 112.489C98.4836 112.512 98.6903 112.742 98.6673 113.017C98.6443 113.282 98.4148 113.5 98.1393 113.465C96.8422 113.373 95.66 114.453 94.9713 115.498C94.2711 116.578 93.9841 117.772 94.294 118.347C94.34 118.438 94.5007 118.714 95.0975 118.714C98.2885 118.714 112.992 117.726 116.769 115.659C118.697 114.602 119.925 115.234 120.407 116.095C121.131 117.416 120.476 119.633 118.158 120.919C115.609 122.344 106.863 124.503 103.81 124.503Z" fill="#131313" stroke="#131313" stroke-width="0.7"/>
<path d="M103.325 130.096C103.119 130.096 102.924 129.958 102.855 129.751C102.774 129.487 102.912 129.212 103.176 129.131C104.381 128.741 105.839 128.454 107.377 128.132C112.543 127.087 118.397 125.904 117.455 120.563C117.409 120.299 117.582 120.046 117.857 119.989C118.121 119.943 118.374 120.115 118.431 120.391C119.544 126.673 112.91 128.017 107.584 129.097C106.069 129.407 104.645 129.694 103.486 130.062C103.429 130.085 103.371 130.096 103.325 130.096Z" fill="#131313" stroke="#131313" stroke-width="0.7"/>
<path d="M102.685 134.036C102.478 134.036 102.283 133.898 102.214 133.691C102.134 133.438 102.272 133.151 102.536 133.071C103.741 132.68 105.199 132.393 106.737 132.071C111.902 131.026 117.756 129.843 116.815 124.503C116.769 124.238 116.941 123.986 117.216 123.928C117.48 123.882 117.733 124.055 117.79 124.33C118.904 130.613 112.269 131.957 106.943 133.025C105.428 133.335 104.005 133.622 102.846 133.99C102.788 134.024 102.742 134.036 102.685 134.036Z" fill="#131313" stroke="#131313" stroke-width="0.7"/>
<path d="M111.684 134.977C111.477 134.977 111.282 134.839 111.213 134.633C111.133 134.369 111.282 134.104 111.535 134.024C111.649 133.99 114.312 133.14 114.312 130.073C114.312 129.797 114.53 129.579 114.806 129.579C115.081 129.579 115.3 129.797 115.3 130.073C115.3 133.875 111.856 134.954 111.822 134.966C111.776 134.966 111.73 134.977 111.684 134.977Z" fill="#131313" stroke="#131313" stroke-width="0.7"/>
<path d="M121.759 104.725C121.668 104.598 121.518 104.529 121.369 104.529H100.57C100.352 104.529 100.157 104.679 100.1 104.885L96.0707 119.047C96.0248 119.196 96.0592 119.369 96.1626 119.495C96.2544 119.61 96.3921 119.679 96.5413 119.679C96.5528 119.679 96.5643 119.679 96.5758 119.679L106.022 118.944L118.178 116.176C118.35 116.141 118.488 116.015 118.534 115.842L121.851 105.172C121.874 105.012 121.851 104.851 121.759 104.725Z" fill="#131313" stroke="#131313" stroke-width="0.7"/>
<path d="M149 2.79002L156.415 2.54883C153.098 4.15679 150.194 5.28237 149.31 5.22495C149.103 4.43245 149 3.61698 149 2.79002Z" fill="#131313" stroke="#131313" stroke-width="0.7"/>
<path d="M161.719 19.7541C161.305 19.7541 160.927 19.6737 160.594 19.513C160.066 19.2488 159.698 18.7779 159.549 18.1577C159.216 16.7909 160.8 15.562 161.569 15.0566L159.951 11.3238C159.848 11.0711 159.962 10.784 160.203 10.6806C160.456 10.5773 160.743 10.6921 160.846 10.9333L162.625 15.0566C162.729 15.2863 162.637 15.5505 162.419 15.6768C161.707 16.0788 160.295 17.1699 160.49 17.928C160.571 18.2725 160.754 18.5022 161.018 18.6401C161.501 18.8813 162.293 18.8009 163.13 18.4448C163.383 18.33 163.67 18.4563 163.773 18.6975C163.877 18.9502 163.762 19.2373 163.521 19.3407C162.889 19.6163 162.281 19.7541 161.719 19.7541Z" fill="#131313" stroke="#131313" stroke-width="0.7"/>
<path d="M157.172 11.6117L157.562 12.5076C158.067 13.6676 156.265 14.4487 155.76 13.2886L155.37 12.3928C154.865 11.2327 156.667 10.4517 157.172 11.6117Z" fill="#131313" stroke="#131313" stroke-width="0.7"/>
<path d="M168.316 10.4408L168.707 11.3367C169.212 12.4967 167.409 13.2778 166.904 12.1177L166.514 11.2219C166.009 10.0618 167.811 9.28081 168.316 10.4408Z" fill="#131313" stroke="#131313" stroke-width="0.7"/>
<path d="M165.229 5.60498C166.021 5.44419 166.801 5.34082 167.616 5.34082C168.248 5.34082 168.121 6.31709 167.502 6.31709C166.79 6.31709 166.078 6.44342 165.378 6.58125C164.747 6.6961 164.609 5.73133 165.229 5.60498Z" fill="#131313" stroke="#131313" stroke-width="0.7"/>
<path d="M153.096 7.72938C153.533 7.3159 154.049 6.98283 154.451 6.53489C154.876 6.07547 155.668 6.63826 155.243 7.10917C154.772 7.61453 154.21 8.00503 153.716 8.48742C153.269 8.92387 152.649 8.16583 153.096 7.72938Z" fill="#131313" stroke="#131313" stroke-width="0.7"/>
<path d="M170.923 20.9726C171.554 20.5821 172.312 19.8815 172.013 19.0545C171.795 18.4687 172.702 18.0668 172.909 18.664C173.368 19.9274 172.576 21.0645 171.531 21.7306C171.003 22.0752 170.383 21.3057 170.923 20.9726Z" fill="#131313" stroke="#131313" stroke-width="0.7"/>
<path d="M181.314 4.90414C181.13 4.90414 180.947 4.80077 180.866 4.617L179.753 2.03277C179.65 1.78009 179.764 1.49296 180.005 1.38959C180.258 1.27473 180.545 1.40107 180.648 1.64227L181.75 4.21501C181.865 4.46769 181.75 4.75483 181.509 4.8582C181.452 4.89266 181.383 4.90414 181.314 4.90414Z" fill="#131313" stroke="#131313" stroke-width="0.7"/>
<path d="M178.535 31.4585C178.524 31.2862 178.432 31.1369 178.294 31.0565C178.145 30.9761 177.973 30.9646 177.824 31.045C177.755 31.0795 171.189 34.4103 166.517 33.859C161.077 33.2273 157.794 25.1874 152.342 11.8528C151.768 10.4401 151.171 8.98142 150.539 7.45385C150.207 6.64987 149.954 5.86886 149.782 5.11082C149.587 4.31832 149.495 3.5373 149.495 2.79075C149.495 2.5151 149.277 2.29688 149.001 2.29688C148.726 2.29688 148.508 2.5151 148.508 2.79075C148.508 3.62919 148.611 4.4906 148.829 5.34053C149.013 6.14451 149.288 6.98295 149.644 7.83287C150.275 9.34895 150.872 10.8191 151.446 12.2203C157.036 25.888 160.411 34.1346 166.414 34.8352C167.883 35.0075 169.502 34.8352 171.051 34.5021C171.074 34.5825 171.132 34.6629 171.201 34.7204L175.884 38.7058C175.976 38.7862 176.09 38.8207 176.205 38.8207C176.24 38.8207 176.263 38.8207 176.285 38.8092C176.435 38.7862 176.55 38.6943 176.63 38.568C176.71 38.4302 178.696 34.8812 178.535 31.4585Z" fill="#131313" stroke="#131313" stroke-width="0.7"/>
<path d="M191.954 3.30581L181.566 2.00009L177.569 2.12467L169 2.37384C170.008 3.81221 177.614 7.67431 179.367 6.50775C179.401 6.49643 179.436 6.4851 179.47 6.47378C182.07 5.20529 184.144 4.79756 185.484 5.27324C186.126 5.51108 186.595 5.94146 186.87 6.57571C187.042 6.96079 187.26 7.74227 186.87 8.65966C186.435 9.6903 185.37 10.5511 183.789 11.1513C183.754 11.1627 183.72 11.1853 183.686 11.208C179.665 13.7789 181.429 21.118 186.423 23.2246C189.619 24.5724 193.01 24.0514 196 22.5224L194.174 12.8342L191.954 3.30581Z" fill="#131313" stroke="#131313" stroke-width="0.7"/>
<path d="M160.019 29.3684C156.644 23.1892 153.694 16.8148 151.157 10.2566C151.146 10.2106 151.112 10.1877 151.089 10.1532C151.41 9.78568 150.997 9.11953 150.503 9.39518C145.545 12.1747 143.088 18.0093 145.131 23.4304C147.347 29.311 153.82 32.0675 159.674 30.069C159.973 29.9657 160.191 29.667 160.019 29.3684Z" fill="#131313" stroke="#131313" stroke-width="0.7"/>
<path d="M179.979 40.7393C178.441 40.7393 177.052 40.0387 175.824 38.649C175.64 38.4422 175.663 38.1321 175.87 37.9598C176.076 37.7761 176.386 37.7991 176.558 38.0058C177.844 39.4644 179.325 40.0158 180.978 39.6482C185.546 38.6145 190.482 30.9078 191.871 26.0609C191.951 25.7967 192.215 25.6474 192.479 25.7278C192.743 25.7967 192.892 26.0724 192.812 26.3366C191.331 31.5395 186.189 39.4874 181.196 40.613C180.782 40.6934 180.381 40.7393 179.979 40.7393Z" fill="#131313" stroke="#131313" stroke-width="0.7"/>
<path d="M195.303 27.3932C195.268 27.3932 195.222 27.3932 195.188 27.3817L192.238 26.6696C192.135 26.6467 192.031 26.5778 191.963 26.4859L189.311 23.0402C189.15 22.822 189.185 22.5234 189.403 22.3511C189.621 22.1903 189.931 22.2248 190.092 22.443L192.628 25.7508L195.406 26.4285C195.67 26.4974 195.831 26.7615 195.762 27.0257C195.716 27.2439 195.521 27.3932 195.303 27.3932Z" fill="#131313" stroke="#131313" stroke-width="0.7"/>
<path d="M174.457 93.5943C174.399 93.5943 174.353 93.5829 174.296 93.5714C172.31 92.8823 172.918 90.8953 173.906 87.6104C174.468 85.7613 175.157 83.4642 175.708 80.5698C176.741 75.2061 176.458 66.4542 196.603 68.177C196.867 68.2 197.074 68.4412 197.051 68.7053C197.028 68.9695 196.787 69.1762 196.523 69.1533C182.175 67.9243 178.336 72.0476 176.672 80.7536C176.109 83.7053 175.409 86.0369 174.835 87.8976C173.848 91.1479 173.561 92.2965 174.606 92.6525C174.858 92.7444 174.996 93.0201 174.904 93.2727C174.847 93.468 174.663 93.5943 174.457 93.5943Z" fill="#131313" stroke="#131313" stroke-width="0.7"/>
<path d="M171.988 87.1166C171.862 87.1166 171.736 87.0706 171.644 86.9787C171.575 86.9098 171.231 86.5538 171.219 85.7383C171.196 84.3486 172.172 81.6839 176.958 76.8945C177.153 76.6992 177.463 76.6992 177.647 76.8945C177.842 77.0897 177.842 77.3998 177.647 77.5836C170.99 84.2452 172.31 86.2551 172.333 86.2666C172.528 86.4504 172.528 86.749 172.344 86.9558C172.252 87.0706 172.126 87.1166 171.988 87.1166Z" fill="#131313" stroke="#131313" stroke-width="0.7"/>
<path d="M178.853 97.3384C178.658 97.3384 178.44 97.2925 178.199 97.1776C175.708 95.9946 176.064 89.6661 179.06 82.1087C179.163 81.856 179.45 81.7297 179.691 81.833C179.944 81.9364 180.07 82.2235 179.967 82.4647C176.982 89.9877 176.948 95.4893 178.612 96.2818C178.842 96.3966 178.934 96.3277 178.98 96.3047C179.462 96.0061 179.737 94.49 179.772 93.5597C179.783 93.2841 180.036 93.0658 180.277 93.0888C180.552 93.1003 180.759 93.33 180.747 93.5942C180.736 94.0651 180.587 96.4655 179.485 97.1432C179.336 97.258 179.117 97.3384 178.853 97.3384Z" fill="#131313" stroke="#131313" stroke-width="0.7"/>
<path d="M182.218 97.1319C181.908 97.1319 181.518 97.017 181.105 96.6495C178.935 94.7085 179.36 89.9994 182.356 82.6487C182.459 82.396 182.746 82.2812 182.998 82.3845C183.251 82.4879 183.366 82.7751 183.262 83.0277C179.555 92.1013 180.726 94.9956 181.759 95.9144C182.08 96.2016 182.252 96.1556 182.31 96.1327C182.815 95.9719 183.331 94.7544 183.515 93.9849C183.584 93.7207 183.848 93.5599 184.112 93.6173C184.376 93.6862 184.537 93.9504 184.468 94.2146C184.364 94.6281 183.813 96.6955 182.597 97.0745C182.493 97.1089 182.356 97.1319 182.218 97.1319Z" fill="#131313" stroke="#131313" stroke-width="0.7"/>
<path d="M185.925 96.3286C185.305 96.3286 184.639 95.8462 183.893 94.8815C183.296 94.1005 181.723 91.0223 186.613 83.9703C186.762 83.752 187.072 83.6946 187.29 83.8439C187.509 83.9932 187.566 84.3033 187.417 84.5216C182.791 91.1831 184.318 93.8133 184.662 94.2727C185.339 95.1456 185.798 95.3868 185.982 95.3294C186.051 95.3064 186.659 95.0308 186.785 92.079C186.866 90.2299 188.771 86.52 190.619 85.2566C192.513 83.9588 189.921 84.5675 197.393 86.1525C197.657 86.2099 197.829 86.4741 197.772 86.7383C197.715 87.0024 197.451 87.1632 197.187 87.1173C190.334 85.6701 192.754 84.981 191.17 86.0721C189.632 87.1288 187.83 90.5859 187.761 92.1364C187.658 94.6747 187.187 95.9956 186.28 96.2827C186.166 96.3057 186.039 96.3286 185.925 96.3286Z" fill="#131313" stroke="#131313" stroke-width="0.7"/>
<path d="M175.454 96.0411C175.339 96.0411 175.236 96.0296 175.144 96.0066C174.822 95.9262 174.237 95.6391 174.019 94.5824C173.961 94.3182 174.134 94.0541 174.398 94.0081C174.662 93.9507 174.926 94.123 174.972 94.3871C175.052 94.7662 175.19 95.0074 175.362 95.0533C175.58 95.0992 176.039 94.904 176.624 94.1804C176.797 93.9737 177.107 93.9392 177.313 94.1115C177.52 94.2838 177.554 94.5939 177.382 94.8006C176.601 95.7769 175.936 96.0411 175.454 96.0411Z" fill="#131313" stroke="#131313" stroke-width="0.7"/>
<path d="M148.298 48.124C148.264 48.124 148.218 48.124 148.184 48.1125C147.92 48.0551 147.759 47.7909 147.816 47.5268C149.354 40.9456 155.897 33.5145 161.533 31.941C161.797 31.8721 161.877 32.2051 162.141 32.2855C162.933 32.5152 162.061 32.8139 161.797 32.8943C156.448 34.3874 150.238 41.4624 148.769 47.7565C148.712 47.9747 148.516 48.124 148.298 48.124Z" fill="#131313" stroke="#131313" stroke-width="0.7"/>
<path d="M178.522 102.819L160.18 46.1497C160.111 45.943 159.927 45.8166 159.721 45.8051L123.885 45.5869C123.633 45.5869 123.415 45.7822 123.392 46.0349L123.001 50.3649C122.99 50.5142 123.047 50.6635 123.151 50.7669L177.719 103.336C177.811 103.428 177.937 103.474 178.063 103.474C178.155 103.474 178.247 103.451 178.327 103.393C178.511 103.267 178.591 103.037 178.522 102.819Z" fill="#131313"/>
</svg>
