<svg width="45" height="45" viewBox="0 0 45 45" fill="none" xmlns="http://www.w3.org/2000/svg">
<rect x="0.5" y="0.5" width="44" height="44" fill="#131313"/>
<path fill-rule="evenodd" clip-rule="evenodd" d="M30.6566 13.2128C30.9099 13.1146 31.1851 13.087 31.4528 13.133C31.7205 13.179 31.9708 13.2968 32.1767 13.4739C32.3827 13.6511 32.5367 13.8808 32.6224 14.1386C32.708 14.3964 32.722 14.6726 32.6629 14.9377L32.6619 14.942L32.6619 14.9419L29.1369 30.3357L29.1368 30.3361C29.0786 30.5897 28.9554 30.8238 28.7794 31.0153C28.6034 31.2069 28.3805 31.3494 28.1328 31.4289C27.885 31.5083 27.6209 31.5219 27.3663 31.4684C27.1122 31.415 26.8763 31.2965 26.6817 31.1246C26.6813 31.1243 26.681 31.1239 26.6806 31.1236L18.405 23.8422L13.6051 22.8786L13.602 22.878C12.1603 22.5823 11.9387 20.5628 13.3478 20.0106L13.6214 20.7089L13.3473 20.0108L13.3478 20.0106L30.6535 13.2139L30.6566 13.2128ZM13.8998 21.4054C13.8999 21.4062 13.9001 21.4071 13.9003 21.4079C13.901 21.4081 13.9018 21.4082 13.9026 21.4084C13.9029 21.4085 13.9031 21.4085 13.9034 21.4086L18.8972 22.4111C19.0262 22.437 19.1462 22.4964 19.245 22.5833L27.6731 29.999L27.6748 30.0005L31.1988 14.6113L13.8998 21.4054ZM13.8927 21.4055C13.8927 21.4055 13.8927 21.4056 13.8927 21.4056L13.8927 21.4055Z" fill="white"/>
<path fill-rule="evenodd" clip-rule="evenodd" d="M32.1174 13.4926C32.36 13.8283 32.2844 14.2972 31.9486 14.5397L19.1892 23.7553C18.8534 23.9978 18.3846 23.9222 18.1421 23.5865C17.8995 23.2507 17.9751 22.7818 18.3109 22.5393L31.0703 13.3237C31.4061 13.0812 31.8749 13.1568 32.1174 13.4926Z" fill="white"/>
<path fill-rule="evenodd" clip-rule="evenodd" d="M18.75 22.3965C19.1642 22.3965 19.5 22.7323 19.5 23.1465L19.5 29.2484L19.504 29.2443L22.429 26.3193C22.7219 26.0264 23.1968 26.0264 23.4897 26.3193C23.7826 26.6122 23.7826 27.087 23.4897 27.3799L20.5664 30.3033C20.358 30.5139 20.092 30.6581 19.8017 30.7177C19.5103 30.7775 19.2078 30.7494 18.9324 30.6368C18.6571 30.5243 18.4215 30.3324 18.2554 30.0857C18.0894 29.8389 18.0005 29.5483 18 29.2509L18 23.1465C18 22.7323 18.3358 22.3965 18.75 22.3965Z" fill="white"/>
<rect x="0.5" y="0.5" width="44" height="44" stroke="white"/>
</svg>
