<svg width="25" height="25" viewBox="0 0 25 25" fill="none" xmlns="http://www.w3.org/2000/svg">
<g id="Icons">
<path id="Vector (Stroke)" fill-rule="evenodd" clip-rule="evenodd" d="M20.6566 3.21275C20.9099 3.11456 21.1851 3.08699 21.4528 3.13299C21.7205 3.17899 21.9708 3.29684 22.1767 3.47395C22.3827 3.65105 22.5367 3.88077 22.6224 4.13858C22.708 4.39639 22.722 4.67261 22.6629 4.93775L22.6619 4.94195L22.6619 4.94195L19.1369 20.3357L19.1368 20.3361C19.0786 20.5897 18.9554 20.8238 18.7794 21.0153C18.6034 21.2069 18.3805 21.3494 18.1328 21.4289C17.885 21.5083 17.6209 21.5219 17.3663 21.4684C17.1122 21.415 16.8763 21.2965 16.6817 21.1246C16.6813 21.1243 16.681 21.1239 16.6806 21.1236L8.40498 13.8422L3.60508 12.8786L3.60199 12.878C2.16028 12.5823 1.93873 10.5628 3.34779 10.0106L3.62145 10.7089L3.34728 10.0108L3.34779 10.0106L20.6535 3.21395L20.6566 3.21275ZM3.89981 11.4054C3.89995 11.4063 3.9001 11.4071 3.90027 11.4079C3.90099 11.4081 3.90176 11.4082 3.90259 11.4084C3.90286 11.4085 3.90313 11.4085 3.90341 11.4086L8.89719 12.4111C9.02624 12.437 9.14619 12.4964 9.245 12.5833L17.6731 19.999L17.6748 20.0005L21.1988 4.61133L3.89981 11.4054ZM3.89267 11.4055C3.89267 11.4055 3.89268 11.4055 3.8927 11.4056Z" fill="#131313"/>
<path id="Vector (Stroke)_2" fill-rule="evenodd" clip-rule="evenodd" d="M22.1174 3.49256C22.36 3.82835 22.2844 4.29717 21.9486 4.53969L9.18919 13.7553C8.8534 13.9978 8.38458 13.9222 8.14206 13.5865C7.89953 13.2507 7.97513 12.7818 8.31092 12.5393L21.0703 3.3237C21.4061 3.08117 21.8749 3.15677 22.1174 3.49256Z" fill="#131313"/>
<path id="Vector (Stroke)_3" fill-rule="evenodd" clip-rule="evenodd" d="M8.75 12.3965C9.16421 12.3965 9.5 12.7323 9.5 13.1465L9.5 19.2484L9.50403 19.2443L12.429 16.3193C12.7219 16.0264 13.1968 16.0264 13.4897 16.3193C13.7826 16.6122 13.7826 17.087 13.4897 17.3799L10.5664 20.3033C10.358 20.5139 10.092 20.6581 9.80169 20.7177C9.51034 20.7775 9.20777 20.7494 8.93244 20.6368C8.65712 20.5243 8.42147 20.3324 8.25544 20.0857C8.08941 19.8389 8.0005 19.5483 8 19.2509L8 13.1465C8 12.7323 8.33579 12.3965 8.75 12.3965Z" fill="#131313"/>
</g>
</svg>
