<svg width="25" height="25" viewBox="0 0 25 25" fill="none" xmlns="http://www.w3.org/2000/svg">
<g id="Icons">
<path id="Vector (Stroke)" fill-rule="evenodd" clip-rule="evenodd" d="M15.5 8C15.5 7.58579 15.8358 7.25 16.25 7.25H22.25C22.6642 7.25 23 7.58579 23 8C23 8.41421 22.6642 8.75 22.25 8.75H16.25C15.8358 8.75 15.5 8.41421 15.5 8Z" fill="#131313"/>
<path id="Vector (Stroke)_2" fill-rule="evenodd" clip-rule="evenodd" d="M17.1387 10.7989C18.0541 10.3085 19.1112 10.1505 20.13 10.3518C21.1487 10.5531 22.0663 11.1013 22.7263 11.9031C23.3863 12.7048 23.7481 13.7106 23.75 14.749C23.7504 14.9482 23.6715 15.1393 23.5308 15.2803C23.3901 15.4212 23.1991 15.5004 23 15.5004H16.3626C16.3734 15.5426 16.3852 15.5846 16.3979 15.6265C16.5989 16.2882 17.023 16.8598 17.5981 17.244C18.1732 17.6282 18.8637 17.8012 19.5519 17.7335C20.2402 17.6659 20.8838 17.3617 21.3731 16.8729C21.6661 16.5802 22.141 16.5804 22.4337 16.8735C22.7265 17.1665 22.7262 17.6414 22.4332 17.9341C21.6985 18.6681 20.7322 19.1247 19.6987 19.2263C18.6652 19.3279 17.6284 19.0682 16.7649 18.4913C15.9014 17.9144 15.2645 17.0561 14.9626 16.0624C14.8503 15.6928 14.787 15.3129 14.7722 14.9321C14.7577 14.8739 14.75 14.8131 14.75 14.7504C14.75 14.6868 14.7579 14.625 14.7728 14.566C14.795 14.0459 14.9076 13.5298 15.1094 13.0415C15.5062 12.0818 16.2233 11.2893 17.1387 10.7989ZM16.3661 14.0004H22.1527C22.0438 13.5841 21.8455 13.1933 21.5682 12.8565C21.1287 12.3225 20.5176 11.9574 19.8392 11.8233C19.1607 11.6893 18.4567 11.7945 17.8471 12.1211C17.2375 12.4477 16.7599 12.9755 16.4956 13.6146C16.4435 13.7407 16.4003 13.8696 16.3661 14.0004Z" fill="#131313"/>
<path id="Vector (Stroke)_3" fill-rule="evenodd" clip-rule="evenodd" d="M2.75 6.5C2.75 6.08579 3.08579 5.75 3.5 5.75H8.5625C9.50733 5.75 10.4135 6.12533 11.0816 6.79343C11.7497 7.46153 12.125 8.36767 12.125 9.3125C12.125 10.1901 11.8012 11.0343 11.2197 11.6854C11.6831 11.8811 12.1091 12.1657 12.4717 12.5283C13.2102 13.2667 13.625 14.2682 13.625 15.3125C13.625 16.3568 13.2102 17.3583 12.4717 18.0967C11.7333 18.8352 10.7318 19.25 9.6875 19.25H3.5C3.08579 19.25 2.75 18.9142 2.75 18.5V6.5ZM4.25 12.875V17.75H9.6875C10.334 17.75 10.954 17.4932 11.4111 17.0361C11.8682 16.579 12.125 15.959 12.125 15.3125C12.125 14.666 11.8682 14.046 11.4111 13.5889C10.954 13.1318 10.334 12.875 9.6875 12.875H4.25ZM8.5625 11.375H4.25V7.25H8.5625C9.10951 7.25 9.63411 7.4673 10.0209 7.85409C10.4077 8.24089 10.625 8.76549 10.625 9.3125C10.625 9.85951 10.4077 10.3841 10.0209 10.7709C9.63411 11.1577 9.10951 11.375 8.5625 11.375Z" fill="#131313"/>
</g>
</svg>
