<svg width="25" height="25" viewBox="0 0 25 25" fill="none" xmlns="http://www.w3.org/2000/svg">
<g id="Icons">
<g id="Vector (Stroke)">
<path d="M6.32195 20.1747C6.6503 19.9777 7.0068 19.7443 7.36726 19.4739L7.09309 18.2674L4.76184 19.3218C4.63845 19.3838 4.52571 19.4376 4.42648 19.4834C4.28404 19.5492 4.17023 19.5979 4.09365 19.6296C4.05539 19.6454 4.02649 19.657 4.00805 19.6642L3.98837 19.6719L3.98524 19.6731L4.24858 20.3753L7.99821 22.2503L7.65611 20.7449C6.8377 20.7186 6.24213 20.5993 5.81833 20.4622C5.97787 20.3756 6.14681 20.2798 6.32195 20.1747Z" fill="#131313"/>
<path d="M7.65021 17.1974C7.44642 17.4279 7.22598 17.6438 6.99701 17.8446L7.09309 18.2674L8.41232 17.6707L8.41132 17.6702L8.40892 17.669L8.40247 17.6657L8.38316 17.6557C8.36748 17.6475 8.34626 17.6362 8.31991 17.6217C8.26724 17.5927 8.19399 17.5509 8.10355 17.4959C7.98135 17.4214 7.82743 17.3224 7.65021 17.1974Z" fill="#131313"/>
<path d="M8.88384 16.2148C8.74233 16.1286 8.53546 15.9936 8.28866 15.8058C7.86745 15.4853 7.33425 15.0144 6.81114 14.3738L7.65021 17.1974C7.82743 17.3224 7.98135 17.4214 8.10355 17.4959C8.19399 17.5509 8.26724 17.5927 8.31991 17.6217C8.34626 17.6362 8.36748 17.6475 8.38316 17.6557L8.40247 17.6657L8.40892 17.669L8.41132 17.6702L8.41232 17.6707L7.09309 18.2674L7.36726 19.4739C8.08338 18.9365 8.81509 18.2527 9.37262 17.4164C9.49195 17.2374 9.52867 17.0158 9.47346 16.8078C9.41831 16.6002 9.27734 16.4265 9.08529 16.3302L9.07967 16.3272C9.07274 16.3236 9.06045 16.3171 9.04322 16.3076C9.00874 16.2886 8.95454 16.2578 8.88384 16.2148Z" fill="#131313"/>
<path d="M7.38038 16.9996C7.47505 17.0716 7.5653 17.1375 7.65021 17.1974L6.81114 14.3738C6.7202 14.2624 6.62957 14.1459 6.53987 14.0242C6.31921 13.7247 6.10298 13.392 5.90151 13.0239L6.6697 16.4043C6.9229 16.6369 7.16363 16.8346 7.38038 16.9996Z" fill="#131313"/>
<path d="M4.78178 7.54466L4.24858 5.75034L4.76163 8.00797C4.76541 7.856 4.77208 7.70157 4.78178 7.54466Z" fill="#131313"/>
<path fill-rule="evenodd" clip-rule="evenodd" d="M16.2852 5.75027C14.6421 5.72787 13.2486 7.10484 13.2486 8.75034V10.2503C13.2486 10.4708 13.1516 10.6801 12.9834 10.8226C12.8151 10.9651 12.5927 11.0264 12.3753 10.9901C9.9715 10.5895 7.80368 9.39759 6.26118 8.33712C5.69058 7.94483 5.19861 7.56569 4.80399 7.24252C4.79534 7.34424 4.78795 7.44495 4.78178 7.54466L4.24858 5.75034L4.77955 5.22064L4.78556 5.22658L4.81342 5.25374C4.83894 5.27845 4.87821 5.31604 4.9305 5.36489C5.03511 5.46262 5.19163 5.60522 5.39422 5.77967C5.79987 6.12898 6.38764 6.60377 7.11098 7.10106C8.36395 7.96248 9.98619 8.86531 11.7486 9.3237V8.75034C11.7486 6.2711 13.8234 4.217 16.3049 4.2504C17.1714 4.26056 18.0165 4.52067 18.7387 4.9995C19.3206 5.38524 19.8027 5.8997 20.1494 6.50034H22.9986C23.3019 6.50034 23.5754 6.68307 23.6915 6.96333C23.8076 7.24359 23.7434 7.56617 23.5289 7.78067L20.6973 10.6123C20.426 13.7369 19.0108 16.6556 16.7176 18.8052C14.3548 21.02 11.2368 22.2518 7.99821 22.2503L7.65611 20.7449C7.76619 20.7485 7.88031 20.7503 7.99858 20.7503C10.856 20.7518 13.607 19.6649 15.6918 17.7108C17.7765 15.7566 19.0388 13.0819 19.222 10.2304C19.2337 10.0485 19.3112 9.87704 19.4401 9.74814L21.1879 8.00034H19.6892C19.391 8.00034 19.1211 7.82364 19.0018 7.55029C18.7707 7.02064 18.3915 6.56902 17.9099 6.2497C17.4282 5.93038 16.8646 5.75696 16.2868 5.75029L16.2852 5.75027ZM3.98524 19.6731L4.24858 20.3753L7.99821 22.2503C6.40422 22.2503 5.34797 21.9511 4.66317 21.6087C4.32147 21.4378 4.07806 21.259 3.91092 21.1086C3.82762 21.0336 3.76406 20.9664 3.71722 20.9118C3.69383 20.8845 3.67466 20.8604 3.65934 20.8401C3.65167 20.83 3.64498 20.8208 3.63919 20.8126L3.6312 20.8012L3.62771 20.7961L3.62608 20.7937L3.6253 20.7925C3.6253 20.7925 3.62455 20.7914 4.24648 20.3767L3.62454 20.7914C3.49758 20.6009 3.46453 20.3629 3.53479 20.1451C3.60499 19.9275 3.77121 19.7536 3.98524 19.6731ZM4.76184 19.3218C4.63845 19.3838 4.52571 19.4376 4.42648 19.4834C4.28404 19.5492 4.17023 19.5979 4.09365 19.6296C4.05539 19.6454 4.02649 19.657 4.00805 19.6642L3.98837 19.6719L3.98524 19.6731L4.76184 19.3218ZM6.99701 17.8446C6.5272 18.2568 6.0215 18.6057 5.55021 18.8885C5.26246 19.0611 4.99339 19.2056 4.76184 19.3218L7.09309 18.2674L6.99701 17.8446ZM6.6697 16.4043L5.90151 13.0239C5.22095 11.7808 4.70866 10.1349 4.76163 8.00797L4.24858 5.75034C4.77891 5.22001 4.7787 5.2198 4.7787 5.2198C4.58145 5.02281 4.29107 4.95133 4.02496 5.03446C3.75869 5.11763 3.56058 5.34172 3.51068 5.61618C2.72149 9.95674 3.90487 12.9768 5.33229 14.914C5.77668 15.5171 6.24107 16.0106 6.6697 16.4043Z" fill="#131313"/>
</g>
</g>
</svg>
