<svg width="498" height="447" viewBox="0 0 498 447" fill="none" xmlns="http://www.w3.org/2000/svg">
<g clip-path="url(#clip0_1064_54354)">
<path d="M322.229 281.872L249.884 280.428L246.961 330.718H329.066C326.948 314.427 324.749 298.136 322.229 281.872Z" fill="#DBC9F2"/>
<path d="M220.549 69.9053H111.629L115.732 151.894L174.938 187.151L216.848 144.324L220.549 69.9053Z" fill="#CCECBD"/>
<path d="M150.133 210.289H78.8872C78.2973 210.289 77.8147 209.834 77.8147 209.246L71.5938 39.2226C71.5938 38.9283 71.701 38.6341 71.8887 38.4468C72.1032 38.2328 72.3714 38.1258 72.6663 38.1258L286.001 36.2266C286.269 36.2533 286.564 36.3336 286.779 36.5476C286.993 36.7616 287.1 37.0291 287.1 37.3233V67.0961C287.1 67.6846 286.618 68.1661 286.028 68.1661C285.438 68.1661 284.955 67.6846 284.955 67.0961V38.3933L73.8193 40.2658L79.933 208.122H150.133C150.723 208.122 151.205 208.604 151.205 209.192C151.232 209.807 150.75 210.289 150.133 210.289Z" fill="#000200"/>
<path d="M186.708 182.522C186.52 182.522 186.332 182.469 186.144 182.362L126.965 147.132C126.643 146.945 126.456 146.624 126.429 146.249L122.326 64.2606C122.3 63.9663 122.407 63.6721 122.621 63.4581C122.836 63.2441 123.104 63.1104 123.399 63.1104H232.319C232.614 63.1104 232.909 63.2441 233.096 63.4581C233.311 63.6721 233.418 63.9663 233.391 64.2606L229.691 138.706C229.664 138.973 229.557 139.214 229.396 139.401L187.485 182.228C187.271 182.415 186.976 182.522 186.708 182.522ZM128.574 145.554L186.52 180.088L227.546 138.171L231.166 65.2771H124.552L128.574 145.554Z" fill="#000200"/>
<path d="M187.513 160.801C187.352 160.801 187.164 160.748 187.003 160.667L142.197 137.288C141.875 137.101 141.633 136.78 141.607 136.405L137.504 77.3679C137.477 77.0736 137.585 76.7794 137.772 76.5654C137.96 76.3514 138.255 76.2176 138.523 76.1908L217.196 72.9541C217.491 72.9541 217.786 73.0611 218.001 73.2751C218.215 73.4891 218.322 73.7834 218.322 74.0776L215.721 134.345C215.721 134.64 215.587 134.907 215.373 135.094L188.237 160.507C188.049 160.694 187.781 160.801 187.513 160.801ZM143.752 135.683L187.325 158.42L213.576 133.837L216.124 75.1743L139.783 78.3576L143.752 135.683Z" fill="#000200"/>
<path d="M127.529 147.266C127.181 147.266 126.832 147.105 126.617 146.784C126.296 146.276 126.43 145.607 126.939 145.286L142.143 135.442C142.652 135.121 143.323 135.255 143.645 135.763C143.966 136.271 143.832 136.94 143.323 137.261L128.119 147.105C127.931 147.212 127.717 147.266 127.529 147.266Z" fill="#000200"/>
<path d="M186.708 182.523C186.681 182.523 186.681 182.523 186.654 182.523C186.064 182.496 185.582 181.988 185.608 181.399L186.44 159.678C186.467 159.09 186.896 158.635 187.566 158.635C188.156 158.662 188.639 159.17 188.612 159.758L187.78 181.479C187.754 182.068 187.271 182.523 186.708 182.523Z" fill="#000200"/>
<path d="M228.618 139.722C228.511 139.722 228.403 139.695 228.296 139.668L214.326 135.335C213.763 135.148 213.441 134.559 213.602 133.971C213.79 133.409 214.38 133.088 214.97 133.248L228.94 137.582C229.503 137.769 229.825 138.358 229.664 138.946C229.503 139.428 229.074 139.722 228.618 139.722Z" fill="#000200"/>
<path d="M161.02 132.901C160.779 132.901 160.511 132.821 160.296 132.634C159.84 132.233 159.787 131.564 160.189 131.109L203.816 81.14C204.218 80.6853 204.888 80.6318 205.344 81.033C205.8 81.4343 205.854 82.103 205.452 82.5578L161.825 132.527C161.61 132.768 161.315 132.901 161.02 132.901Z" fill="#000200"/>
<path d="M179.36 137.556C179.092 137.556 178.823 137.449 178.609 137.261C178.18 136.86 178.153 136.165 178.582 135.737L205.691 107.515C206.094 107.087 206.791 107.061 207.22 107.489C207.649 107.89 207.676 108.585 207.247 109.013L180.137 137.208C179.923 137.449 179.655 137.556 179.36 137.556Z" fill="#000200"/>
<path d="M106.237 162.728C103.583 166.392 100.901 170.084 98.2467 173.749C97.4155 174.872 99.3193 175.969 100.124 174.845C102.778 171.181 105.46 167.489 108.114 163.825C108.919 162.701 107.042 161.631 106.237 162.728Z" fill="#000200"/>
<path d="M442.489 46.9804C416.399 46.1512 412.725 73.4094 440.559 78.3047L441.39 121.479L456.138 120.917V109.789L447.477 110.298L446.967 104.225L452.142 102.46L451.633 95.8259L446.19 95.5584L445.921 79.5352C470.457 81.0064 471.61 47.9167 442.489 46.9804ZM442.704 73.5699C422.486 70.4134 423.746 52.2234 442.704 52.7584C464.826 53.4004 462.922 76.6997 442.704 73.5699Z" fill="#F9E59C"/>
<path d="M407.98 111.849C405.835 113.614 403.689 115.38 401.517 117.145C400.445 118.028 401.973 119.553 403.046 118.67C405.191 116.905 407.336 115.139 409.508 113.374C410.607 112.491 409.052 110.966 407.98 111.849Z" fill="#CCECBD"/>
<path d="M486.975 48.6653C483.918 51.2868 480.834 53.8815 477.778 56.503C476.705 57.4125 478.26 58.9373 479.306 58.0278C482.363 55.4063 485.446 52.8115 488.503 50.19C489.576 49.3073 488.021 47.7825 486.975 48.6653Z" fill="#CCECBD"/>
<path d="M510.652 104.814C503.305 100.908 495.958 97.0029 488.638 93.0974C487.404 92.4554 486.305 94.3011 487.538 94.9699C494.885 98.8754 502.232 102.781 509.553 106.686C510.786 107.328 511.886 105.456 510.652 104.814Z" fill="#CCECBD"/>
<path d="M307.184 127.364C306.701 127.364 306.272 127.043 306.138 126.562C305.977 125.973 306.326 125.385 306.889 125.224C309.007 124.636 310.589 123.593 311.152 122.416C311.474 121.747 311.447 121.025 311.072 120.249C310.267 118.537 306.004 118.59 304.073 118.911C303.537 118.992 303.001 118.671 302.867 118.136L300.051 107.89C299.89 107.302 300.239 106.713 300.802 106.553C301.365 106.392 301.982 106.74 302.143 107.302L304.717 116.638C306.862 116.424 311.662 116.317 313.056 119.339C313.673 120.704 313.7 122.068 313.11 123.325C312.278 125.117 310.267 126.535 307.452 127.311C307.371 127.364 307.264 127.364 307.184 127.364Z" fill="#000200"/>
<path d="M307.856 103.744L308.472 105.991C309.25 108.88 313.755 107.649 312.95 104.76L312.334 102.513C311.556 99.6242 307.051 100.855 307.856 103.744Z" fill="#000200"/>
<path d="M280.827 111.1L281.443 113.347C282.221 116.236 286.726 115.006 285.921 112.117L285.305 109.87C284.527 107.008 280.049 108.238 280.827 111.1Z" fill="#000200"/>
<path d="M278.707 100.079C277.018 100.962 275.409 101.925 273.907 103.102C272.754 104.038 274.417 105.643 275.57 104.734C276.884 103.691 278.412 102.861 279.887 102.059C281.228 101.363 280.048 99.384 278.707 100.079Z" fill="#000200"/>
<path d="M309.813 91.1449C308.472 90.6902 307.024 90.4761 305.71 89.9144C304.343 89.3259 303.19 91.3589 304.557 91.9206C306.059 92.5626 307.668 92.8569 309.223 93.3652C310.644 93.8734 311.234 91.6264 309.813 91.1449Z" fill="#000200"/>
<path d="M296.243 141.354C294.501 141.542 292.06 141.408 291.39 139.428C290.907 138.011 288.655 138.626 289.138 140.044C290.157 143.04 293.321 144.003 296.243 143.655C297.718 143.494 297.718 141.167 296.243 141.354Z" fill="#000200"/>
<path d="M319.305 96.4413C318.286 92.9905 317.213 89.3793 316.14 85.6343C315.443 83.2268 314.585 81.06 313.593 79.1073C315.551 76.459 315.551 72.607 313.486 69.5575C308.793 62.6828 298.389 61.7733 290.908 62.87C285.626 63.6458 280.585 65.4915 275.678 67.5245C274.015 68.22 272.111 68.862 270.368 69.7715C259.804 73.3025 252.698 78.064 248.702 84.27C244.546 90.7168 243.849 98.6615 246.557 108.559L251.464 126.455C251.625 127.043 252.215 127.364 252.805 127.204C253.288 127.07 253.583 126.642 253.609 126.187C255.942 125.305 257.632 124.984 259.696 124.529C260.179 125.198 261.976 124.823 262.19 124.021C262.244 123.245 261.547 116.878 261.252 113.107C261.895 109.602 263.316 106.259 265.408 102.54C267.472 98.8755 269.484 94.756 268.733 90.3958C268.706 90.2888 268.679 90.1818 268.652 90.0748C282.059 89.5933 306.38 84.056 312.092 80.953C312.869 82.558 313.539 84.3235 314.103 86.2495C315.202 89.9945 316.248 93.6058 317.294 97.0565C326.947 129.745 332.792 149.46 323.622 158.715C315.765 166.633 298.658 170.218 298.47 170.245C298.121 170.325 297.799 170.566 297.665 170.913C297.531 171.261 297.585 171.636 297.799 171.93C302.599 178.537 309.866 180.517 310.161 180.597C310.241 180.624 310.349 180.624 310.429 180.624C310.67 180.624 310.912 180.543 311.099 180.41C311.368 180.196 311.528 179.875 311.528 179.554V168.479C316.355 166.553 321.584 163.825 325.15 160.213C335.152 150.075 329.199 129.879 319.305 96.4413Z" fill="#000200"/>
<path d="M309.438 178.269L309.304 186.508C304.075 200.793 294.609 202.451 287.584 201.301C274.794 199.215 263.183 186.99 262.995 178.804L261.789 141.247C261.789 140.9 261.601 140.605 261.333 140.391C261.065 140.204 260.689 140.151 260.367 140.231C256.506 141.461 253.235 141.408 250.848 140.124C248.703 138.947 247.926 137.155 247.657 136.165C247.228 134.56 247.443 133.035 248.274 131.617C250.044 128.702 254.522 126.401 261.279 124.903C261.869 124.769 262.244 124.208 262.11 123.619C261.976 123.031 261.386 122.656 260.823 122.79C253.396 124.422 248.542 127.016 246.424 130.494C244.949 132.928 245.137 135.229 245.566 136.727C246.183 138.974 247.684 140.873 249.803 141.996C251.653 143.013 254.817 143.869 259.643 142.638L260.823 178.804C261.065 188.889 274.391 201.301 287.235 203.388C293.671 204.431 305.362 203.682 311.395 187.017C311.449 186.91 311.449 186.776 311.449 186.642V182.175C310.778 181.025 310.188 179.393 309.438 178.269Z" fill="#000200"/>
<path d="M191.963 352.573C186.842 352.573 181.077 352.385 174.614 351.984C142.035 349.951 116.561 336.79 104.683 315.898C94.3591 297.735 95.2976 275.8 107.364 252.421C137.906 193.33 217.276 180.276 261.868 177.735C262.458 177.681 262.968 178.163 263.021 178.751C263.048 179.34 262.592 179.848 262.002 179.901C217.866 182.389 139.327 195.256 109.295 253.41C97.5769 276.094 96.6383 297.334 106.56 314.828C118.063 335.078 142.92 347.811 174.748 349.817C224.14 352.92 230.093 343.745 236.368 334.062C237.467 332.35 238.62 330.584 239.988 328.899C249.051 317.798 251.625 315.604 258.034 317.905C260.179 318.68 261.305 318.52 261.493 318.252C261.734 317.905 261.6 316.032 258.087 311.966C256.532 310.147 254.736 309.264 252.617 309.238C252.59 309.238 252.564 309.238 252.537 309.238C248.407 309.238 243.045 312.635 237.44 318.841C237.038 319.296 236.341 319.322 235.912 318.921C235.456 318.52 235.429 317.824 235.832 317.396C240.095 312.688 246.477 307.071 252.537 307.071C252.59 307.071 252.617 307.071 252.644 307.071C255.379 307.098 257.766 308.275 259.723 310.548C263.316 314.695 264.496 317.691 263.289 319.483C262.646 320.446 261.064 321.302 257.31 319.964C252.296 318.172 250.687 319.242 241.677 330.29C240.363 331.895 239.264 333.607 238.191 335.265C232.641 343.772 226.929 352.573 191.963 352.573Z" fill="#000200"/>
<path d="M230.548 313.972C230.253 313.972 229.958 313.865 229.744 313.625C229.342 313.17 229.368 312.501 229.824 312.1C246.261 297.12 250.927 294.926 257.47 299.046C261.117 301.346 263.128 303.861 263.449 306.563C263.717 308.81 262.779 311.057 260.687 313.223C260.258 313.651 259.588 313.651 259.159 313.25C258.73 312.822 258.73 312.153 259.132 311.725C260.768 310.067 261.492 308.408 261.304 306.83C261.063 304.851 259.347 302.791 256.317 300.892C251.517 297.869 248.326 298.217 231.272 313.705C231.084 313.865 230.816 313.972 230.548 313.972Z" fill="#000200"/>
<path d="M224.677 308.516C224.382 308.516 224.087 308.409 223.873 308.168C223.47 307.713 223.497 307.044 223.953 306.643C235.617 296.023 243.581 290.112 249.668 291.182C252.644 291.717 255.058 293.883 257.042 297.816C257.31 298.351 257.096 298.993 256.559 299.26C256.023 299.528 255.379 299.314 255.111 298.779C253.449 295.488 251.518 293.696 249.266 293.295C244.091 292.332 236.288 298.297 225.401 308.221C225.187 308.409 224.945 308.516 224.677 308.516Z" fill="#000200"/>
<path d="M247.04 290.245C239.13 285.751 234.357 284.119 220.976 299.046C218.322 302.015 216.311 303.968 215.024 305.145L214.407 293.321C213.683 293.562 212.986 293.803 212.262 294.07L212.959 307.472C212.986 307.873 213.227 308.221 213.576 308.408C213.71 308.488 213.871 308.515 214.031 308.515C214.273 308.515 214.487 308.435 214.675 308.301C214.782 308.221 217.544 306.108 222.558 300.517C235.402 286.179 239.13 288.292 245.941 292.144C246.45 292.438 247.12 292.251 247.415 291.743C247.737 291.208 247.549 290.539 247.04 290.245Z" fill="#000200"/>
<path d="M211.403 273.526C211.752 274.008 212.422 274.141 212.905 273.794C227.411 263.548 224.006 251.966 223.872 251.457C223.738 251.029 223.335 250.708 222.88 250.708C185.447 249.451 162.976 261.221 158.016 284.948C156.916 290.245 158.016 294.846 161.314 298.644C170.109 308.809 192.955 310.468 200.624 310.468C201.375 310.468 201.991 310.441 202.42 310.414C205.209 310.254 206.228 308.087 208.266 303.807C209.526 301.132 211.269 297.494 214.165 292.679C214.46 292.171 214.299 291.502 213.79 291.208C213.28 290.887 212.61 291.074 212.315 291.582C209.365 296.478 207.622 300.196 206.335 302.898C204.431 306.91 203.761 308.194 202.313 308.274C202.018 308.301 172.978 308.783 162.976 297.227C160.161 293.963 159.196 289.977 160.161 285.376C165.256 261.087 188.825 253.918 211.349 252.902C211.349 252.902 212.261 271.627 211.698 272.028C211.162 272.349 211.055 273.045 211.403 273.526Z" fill="#000200"/>
<path d="M187.11 256.968C187.056 256.968 186.976 256.968 186.922 256.941C186.332 256.834 185.93 256.272 186.037 255.684C187.11 249.371 191.159 217.084 165.524 201.515C165.015 201.194 164.854 200.552 165.149 200.017C165.471 199.509 166.114 199.348 166.651 199.643C187.458 212.269 191.4 237.039 188.182 256.032C188.075 256.593 187.619 256.968 187.11 256.968Z" fill="#000200"/>
<path d="M445.976 147.053C449.381 144.404 453.591 141.087 452.814 136.272C452.733 135.764 452.465 134.186 451.071 133.651C448.711 132.768 444.743 135.309 431.764 146.009C414.282 160.454 404.414 194.801 402.671 220.562C402.376 225.056 402.135 229.202 401.893 232.974C400.687 253.33 400.07 263.522 394.224 264.057C388.593 264.619 381.488 249.238 374.65 234.418C372.88 230.539 371.057 226.58 369.18 222.702C358.642 200.9 344.243 180.437 310.456 178.43C310.161 178.404 309.867 178.511 309.652 178.725C309.572 178.805 309.491 178.912 309.438 178.992C310.135 180.035 310.805 181.079 311.475 182.149V180.677C343.331 183.005 357.113 202.693 367.222 223.638C369.099 227.517 370.923 231.476 372.693 235.328C380.63 252.555 386.931 266.224 393.929 266.224C394.09 266.224 394.251 266.224 394.412 266.197C402.135 265.528 402.725 255.363 404.065 233.107C404.28 229.336 404.548 225.216 404.843 220.722C406.559 195.39 416.132 161.738 433.132 147.695C438.495 143.254 448.47 134.988 450.293 135.684C450.4 135.711 450.561 135.978 450.669 136.62C451.232 140.178 447.88 142.799 444.635 145.341C442.008 147.4 439.514 149.353 439.326 151.814C439.192 153.58 440.238 155.051 441.364 156.602C443.831 160.026 446.888 164.253 439.862 174.712C439.541 175.22 439.675 175.889 440.157 176.21C440.667 176.558 441.337 176.397 441.659 175.916C449.516 164.226 445.654 158.876 443.107 155.345C442.142 154.034 441.391 152.964 441.471 152.001C441.605 150.477 443.724 148.818 445.976 147.053Z" fill="#000200"/>
<path d="M441.364 155.827C440.855 155.827 440.399 155.479 440.292 154.944C440.184 154.356 440.56 153.794 441.15 153.687C447.773 152.376 453.833 150.691 459.169 149.166C469.224 146.331 476.518 144.298 480.084 147.133C481.693 148.417 482.417 150.557 482.256 153.66C482.229 154.249 481.666 154.73 481.103 154.677C480.513 154.65 480.057 154.142 480.084 153.526C480.218 151.172 479.762 149.621 478.743 148.792C476.035 146.625 468.849 148.658 459.786 151.226C454.396 152.751 448.282 154.463 441.579 155.773C441.525 155.827 441.445 155.827 441.364 155.827Z" fill="#000200"/>
<path d="M455.28 162.702C454.851 162.702 454.449 162.434 454.261 162.006C454.047 161.444 454.315 160.829 454.878 160.615C475.203 152.724 483.382 150.932 486.117 153.821C487.35 155.131 487.296 157.138 485.983 160C485.741 160.535 485.071 160.776 484.535 160.535C483.998 160.294 483.757 159.652 483.998 159.09C484.856 157.218 485.044 155.854 484.508 155.292C481.8 152.456 463.485 159.572 455.629 162.621C455.548 162.675 455.414 162.702 455.28 162.702Z" fill="#000200"/>
<path d="M459.732 169.229C459.276 169.229 458.847 168.934 458.686 168.453C458.525 167.891 458.847 167.276 459.41 167.115C465.443 165.296 470.377 163.611 474.346 162.247C483.57 159.064 487.779 157.592 489.898 160.401C490.81 161.632 491.185 162.889 490.97 164.119C490.649 165.992 489.12 167.035 488.959 167.142C488.45 167.463 487.779 167.329 487.458 166.821C487.136 166.313 487.27 165.644 487.779 165.323C487.779 165.323 488.691 164.708 488.852 163.718C488.959 163.103 488.718 162.407 488.182 161.685C487.029 160.16 482.524 161.712 475.069 164.28C471.074 165.644 466.14 167.356 460.053 169.175C459.946 169.229 459.839 169.229 459.732 169.229Z" fill="#000200"/>
<path d="M398.864 330.023C395.914 330.023 392.884 329.782 389.854 329.301C370.333 326.225 353.252 313.732 344.162 295.917C343.894 295.382 344.109 294.74 344.645 294.472C345.181 294.205 345.825 294.419 346.093 294.954C354.888 312.154 371.379 324.218 390.202 327.188C405.862 329.649 421.012 325.369 430.719 315.685C452.305 294.151 449.73 234.419 448.765 211.922C448.068 195.39 455.308 191.003 463.003 186.322C463.996 185.734 464.988 185.118 466.007 184.476C469.171 182.443 473.595 180.544 477.859 178.672C483.677 176.157 490.274 173.295 491.051 170.968C491.158 170.647 491.132 170.379 490.944 170.031C489.442 167.437 488.986 167.49 480.942 170.754C477.188 172.278 472.04 174.365 464.693 176.853C464.13 177.04 463.513 176.746 463.325 176.184C463.137 175.622 463.432 175.007 463.996 174.82C471.289 172.359 476.384 170.272 480.111 168.747C487.941 165.564 490.3 164.601 492.794 168.961C493.277 169.817 493.384 170.727 493.089 171.636C492.017 174.873 485.849 177.548 478.717 180.624C474.534 182.443 470.19 184.316 467.16 186.242C466.141 186.884 465.122 187.526 464.103 188.114C456.353 192.822 450.267 196.514 450.91 211.761C451.875 234.499 454.476 294.927 432.221 317.13C423.962 325.502 411.895 330.023 398.864 330.023Z" fill="#000200"/>
<path d="M352.152 303.968C351.643 303.968 351.214 303.62 351.107 303.112C348.184 289.603 355.477 278.449 360.09 272.992C367.705 264.004 378.538 258.038 386.475 258.333C387.065 258.359 387.547 258.868 387.521 259.456C387.494 260.045 386.984 260.526 386.394 260.499C379.074 260.098 368.965 265.903 361.752 274.409C357.408 279.545 350.49 290.058 353.225 302.684C353.359 303.273 352.984 303.834 352.394 303.968C352.287 303.968 352.206 303.968 352.152 303.968Z" fill="#000200"/>
<path d="M364.38 316.46C357.113 308.943 354.485 297.896 351.16 283.879C348.854 274.195 346.253 263.228 341.561 251.431C341.373 250.949 340.89 250.682 340.381 250.762C339.871 250.842 339.496 251.27 339.469 251.779L338.504 273.714C338.504 273.847 338.504 273.954 338.558 274.061C338.558 274.061 338.879 275.105 339.442 276.79C339.55 277.138 339.898 277.432 340.274 277.512C340.622 277.592 340.971 277.673 341.319 277.726L341.775 277.78C342.312 277.78 342.901 277.619 343.465 277.459C343.625 277.405 343.84 277.352 344.054 277.298C344.43 282.22 344.752 291.048 344.51 295.435C344.51 295.622 344.537 295.809 344.618 295.97C348.532 303.754 355.987 314.026 363.066 318.092C363.227 318.199 363.414 318.226 363.602 318.226C363.924 318.226 364.246 318.092 364.46 317.798C364.782 317.45 364.755 316.835 364.38 316.46Z" fill="#000200"/>
<path d="M213.575 299.393C213.146 299.393 212.717 299.125 212.557 298.697C212.342 298.136 212.637 297.52 213.2 297.306C224.811 293.026 233.472 278.501 234.625 276.468C234.625 271.145 234.357 194.346 227.894 182.87C227.599 182.335 227.787 181.693 228.297 181.399C228.806 181.104 229.476 181.292 229.771 181.8C236.716 194.132 236.77 273.365 236.77 276.736C236.77 276.923 236.716 277.083 236.636 277.244C236.26 277.939 227.09 294.471 213.924 299.313C213.817 299.366 213.71 299.393 213.575 299.393Z" fill="#000200"/>
<path d="M329.2 277.806H246.504C246.209 277.806 245.941 277.699 245.727 277.485C245.512 277.271 245.405 277.003 245.405 276.709C245.78 247.311 245.003 189.531 239.452 181.319C239.13 180.81 239.237 180.142 239.747 179.821C240.23 179.473 240.927 179.607 241.249 180.115C248.167 190.387 247.684 265.207 247.577 275.639H328.154C328.476 266.277 330.674 197.048 325.606 182.656C325.419 182.094 325.714 181.479 326.277 181.292C326.84 181.105 327.457 181.399 327.671 181.961C333.195 197.716 330.406 273.553 330.299 276.763C330.272 277.351 329.789 277.806 329.2 277.806Z" fill="#000200"/>
<path d="M345.101 320.9C344.511 320.9 344.028 320.445 344.028 319.857L342.741 277.806H339.416C339.121 277.806 338.826 277.672 338.639 277.458C338.451 277.244 338.317 276.95 338.344 276.656C338.397 275.907 342.259 200.926 334.965 186.428C334.697 185.893 334.911 185.251 335.448 184.983C335.984 184.716 336.628 184.93 336.896 185.465C344.001 199.669 341.025 265.742 340.542 275.639H343.787C344.377 275.639 344.86 276.094 344.86 276.682L346.173 319.777C346.2 320.365 345.718 320.873 345.128 320.9H345.101Z" fill="#000200"/>
<path d="M246.317 277.806H235.537C234.948 277.806 234.465 277.325 234.465 276.736C234.465 276.148 234.948 275.666 235.537 275.666H246.317C246.907 275.666 247.389 276.148 247.389 276.736C247.416 277.325 246.933 277.806 246.317 277.806Z" fill="#000200"/>
<path d="M339.844 277.806H329.065C328.475 277.806 327.992 277.325 327.992 276.736C327.992 276.148 328.475 275.666 329.065 275.666H339.844C340.434 275.666 340.917 276.148 340.917 276.736C340.917 277.325 340.434 277.806 339.844 277.806Z" fill="#000200"/>
<path d="M268.197 325.902C268.009 325.902 267.848 325.849 267.687 325.769C267.151 325.474 266.963 324.832 267.258 324.297L277.877 305.064C278.172 304.529 278.815 304.342 279.352 304.636C279.888 304.93 280.076 305.572 279.781 306.107L269.162 325.34C268.948 325.715 268.572 325.902 268.197 325.902Z" fill="#000200"/>
<path d="M214.407 293.348L212.289 251.778C212.262 251.19 211.726 250.655 211.163 250.762C210.573 250.789 210.117 251.297 210.144 251.885L212.316 294.097C212.986 293.829 213.683 293.562 214.407 293.348Z" fill="#000200"/>
</g>
<defs>
<clipPath id="clip0_1064_54354">
<rect width="498" height="447" fill="white"/>
</clipPath>
</defs>
</svg>
