<svg width="25" height="25" viewBox="0 0 25 25" fill="none" xmlns="http://www.w3.org/2000/svg">
<g id="Icons">
<path id="Vector (Stroke)" fill-rule="evenodd" clip-rule="evenodd" d="M12.5 9.5C10.8431 9.5 9.5 10.8431 9.5 12.5C9.5 14.1569 10.8431 15.5 12.5 15.5C14.1569 15.5 15.5 14.1569 15.5 12.5C15.5 10.8431 14.1569 9.5 12.5 9.5ZM8 12.5C8 10.0147 10.0147 8 12.5 8C14.9853 8 17 10.0147 17 12.5C17 14.9853 14.9853 17 12.5 17C10.0147 17 8 14.9853 8 12.5Z" fill="#131313"/>
<path id="Vector (Stroke)_2" fill-rule="evenodd" clip-rule="evenodd" d="M8.375 4.625C6.30393 4.625 4.625 6.30393 4.625 8.375V16.625C4.625 18.6961 6.30393 20.375 8.375 20.375H16.625C18.6961 20.375 20.375 18.6961 20.375 16.625V8.375C20.375 6.30393 18.6961 4.625 16.625 4.625H8.375ZM3.125 8.375C3.125 5.47551 5.47551 3.125 8.375 3.125H16.625C19.5245 3.125 21.875 5.47551 21.875 8.375V16.625C21.875 19.5245 19.5245 21.875 16.625 21.875H8.375C5.47551 21.875 3.125 19.5245 3.125 16.625V8.375Z" fill="#131313"/>
<path id="Vector" d="M17.375 8.75C17.9963 8.75 18.5 8.24632 18.5 7.625C18.5 7.00368 17.9963 6.5 17.375 6.5C16.7537 6.5 16.25 7.00368 16.25 7.625C16.25 8.24632 16.7537 8.75 17.375 8.75Z" fill="#131313"/>
</g>
</svg>
