<svg width="180" height="52" viewBox="0 0 180 52" fill="none" xmlns="http://www.w3.org/2000/svg">
<path d="M179 46.0034C179 48.7745 176.709 51.0192 173.874 51.0192H6.13243C3.2995 51.0192 1 48.7745 1 46.0034V6.00382C1 3.23398 3.2995 0.981445 6.13243 0.981445H173.873C176.709 0.981445 178.999 3.23398 178.999 6.00382L179 46.0034Z" fill="white"/>
<path d="M173.333 1.04162C176.42 1.04162 178.932 3.4905 178.932 6.5V45.5C178.932 48.5095 176.42 50.9584 173.333 50.9584H6.66667C3.58 50.9584 1.06833 48.5095 1.06833 45.5V6.5C1.06833 3.4905 3.58 1.04162 6.66667 1.04162H173.333ZM173.333 2.74817e-06H6.66667C3.00167 2.74817e-06 0 2.92663 0 6.5V45.5C0 49.0734 3.00167 52 6.66667 52H173.333C176.998 52 180 49.0734 180 45.5V6.5C180 2.92663 176.998 2.74817e-06 173.333 2.74817e-06Z" fill="#131313"/>
<path d="M40.1695 25.7191C40.1308 21.5292 43.6881 19.4908 43.8508 19.3959C41.8361 16.532 38.7135 16.1407 37.6161 16.1095C34.9935 15.8404 32.4495 17.6396 31.1135 17.6396C29.7508 17.6396 27.6935 16.1355 25.4761 16.1797C22.6228 16.2226 19.9535 17.8333 18.4895 20.3345C15.4681 25.4344 17.7215 32.9289 20.6161 37.0512C22.0641 39.0701 23.7561 41.3243 25.9708 41.245C28.1375 41.1579 28.9468 39.8982 31.5615 39.8982C34.1521 39.8982 34.9121 41.245 37.1708 41.1943C39.4961 41.1579 40.9601 39.1663 42.3575 37.1292C44.0308 34.8152 44.7028 32.5363 44.7295 32.4193C44.6748 32.4011 40.2135 30.741 40.1695 25.7191Z" fill="#131313"/>
<path d="M35.9028 13.3977C37.0681 11.9768 37.8655 10.0437 37.6441 8.08203C35.9575 8.15483 33.8481 9.21953 32.6335 10.6092C31.5588 11.8338 30.5988 13.841 30.8468 15.7286C32.7415 15.8664 34.6868 14.7965 35.9028 13.3977Z" fill="#131313"/>
<path d="M70.98 40.9557H67.952L66.2933 35.874H60.528L58.948 40.9557H56L61.712 23.6553H65.24L70.98 40.9557ZM65.7933 33.742L64.2933 29.2245C64.1347 28.763 63.8373 27.6762 63.3987 25.9654H63.3453C63.1707 26.7012 62.8893 27.788 62.5027 29.2245L61.0293 33.742H65.7933Z" fill="#131313"/>
<path d="M85.669 34.5647C85.669 36.6863 85.081 38.3633 83.905 39.5944C82.8517 40.6903 81.5437 41.2376 79.9823 41.2376C78.297 41.2376 77.0863 40.6474 76.349 39.467H76.2957V46.0385H73.453V32.5874C73.453 31.2536 73.417 29.8847 73.3477 28.4807H75.8477L76.0063 30.458H76.0597C77.0077 28.9682 78.4463 28.2246 80.377 28.2246C81.8863 28.2246 83.1463 28.8057 84.1543 29.9692C85.165 31.134 85.669 32.6654 85.669 34.5647ZM82.773 34.6661C82.773 33.4519 82.493 32.4509 81.9303 31.6631C81.3157 30.8415 80.4903 30.4307 79.4557 30.4307C78.7543 30.4307 78.117 30.6595 77.5477 31.1106C76.977 31.5656 76.6037 32.1597 76.429 32.8955C76.341 33.2387 76.297 33.5195 76.297 33.7405V35.8205C76.297 36.7279 76.5823 37.4936 77.153 38.1189C77.7237 38.7442 78.465 39.0562 79.377 39.0562C80.4477 39.0562 81.281 38.6532 81.877 37.8498C82.4743 37.0451 82.773 35.9843 82.773 34.6661Z" fill="#131313"/>
<path d="M100.386 34.5647C100.386 36.6863 99.7984 38.3633 98.6211 39.5944C97.5691 40.6903 96.2611 41.2376 94.6997 41.2376C93.0144 41.2376 91.8037 40.6474 91.0677 39.467H91.0144V46.0385H88.1717V32.5874C88.1717 31.2536 88.1357 29.8847 88.0664 28.4807H90.5664L90.7251 30.458H90.7784C91.7251 28.9682 93.1637 28.2246 95.0957 28.2246C96.6037 28.2246 97.8637 28.8057 98.8744 29.9692C99.8811 31.134 100.386 32.6654 100.386 34.5647ZM97.4904 34.6661C97.4904 33.4519 97.2091 32.4509 96.6464 31.6631C96.0317 30.8415 95.2091 30.4307 94.1731 30.4307C93.4704 30.4307 92.8344 30.6595 92.2637 31.1106C91.6931 31.5656 91.3211 32.1597 91.1464 32.8955C91.0597 33.2387 91.0144 33.5195 91.0144 33.7405V35.8205C91.0144 36.7279 91.2997 37.4936 91.8677 38.1189C92.4384 38.7429 93.1797 39.0562 94.0944 39.0562C95.1651 39.0562 95.9984 38.6532 96.5944 37.8498C97.1917 37.0451 97.4904 35.9843 97.4904 34.6661Z" fill="#131313"/>
<path d="M116.84 36.1037C116.84 37.5753 116.316 38.7726 115.264 39.6969C114.108 40.707 112.499 41.2114 110.431 41.2114C108.521 41.2114 106.991 40.8526 105.832 40.1337L106.491 37.8236C107.739 38.5594 109.108 38.9286 110.6 38.9286C111.671 38.9286 112.504 38.692 113.103 38.2214C113.699 37.7508 113.996 37.119 113.996 36.3312C113.996 35.6292 113.751 35.0377 113.259 34.558C112.769 34.0783 111.952 33.6324 110.811 33.2203C107.704 32.0906 106.152 30.4357 106.152 28.2595C106.152 26.8373 106.696 25.6712 107.785 24.7638C108.871 23.8551 110.319 23.4014 112.129 23.4014C113.744 23.4014 115.085 23.6757 116.156 24.223L115.445 26.4824C114.445 25.952 113.315 25.6868 112.049 25.6868C111.049 25.6868 110.268 25.9273 109.708 26.4057C109.235 26.8334 108.997 27.3547 108.997 27.9722C108.997 28.656 109.268 29.2215 109.812 29.6661C110.285 30.0769 111.145 30.5215 112.393 31.0012C113.92 31.6005 115.041 32.3012 115.763 33.1046C116.481 33.9054 116.84 34.9077 116.84 36.1037Z" fill="#131313"/>
<path d="M126.237 30.5604H123.104V36.6171C123.104 38.1576 123.656 38.9272 124.763 38.9272C125.271 38.9272 125.692 38.8843 126.025 38.7985L126.104 40.9032C125.544 41.1073 124.807 41.21 123.893 41.21C122.771 41.21 121.893 40.8759 121.26 40.209C120.629 39.5408 120.312 38.4202 120.312 36.8459V30.5578H118.445V28.4778H120.312V26.1937L123.104 25.3721V28.4778H126.237V30.5604Z" fill="#131313"/>
<path d="M140.376 34.6151C140.376 36.5326 139.813 38.1069 138.69 39.338C137.513 40.6055 135.95 41.2373 134.002 41.2373C132.125 41.2373 130.63 40.6302 129.516 39.416C128.401 38.2018 127.844 36.6691 127.844 34.8218C127.844 32.8887 128.417 31.3053 129.568 30.0742C130.716 28.8418 132.265 28.2256 134.213 28.2256C136.09 28.2256 137.601 28.8327 138.741 30.0482C139.832 31.2273 140.376 32.7496 140.376 34.6151ZM137.426 34.7048C137.426 33.5543 137.174 32.5676 136.664 31.7447C136.068 30.7489 135.216 30.2523 134.112 30.2523C132.969 30.2523 132.101 30.7502 131.505 31.7447C130.994 32.5689 130.742 33.5712 130.742 34.7568C130.742 35.9073 130.994 36.894 131.505 37.7156C132.12 38.7114 132.978 39.208 134.086 39.208C135.172 39.208 136.024 38.701 136.638 37.6896C137.162 36.8511 137.426 35.854 137.426 34.7048Z" fill="#131313"/>
<path d="M149.615 30.9182C149.334 30.8675 149.034 30.8415 148.719 30.8415C147.719 30.8415 146.946 31.2094 146.402 31.9465C145.928 32.5965 145.691 33.4181 145.691 34.41V40.9555H142.85L142.876 32.4093C142.876 30.9715 142.84 29.6624 142.77 28.482H145.246L145.35 30.8688H145.428C145.728 30.0485 146.202 29.3881 146.85 28.8928C147.483 28.4469 148.167 28.2246 148.904 28.2246C149.167 28.2246 149.404 28.2428 149.615 28.2753V30.9182Z" fill="#131313"/>
<path d="M162.328 34.1279C162.328 34.6245 162.294 35.0431 162.224 35.385H153.696C153.729 36.6174 154.141 37.5599 154.933 38.2099C155.652 38.791 156.581 39.0822 157.722 39.0822C158.985 39.0822 160.137 38.8859 161.173 38.492L161.618 40.416C160.408 40.9308 158.978 41.1869 157.329 41.1869C155.345 41.1869 153.788 40.6175 152.654 39.48C151.524 38.3425 150.957 36.815 150.957 34.8988C150.957 33.0177 151.484 31.4512 152.538 30.2019C153.642 28.8681 155.134 28.2012 157.012 28.2012C158.856 28.2012 160.252 28.8681 161.2 30.2019C161.95 31.2614 162.328 32.5718 162.328 34.1279ZM159.617 33.409C159.636 32.5874 159.45 31.8776 159.065 31.2783C158.573 30.5074 157.817 30.1226 156.8 30.1226C155.87 30.1226 155.114 30.4983 154.537 31.2523C154.064 31.8516 153.782 32.5705 153.696 33.4077H159.617V33.409Z" fill="#131313"/>
<path d="M63.049 12.2734H61.4936C61.4652 12.0722 61.4072 11.8935 61.3196 11.7372C61.232 11.5786 61.1196 11.4437 60.9822 11.3324C60.8449 11.2211 60.6863 11.1359 60.5064 11.0767C60.3288 11.0175 60.1359 10.9879 59.9276 10.9879C59.5511 10.9879 59.2232 11.0814 58.9439 11.2685C58.6645 11.4531 58.4479 11.723 58.294 12.0781C58.1402 12.4309 58.0632 12.8594 58.0632 13.3636C58.0632 13.8821 58.1402 14.3177 58.294 14.6705C58.4503 15.0232 58.6681 15.2895 58.9474 15.4695C59.2268 15.6494 59.55 15.7393 59.9169 15.7393C60.1229 15.7393 60.3134 15.7121 60.4886 15.6577C60.6662 15.6032 60.8236 15.5239 60.9609 15.4197C61.0982 15.3132 61.2119 15.1842 61.3018 15.0327C61.3942 14.8812 61.4581 14.7083 61.4936 14.5142L63.049 14.5213C63.0088 14.8551 62.9081 15.1771 62.7472 15.4872C62.5885 15.795 62.3743 16.0708 62.1044 16.3146C61.8369 16.5561 61.5173 16.7479 61.1456 16.8899C60.7763 17.0296 60.3584 17.0994 59.892 17.0994C59.2434 17.0994 58.6634 16.9527 58.152 16.6591C57.643 16.3655 57.2405 15.9406 56.9446 15.3842C56.651 14.8279 56.5043 14.1544 56.5043 13.3636C56.5043 12.5705 56.6534 11.8958 56.9517 11.3395C57.25 10.7831 57.6548 10.3594 58.1662 10.0682C58.6776 9.77462 59.2528 9.62784 59.892 9.62784C60.3134 9.62784 60.7041 9.68703 61.0639 9.8054C61.4261 9.92377 61.7469 10.0966 62.0263 10.3239C62.3056 10.5488 62.5329 10.8246 62.7081 11.1513C62.8857 11.478 62.9993 11.852 63.049 12.2734ZM64.1232 17V11.5455H65.636V13.6619H66.0621L67.5465 11.5455H69.3221L67.3938 14.2514L69.3434 17H67.5465L66.2006 15.0646H65.636V17H64.1232ZM71.538 17.103C71.19 17.103 70.8799 17.0426 70.6076 16.9219C70.3353 16.7988 70.1199 16.6177 69.9613 16.3786C69.805 16.1371 69.7269 15.8364 69.7269 15.4766C69.7269 15.1735 69.7826 14.919 69.8938 14.7131C70.0051 14.5071 70.1566 14.3414 70.3484 14.2159C70.5401 14.0904 70.7579 13.9957 71.0018 13.9318C71.248 13.8679 71.506 13.8229 71.7759 13.7969C72.0932 13.7637 72.3488 13.733 72.543 13.7045C72.7371 13.6738 72.878 13.6288 72.9656 13.5696C73.0531 13.5104 73.0969 13.4228 73.0969 13.3068V13.2855C73.0969 13.0606 73.0259 12.8866 72.8839 12.7635C72.7442 12.6404 72.5453 12.5788 72.2873 12.5788C72.015 12.5788 71.7984 12.6392 71.6374 12.7599C71.4764 12.8783 71.3699 13.0275 71.3178 13.2074L69.9187 13.0938C69.9897 12.7623 70.1294 12.4759 70.3377 12.2344C70.546 11.9905 70.8147 11.8035 71.1438 11.6733C71.4753 11.5407 71.8588 11.4744 72.2944 11.4744C72.5974 11.4744 72.8874 11.5099 73.1644 11.581C73.4438 11.652 73.6912 11.7621 73.9066 11.9112C74.1244 12.0604 74.296 12.2521 74.4215 12.4865C74.547 12.7185 74.6097 12.9967 74.6097 13.321V17H73.1751V16.2436H73.1325C73.0449 16.4141 72.9277 16.5644 72.7809 16.6946C72.6341 16.8224 72.4577 16.9231 72.2518 16.9964C72.0458 17.0675 71.8079 17.103 71.538 17.103ZM71.9712 16.0589C72.1938 16.0589 72.3903 16.0152 72.5607 15.9276C72.7312 15.8376 72.8649 15.7169 72.962 15.5653C73.0591 15.4138 73.1076 15.2422 73.1076 15.0504V14.4716C73.0603 14.5024 72.9951 14.5308 72.9123 14.5568C72.8318 14.5805 72.7406 14.603 72.6388 14.6243C72.5371 14.6432 72.4353 14.661 72.3335 14.6776C72.2317 14.6918 72.1393 14.7048 72.0565 14.7166C71.8789 14.7427 71.7238 14.7841 71.5913 14.8409C71.4587 14.8977 71.3557 14.9747 71.2823 15.0717C71.2089 15.1664 71.1722 15.2848 71.1722 15.4268C71.1722 15.6328 71.2468 15.7902 71.396 15.8991C71.5475 16.0057 71.7392 16.0589 71.9712 16.0589ZM80.517 11.5455V17H79.0824V11.5455H80.517ZM79.8175 13.9389V15.1321C79.7015 15.1842 79.5571 15.2339 79.3842 15.2812C79.2114 15.3262 79.0303 15.3629 78.8409 15.3913C78.6515 15.4197 78.474 15.4339 78.3082 15.4339C77.5246 15.4339 76.9079 15.273 76.4581 14.951C76.0083 14.6267 75.7834 14.1094 75.7834 13.3991V11.5384H77.2109V13.3991C77.2109 13.6098 77.2464 13.7768 77.3175 13.8999C77.3909 14.023 77.5069 14.1117 77.6655 14.1662C77.8265 14.2183 78.0407 14.2443 78.3082 14.2443C78.5568 14.2443 78.8007 14.2183 79.0398 14.1662C79.2789 14.1141 79.5381 14.0384 79.8175 13.9389ZM83.247 17.103C82.899 17.103 82.5888 17.0426 82.3166 16.9219C82.0443 16.7988 81.8289 16.6177 81.6703 16.3786C81.514 16.1371 81.4359 15.8364 81.4359 15.4766C81.4359 15.1735 81.4915 14.919 81.6028 14.7131C81.7141 14.5071 81.8656 14.3414 82.0574 14.2159C82.2491 14.0904 82.4669 13.9957 82.7108 13.9318C82.957 13.8679 83.215 13.8229 83.4849 13.7969C83.8021 13.7637 84.0578 13.733 84.252 13.7045C84.4461 13.6738 84.5869 13.6288 84.6745 13.5696C84.7621 13.5104 84.8059 13.4228 84.8059 13.3068V13.2855C84.8059 13.0606 84.7349 12.8866 84.5929 12.7635C84.4532 12.6404 84.2543 12.5788 83.9963 12.5788C83.724 12.5788 83.5074 12.6392 83.3464 12.7599C83.1854 12.8783 83.0789 13.0275 83.0268 13.2074L81.6277 13.0938C81.6987 12.7623 81.8384 12.4759 82.0467 12.2344C82.255 11.9905 82.5237 11.8035 82.8528 11.6733C83.1842 11.5407 83.5678 11.4744 84.0034 11.4744C84.3064 11.4744 84.5964 11.5099 84.8734 11.581C85.1528 11.652 85.4002 11.7621 85.6156 11.9112C85.8334 12.0604 86.005 12.2521 86.1305 12.4865C86.256 12.7185 86.3187 12.9967 86.3187 13.321V17H84.8841V16.2436H84.8414C84.7538 16.4141 84.6367 16.5644 84.4899 16.6946C84.3431 16.8224 84.1667 16.9231 83.9608 16.9964C83.7548 17.0675 83.5169 17.103 83.247 17.103ZM83.6802 16.0589C83.9028 16.0589 84.0993 16.0152 84.2697 15.9276C84.4402 15.8376 84.5739 15.7169 84.671 15.5653C84.7681 15.4138 84.8166 15.2422 84.8166 15.0504V14.4716C84.7692 14.5024 84.7041 14.5308 84.6213 14.5568C84.5408 14.5805 84.4496 14.603 84.3478 14.6243C84.246 14.6432 84.1442 14.661 84.0424 14.6776C83.9406 14.6918 83.8483 14.7048 83.7654 14.7166C83.5879 14.7427 83.4328 14.7841 83.3002 14.8409C83.1677 14.8977 83.0647 14.9747 82.9913 15.0717C82.9179 15.1664 82.8812 15.2848 82.8812 15.4268C82.8812 15.6328 82.9558 15.7902 83.1049 15.8991C83.2565 16.0057 83.4482 16.0589 83.6802 16.0589ZM86.9446 12.7351V11.5455H91.8878V12.7351H90.13V17H88.6882V12.7351H86.9446ZM93.753 13.2216H95.383C96.1051 13.2216 96.6685 13.3944 97.0733 13.7401C97.4782 14.0833 97.6806 14.5426 97.6806 15.1179C97.6806 15.492 97.5894 15.821 97.4071 16.1051C97.2248 16.3868 96.9621 16.607 96.6188 16.7656C96.2755 16.9219 95.8636 17 95.383 17H92.8049V11.5455H94.2502V15.8104H95.383C95.6363 15.8104 95.8446 15.7464 96.008 15.6186C96.1713 15.4908 96.2542 15.3274 96.2566 15.1286C96.2542 14.9179 96.1713 14.7462 96.008 14.6136C95.8446 14.4787 95.6363 14.4112 95.383 14.4112H93.753V13.2216ZM100.998 17V11.5455H103.324C103.997 11.5455 104.528 11.6733 104.919 11.929C105.309 12.1847 105.505 12.5481 105.505 13.0192C105.505 13.3151 105.395 13.5613 105.174 13.7578C104.954 13.9543 104.649 14.0869 104.258 14.1555C104.585 14.1792 104.863 14.2538 105.093 14.3793C105.325 14.5024 105.501 14.6622 105.622 14.8587C105.745 15.0552 105.806 15.273 105.806 15.5121C105.806 15.8222 105.724 16.0885 105.558 16.3111C105.395 16.5336 105.154 16.7041 104.837 16.8224C104.522 16.9408 104.137 17 103.683 17H100.998ZM102.408 15.8672H103.683C103.894 15.8672 104.058 15.8175 104.176 15.718C104.297 15.6162 104.358 15.4777 104.358 15.3026C104.358 15.1084 104.297 14.9557 104.176 14.8445C104.058 14.7332 103.894 14.6776 103.683 14.6776H102.408V15.8672ZM102.408 13.7898H103.356C103.508 13.7898 103.637 13.7685 103.743 13.7259C103.852 13.6809 103.935 13.617 103.992 13.5341C104.051 13.4512 104.081 13.353 104.081 13.2393C104.081 13.0713 104.013 12.9399 103.878 12.8452C103.743 12.7505 103.559 12.7031 103.324 12.7031H102.408V13.7898Z" fill="#131313"/>
</svg>
