<svg width="24" height="24" viewBox="0 0 24 24" fill="none" xmlns="http://www.w3.org/2000/svg">
<path d="M15.9681 15.8452V14.9452H15.0681V15.8452H15.9681ZM21.4948 14.241L22.3575 14.4976L22.3642 14.4748L22.3698 14.4517L21.4948 14.241ZM22.904 8.38884L22.0413 8.13227L22.0346 8.15505L22.029 8.17815L22.904 8.38884ZM4.99462 3L5.86471 2.76992L5.68756 2.1H4.99462V3ZM8.00822 14.3968L7.13813 14.6268L7.14148 14.6395L7.14519 14.6521L8.00822 14.3968ZM8.11469 14.5943L8.92332 14.1992L8.87468 14.0996L8.80333 14.0149L8.11469 14.5943ZM15.9681 15.8473V16.7473H16.8681V15.8473H15.9681ZM1 2.1C0.502944 2.1 0.1 2.50294 0.1 3C0.1 3.49706 0.502944 3.9 1 3.9V2.1ZM15.9681 16.7452H19.3048V14.9452H15.9681V16.7452ZM19.3048 16.7452C20.7199 16.7452 21.9534 15.8564 22.3575 14.4976L20.6321 13.9845C20.4625 14.555 19.9496 14.9452 19.3048 14.9452V16.7452ZM22.3698 14.4517L23.779 8.59954L22.029 8.17815L20.6198 14.0304L22.3698 14.4517ZM23.7667 8.64541C24.056 7.6727 23.8704 6.68972 23.2501 5.88492L21.8244 6.98375C22.0943 7.33391 22.1646 7.71787 22.0413 8.13227L23.7667 8.64541ZM23.2501 5.88492C22.6314 5.08211 21.7286 4.64684 20.7148 4.64684V6.44684C21.1811 6.44684 21.553 6.63159 21.8244 6.98375L23.2501 5.88492ZM20.7148 4.64684H15.9681V6.44684H20.7148V4.64684ZM15.9681 4.64684H8.75793V6.44684H15.9681V4.64684ZM8.75793 4.64684C8.46389 4.64684 8.14317 4.71989 7.86931 4.80063C7.57872 4.8863 7.26945 5.00249 6.97538 5.13099C6.68122 5.25954 6.38801 5.40664 6.13113 5.5587C5.88982 5.70155 5.6229 5.88212 5.42736 6.08876L6.73479 7.32594C6.7347 7.32604 6.73651 7.32413 6.74066 7.32023C6.74478 7.31636 6.75066 7.31106 6.75854 7.30436C6.77453 7.29075 6.79632 7.27344 6.82468 7.2527C6.882 7.21077 6.95671 7.16172 7.04803 7.10767C7.23114 6.99928 7.45715 6.88483 7.69616 6.78038C7.93526 6.67589 8.17312 6.58765 8.37834 6.52715C8.6003 6.46171 8.72407 6.44684 8.75793 6.44684V4.64684ZM1.55662 3.9H4.99462V2.1H1.55662V3.9ZM4.12452 3.23008L7.13813 14.6268L8.87832 14.1667L5.86471 2.76992L4.12452 3.23008ZM7.14519 14.6521C7.20404 14.851 7.30235 15.0268 7.42605 15.1738L8.80333 14.0149C8.8324 14.0494 8.85677 14.0925 8.87125 14.1415L7.14519 14.6521ZM7.30606 14.9894C7.83549 16.073 8.93427 16.7473 10.1671 16.7473V14.9473C9.6019 14.9473 9.14211 14.647 8.92332 14.1992L7.30606 14.9894ZM10.1671 16.7473H15.9681V14.9473H10.1671V16.7473ZM16.8681 15.8473V15.8452H15.0681V15.8473H16.8681ZM18.9122 18.1957C19.4863 18.1957 19.9124 18.6436 19.9124 19.1479H21.7124C21.7124 17.6061 20.4364 16.3957 18.9122 16.3957V18.1957ZM19.9124 19.1479C19.9124 19.6524 19.4868 20.1 18.9122 20.1V21.9C20.4374 21.9 21.7124 20.6894 21.7124 19.1479H19.9124ZM18.9122 20.1C18.3386 20.1 17.9128 19.6526 17.9128 19.1479H16.1128C16.1128 20.6892 17.3875 21.9 18.9122 21.9V20.1ZM17.9128 19.1479C17.9128 18.6431 18.3386 18.1957 18.9122 18.1957V16.3957C17.3875 16.3957 16.1128 17.6065 16.1128 19.1479H17.9128ZM10.8089 18.1957C11.383 18.1957 11.809 18.6436 11.809 19.1479H13.609C13.609 17.6061 12.3331 16.3957 10.8089 16.3957V18.1957ZM11.809 19.1479C11.809 19.6524 11.3835 20.1 10.8089 20.1V21.9C12.3341 21.9 13.609 20.6894 13.609 19.1479H11.809ZM10.8089 20.1C10.2353 20.1 9.8095 19.6526 9.8095 19.1479H8.0095C8.0095 20.6892 9.28421 21.9 10.8089 21.9V20.1ZM9.8095 19.1479C9.8095 18.6431 10.2353 18.1957 10.8089 18.1957V16.3957C9.28421 16.3957 8.0095 17.6065 8.0095 19.1479H9.8095ZM1.55662 2.1H1V3.9H1.55662V2.1Z" fill="#7E7E7E"/>
</svg>
