<svg width="16" height="16" viewBox="0 0 16 16" fill="none" xmlns="http://www.w3.org/2000/svg">
<path fill-rule="evenodd" clip-rule="evenodd" d="M3.7929 1.79289C3.98044 1.60536 4.23479 1.5 4.50001 1.5H11.5C11.7652 1.5 12.0196 1.60536 12.2071 1.79289C12.3947 1.98043 12.5 2.23478 12.5 2.5V4.72808C12.4991 4.8822 12.4627 5.03404 12.3938 5.17189C12.3249 5.30974 12.2252 5.42991 12.1025 5.52314L8.30169 8.39874C8.12385 8.53328 7.87841 8.5338 7.70001 8.4L3.89754 5.54815C3.77482 5.45492 3.67516 5.33474 3.60623 5.19689C3.53731 5.05904 3.50097 4.9072 3.50002 4.75308L3.5 4.75L3.50001 2.5C3.50001 2.23478 3.60537 1.98043 3.7929 1.79289ZM11.5 2.5H4.50001V4.74723C4.50006 4.74808 4.50028 4.74891 4.50066 4.74968C4.50104 4.75044 4.50158 4.75112 4.50223 4.75166L7.9987 7.37401L11.4976 4.72686C11.4975 4.72688 11.4976 4.72684 11.4976 4.72686C11.4983 4.72629 11.4989 4.7255 11.4994 4.72467C11.4997 4.72391 11.5 4.72308 11.5 4.72223V2.5Z" fill="#7E7E7E"/>
<path fill-rule="evenodd" clip-rule="evenodd" d="M7.7 7.6C7.8784 7.4662 8.12384 7.46672 8.30168 7.60126L12.1025 10.4769C12.2252 10.5701 12.3249 10.6903 12.3938 10.8281C12.4627 10.966 12.499 11.1178 12.5 11.2719L12.5 11.275L12.5 13.5C12.5 13.7652 12.3946 14.0196 12.2071 14.2071C12.0196 14.3946 11.7652 14.5 11.5 14.5H4.5C4.23478 14.5 3.98043 14.3946 3.79289 14.2071C3.60536 14.0196 3.5 13.7652 3.5 13.5V11.2469C3.50095 11.0928 3.5373 10.941 3.60622 10.8031C3.67515 10.6653 3.77482 10.5451 3.89754 10.4519L3.89999 10.45L7.7 7.6ZM4.5 11.2528C4.50005 11.2519 4.50027 11.2511 4.50065 11.2503C4.50103 11.2496 4.50156 11.2489 4.50222 11.2483L7.99869 8.62599L11.4975 11.2731C11.4975 11.2731 11.4976 11.2732 11.4975 11.2731C11.4983 11.2737 11.4989 11.2745 11.4994 11.2753C11.4995 11.2756 11.4996 11.2759 11.4997 11.2761C11.4999 11.2767 11.5 11.2772 11.5 11.2778V13.5H4.5V11.2528Z" fill="#7E7E7E"/>
<path fill-rule="evenodd" clip-rule="evenodd" d="M3.5 11.2484C3.50087 10.9723 3.72542 10.7491 4.00156 10.75L12.0016 10.775C12.2777 10.7759 12.5009 11.0004 12.5 11.2766C12.4991 11.5527 12.2746 11.7759 11.9984 11.775L3.99844 11.75C3.7223 11.7491 3.49914 11.5246 3.5 11.2484Z" fill="#7E7E7E"/>
</svg>
