<svg width="24" height="20" viewBox="0 0 24 20" fill="none" xmlns="http://www.w3.org/2000/svg">
<path fill-rule="evenodd" clip-rule="evenodd" d="M14.9668 1.40201C15.7133 1.11678 16.5126 0.98074 17.3157 1.00219C18.1188 1.02365 18.9089 1.20215 19.6377 1.52679C20.3663 1.85131 21.0184 2.31504 21.5541 2.88967C23.7225 5.20571 23.3459 8.75517 21.1322 10.892L21.1308 10.8934L13.1523 18.5565L12.5951 18.0213L13.1496 18.559C12.8527 18.8415 12.4516 19 12.0337 19C11.6157 19 11.2147 18.8415 10.9177 18.559L10.915 18.5565L2.72968 10.6947C2.16178 10.1488 1.71552 9.49732 1.41856 8.78032C1.12159 8.06331 0.979947 7.29568 1.00228 6.52432C1.02462 5.75296 1.21047 4.99408 1.54848 4.29404C1.88635 3.59427 2.36916 2.96799 2.96744 2.45342C5.3788 0.37078 9.07434 0.732478 11.2991 2.85864L11.3027 2.862L12.034 3.5698L12.9719 2.66306L12.9739 2.66111C13.5422 2.11566 14.2203 1.68724 14.9668 1.40201ZM12.0406 17.4836L20.015 9.82435C21.7209 8.1771 21.9161 5.53964 20.3818 3.90131L20.3805 3.89996C19.9875 3.47833 19.5092 3.13809 18.9747 2.90002C18.4402 2.66195 17.8608 2.53105 17.2719 2.51531C16.6829 2.49958 16.0968 2.59934 15.5494 2.80851C15.0023 3.01752 14.5054 3.33138 14.0888 3.73095L14.0879 3.73185L12.5927 5.17737C12.4447 5.32043 12.2434 5.40086 12.0335 5.40081C11.8235 5.40075 11.6223 5.32022 11.4744 5.17709L10.1859 3.93008C8.47076 2.29257 5.72612 2.10601 4.02071 3.57942L4.01931 3.58064C3.58033 3.95807 3.22609 4.4175 2.97822 4.93086C2.73035 5.44423 2.59406 6.00074 2.57768 6.56641C2.56129 7.13207 2.66517 7.695 2.88294 8.2208C3.10072 8.74661 3.42783 9.22425 3.84428 9.62453L12.0267 17.4836C12.0286 17.4852 12.0312 17.4863 12.0337 17.4863C12.0361 17.4863 12.0388 17.4852 12.0406 17.4836Z" fill="#7E7E7E"/>
<path fill-rule="evenodd" clip-rule="evenodd" d="M14.9668 1.40201C15.7133 1.11678 16.5126 0.98074 17.3157 1.00219C18.1188 1.02365 18.9089 1.20215 19.6377 1.52679C20.3663 1.85131 21.0184 2.31504 21.5541 2.88967C23.7225 5.20571 23.3459 8.75517 21.1322 10.892L21.1308 10.8934L13.1523 18.5565L12.5951 18.0213L13.1496 18.559C12.8527 18.8415 12.4516 19 12.0337 19C11.6157 19 11.2147 18.8415 10.9177 18.559L10.915 18.5565L2.72968 10.6947C2.16178 10.1488 1.71552 9.49732 1.41856 8.78032C1.12159 8.06331 0.979947 7.29568 1.00228 6.52432C1.02462 5.75296 1.21047 4.99408 1.54848 4.29404C1.88635 3.59427 2.36916 2.96799 2.96744 2.45342C5.3788 0.37078 9.07434 0.732478 11.2991 2.85864L11.3027 2.862L12.034 3.5698L12.9719 2.66306L12.9739 2.66111C13.5422 2.11566 14.2203 1.68724 14.9668 1.40201ZM12.0406 17.4836L20.015 9.82435C21.7209 8.1771 21.9161 5.53964 20.3818 3.90131L20.3805 3.89996C19.9875 3.47833 19.5092 3.13809 18.9747 2.90002C18.4402 2.66195 17.8608 2.53105 17.2719 2.51531C16.6829 2.49958 16.0968 2.59934 15.5494 2.80851C15.0023 3.01752 14.5054 3.33138 14.0888 3.73095L14.0879 3.73185L12.5927 5.17737C12.4447 5.32043 12.2434 5.40086 12.0335 5.40081C11.8235 5.40075 11.6223 5.32022 11.4744 5.17709L10.1859 3.93008C8.47076 2.29257 5.72612 2.10601 4.02071 3.57942L4.01931 3.58064C3.58033 3.95807 3.22609 4.4175 2.97822 4.93086C2.73035 5.44423 2.59406 6.00074 2.57768 6.56641C2.56129 7.13207 2.66517 7.695 2.88294 8.2208C3.10072 8.74661 3.42783 9.22425 3.84428 9.62453L12.0267 17.4836C12.0286 17.4852 12.0312 17.4863 12.0337 17.4863C12.0361 17.4863 12.0388 17.4852 12.0406 17.4836Z" stroke="#7E7E7E" stroke-width="0.3" stroke-linecap="round" stroke-linejoin="round"/>
</svg>
