<svg width="24" height="24" viewBox="0 0 24 24" fill="none" xmlns="http://www.w3.org/2000/svg">
    <g id="Icons">
        <g id="Vector (Stroke)">
            <path fill-rule="evenodd" clip-rule="evenodd" d="M14.9668 3.40201C15.7133 3.11678 16.5126 2.98074 17.3157 3.00219C18.1188 3.02365 18.9089 3.20215 19.6377 3.52679C20.3663 3.85131 21.0184 4.31504 21.5541 4.88967C23.7225 7.20571 23.3459 10.7552 21.1322 12.892L21.1308 12.8934L13.1523 20.5565L12.5951 20.0213L13.1496 20.559C12.8527 20.8415 12.4516 21 12.0337 21C11.6157 21 11.2147 20.8415 10.9177 20.559L10.915 20.5565L2.72968 12.6947C2.16178 12.1488 1.71552 11.4973 1.41856 10.7803C1.12159 10.0633 0.979947 9.29568 1.00228 8.52432C1.02462 7.75296 1.21047 6.99408 1.54848 6.29404C1.88635 5.59427 2.36916 4.96799 2.96744 4.45342C5.3788 2.37078 9.07434 2.73248 11.2991 4.85864L11.3027 4.862L12.034 5.5698L12.9719 4.66306L12.9739 4.66111C13.5422 4.11566 14.2203 3.68724 14.9668 3.40201ZM12.0406 19.4836L20.015 11.8243C21.7209 10.1771 21.9161 7.53964 20.3818 5.90131L20.3805 5.89996C19.9875 5.47833 19.5092 5.13809 18.9747 4.90002C18.4402 4.66195 17.8608 4.53105 17.2719 4.51531C16.6829 4.49958 16.0968 4.59934 15.5494 4.80851C15.0023 5.01752 14.5054 5.33138 14.0888 5.73095L14.0879 5.73185L12.5927 7.17737C12.4447 7.32043 12.2434 7.40086 12.0335 7.40081C11.8235 7.40075 11.6223 7.32023 11.4744 7.17709L10.1859 5.93008C8.47076 4.29257 5.72612 4.10602 4.02071 5.57942L4.01931 5.58064C3.58033 5.95807 3.22609 6.4175 2.97822 6.93087C2.73035 7.44423 2.59406 8.00074 2.57768 8.56641C2.56129 9.13207 2.66517 9.695 2.88294 10.2208C3.10072 10.7466 3.42783 11.2242 3.84428 11.6245L12.0267 19.4836C12.0286 19.4852 12.0312 19.4863 12.0337 19.4863C12.0361 19.4863 12.0388 19.4852 12.0406 19.4836Z" fill="#131313" />
            <path d="M20.015 11.8243L12.0406 19.4836C12.0388 19.4852 12.0361 19.4863 12.0337 19.4863C12.0312 19.4863 12.0286 19.4852 12.0267 19.4836L3.84428 11.6245C3.42783 11.2242 3.10072 10.7466 2.88294 10.2208C2.66517 9.695 2.56129 9.13207 2.57768 8.56641C2.59406 8.00074 2.73035 7.44423 2.97822 6.93087C3.22609 6.4175 3.58033 5.95807 4.01931 5.58064L4.02071 5.57942C5.72612 4.10602 8.47076 4.29257 10.1859 5.93008L11.4744 7.17709C11.6223 7.32023 11.8235 7.40075 12.0335 7.40081C12.2434 7.40086 12.4447 7.32043 12.5927 7.17737L14.0879 5.73185L14.0888 5.73095C14.5054 5.33138 15.0023 5.01752 15.5494 4.80851C16.0968 4.59934 16.6829 4.49958 17.2719 4.51531C17.8608 4.53105 18.4402 4.66195 18.9747 4.90002C19.5092 5.13809 19.9875 5.47833 20.3805 5.89996L20.3818 5.90131C21.9161 7.53964 21.7209 10.1771 20.015 11.8243Z" fill="#131313" />
        </g>
    </g>
</svg>
