<svg width="180" height="52" viewBox="0 0 180 52" fill="none" xmlns="http://www.w3.org/2000/svg">
<path d="M173.333 52H6.66667C3.00167 52 0 49.0734 0 45.5V6.5C0 2.92663 3.00167 2.74817e-06 6.66667 2.74817e-06H173.333C176.998 2.74817e-06 180 2.92663 180 6.5V45.5C180 49.0734 176.998 52 173.333 52Z" fill="white"/>
<path d="M173.333 1.04162C176.42 1.04162 178.932 3.4905 178.932 6.5V45.5C178.932 48.5095 176.42 50.9584 173.333 50.9584H6.66667C3.58 50.9584 1.06833 48.5095 1.06833 45.5V6.5C1.06833 3.4905 3.58 1.04162 6.66667 1.04162H173.333ZM173.333 2.74817e-06H6.66667C3.00167 2.74817e-06 0 2.92663 0 6.5V45.5C0 49.0734 3.00167 52 6.66667 52H173.333C176.998 52 180 49.0734 180 45.5V6.5C180 2.92663 176.998 2.74817e-06 173.333 2.74817e-06Z" fill="#131313"/>
<path d="M92.2048 29.2783C89.0731 29.2783 86.5148 31.602 86.5148 34.8082C86.5148 37.9883 89.0731 40.3364 92.2048 40.3364C95.3431 40.3364 97.9014 37.9883 97.9014 34.8082C97.9014 31.602 95.3431 29.2783 92.2048 29.2783ZM92.2048 38.1589C90.4864 38.1589 89.0081 36.776 89.0081 34.8082C89.0081 32.8143 90.4864 31.4558 92.2048 31.4558C93.9231 31.4558 95.4081 32.8143 95.4081 34.8082C95.4081 36.776 93.9231 38.1589 92.2048 38.1589ZM79.7898 29.2783C76.6514 29.2783 74.0998 31.602 74.0998 34.8082C74.0998 37.9883 76.6514 40.3364 79.7898 40.3364C82.9264 40.3364 85.4798 37.9883 85.4798 34.8082C85.4798 31.602 82.9264 29.2783 79.7898 29.2783ZM79.7898 38.1589C78.0698 38.1589 76.5864 36.776 76.5864 34.8082C76.5864 32.8143 78.0698 31.4558 79.7898 31.4558C81.5081 31.4558 82.9864 32.8143 82.9864 34.8082C82.9864 36.776 81.5081 38.1589 79.7898 38.1589ZM65.0165 30.9732V33.3229H70.7714C70.6031 34.6359 70.1531 35.6012 69.4631 36.2739C68.6231 37.0864 67.3148 37.9883 65.0165 37.9883C61.4748 37.9883 58.7015 35.2014 58.7015 31.7483C58.7015 28.2952 61.4748 25.5083 65.0165 25.5083C66.9315 25.5083 68.3248 26.2379 69.3531 27.1837L71.0515 25.5278C69.6131 24.1888 67.6998 23.1602 65.0165 23.1602C60.1598 23.1602 56.0781 27.013 56.0781 31.7483C56.0781 36.4835 60.1598 40.3364 65.0165 40.3364C67.6415 40.3364 69.6131 39.4979 71.1631 37.9249C72.7514 36.3763 73.2464 34.1988 73.2464 32.4405C73.2464 31.8945 73.1998 31.3924 73.1165 30.9732H65.0165ZM125.426 32.7948C124.958 31.5582 123.513 29.2783 120.57 29.2783C117.653 29.2783 115.225 31.5192 115.225 34.8082C115.225 37.9054 117.628 40.3364 120.85 40.3364C123.455 40.3364 124.958 38.7878 125.576 37.8859L123.643 36.6298C122.998 37.5495 122.12 38.1589 120.85 38.1589C119.588 38.1589 118.683 37.595 118.103 36.4835L125.688 33.4237L125.426 32.7948ZM117.693 34.6359C117.628 32.5039 119.391 31.4119 120.655 31.4119C121.645 31.4119 122.485 31.8945 122.765 32.5852L117.693 34.6359ZM111.528 40H114.021V23.75H111.528V40ZM107.445 30.51H107.361C106.801 29.8633 105.733 29.2783 104.38 29.2783C101.54 29.2783 98.9431 31.7093 98.9431 34.826C98.9431 37.9249 101.54 40.3364 104.38 40.3364C105.733 40.3364 106.801 39.7465 107.361 39.0803H107.445V39.8733C107.445 41.9874 106.286 43.1233 104.418 43.1233C102.895 43.1233 101.95 42.0508 101.56 41.1489L99.3914 42.0313C100.016 43.497 101.671 45.3008 104.418 45.3008C107.341 45.3008 109.808 43.6238 109.808 39.5434V29.6147H107.445V30.51ZM104.593 38.1589C102.875 38.1589 101.436 36.7565 101.436 34.826C101.436 32.8777 102.875 31.4558 104.593 31.4558C106.286 31.4558 107.621 32.8777 107.621 34.826C107.621 36.7565 106.286 38.1589 104.593 38.1589ZM137.1 23.75H131.136V40H133.623V33.8429H137.1C139.861 33.8429 142.57 31.8945 142.57 28.7957C142.57 25.6984 139.855 23.75 137.1 23.75ZM137.165 31.5825H133.623V26.0104H137.165C139.021 26.0104 140.081 27.5135 140.081 28.7957C140.081 30.0534 139.021 31.5825 137.165 31.5825ZM152.536 29.2474C150.74 29.2474 148.871 30.0209 148.103 31.7353L150.31 32.6372C150.785 31.7353 151.658 31.4428 152.581 31.4428C153.871 31.4428 155.18 32.1984 155.2 33.5325V33.7032C154.75 33.4497 153.786 33.0743 152.601 33.0743C150.225 33.0743 147.803 34.3499 147.803 36.7305C147.803 38.908 149.75 40.3104 151.938 40.3104C153.611 40.3104 154.535 39.5743 155.115 38.7179H155.2V39.974H157.601V33.7405C157.601 30.8594 155.395 29.2474 152.536 29.2474ZM152.236 38.1524C151.423 38.1524 150.29 37.7592 150.29 36.776C150.29 35.5183 151.703 35.0357 152.926 35.0357C154.021 35.0357 154.535 35.2713 155.2 35.5817C155.005 37.0864 153.676 38.1524 152.236 38.1524ZM166.351 29.6033L163.493 36.6477H163.408L160.453 29.6033H157.771L162.211 39.4475L159.678 44.9254H162.276L169.118 29.6033H166.351ZM143.936 40H146.43V23.75H143.936V40Z" fill="#131313"/>
<path d="M13.9113 9.80044C13.5196 10.2002 13.293 10.8226 13.293 11.6286V40.3781C13.293 41.1841 13.5196 41.8064 13.9113 42.2062L14.008 42.2939L30.5313 26.1902V25.8099L14.008 9.7062L13.9113 9.80044Z" fill="url(#paint0_linear_1057_52617)"/>
<path d="M36.0329 31.5605L30.5312 26.1899V25.8097L36.0396 20.439L36.1629 20.5089L42.6862 24.1278C44.5479 25.1548 44.5479 26.8448 42.6862 27.8783L36.1629 31.4907L36.0329 31.5605Z" fill="url(#paint1_linear_1057_52617)"/>
<path d="M36.1657 31.4912L30.5341 26.0003L13.9141 42.2065C14.5324 42.8402 15.5407 42.9166 16.6874 42.2828L36.1657 31.4912Z" fill="url(#paint2_linear_1057_52617)"/>
<path d="M36.1657 20.5091L16.6874 9.71751C15.5407 9.09025 14.5324 9.16663 13.9141 9.80038L30.5341 26L36.1657 20.5091Z" fill="url(#paint3_linear_1057_52617)"/>
<path d="M63.1271 12.2734H61.5717C61.5433 12.0722 61.4853 11.8935 61.3977 11.7372C61.3101 11.5786 61.1977 11.4437 61.0604 11.3324C60.9231 11.2211 60.7644 11.1359 60.5845 11.0767C60.407 11.0175 60.214 10.9879 60.0057 10.9879C59.6293 10.9879 59.3014 11.0814 59.022 11.2685C58.7427 11.4531 58.526 11.723 58.3722 12.0781C58.2183 12.4309 58.1413 12.8594 58.1413 13.3636C58.1413 13.8821 58.2183 14.3177 58.3722 14.6705C58.5284 15.0232 58.7462 15.2895 59.0256 15.4695C59.3049 15.6494 59.6281 15.7393 59.995 15.7393C60.201 15.7393 60.3916 15.7121 60.5668 15.6577C60.7443 15.6032 60.9018 15.5239 61.0391 15.4197C61.1764 15.3132 61.29 15.1842 61.38 15.0327C61.4723 14.8812 61.5362 14.7083 61.5717 14.5142L63.1271 14.5213C63.0869 14.8551 62.9863 15.1771 62.8253 15.4872C62.6667 15.795 62.4524 16.0708 62.1825 16.3146C61.915 16.5561 61.5954 16.7479 61.2237 16.8899C60.8544 17.0296 60.4366 17.0994 59.9702 17.0994C59.3215 17.0994 58.7415 16.9527 58.2301 16.6591C57.7211 16.3655 57.3187 15.9406 57.0227 15.3842C56.7292 14.8279 56.5824 14.1544 56.5824 13.3636C56.5824 12.5705 56.7315 11.8958 57.0298 11.3395C57.3281 10.7831 57.733 10.3594 58.2443 10.0682C58.7557 9.77462 59.331 9.62784 59.9702 9.62784C60.3916 9.62784 60.7822 9.68703 61.142 9.8054C61.5043 9.92377 61.825 10.0966 62.1044 10.3239C62.3838 10.5488 62.611 10.8246 62.7862 11.1513C62.9638 11.478 63.0774 11.852 63.1271 12.2734ZM64.2013 17V11.5455H65.7141V13.6619H66.1403L67.6246 11.5455H69.4002L67.4719 14.2514L69.4215 17H67.6246L66.2788 15.0646H65.7141V17H64.2013ZM71.6161 17.103C71.2681 17.103 70.958 17.0426 70.6857 16.9219C70.4135 16.7988 70.198 16.6177 70.0394 16.3786C69.8832 16.1371 69.805 15.8364 69.805 15.4766C69.805 15.1735 69.8607 14.919 69.9719 14.7131C70.0832 14.5071 70.2347 14.3414 70.4265 14.2159C70.6183 14.0904 70.8361 13.9957 71.0799 13.9318C71.3261 13.8679 71.5842 13.8229 71.854 13.7969C72.1713 13.7637 72.427 13.733 72.6211 13.7045C72.8152 13.6738 72.9561 13.6288 73.0437 13.5696C73.1313 13.5104 73.1751 13.4228 73.1751 13.3068V13.2855C73.1751 13.0606 73.104 12.8866 72.962 12.7635C72.8223 12.6404 72.6235 12.5788 72.3654 12.5788C72.0932 12.5788 71.8765 12.6392 71.7156 12.7599C71.5546 12.8783 71.448 13.0275 71.396 13.2074L69.9968 13.0938C70.0678 12.7623 70.2075 12.4759 70.4158 12.2344C70.6242 11.9905 70.8929 11.8035 71.2219 11.6733C71.5534 11.5407 71.9369 11.4744 72.3725 11.4744C72.6755 11.4744 72.9656 11.5099 73.2425 11.581C73.5219 11.652 73.7693 11.7621 73.9847 11.9112C74.2025 12.0604 74.3742 12.2521 74.4996 12.4865C74.6251 12.7185 74.6879 12.9967 74.6879 13.321V17H73.2532V16.2436H73.2106C73.123 16.4141 73.0058 16.5644 72.859 16.6946C72.7122 16.8224 72.5359 16.9231 72.3299 16.9964C72.1239 17.0675 71.886 17.103 71.6161 17.103ZM72.0494 16.0589C72.2719 16.0589 72.4684 16.0152 72.6388 15.9276C72.8093 15.8376 72.9431 15.7169 73.0401 15.5653C73.1372 15.4138 73.1857 15.2422 73.1857 15.0504V14.4716C73.1384 14.5024 73.0733 14.5308 72.9904 14.5568C72.9099 14.5805 72.8188 14.603 72.717 14.6243C72.6152 14.6432 72.5134 14.661 72.4116 14.6776C72.3098 14.6918 72.2174 14.7048 72.1346 14.7166C71.957 14.7427 71.802 14.7841 71.6694 14.8409C71.5368 14.8977 71.4338 14.9747 71.3604 15.0717C71.2871 15.1664 71.2504 15.2848 71.2504 15.4268C71.2504 15.6328 71.3249 15.7902 71.4741 15.8991C71.6256 16.0057 71.8174 16.0589 72.0494 16.0589ZM80.5952 11.5455V17H79.1605V11.5455H80.5952ZM79.8956 13.9389V15.1321C79.7796 15.1842 79.6352 15.2339 79.4624 15.2812C79.2895 15.3262 79.1084 15.3629 78.919 15.3913C78.7296 15.4197 78.5521 15.4339 78.3864 15.4339C77.6027 15.4339 76.986 15.273 76.5362 14.951C76.0864 14.6267 75.8615 14.1094 75.8615 13.3991V11.5384H77.2891V13.3991C77.2891 13.6098 77.3246 13.7768 77.3956 13.8999C77.469 14.023 77.585 14.1117 77.7436 14.1662C77.9046 14.2183 78.1188 14.2443 78.3864 14.2443C78.6349 14.2443 78.8788 14.2183 79.1179 14.1662C79.357 14.1141 79.6162 14.0384 79.8956 13.9389ZM83.3251 17.103C82.9771 17.103 82.667 17.0426 82.3947 16.9219C82.1225 16.7988 81.907 16.6177 81.7484 16.3786C81.5922 16.1371 81.514 15.8364 81.514 15.4766C81.514 15.1735 81.5697 14.919 81.6809 14.7131C81.7922 14.5071 81.9437 14.3414 82.1355 14.2159C82.3272 14.0904 82.545 13.9957 82.7889 13.9318C83.0351 13.8679 83.2931 13.8229 83.563 13.7969C83.8803 13.7637 84.1359 13.733 84.3301 13.7045C84.5242 13.6738 84.6651 13.6288 84.7527 13.5696C84.8403 13.5104 84.8841 13.4228 84.8841 13.3068V13.2855C84.8841 13.0606 84.813 12.8866 84.671 12.7635C84.5313 12.6404 84.3324 12.5788 84.0744 12.5788C83.8021 12.5788 83.5855 12.6392 83.4245 12.7599C83.2636 12.8783 83.157 13.0275 83.1049 13.2074L81.7058 13.0938C81.7768 12.7623 81.9165 12.4759 82.1248 12.2344C82.3332 11.9905 82.6019 11.8035 82.9309 11.6733C83.2624 11.5407 83.6459 11.4744 84.0815 11.4744C84.3845 11.4744 84.6745 11.5099 84.9515 11.581C85.2309 11.652 85.4783 11.7621 85.6937 11.9112C85.9115 12.0604 86.0832 12.2521 86.2086 12.4865C86.3341 12.7185 86.3968 12.9967 86.3968 13.321V17H84.9622V16.2436H84.9196C84.832 16.4141 84.7148 16.5644 84.568 16.6946C84.4212 16.8224 84.2449 16.9231 84.0389 16.9964C83.8329 17.0675 83.595 17.103 83.3251 17.103ZM83.7583 16.0589C83.9809 16.0589 84.1774 16.0152 84.3478 15.9276C84.5183 15.8376 84.652 15.7169 84.7491 15.5653C84.8462 15.4138 84.8947 15.2422 84.8947 15.0504V14.4716C84.8474 14.5024 84.7823 14.5308 84.6994 14.5568C84.6189 14.5805 84.5278 14.603 84.426 14.6243C84.3242 14.6432 84.2224 14.661 84.1206 14.6776C84.0188 14.6918 83.9264 14.7048 83.8436 14.7166C83.666 14.7427 83.5109 14.7841 83.3784 14.8409C83.2458 14.8977 83.1428 14.9747 83.0694 15.0717C82.996 15.1664 82.9593 15.2848 82.9593 15.4268C82.9593 15.6328 83.0339 15.7902 83.1831 15.8991C83.3346 16.0057 83.5263 16.0589 83.7583 16.0589ZM87.0227 12.7351V11.5455H91.9659V12.7351H90.2081V17H88.7663V12.7351H87.0227ZM93.8311 13.2216H95.4611C96.1832 13.2216 96.7466 13.3944 97.1515 13.7401C97.5563 14.0833 97.7587 14.5426 97.7587 15.1179C97.7587 15.492 97.6676 15.821 97.4853 16.1051C97.303 16.3868 97.0402 16.607 96.6969 16.7656C96.3536 16.9219 95.9417 17 95.4611 17H92.883V11.5455H94.3283V15.8104H95.4611C95.7144 15.8104 95.9228 15.7464 96.0861 15.6186C96.2495 15.4908 96.3323 15.3274 96.3347 15.1286C96.3323 14.9179 96.2495 14.7462 96.0861 14.6136C95.9228 14.4787 95.7144 14.4112 95.4611 14.4112H93.8311V13.2216ZM101.076 17V11.5455H103.402C104.075 11.5455 104.606 11.6733 104.997 11.929C105.387 12.1847 105.583 12.5481 105.583 13.0192C105.583 13.3151 105.473 13.5613 105.252 13.7578C105.032 13.9543 104.727 14.0869 104.336 14.1555C104.663 14.1792 104.941 14.2538 105.171 14.3793C105.403 14.5024 105.579 14.6622 105.7 14.8587C105.823 15.0552 105.885 15.273 105.885 15.5121C105.885 15.8222 105.802 16.0885 105.636 16.3111C105.473 16.5336 105.232 16.7041 104.915 16.8224C104.6 16.9408 104.216 17 103.761 17H101.076ZM102.486 15.8672H103.761C103.972 15.8672 104.136 15.8175 104.255 15.718C104.375 15.6162 104.436 15.4777 104.436 15.3026C104.436 15.1084 104.375 14.9557 104.255 14.8445C104.136 14.7332 103.972 14.6776 103.761 14.6776H102.486V15.8672ZM102.486 13.7898H103.434C103.586 13.7898 103.715 13.7685 103.821 13.7259C103.93 13.6809 104.013 13.617 104.07 13.5341C104.129 13.4512 104.159 13.353 104.159 13.2393C104.159 13.0713 104.091 12.9399 103.956 12.8452C103.821 12.7505 103.637 12.7031 103.402 12.7031H102.486V13.7898Z" fill="#131313"/>
<defs>
<linearGradient id="paint0_linear_1057_52617" x1="29.0642" y1="40.6775" x2="7.25409" y2="18.3081" gradientUnits="userSpaceOnUse">
<stop stop-color="#00A0FF"/>
<stop offset="0.0066" stop-color="#00A1FF"/>
<stop offset="0.2601" stop-color="#00BEFF"/>
<stop offset="0.5122" stop-color="#00D2FF"/>
<stop offset="0.7604" stop-color="#00DFFF"/>
<stop offset="1" stop-color="#00E3FF"/>
</linearGradient>
<linearGradient id="paint1_linear_1057_52617" x1="45.1104" y1="25.998" x2="12.8479" y2="25.998" gradientUnits="userSpaceOnUse">
<stop stop-color="#FFE000"/>
<stop offset="0.4087" stop-color="#FFBD00"/>
<stop offset="0.7754" stop-color="#FFA500"/>
<stop offset="1" stop-color="#FF9C00"/>
</linearGradient>
<linearGradient id="paint2_linear_1057_52617" x1="33.1034" y1="23.0154" x2="3.52709" y2="-7.31927" gradientUnits="userSpaceOnUse">
<stop stop-color="#FF3A44"/>
<stop offset="1" stop-color="#C31162"/>
</linearGradient>
<linearGradient id="paint3_linear_1057_52617" x1="9.73046" y1="51.7709" x2="22.9376" y2="38.2253" gradientUnits="userSpaceOnUse">
<stop stop-color="#32A071"/>
<stop offset="0.0685" stop-color="#2DA771"/>
<stop offset="0.4762" stop-color="#15CF74"/>
<stop offset="0.8009" stop-color="#06E775"/>
<stop offset="1" stop-color="#00F076"/>
</linearGradient>
</defs>
</svg>
