<svg width="147" height="32" viewBox="0 0 147 32" fill="none" xmlns="http://www.w3.org/2000/svg">
<rect x="27" y="1" width="79" height="30" fill="#F7F8EF" stroke="#131313" stroke-width="2"/>
<path d="M45.342 10.156C45.534 10.156 45.666 10.198 45.738 10.282C45.822 10.366 45.864 10.498 45.864 10.678V12.172C45.864 12.352 45.822 12.484 45.738 12.568C45.666 12.652 45.534 12.694 45.342 12.694H42.588V21.478C42.588 21.67 42.546 21.808 42.462 21.892C42.378 21.964 42.246 22 42.066 22H40.284C40.104 22 39.972 21.964 39.888 21.892C39.804 21.808 39.762 21.67 39.762 21.478V12.694H36.99C36.798 12.694 36.66 12.652 36.576 12.568C36.504 12.484 36.468 12.352 36.468 12.172V10.678C36.468 10.498 36.504 10.366 36.576 10.282C36.66 10.198 36.798 10.156 36.99 10.156H45.342ZM56.9243 21.496C56.9603 21.568 56.9783 21.64 56.9783 21.712C56.9783 21.904 56.8583 22 56.6183 22H54.7283C54.5243 22 54.3743 21.964 54.2783 21.892C54.1943 21.82 54.1163 21.676 54.0443 21.46L53.5403 20.038H49.1303L48.6263 21.46C48.5543 21.676 48.4703 21.82 48.3743 21.892C48.2903 21.964 48.1463 22 47.9423 22H46.0523C45.8123 22 45.6923 21.904 45.6923 21.712C45.6923 21.64 45.7103 21.568 45.7463 21.496L49.7423 10.714C49.8143 10.522 49.9043 10.384 50.0123 10.3C50.1323 10.204 50.2883 10.156 50.4803 10.156H52.2083C52.4003 10.156 52.5503 10.204 52.6583 10.3C52.7663 10.384 52.8623 10.522 52.9463 10.714L56.9243 21.496ZM51.3443 13.54L49.9943 17.518H52.6943L51.3443 13.54ZM64.287 15.124C64.935 15.316 65.469 15.514 65.889 15.718C66.309 15.922 66.681 16.246 67.005 16.69C67.329 17.134 67.491 17.734 67.491 18.49C67.491 19.726 67.053 20.668 66.177 21.316C65.301 21.952 64.143 22.27 62.703 22.27C61.923 22.27 61.161 22.126 60.417 21.838C59.673 21.538 59.061 21.1 58.581 20.524C58.101 19.936 57.861 19.246 57.861 18.454C57.861 18.25 57.897 18.118 57.969 18.058C58.041 17.986 58.179 17.95 58.383 17.95H60.129C60.357 17.95 60.519 17.98 60.615 18.04C60.711 18.1 60.765 18.238 60.777 18.454C60.801 18.706 60.915 18.952 61.119 19.192C61.287 19.396 61.527 19.546 61.839 19.642C62.163 19.738 62.511 19.786 62.883 19.786C63.435 19.786 63.867 19.702 64.179 19.534C64.491 19.354 64.647 19.03 64.647 18.562C64.647 18.226 64.491 17.98 64.179 17.824C63.867 17.668 63.375 17.512 62.703 17.356C62.103 17.212 61.707 17.11 61.515 17.05C60.783 16.822 60.171 16.576 59.679 16.312C59.199 16.048 58.803 15.688 58.491 15.232C58.179 14.776 58.023 14.188 58.023 13.468C58.023 12.724 58.221 12.088 58.617 11.56C59.025 11.032 59.559 10.63 60.219 10.354C60.891 10.078 61.617 9.922 62.397 9.886C63.201 9.886 63.969 10.012 64.701 10.264C65.433 10.516 66.027 10.9 66.483 11.416C66.951 11.92 67.185 12.55 67.185 13.306C67.185 13.522 67.149 13.66 67.077 13.72C67.017 13.78 66.879 13.81 66.663 13.81H64.899C64.767 13.81 64.671 13.78 64.611 13.72C64.551 13.648 64.503 13.57 64.467 13.486C64.443 13.402 64.425 13.348 64.413 13.324C64.341 13.144 64.215 12.964 64.035 12.784C63.867 12.628 63.639 12.508 63.351 12.424C63.075 12.34 62.793 12.298 62.505 12.298C62.121 12.298 61.761 12.382 61.425 12.55C61.089 12.718 60.921 12.982 60.921 13.342C60.921 13.714 61.161 14.014 61.641 14.242C62.133 14.47 62.775 14.692 63.567 14.908C63.903 14.98 64.143 15.052 64.287 15.124ZM79.4694 10.156C79.5654 10.156 79.6374 10.18 79.6854 10.228C79.7334 10.276 79.7574 10.336 79.7574 10.408C79.7574 10.504 79.7214 10.588 79.6494 10.66L75.5994 15.052L79.4694 21.424C79.5174 21.484 79.5414 21.568 79.5414 21.676C79.5414 21.76 79.5114 21.838 79.4514 21.91C79.3914 21.97 79.3074 22 79.1994 22H77.0034C76.7994 22 76.6254 21.958 76.4814 21.874C76.3494 21.778 76.2234 21.628 76.1034 21.424L73.5294 17.104L72.4134 18.274V21.478C72.4134 21.67 72.3714 21.808 72.2874 21.892C72.2034 21.964 72.0774 22 71.9094 22H70.1274C69.9474 22 69.8154 21.964 69.7314 21.892C69.6474 21.82 69.6054 21.682 69.6054 21.478V10.678C69.6054 10.474 69.6474 10.336 69.7314 10.264C69.8154 10.192 69.9474 10.156 70.1274 10.156H71.9094C72.0774 10.156 72.2034 10.198 72.2874 10.282C72.3714 10.354 72.4134 10.486 72.4134 10.678V14.692L76.1394 10.588C76.3194 10.396 76.4574 10.276 76.5534 10.228C76.6614 10.18 76.8234 10.156 77.0394 10.156H79.4694ZM90.3021 18.202C90.3021 19.09 90.0561 19.84 89.5641 20.452C89.0841 21.064 88.4721 21.52 87.7281 21.82C86.9841 22.12 86.2281 22.27 85.4601 22.27C84.6921 22.27 83.9361 22.126 83.1921 21.838C82.4601 21.538 81.8541 21.082 81.3741 20.47C80.8941 19.846 80.6541 19.09 80.6541 18.202V13.954C80.6541 13.066 80.8941 12.316 81.3741 11.704C81.8541 11.08 82.4601 10.624 83.1921 10.336C83.9361 10.036 84.6921 9.886 85.4601 9.886C86.2281 9.886 86.9841 10.036 87.7281 10.336C88.4721 10.636 89.0841 11.092 89.5641 11.704C90.0561 12.316 90.3021 13.066 90.3021 13.954V18.202ZM87.4761 14.206C87.4761 13.642 87.2901 13.198 86.9181 12.874C86.5461 12.55 86.0601 12.388 85.4601 12.388C84.8601 12.388 84.3741 12.55 84.0021 12.874C83.6421 13.198 83.4621 13.642 83.4621 14.206V17.95C83.4621 18.514 83.6421 18.958 84.0021 19.282C84.3741 19.606 84.8601 19.768 85.4601 19.768C86.0601 19.768 86.5461 19.606 86.9181 19.282C87.2901 18.958 87.4761 18.514 87.4761 17.95V14.206ZM102.048 10.156C102.168 10.156 102.258 10.192 102.318 10.264C102.378 10.324 102.408 10.402 102.408 10.498C102.408 10.546 102.396 10.606 102.372 10.678L98.5196 21.46C98.4116 21.688 98.3096 21.838 98.2136 21.91C98.1296 21.97 97.9856 22 97.7816 22H96.0536C95.8496 22 95.6996 21.97 95.6036 21.91C95.5196 21.838 95.4236 21.688 95.3156 21.46L91.4456 10.678C91.4216 10.606 91.4096 10.546 91.4096 10.498C91.4096 10.402 91.4396 10.324 91.4996 10.264C91.5596 10.192 91.6496 10.156 91.7696 10.156H93.7676C93.9956 10.156 94.1576 10.198 94.2536 10.282C94.3496 10.354 94.4336 10.504 94.5056 10.732L96.9536 18.184L99.3836 10.732C99.4556 10.504 99.5396 10.354 99.6356 10.282C99.7316 10.198 99.8996 10.156 100.14 10.156H102.048Z" fill="#131313"/>
<g clip-path="url(#clip0_1101_17536)">
<path d="M17.8078 10.793C17.8089 10.2726 18.2318 9.85196 18.7522 9.85309L26.1699 9.86563L26.1835 1.87012L12.6508 1.84711C12.6423 6.86489 12.6337 11.8827 12.6251 16.9004L17.7976 16.909L17.8078 10.793ZM32.6955 26.2374C32.6944 26.7577 32.2711 27.1787 31.7508 27.1776L28.0251 27.1712L28.0183 31.1152C28.0172 31.6355 27.594 32.0565 27.0739 32.0551L11.6566 32.0292C11.1359 32.0277 10.7152 31.6048 10.7163 31.0844L10.7231 27.1417L1.56709 27.1261C1.04673 27.125 0.626047 26.7021 0.627177 26.1817L0.65342 10.764C0.65455 10.2437 1.07781 9.82268 1.59817 9.82381L10.7522 9.83939L10.7675 0.901064C10.7689 0.380388 11.1919 -0.0402955 11.7122 -0.0391658L27.1299 -0.0129251C27.6502 -0.0117955 28.0709 0.411134 28.0698 0.931494L28.0542 9.86885L31.7819 9.87526C32.3022 9.87639 32.7229 10.2993 32.7214 10.82C32.7128 15.9591 32.7042 21.0982 32.6955 26.2374ZM30.8277 16.1013L24.7117 16.0911C23.4723 16.0879 23.4765 14.2032 24.7162 14.2062L30.8312 14.2166L30.8352 11.7586L19.6908 11.7394L19.6807 17.8553C19.6795 18.3757 19.2563 18.7967 18.7356 18.7952L11.6787 18.7835C11.1584 18.7824 10.7374 18.3591 10.7385 17.8387L10.749 11.7244L2.53647 11.7104L2.51346 25.2431C11.9465 25.2591 21.3795 25.275 30.8125 25.291L30.8164 22.833L24.7001 22.8225C23.461 22.8195 23.4652 20.9349 24.705 20.9378L30.8197 20.948L30.8224 19.4671L24.7058 19.457C23.4663 19.4537 23.4705 17.569 24.7103 17.572L30.8253 17.5825L30.8277 16.1013ZM26.1404 27.1677L12.6077 27.1453L12.6026 30.1458L26.1353 30.1688L26.1404 27.1677Z" fill="#131313"/>
<path d="M26.1404 27.1677L12.6077 27.1453L12.6026 30.1458L26.1353 30.1688L26.1404 27.1677Z" fill="#F7F8EF"/>
<path d="M30.8277 16.1013L24.7117 16.0911C23.4723 16.0879 23.4765 14.2032 24.7162 14.2062L30.8312 14.2166L30.8352 11.7586L19.6908 11.7394L19.6807 17.8553C19.6795 18.3757 19.2563 18.7967 18.7356 18.7952L11.6787 18.7835C11.1584 18.7824 10.7374 18.3591 10.7385 17.8387L10.749 11.7244L2.53647 11.7104L2.51346 25.2431L30.8125 25.291L30.8164 22.833L24.7001 22.8225C23.461 22.8195 23.4652 20.9349 24.705 20.9378L30.8197 20.948L30.8224 19.4671L24.7058 19.457C23.4663 19.4537 23.4705 17.569 24.7103 17.572L30.8253 17.5825L30.8277 16.1013Z" fill="white"/>
<path d="M17.8078 10.793C17.8089 10.2726 18.2318 9.85196 18.7522 9.85309L26.1699 9.86563L26.1835 1.87012L12.6508 1.84711L12.6251 16.9004L17.7976 16.909L17.8078 10.793Z" fill="#F7F8EF"/>
<path d="M12.6508 1.84711L26.1835 1.87012L26.1699 9.86563L18.7522 9.85309C18.2318 9.85197 17.8089 10.2726 17.8078 10.793L17.7976 16.909L12.6251 16.9004M12.6508 1.84711C12.6423 6.86489 12.6337 11.8827 12.6251 16.9004M12.6508 1.84711L12.6251 16.9004M2.51346 25.2431L2.53647 11.7104L10.749 11.7244L10.7385 17.8387C10.7374 18.3591 11.1584 18.7824 11.6787 18.7835L18.7356 18.7952C19.2563 18.7967 19.6795 18.3757 19.6807 17.8553L19.6908 11.7394L30.8352 11.7586L30.8312 14.2166L24.7162 14.2062C23.4765 14.2032 23.4723 16.0879 24.7117 16.0911L30.8277 16.1013L30.8253 17.5825L24.7103 17.572C23.4705 17.569 23.4663 19.4537 24.7058 19.457L30.8224 19.4671L30.8197 20.948L24.705 20.9378C23.4652 20.9349 23.461 22.8195 24.7001 22.8225L30.8164 22.833L30.8125 25.291M2.51346 25.2431C11.9465 25.2591 21.3795 25.275 30.8125 25.291M2.51346 25.2431L30.8125 25.291M32.6955 26.2374C32.6944 26.7577 32.2711 27.1787 31.7508 27.1776L28.0251 27.1712L28.0183 31.1152C28.0172 31.6355 27.594 32.0565 27.0739 32.0551L11.6566 32.0292C11.1359 32.0277 10.7152 31.6048 10.7163 31.0844L10.7231 27.1417L1.56709 27.1261C1.04673 27.125 0.626047 26.7021 0.627177 26.1817L0.65342 10.764C0.65455 10.2437 1.0778 9.82268 1.59817 9.82381L10.7522 9.83939L10.7675 0.901064C10.7689 0.380388 11.1919 -0.0402952 11.7122 -0.0391654L27.1299 -0.0129256C27.6502 -0.0117958 28.0709 0.411133 28.0698 0.931493L28.0542 9.86885L31.7819 9.87526C32.3022 9.87639 32.7229 10.2993 32.7214 10.82C32.7128 15.9591 32.7042 21.0982 32.6955 26.2374ZM26.1404 27.1677L12.6077 27.1453L12.6026 30.1458L26.1353 30.1688L26.1404 27.1677Z" stroke="black" stroke-width="0.25"/>
</g>
<path d="M111.546 18.958C111.726 18.958 111.858 19 111.942 19.084C112.026 19.156 112.068 19.288 112.068 19.48V21.478C112.068 21.67 112.026 21.808 111.942 21.892C111.858 21.964 111.726 22 111.546 22H109.548C109.368 22 109.236 21.964 109.152 21.892C109.068 21.808 109.026 21.67 109.026 21.478V19.48C109.026 19.288 109.068 19.156 109.152 19.084C109.236 19 109.368 18.958 109.548 18.958H111.546ZM123.52 10.156C123.7 10.156 123.832 10.198 123.916 10.282C124 10.354 124.042 10.486 124.042 10.678V21.478C124.042 21.658 124 21.79 123.916 21.874C123.844 21.958 123.712 22 123.52 22H121.882C121.678 22 121.528 21.958 121.432 21.874C121.348 21.79 121.228 21.628 121.072 21.388L117.256 15.214V21.478C117.256 21.67 117.214 21.808 117.13 21.892C117.046 21.964 116.914 22 116.734 22H114.952C114.772 22 114.64 21.964 114.556 21.892C114.472 21.808 114.43 21.67 114.43 21.478V10.678C114.43 10.498 114.466 10.366 114.538 10.282C114.622 10.198 114.76 10.156 114.952 10.156H116.644C116.848 10.156 116.992 10.198 117.076 10.282C117.172 10.366 117.298 10.528 117.454 10.768L121.27 16.924V10.678C121.27 10.486 121.312 10.354 121.396 10.282C121.48 10.198 121.612 10.156 121.792 10.156H123.52ZM135.285 19.48C135.477 19.48 135.609 19.522 135.681 19.606C135.765 19.69 135.807 19.822 135.807 20.002V21.478C135.807 21.658 135.765 21.79 135.681 21.874C135.609 21.958 135.477 22 135.285 22H127.221C127.029 22 126.891 21.958 126.807 21.874C126.735 21.79 126.699 21.658 126.699 21.478V10.678C126.699 10.498 126.735 10.366 126.807 10.282C126.891 10.198 127.029 10.156 127.221 10.156H134.979C135.171 10.156 135.303 10.198 135.375 10.282C135.459 10.366 135.501 10.498 135.501 10.678V12.172C135.501 12.352 135.459 12.484 135.375 12.568C135.303 12.652 135.171 12.694 134.979 12.694H129.543V14.656H134.367C134.559 14.656 134.691 14.698 134.763 14.782C134.847 14.866 134.889 14.998 134.889 15.178V16.582C134.889 16.762 134.847 16.894 134.763 16.978C134.691 17.062 134.559 17.104 134.367 17.104H129.543V19.48H135.285ZM145.994 10.156C146.186 10.156 146.318 10.198 146.39 10.282C146.474 10.366 146.516 10.498 146.516 10.678V12.172C146.516 12.352 146.474 12.484 146.39 12.568C146.318 12.652 146.186 12.694 145.994 12.694H143.24V21.478C143.24 21.67 143.198 21.808 143.114 21.892C143.03 21.964 142.898 22 142.718 22H140.936C140.756 22 140.624 21.964 140.54 21.892C140.456 21.808 140.414 21.67 140.414 21.478V12.694H137.642C137.45 12.694 137.312 12.652 137.228 12.568C137.156 12.484 137.12 12.352 137.12 12.172V10.678C137.12 10.498 137.156 10.366 137.228 10.282C137.312 10.198 137.45 10.156 137.642 10.156H145.994Z" fill="#131313"/>
<defs>
<clipPath id="clip0_1101_17536">
<rect width="36" height="32" fill="white"/>
</clipPath>
</defs>
</svg>
