<svg width="16" height="16" viewBox="0 0 16 16" fill="none" xmlns="http://www.w3.org/2000/svg">
<path fill-rule="evenodd" clip-rule="evenodd" d="M8 2.5C4.96243 2.5 2.5 4.96243 2.5 8C2.5 11.0376 4.96243 13.5 8 13.5C11.0376 13.5 13.5 11.0376 13.5 8C13.5 4.96243 11.0376 2.5 8 2.5ZM1.5 8C1.5 4.41015 4.41015 1.5 8 1.5C11.5899 1.5 14.5 4.41015 14.5 8C14.5 11.5899 11.5899 14.5 8 14.5C4.41015 14.5 1.5 11.5899 1.5 8Z" fill="#7E7E7E"/>
<path fill-rule="evenodd" clip-rule="evenodd" d="M1.5 8C1.5 7.72386 1.72386 7.5 2 7.5H14C14.2761 7.5 14.5 7.72386 14.5 8C14.5 8.27614 14.2761 8.5 14 8.5H2C1.72386 8.5 1.5 8.27614 1.5 8Z" fill="#7E7E7E"/>
<path fill-rule="evenodd" clip-rule="evenodd" d="M6.69186 4.06969C6.27193 5.05022 6 6.43966 6 8.00059C6 9.56152 6.27193 10.951 6.69186 11.9315C6.9022 12.4226 7.13983 12.7881 7.37823 13.0236C7.61449 13.2569 7.82403 13.3381 8 13.3381C8.17597 13.3381 8.38551 13.2569 8.62177 13.0236C8.86017 12.7881 9.0978 12.4226 9.30814 11.9315C9.72807 10.951 10 9.56152 10 8.00059C10 6.43966 9.72807 5.05022 9.30814 4.06969C9.0978 3.57853 8.86017 3.21302 8.62177 2.97757C8.38551 2.74424 8.17597 2.66309 8 2.66309C7.82403 2.66309 7.61449 2.74424 7.37823 2.97757C7.13983 3.21302 6.9022 3.57853 6.69186 4.06969ZM6.67554 2.26608C7.03748 1.90862 7.48561 1.66309 8 1.66309C8.51439 1.66309 8.96253 1.90862 9.32446 2.26608C9.68425 2.62142 9.98533 3.11079 10.2274 3.67601C10.7123 4.80824 11 6.33755 11 8.00059C11 9.66362 10.7123 11.1929 10.2274 12.3252C9.98533 12.8904 9.68425 13.3798 9.32446 13.7351C8.96252 14.0925 8.51439 14.3381 8 14.3381C7.48561 14.3381 7.03748 14.0925 6.67554 13.7351C6.31575 13.3798 6.01467 12.8904 5.77261 12.3252C5.28771 11.1929 5 9.66362 5 8.00059C5 6.33755 5.28771 4.80824 5.77261 3.67601C6.01467 3.11079 6.31575 2.62142 6.67554 2.26608Z" fill="#7E7E7E"/>
</svg>
