<svg width="24" height="25" viewBox="0 0 24 25" fill="none" xmlns="http://www.w3.org/2000/svg">
<g id="Radio">
<rect id="Rectangle 49" x="7.5" y="8" width="9" height="9" rx="4.5" fill="#131313" stroke="#131313"/>
<path id="Vector" d="M12 2.5C10.0222 2.5 8.08879 3.08649 6.4443 4.1853C4.79981 5.28412 3.51809 6.8459 2.76121 8.67317C2.00433 10.5004 1.8063 12.5111 2.19215 14.4509C2.578 16.3907 3.53041 18.1725 4.92894 19.5711C6.32746 20.9696 8.10929 21.922 10.0491 22.3079C11.9889 22.6937 13.9996 22.4957 15.8268 21.7388C17.6541 20.9819 19.2159 19.7002 20.3147 18.0557C21.4135 16.4112 22 14.4778 22 12.5C22 11.1868 21.7413 9.88642 21.2388 8.67317C20.7363 7.45991 19.9997 6.35752 19.0711 5.42893C18.1425 4.50035 17.0401 3.76375 15.8268 3.2612C14.6136 2.75866 13.3132 2.5 12 2.5ZM12 20.5C10.4178 20.5 8.87104 20.0308 7.55544 19.1518C6.23985 18.2727 5.21447 17.0233 4.60897 15.5615C4.00347 14.0997 3.84504 12.4911 4.15372 10.9393C4.4624 9.38743 5.22433 7.96197 6.34315 6.84315C7.46197 5.72433 8.88743 4.9624 10.4393 4.65372C11.9911 4.34504 13.5997 4.50346 15.0615 5.10896C16.5233 5.71447 17.7727 6.73984 18.6518 8.05544C19.5308 9.37103 20 10.9177 20 12.5C19.9976 14.621 19.154 16.6544 17.6542 18.1542C16.1544 19.654 14.121 20.4976 12 20.5ZM12 11.05C11.7132 11.05 11.4329 11.135 11.1944 11.2944C10.956 11.4537 10.7701 11.6802 10.6604 11.9451C10.5506 12.2101 10.5219 12.5016 10.5779 12.7829C10.6338 13.0642 10.7719 13.3225 10.9747 13.5253C11.1775 13.7281 11.4359 13.8662 11.7171 13.9221C11.9984 13.9781 12.2899 13.9494 12.5549 13.8396C12.8198 13.7299 13.0463 13.544 13.2056 13.3056C13.365 13.0671 13.45 12.7868 13.45 12.5C13.45 12.1154 13.2972 11.7466 13.0253 11.4747C12.7534 11.2028 12.3846 11.05 12 11.05Z" fill="black"/>
</g>
</svg>
