<svg width="24" height="25" viewBox="0 0 24 25" fill="none" xmlns="http://www.w3.org/2000/svg">
<path d="M12 4.5C13.5823 4.5 15.129 4.96919 16.4446 5.84824C17.7602 6.72729 18.7855 7.97672 19.391 9.43853C19.9965 10.9003 20.155 12.5089 19.8463 14.0607C19.5376 15.6126 18.7757 17.038 17.6569 18.1569C16.538 19.2757 15.1126 20.0376 13.5607 20.3463C12.0089 20.655 10.4003 20.4965 8.93854 19.891C7.47673 19.2855 6.2273 18.2602 5.34825 16.9446C4.4692 15.629 4 14.0823 4 12.5C4.00241 10.379 4.84604 8.34558 6.34581 6.84581C7.84558 5.34604 9.87901 4.50241 12 4.5ZM12 2.5C10.0222 2.5 8.08879 3.08649 6.4443 4.1853C4.79981 5.28412 3.51809 6.8459 2.76121 8.67317C2.00433 10.5004 1.8063 12.5111 2.19215 14.4509C2.578 16.3907 3.53041 18.1725 4.92894 19.5711C6.32746 20.9696 8.10929 21.922 10.0491 22.3079C11.9889 22.6937 13.9996 22.4957 15.8268 21.7388C17.6541 20.9819 19.2159 19.7002 20.3147 18.0557C21.4135 16.4112 22 14.4778 22 12.5C22 11.1868 21.7413 9.88642 21.2388 8.67317C20.7363 7.45991 19.9997 6.35752 19.0711 5.42893C18.1425 4.50035 17.0401 3.76375 15.8268 3.2612C14.6136 2.75866 13.3132 2.5 12 2.5Z" fill="black"/>
</svg>
