<svg width="24" height="24" viewBox="0 0 24 24" fill="none" xmlns="http://www.w3.org/2000/svg">
<g id="Component 6">
<path id="Vector" d="M22.2073 20.7933L16.3145 14.9003C17.5659 13.2892 18.1561 11.2618 17.9651 9.23074C17.7741 7.19973 16.8162 5.31788 15.2864 3.96835C13.7566 2.61881 11.77 1.90305 9.73098 1.96681C7.69201 2.03056 5.75399 2.86904 4.31151 4.31151C2.86904 5.75399 2.03056 7.69201 1.96681 9.73098C1.90305 11.77 2.61881 13.7566 3.96835 15.2864C5.31788 16.8162 7.19973 17.7741 9.23074 17.9651C11.2618 18.1561 13.2892 17.5659 14.9003 16.3145L20.7933 22.2073L22.2073 20.7933ZM10.0003 16.0003C8.81361 16.0003 7.65358 15.6484 6.66688 14.9892C5.68019 14.3299 4.91115 13.3928 4.45703 12.2964C4.0029 11.2001 3.88408 9.99365 4.11559 8.82976C4.3471 7.66587 4.91855 6.59678 5.75766 5.75766C6.59678 4.91855 7.66587 4.3471 8.82976 4.11559C9.99365 3.88408 11.2001 4.0029 12.2964 4.45703C13.3928 4.91115 14.3299 5.68019 14.9892 6.66688C15.6484 7.65358 16.0003 8.81361 16.0003 10.0003C15.9985 11.5911 15.3658 13.1162 14.241 14.241C13.1162 15.3658 11.5911 15.9985 10.0003 16.0003Z" fill="#131313"/>
</g>
</svg>
