<svg width="15" height="15" viewBox="0 0 15 15" fill="none" xmlns="http://www.w3.org/2000/svg">
<path d="M7.40489 1.29271C7.43483 1.20057 7.56517 1.20057 7.59511 1.29271L9.1614 6.11327C9.17479 6.15448 9.21319 6.18237 9.25651 6.18237H14.3252C14.422 6.18237 14.4623 6.30633 14.3839 6.36327L10.2833 9.34255C10.2483 9.36801 10.2336 9.41315 10.247 9.45435L11.8133 14.2749C11.8432 14.3671 11.7378 14.4437 11.6594 14.3867L7.55878 11.4074C7.52373 11.382 7.47627 11.382 7.44122 11.4075L3.3406 14.3867C3.26223 14.4437 3.15678 14.3671 3.18672 14.2749L4.75301 9.45435C4.7664 9.41315 4.75174 9.36801 4.71669 9.34255L0.616066 6.36327C0.537695 6.30633 0.577972 6.18237 0.674844 6.18237H5.74349C5.78681 6.18237 5.82521 6.15448 5.8386 6.11327L7.40489 1.29271Z" fill="#F9E59C" stroke="#131313"/>
</svg>
