<svg width="221" height="162" viewBox="0 0 221 162" fill="none" xmlns="http://www.w3.org/2000/svg">
<g id="Group 626006">
<path id="Vector" d="M138.521 150.843L139.149 149.436C139.323 149.046 139.495 148.661 139.666 148.279C143.454 139.806 146.351 133.325 147.747 124.151L147.747 124.15C148.906 116.584 148.263 111.415 147.207 107.937C146.264 104.83 144.982 103.03 144.238 101.987C144.152 101.865 144.073 101.754 144.002 101.652C144.002 101.652 144.002 101.652 144.002 101.652L144.824 101.082C142.735 98.079 141.593 95.6618 141.617 92.0483L138.521 150.843ZM138.521 150.843H140.062H176.519M138.521 150.843H176.519M167.498 57.3533C167.198 56.9541 166.831 56.5743 166.38 56.2231L166.379 56.2219C165.179 55.2903 163.486 55.4086 162.235 55.9633C160.962 56.528 159.72 57.7367 159.737 59.4616L167.498 57.3533ZM167.498 57.3533C167.577 56.3911 168.044 55.6335 168.799 55.1917C169.576 54.7373 170.517 54.6993 171.344 54.8815C172.185 55.0668 173.085 55.5294 173.757 56.244L173.173 44.5608L173.173 44.5598C172.81 37.1476 166.775 31.2943 159.388 31.2032L159.387 31.2032L84.0071 30.1695M167.498 57.3533L84.0071 30.1695M176.519 150.843C175.407 153.058 173.83 155.383 171.941 157.252C169.64 159.528 166.991 161.021 164.243 160.999L164.241 160.999L17.333 160.169C9.76353 160.124 3.5915 154.041 3.40992 146.423L2.80259 119.762L2.80257 119.761L1.29633 56.2317L1.29631 56.2311L1.00479 43.6332L1.00473 43.6308C0.80057 35.6516 7.24141 29.135 15.1764 29.2255C15.1768 29.2255 15.1772 29.2256 15.1776 29.2256L59.1678 29.8288C56.3213 30.5442 53.6161 31.5006 51.1741 32.6709L51.1683 32.6737C49.9791 33.2532 49.481 34.4277 49.4426 35.4899C48.9394 37.4927 48.5216 39.4858 48.1156 41.4226C47.9936 42.0049 47.8726 42.5821 47.7506 43.153C47.2124 45.6728 46.6531 48.0842 45.8926 50.3727C44.3802 54.9238 42.0815 58.9605 37.6054 62.2353L37.6036 62.2366C37.2218 62.5172 36.8341 62.7936 36.4468 63.0697C34.9527 64.1346 33.4649 65.1951 32.3493 66.475C30.8652 68.1775 30.0021 70.281 30.2011 73.3371L176.519 150.843ZM84.0071 30.1695C85.6083 30.6881 87.1427 31.3214 88.5846 32.0764L88.5857 32.077C93.259 34.5314 95.289 38.826 96.2458 43.4762C96.9171 46.7389 97.082 50.3246 97.2361 53.6768C97.2986 55.0343 97.3592 56.3534 97.451 57.5974L97.4511 57.5988C97.5596 59.0983 97.7388 60.8875 97.9382 62.8781C98.5499 68.9838 99.3513 76.984 98.882 84.3295C98.5701 89.2131 97.6945 93.9254 95.7689 97.687C93.8597 101.417 90.9045 104.228 86.4957 105.297C84.2814 107.197 82.4223 109.232 81.563 111.822L81.562 111.825C81.2864 112.647 81.1884 113.48 81.0771 114.424C81.0477 114.673 81.0175 114.929 80.9829 115.195C80.824 116.417 80.5723 117.772 79.7572 119.051C76.8454 123.645 71.7389 124.385 67.1402 123.754C61.5017 122.98 55.9822 121.007 51.8658 117.611C47.7198 114.191 45.0277 109.346 45.0915 102.977C45.0915 102.977 45.0915 102.977 45.0915 102.976L46.0915 102.987C46.1002 101.775 46.3161 100.331 46.5418 98.822L84.0071 30.1695ZM140.442 86.4205C139.92 88.2718 140.082 90.2413 140.617 92.1842L159.737 59.4636C159.753 61.4202 159.78 63.3707 159.807 65.318C159.841 67.7411 159.874 70.1592 159.887 72.5776C158.065 70.7023 156.034 69.3217 153.712 69.2246C150.787 69.1023 147.875 71.0185 144.796 75.2191C144.302 75.8894 144.132 76.7038 144.139 77.4598C144.146 78.2214 144.33 78.9989 144.632 79.6807C144.848 80.1677 145.139 80.641 145.503 81.0343C145.095 81.0961 144.697 81.2327 144.335 81.4628L144.332 81.4651C142.233 82.8135 140.984 84.5002 140.442 86.4205ZM149.539 84.7683C149.971 83.4763 149.33 82.4452 148.52 81.821C149.203 81.5659 149.9 81.1405 150.517 80.7646C150.553 80.743 150.588 80.7215 150.623 80.7003C151.415 80.218 152.139 79.7864 152.851 79.5456C153.538 79.3136 154.115 79.2933 154.655 79.5326C155.186 79.7682 155.835 80.3235 156.528 81.5579C156.512 82.9054 156.37 84.9884 156 86.9562C155.804 88.0037 155.548 88.9896 155.226 89.8031C154.897 90.6367 154.538 91.1879 154.193 91.4755L154.191 91.477C153.482 92.0708 152.817 92.2033 152.241 92.1019C151.636 91.9954 151 91.6061 150.448 90.9244C149.339 89.5556 148.743 87.2028 149.539 84.7683Z" fill="#CCECBD" stroke="#131313" stroke-width="2"/>
<path id="Vector_2" d="M207.136 36.7222C204.222 33.6524 200.964 31.0247 197.707 28.4216C196.743 27.6358 195.779 29.4039 196.743 30.1652C199.886 32.6701 203.006 35.1996 205.806 38.1711C206.677 39.0552 208.008 37.6308 207.136 36.7222Z" fill="#000200"/>
<path id="Vector_3" d="M206.595 27.6578C203.281 30.9692 199.943 34.3045 196.629 37.6158C195.74 38.5036 197.133 39.9193 198.022 39.0075L207.988 29.0495C208.876 28.1617 207.483 26.77 206.595 27.6578Z" fill="#000200"/>
<g id="Vector_4">
<path d="M204.253 152.627C204.204 152.627 204.18 152.627 204.131 152.627L57.0757 151.804C48.3696 151.731 41.3658 144.903 41.1469 136.235L38.7151 34.3199C38.6178 29.9615 40.2471 25.8452 43.3356 22.7458C46.3755 19.6949 50.4124 18 54.7411 18C54.8141 18 54.8627 18 54.9357 18L199.292 19.9613C207.706 20.0581 214.637 26.7169 215.05 35.0947L220.182 135.896C220.401 140.303 218.844 144.516 215.756 147.712C212.765 150.884 208.655 152.627 204.253 152.627ZM54.7654 19.9855C50.9717 19.9855 47.4455 21.4625 44.7947 24.126C42.0954 26.8379 40.6605 30.4457 40.7578 34.2715L43.1897 136.186C43.3842 143.765 49.4883 149.77 57.1244 149.818L204.18 150.642C204.204 150.642 204.253 150.642 204.277 150.642C208.12 150.642 211.719 149.116 214.37 146.332C217.069 143.523 218.431 139.867 218.236 135.993L213.105 35.1916C212.74 27.8549 206.661 22.0437 199.292 21.9468L54.9357 19.9855C54.887 19.9855 54.8141 19.9855 54.7654 19.9855Z" fill="#000200"/>
<path d="M54.7654 19.9855C50.9717 19.9855 47.4455 21.4625 44.7947 24.126C42.0954 26.8379 40.6605 30.4457 40.7578 34.2715L43.1897 136.186C43.3842 143.765 49.4883 149.77 57.1244 149.818L204.18 150.642H204.277C208.12 150.642 211.719 149.116 214.37 146.332C217.069 143.523 218.431 139.867 218.236 135.993L213.105 35.1916C212.74 27.8549 206.661 22.0437 199.292 21.9468L54.9357 19.9855H54.7654Z" fill="white"/>
</g>
<g id="Group 626011">
<path id="Vector_5" d="M179.228 1.4402L27 1L30.6401 121.995H69.3008L81.6603 121.769C81.351 121.745 74.7728 110.49 72.4293 93.2869C72.3817 93.1084 72.3223 92.9299 72.2747 92.7634C70.3238 85.7321 69.1342 79.1173 66.0414 72.4429C64.3165 68.731 61.9255 65.6615 61.5092 62.4016C61.3426 61.1167 62.0801 60.6408 62.4251 59.3559C62.9842 57.2025 63.5195 54.2758 64.8518 52.408C65.4585 51.5633 66.6243 51.016 67.4807 50.1951C68.2064 49.4812 68.587 48.4819 69.5149 47.7918C70.645 46.959 71.7394 48.4105 71.2754 49.4812C71.5966 49.7668 68.7179 54.6208 72.7981 57.3215C75.8553 59.344 77.2827 53.9189 76.5333 52.1938C75.7958 50.4806 73.6903 49.3504 73.5237 47.4468C73.4642 46.7568 73.5713 46.6497 74.2256 46.6735C81.6841 46.8876 85.3242 58.9871 87.1442 64.5193C89.1664 70.6821 90.927 76.7259 92.1641 83.1028C93.6511 90.7884 95.031 99.4972 99.468 106.172C102.287 110.419 105.904 110.895 109.484 110.324C117.811 109.015 126.852 98.5573 131.562 91.6331C133.371 88.98 136.011 86.2437 139.306 83.8761C142.637 81.4848 145.552 78.6651 145.552 78.6651C145.552 78.6651 142.435 71.7767 142.019 69.8374C138.057 69.0641 134.572 68.0171 133.085 63.7936C131.622 59.6296 131.776 53.8118 133.394 49.624C132.633 49.3742 132.026 48.9459 131.265 48.6841C129.861 48.2201 130.456 45.7217 131.931 45.6503C134.441 45.5314 134.429 45.4362 134.822 43.0091C135.036 41.7242 135.143 40.4274 135.345 39.1425C135.833 36.0731 137.034 31.3617 138.688 28.6849C140.686 25.4607 142.887 25.0205 146.634 26.3887C151.083 28.0186 154.711 32.4087 157.661 35.9065C160.802 39.6303 163.847 43.485 165.643 48.0655C168.213 54.5971 167.654 62.3065 170.949 68.5168C173.019 72.4191 176.242 72.431 179.704 73.0854L179.228 1.4402Z" fill="white"/>
<path id="Frame" d="M82.4062 122.829H30.682C30.396 122.829 30.1697 122.604 30.1577 122.319L26.5117 1.53444C26.5117 1.39193 26.5594 1.24941 26.6666 1.15439C26.7619 1.0475 26.9049 1 27.0479 1L179.526 1.43943C179.812 1.43943 180.05 1.67696 180.05 1.962V72.5988C180.05 72.8839 179.812 73.1214 179.526 73.1214C179.24 73.1214 179.002 72.8839 179.002 72.5988V2.47269L27.596 2.03325L31.1944 121.772H82.4181C82.7041 121.772 82.9424 122.01 82.9424 122.295C82.9424 122.58 82.7041 122.829 82.4062 122.829Z" fill="#131313" stroke="#131313"/>
<g id="Board">
<g id="Sticker_3">
<path id="Vector_6" d="M89.5352 48.5234L91.6044 67.6523H111.928L110.846 48.5234H89.5352Z" fill="white" stroke="#131313"/>
<path id="Vector_7" d="M111.93 68.1751H91.6062C91.3326 68.1751 91.1186 67.9729 91.0829 67.7114L89.0018 48.5825C88.9899 48.4399 89.0375 48.2853 89.1326 48.1783C89.2277 48.0713 89.3704 48 89.525 48H110.836C111.109 48 111.347 48.214 111.359 48.4993L112.441 67.6282C112.453 67.7708 112.393 67.9135 112.298 68.0205C112.215 68.1156 112.072 68.1751 111.93 68.1751ZM92.0818 67.1288H111.371L110.348 49.0581H90.1196L92.0818 67.1288Z" fill="#131313" stroke="#131313"/>
<path id="Vector_8" d="M100.131 63.0514C99.9883 63.0514 99.8456 62.992 99.7505 62.885L96.7656 59.6751C96.5634 59.4611 96.5753 59.1282 96.7894 58.938C97.0034 58.7359 97.3364 58.7477 97.5267 58.9617L99.9764 61.601L103.806 53.5167C103.925 53.2552 104.246 53.1482 104.507 53.2671C104.769 53.386 104.876 53.707 104.757 53.9685L100.595 62.7542C100.523 62.9088 100.369 63.0277 100.202 63.0514C100.19 63.0514 100.167 63.0514 100.131 63.0514Z" fill="#131313" stroke="#131313"/>
</g>
<g id="Sticker_2">
<path id="Vector_9" d="M142.004 9.02441L143.134 26.7504H163.576L162.506 9.02441H142.004Z" fill="white" stroke="#131313"/>
<path id="Vector_10" d="M163.574 27.2732H143.131C142.858 27.2732 142.62 27.0592 142.608 26.7857L141.478 9.05974C141.466 8.91708 141.526 8.77442 141.621 8.66742C141.716 8.56042 141.859 8.50098 142.001 8.50098H162.503C162.777 8.50098 163.015 8.71497 163.026 8.98841L164.097 26.7144C164.109 26.8571 164.049 26.9997 163.954 27.1067C163.847 27.2137 163.716 27.2732 163.574 27.2732ZM143.619 26.227H163.003L161.992 9.54718H142.548L143.619 26.227Z" fill="#131313" stroke="#131313"/>
<path id="Vector_11" d="M157.013 23.0283C156.882 23.0283 156.764 22.9807 156.656 22.8975L148.201 15.2293C147.987 15.0391 147.975 14.7062 148.166 14.4922C148.356 14.2782 148.689 14.2663 148.903 14.4565L157.358 22.1247C157.572 22.3149 157.584 22.6478 157.394 22.8618C157.299 22.9688 157.156 23.0283 157.013 23.0283Z" fill="#131313" stroke="#131313"/>
<path id="Vector_12" d="M148.551 23.0287C148.42 23.0287 148.301 22.9811 148.194 22.8979C147.98 22.7077 147.956 22.3748 148.159 22.1608L156.614 12.745C156.804 12.531 157.137 12.5072 157.351 12.7093C157.565 12.8995 157.589 13.2324 157.387 13.4464L148.932 22.8622C148.836 22.9692 148.694 23.0287 148.551 23.0287Z" fill="#131313" stroke="#131313"/>
</g>
<g id="Sticker_1">
<path id="Vector_13" d="M35.6875 11.5449L37.2573 35.5243H59.543V12.6625L35.6875 11.5449Z" fill="white" stroke="#131313"/>
<path id="Vector_14" d="M59.5404 36.0468H37.2547C36.9811 36.0468 36.7433 35.8328 36.7314 35.5594L35.1617 11.58C35.1498 11.4254 35.2092 11.2827 35.3163 11.1757C35.4233 11.0687 35.5541 10.9974 35.7206 11.0212L59.576 12.1268C59.8614 12.1387 60.0755 12.3646 60.0755 12.6499V35.5118C60.0636 35.809 59.8258 36.0468 59.5404 36.0468ZM37.7422 35.0006H59.0171V13.1611L36.2557 12.1031L37.7422 35.0006Z" fill="#131313" stroke="#131313"/>
<path id="Vector_15" d="M47.6147 25.9656C47.5315 25.9656 47.4601 25.9537 47.3769 25.9061L40.9076 22.6962C40.7411 22.613 40.6341 22.4465 40.6222 22.2682C40.6103 22.078 40.6936 21.8996 40.8482 21.7926L47.3174 17.3582C47.5553 17.1917 47.8883 17.2512 48.0429 17.489C48.2093 17.7267 48.1499 18.0596 47.912 18.2142L42.1801 22.1374L47.8407 24.955C48.1023 25.0858 48.2093 25.3949 48.0785 25.6565C47.9953 25.8586 47.805 25.9656 47.6147 25.9656Z" fill="#131313" stroke="#131313"/>
<path id="Vector_16" d="M49.2377 26.5716C49.1545 26.5716 49.0593 26.5478 48.9761 26.5003C48.7264 26.3576 48.6312 26.0366 48.7858 25.7869L53.8399 16.918C53.9826 16.6683 54.3037 16.5851 54.5535 16.7278C54.8032 16.8704 54.8983 17.1914 54.7437 17.4411L49.6896 26.31C49.5945 26.4765 49.4161 26.5716 49.2377 26.5716Z" fill="#131313" stroke="#131313"/>
</g>
<g id="Web">
<path id="Vector_17" d="M106.693 100.839C106.455 100.839 106.241 100.672 106.182 100.435L98.5587 68.5491C98.4873 68.2638 98.6657 67.9785 98.9511 67.919C99.2366 67.8477 99.522 68.026 99.5814 68.3114L107.204 100.197C107.276 100.482 107.097 100.767 106.812 100.827C106.776 100.839 106.729 100.839 106.693 100.839Z" fill="#131313" stroke="#131313"/>
<path id="Vector_18" d="M94.8236 49.6705C94.7284 49.6705 94.6214 49.6467 94.5263 49.5754L65.1172 29.8165L46.9581 32.3012C46.6608 32.3369 46.411 32.1347 46.3635 31.8494C46.3278 31.5641 46.5299 31.3025 46.8154 31.255L65.1648 28.7346C65.2956 28.7227 65.4264 28.7465 65.5334 28.8178L94.7165 48.446L124.411 13.7192C124.566 13.5409 124.815 13.4814 125.029 13.5884L135.804 18.6292C136.065 18.7481 136.184 19.0691 136.053 19.3307C135.934 19.5922 135.625 19.7111 135.352 19.5803L124.946 14.7179L95.216 49.4922C95.1209 49.6111 94.9663 49.6705 94.8236 49.6705Z" fill="#131313" stroke="#131313"/>
<path id="Vector_19" d="M67.7447 29.2466C67.7447 30.6257 67.2095 31.7908 65.2473 31.7908C63.8679 31.7908 62.75 30.6257 62.75 29.2466C62.75 27.8675 63.8679 26.75 65.2473 26.75C66.6268 26.75 67.7447 27.8675 67.7447 29.2466Z" fill="#131313" stroke="#131313"/>
<path id="Vector_20" d="M127.315 14.0406C127.315 15.4196 126.78 16.5847 124.818 16.5847C123.438 16.5847 122.32 15.4196 122.32 14.0406C122.32 12.6615 123.438 11.5439 124.818 11.5439C126.197 11.5439 127.315 12.6615 127.315 14.0406Z" fill="#FF3857" stroke="#131313"/>
<path id="Vector_21" d="M138.088 19.0816C138.088 20.4607 137.553 21.6257 135.591 21.6257C134.212 21.6257 133.094 20.4607 133.094 19.0816C133.094 17.7025 134.212 16.585 135.591 16.585C136.971 16.585 138.088 17.7025 138.088 19.0816Z" fill="#DBC9F2" stroke="#131313"/>
<path id="Vector_22" d="M109.19 102.813C109.19 104.192 108.655 105.357 106.693 105.357C105.313 105.357 104.195 104.192 104.195 102.813C104.195 101.434 105.313 100.316 106.693 100.316C108.072 100.316 109.19 101.434 109.19 102.813Z" fill="#DBC9F2" stroke="#131313"/>
<path id="Vector_23" d="M97.3189 49.1245C97.3189 50.5036 96.7837 51.6687 94.8215 51.6687C93.4421 51.6687 92.3242 50.5036 92.3242 49.1245C92.3242 47.7455 93.4421 46.6279 94.8215 46.6279C96.201 46.6279 97.3189 47.7455 97.3189 49.1245Z" fill="#FF3857" stroke="#131313"/>
<path id="Vector_24" d="M49.3853 31.7544C49.3853 33.1335 48.8501 34.2986 46.888 34.2986C45.5085 34.2986 44.3906 33.1335 44.3906 31.7544C44.3906 30.3753 45.5085 29.2578 46.888 29.2578C48.2674 29.2578 49.3853 30.3872 49.3853 31.7544Z" fill="#FF3857" stroke="#131313"/>
<path id="Vector_25" d="M64.3206 54.8894C64.3087 54.8894 64.3087 54.8894 64.2968 54.8894C64.0114 54.8775 63.7854 54.6398 63.7973 54.3425L64.7249 29.2456C64.7368 28.9603 64.9746 28.7463 65.2719 28.7344C65.5574 28.7463 65.7833 28.984 65.7714 29.2813L64.8438 54.3782C64.8319 54.6635 64.606 54.8894 64.3206 54.8894Z" fill="#131313" stroke="#131313"/>
</g>
</g>
<g id="Woman">
<g id="Head">
<path id="Vector_26" d="M141.027 52.4894C140.552 53.1195 139.743 53.8804 138.887 53.4881C138.268 53.2146 137.781 54.1301 138.399 54.4154C139.707 55.0098 140.992 54.2727 141.788 53.2027C142.193 52.6677 141.432 51.9425 141.027 52.4894Z" fill="#131313" stroke="#131313"/>
<path id="Vector_27" d="M133.369 49.7072C133.333 49.7072 133.297 49.7072 133.262 49.6953C131.847 49.4219 130.729 48.7442 130.241 47.8882C129.944 47.3532 129.896 46.7588 130.122 46.1762C130.776 44.4405 133.916 44.6545 134.261 44.6902C134.546 44.7139 134.76 44.9636 134.736 45.2608C134.713 45.5462 134.451 45.7602 134.165 45.7364C133.297 45.665 131.395 45.7601 131.097 46.5448C130.99 46.842 131.002 47.1155 131.157 47.377C131.478 47.9477 132.382 48.447 133.452 48.661C133.737 48.7204 133.928 48.9939 133.868 49.2792C133.833 49.5407 133.618 49.7072 133.369 49.7072Z" fill="#131313" stroke="#131313"/>
<path id="Vector_28" d="M140.732 40.6824L140.529 41.7167C140.268 43.0482 138.211 42.644 138.472 41.3125L138.674 40.2782C138.924 38.9467 140.981 39.3509 140.732 40.6824Z" fill="#131313" stroke="#131313"/>
<path id="Vector_29" d="M139.944 34.2403C140.515 34.5375 141.038 34.9298 141.633 35.1795C142.251 35.441 141.966 36.4515 141.347 36.19C140.67 35.9047 140.063 35.4767 139.409 35.1438C138.802 34.8347 139.35 33.9312 139.944 34.2403Z" fill="#131313" stroke="#131313"/>
<path id="Vector_30" d="M147.916 69.5606C147.916 69.4179 147.856 69.2752 147.761 69.1801C147.654 69.085 147.523 69.0375 147.381 69.0256C147.297 69.0375 139.282 69.2634 135.524 65.9821C132.468 63.319 132.064 59.1104 133.907 49.2785C133.955 48.9932 133.776 48.7197 133.491 48.6603C133.205 48.6009 132.932 48.7911 132.872 49.0764C131.207 57.981 131.029 63.4379 134.835 66.7667C136.583 68.2885 139.092 69.1207 141.411 69.5606L143.516 74.7084C143.528 74.7559 143.551 74.8035 143.575 74.8391L145.216 78.8337C145.514 78.6197 145.799 78.4176 146.096 78.2155L144.741 74.9105C147.19 74.0307 147.892 71.0942 147.916 69.5606Z" fill="#131313" stroke="#131313"/>
<path id="Vector_31" d="M180.663 53.4635C181.555 45.4863 181.627 36.867 173.528 37.3068C173.041 33.5738 168.304 29.8883 163.987 27.2847C161.633 25.6203 158.41 24.3958 154.248 23.5873C144.092 21.59 138.063 24.693 136.338 32.801C135.922 34.7389 135.554 36.4509 135.209 38.0439C134.662 40.5406 134.174 42.7519 133.698 45.1415C133.639 45.4268 133.829 45.7002 134.115 45.7597C134.4 45.8191 134.674 45.6289 134.733 45.3436C135.209 42.9659 135.696 40.7546 136.231 38.2698C136.576 36.6767 136.957 34.9648 137.373 33.0269C138.039 29.9121 139.359 27.6176 141.357 26.1315C141.761 33.4311 149.669 42.0029 150.561 43.0729C150.752 43.2987 151.013 43.6554 151.299 43.6911C154.379 44.1309 156.472 45.0226 157.352 46.2709C157.78 46.8772 157.923 47.543 157.78 48.2801C157.697 48.72 157.411 49.5522 156.495 50.1466C155.544 50.7648 154.177 50.9075 152.547 50.5746C152.535 50.5627 152.512 50.5627 152.5 50.5508C152.452 50.5389 152.405 50.527 152.357 50.527C152.321 50.5152 152.286 50.5152 152.238 50.5033C151.965 50.4319 151.679 50.6103 151.608 50.8956C151.56 51.0858 151.632 51.2879 151.774 51.4068C151.203 55.3538 151.715 59.6456 154.878 62.4276C156.817 64.1277 159.599 64.8529 162.025 64.0801C161.359 72.7469 167.011 80.3319 175.252 80.106C187.228 79.7494 179.7 62.0828 180.663 53.4635Z" fill="#131313" stroke="#131313"/>
</g>
<g id="Body">
<path id="Vector_32" d="M137.477 151C137.236 151 137.031 150.776 136.959 150.432L132.017 128.953C131.944 128.54 132.113 128.127 132.39 128.024C132.68 127.921 132.969 128.162 133.041 128.557L137.983 150.036C138.056 150.449 137.887 150.862 137.61 150.966C137.561 151 137.513 151 137.477 151Z" fill="#131313" stroke="#131313"/>
<path id="Vector_33" d="M142.411 120.659C142.543 127.179 135.043 140.17 135.043 140.17L132.5 128.5L142.411 120.659Z" fill="#131313" stroke="#131313"/>
<path id="Vector_34" d="M195.265 150.599C195.039 150.599 194.825 150.416 194.754 150.15L181.838 95.9179C181.755 95.5815 181.921 95.2451 182.207 95.161C182.48 95.0629 182.777 95.2591 182.849 95.5955L195.776 149.814C195.86 150.15 195.693 150.486 195.408 150.571C195.36 150.599 195.313 150.599 195.265 150.599Z" fill="#131313" stroke="#131313"/>
</g>
<g id="Hand_2">
<path id="Vector_35" d="M191.584 136.279C191.4 136.279 191.227 136.149 191.155 135.935C191.074 135.661 191.196 135.364 191.431 135.269C191.676 135.174 215.711 125.045 215.089 107.069C214.813 99.3294 210.823 92.1843 203.209 85.8357C202.964 85.6217 202.719 85.4315 202.474 85.2294C193.799 78.2508 182.99 74.173 177.316 72.354C177.071 72.2827 176.938 71.9854 176.999 71.712C177.06 71.4267 177.316 71.2721 177.55 71.3435C183.276 73.1743 194.197 77.3116 202.974 84.3615C203.229 84.5636 203.484 84.7658 203.729 84.9797C211.578 91.5185 215.701 98.937 215.987 107.009C216.64 125.77 192.747 135.828 191.737 136.244C191.686 136.267 191.635 136.279 191.584 136.279Z" fill="#131313" stroke="#131313"/>
<path id="Vector_36" d="M186.697 117.685C186.482 117.685 186.299 117.507 186.258 117.257C186.207 116.972 186.37 116.698 186.615 116.639C190.871 115.7 193.586 113.667 194.27 110.932C194.78 108.875 194.045 106.593 192.259 104.655C192.055 104.441 191.841 104.215 191.606 104.013C189.493 102.087 186.482 100.851 183.125 100.518C182.88 100.494 182.696 100.244 182.716 99.9471C182.737 99.6617 182.951 99.4478 183.206 99.4715C186.738 99.8282 189.912 101.136 192.157 103.181C192.412 103.407 192.647 103.644 192.882 103.894C194.923 106.117 195.75 108.792 195.148 111.229C194.372 114.368 191.402 116.663 186.799 117.685C186.748 117.685 186.717 117.685 186.697 117.685Z" fill="#131313" stroke="#131313"/>
<path id="Vector_37" d="M203.476 85.3964C200.883 92.4107 197.189 98.8187 192.565 104.276C192.351 104.05 192.126 103.812 191.871 103.598C196.484 98.1529 200.159 91.7687 202.73 84.79C202.975 84.9921 203.231 85.1824 203.476 85.3964Z" fill="#131313" stroke="#131313"/>
<path id="Vector_38" d="M181.461 95.1572C185.339 95.1572 185.89 100.376 185.89 100.376L182.186 99.8651L181.461 95.1572Z" fill="#131313" stroke="#131313"/>
</g>
<g id="Hand">
<path id="Vector_39" d="M107.551 110.624C106.219 110.624 104.971 110.375 103.793 109.875C99.5598 108.068 96.3965 103.004 94.3986 94.8242C92.9716 88.9988 91.8061 83.744 90.7715 79.1193C87.8936 66.1607 85.9909 57.6008 82.0428 52.6314C78.3919 48.0424 75.7875 46.6395 74.5627 46.8535C74.2416 46.9129 74.0156 47.0794 73.9205 47.3766C73.6589 48.1494 74.2535 48.6606 75.3237 49.5166C76.3465 50.325 77.5 51.2285 77.5119 52.7265C77.5357 56.84 75.2762 57.482 74.5864 57.5889C72.8621 57.8267 71.0545 56.5784 70.5431 54.7951C69.7464 52.0488 70.3529 50.3131 70.7572 49.1599C71.114 48.1494 71.1377 47.9472 70.7215 47.6263C70.5669 47.5074 70.4361 47.4955 70.2458 47.5668C69.128 48.0424 67.7128 51.2047 67.5226 52.7859C67.2847 54.7595 67.3204 57.0896 70.8761 59.7527C71.1021 59.931 71.1615 60.252 70.9831 60.4898C70.8048 60.7157 70.4837 60.7751 70.2458 60.5968C66.4285 57.7316 66.1907 54.9853 66.4761 52.667C66.6663 50.9907 68.1291 47.329 69.8296 46.6038C70.3648 46.3779 70.8999 46.4493 71.3518 46.794C72.4102 47.6025 72.0653 48.5773 71.7323 49.5047C71.3518 50.5865 70.8286 52.0607 71.5302 54.4979C71.8988 55.77 73.2189 56.6973 74.42 56.5427C75.7162 56.3525 76.4535 54.9616 76.4416 52.7265C76.4416 51.7397 75.5735 51.0621 74.6578 50.3369C73.5994 49.5047 72.3864 48.5536 72.9097 47.0318C73.1356 46.3779 73.6589 45.9381 74.3605 45.8192C75.5378 45.6171 78.1897 46.1521 82.8395 51.9775C86.9423 57.1372 88.8688 65.7921 91.7705 78.8815C92.8051 83.5062 93.9705 88.7491 95.3975 94.5746C97.3121 102.421 100.273 107.236 104.186 108.912C107.183 110.196 110.833 109.626 115.031 107.2C115.364 107.01 115.685 106.82 116.018 106.594C117.398 105.726 118.837 104.668 120.323 103.432C122.844 101.327 125.33 98.2244 127.958 94.9431C135.331 85.7294 144.512 74.2687 162.766 72.5568C163.063 72.5449 163.313 72.747 163.337 73.0323C163.361 73.3176 163.147 73.5792 162.861 73.603C145.047 75.2793 136.021 86.5497 128.767 95.597C126.103 98.9258 123.582 102.076 120.989 104.24C119.467 105.5 117.992 106.594 116.577 107.474C116.232 107.7 115.888 107.914 115.543 108.104C112.665 109.78 109.989 110.624 107.551 110.624Z" fill="#131313" stroke="#131313"/>
<path id="Vector_40" d="M66.9259 61.535C66.7594 61.535 66.5929 61.4518 66.4859 61.3092C63.9767 57.6356 63.1086 54.4137 64.0599 52.2262C64.6189 50.9304 65.7724 50.0863 67.4016 49.7772C67.4848 49.7653 67.5681 49.7415 67.6513 49.7296C67.9367 49.682 68.2103 49.8842 68.2459 50.1695C68.2935 50.4548 68.0913 50.7282 67.8059 50.7639C66.4146 50.9779 65.4513 51.6318 65.0113 52.6423C64.2264 54.4494 65.0826 57.3978 67.3421 60.7147C67.5086 60.9525 67.4492 61.2854 67.1994 61.4399C67.1281 61.5113 67.0329 61.535 66.9259 61.535Z" fill="#131313" stroke="#131313"/>
<path id="Vector_41" d="M65.0203 63.89C64.8538 63.89 64.6873 63.8068 64.5803 63.6522C62.4873 60.4661 61.1673 56.1148 63.7716 53.4399C63.9738 53.2378 64.3068 53.2259 64.5089 53.428C64.7111 53.6301 64.723 53.963 64.5208 54.1651C62.3446 56.4002 63.5813 60.2283 65.4484 63.0697C65.603 63.3075 65.5435 63.6404 65.2938 63.7949C65.2224 63.8662 65.1154 63.89 65.0203 63.89Z" fill="#131313" stroke="#131313"/>
<path id="Vector_42" d="M105.289 137.516C87.3438 137.516 75.9274 117.377 72.8474 97.9625C70.9565 86.0858 67.6624 75.6357 63.0483 66.8975C60.3488 61.7735 60.5034 60.7629 62.4299 58.2663C62.6083 58.0404 62.9413 57.9929 63.1672 58.1712C63.3932 58.3495 63.4408 58.6824 63.2624 58.9083C61.7045 60.9175 61.3359 61.4049 63.9759 66.4101C68.6495 75.2433 71.9793 85.8005 73.882 97.7961C77.0215 117.508 88.8303 137.98 107.334 136.375C114.422 135.768 121.117 133.878 127.242 130.763C127.586 130.597 127.919 130.43 128.241 130.252C138.824 124.605 144.045 117.127 144.093 117.044C144.259 116.806 144.58 116.747 144.818 116.913C145.056 117.08 145.115 117.401 144.949 117.638C144.901 117.71 139.55 125.402 128.728 131.179C128.395 131.358 128.062 131.536 127.705 131.703C121.474 134.865 114.648 136.791 107.429 137.409C106.704 137.48 105.991 137.516 105.289 137.516Z" fill="#131313" stroke="#131313"/>
<path id="Vector_43" d="M128.481 130.716C128.16 130.894 127.815 131.06 127.47 131.227C124.64 128.813 122.202 125.936 120.252 122.715C117.802 118.649 115.602 113.025 115.316 107.64C115.649 107.449 115.994 107.247 116.339 107.021C116.47 112.633 118.908 118.625 121.56 122.822C123.462 125.817 125.805 128.481 128.481 130.716Z" fill="#131313" stroke="#131313"/>
</g>
</g>
</g>
</g>
</svg>
