<svg width="25" height="25" viewBox="0 0 25 25" fill="none" xmlns="http://www.w3.org/2000/svg">
<g id="Icons" clip-path="url(#clip0_1401_15254)">
<g id="g3396">
<path id="path3398" fill-rule="evenodd" clip-rule="evenodd" d="M17.5615 19.7407L15.5848 17.2415C15.4749 17.1077 15.3861 17.0309 15.3238 16.9871L15.2549 16.9474L15.2258 17.015L14.7753 19.0264L14.6998 19.4425C14.5726 19.8718 14.2944 20.3104 13.7274 20.4204L13.3789 20.4429H11.0935C7.02886 20.4429 3.35899 14.6536 0.790078 7.44121L0.77153 7.37363C0.684089 6.94033 0.640368 6.45932 0.852347 6.0724C1.09612 5.62585 1.56247 5.48274 2.05135 5.46816L5.56356 5.49201C5.78084 5.49334 5.97295 5.63512 6.03522 5.84316C6.82483 8.439 7.79463 10.0251 8.98039 11.8339L9.01351 11.8922C9.14202 12.1625 9.41097 12.0856 9.55008 11.871L9.63487 11.6205L9.6362 7.54589C9.6362 6.94696 9.36327 6.86215 8.70084 6.76807C8.39745 6.72434 8.20534 6.41825 8.29808 6.12673C8.61738 5.11436 9.66534 4.59626 11.1187 4.59626L12.4582 4.56445C13.5419 4.56445 14.5236 5.02956 14.5236 6.4156V11.7756L14.619 11.8286C14.7965 11.8908 15.145 11.9041 15.4272 11.4615C16.6447 9.74421 18.0478 7.69298 18.2452 6.62098C18.2531 6.57726 18.2664 6.53618 18.2849 6.49643C18.5327 5.97567 19.2097 5.60862 19.4826 5.52514C19.521 5.51321 19.5978 5.49069 19.6879 5.49069L23.3459 5.49334L23.5724 5.49599C23.6586 5.50659 23.7433 5.52514 23.8255 5.55429C24.0454 5.6338 24.2004 5.77823 24.3024 5.94254C24.5025 6.26851 24.4747 6.63424 24.4945 6.78C24.5025 6.82902 24.5025 6.87938 24.4945 6.92973C24.1514 9.07637 21.6832 11.4827 20.6458 13.0437C20.3795 13.4107 20.3755 13.685 20.6233 13.9858L24.0666 18.2963C24.4641 18.8648 24.4429 19.4862 24.0202 19.9301C23.7447 20.2203 23.3446 20.382 22.9219 20.431L22.5245 20.4429H18.8652L18.9301 20.439C18.4492 20.5026 18.0756 20.3038 17.7947 20.0216L17.5615 19.7407ZM18.8652 19.4491L22.5483 19.4505C22.9365 19.473 23.1975 19.3537 23.3008 19.2451C23.3366 19.208 23.3856 19.1483 23.3379 19.0198L23.2584 18.8754L19.8509 14.6126C19.2666 13.901 19.362 13.1232 19.8284 12.4779C20.8154 10.9924 22.9352 8.86965 23.4347 7.11789L23.5022 6.81842L23.485 6.62893L23.4585 6.4845H23.3565H19.7529L19.6349 6.54016C19.5237 6.60243 19.3859 6.69916 19.2878 6.79192L19.1885 6.91515L19.0653 7.35641C18.6413 8.54236 17.5801 10.1258 16.6752 11.4165L16.2393 12.0313L15.9637 12.3705C15.2324 13.0821 14.1513 12.9522 13.7102 12.3586C13.6055 12.2181 13.53 12.0379 13.53 11.8312V6.4156C13.53 5.77426 13.2385 5.55827 12.4701 5.55827L11.1306 5.59007C10.4854 5.59007 10.0456 5.70005 9.75146 5.85906L9.5885 5.96507L9.70376 6.00615C10.194 6.22478 10.6298 6.65146 10.6298 7.54722L10.6259 11.6855C10.5305 12.9774 8.95124 13.5459 8.24509 12.5428L8.1497 12.3785C7.09511 10.7712 6.17433 9.28441 5.40458 7.10994L5.19923 6.48318L2.06062 6.4633C1.73736 6.47125 1.71881 6.55871 1.72411 6.54943C1.70291 6.58653 1.67774 6.68724 1.70158 6.91118L1.74001 7.14572L2.23021 8.46815C4.79647 15.1121 8.04503 19.4491 11.0935 19.4491L13.4001 19.4505C13.7128 19.4664 13.7804 19.1179 13.7963 18.882L13.8082 18.8104L14.2666 16.7579L14.2798 16.7075C14.3434 16.518 14.4415 16.3339 14.5925 16.1907C14.7979 15.996 15.0642 15.9085 15.345 15.9456C15.7372 15.9973 16.0803 16.2769 16.3599 16.6174L18.3565 19.1457C18.5618 19.4399 18.6969 19.4677 18.799 19.4544L18.8652 19.4491Z" fill="#131313" stroke="#131313" stroke-width="0.35"/>
</g>
</g>
<defs>
<clipPath id="clip0_1401_15254">
<rect width="24" height="24" fill="white" transform="translate(0.5 0.5)"/>
</clipPath>
</defs>
</svg>
