<svg width="45" height="45" viewBox="0 0 45 45" fill="none" xmlns="http://www.w3.org/2000/svg">
<rect x="0.5" y="0.5" width="44" height="44" fill="#131313"/>
<g clip-path="url(#clip0_1105_15532)">
<path fill-rule="evenodd" clip-rule="evenodd" d="M27.5615 29.7407L25.5848 27.2415C25.4749 27.1077 25.3861 27.0309 25.3238 26.9871L25.2549 26.9474L25.2258 27.015L24.7753 29.0264L24.6998 29.4425C24.5726 29.8718 24.2944 30.3104 23.7274 30.4204L23.3789 30.4429H21.0935C17.0289 30.4429 13.359 24.6536 10.7901 17.4412L10.7715 17.3736C10.6841 16.9403 10.6404 16.4593 10.8523 16.0724C11.0961 15.6258 11.5625 15.4827 12.0513 15.4682L15.5636 15.492C15.7808 15.4933 15.9729 15.6351 16.0352 15.8432C16.8248 18.439 17.7946 20.0251 18.9804 21.8339L19.0135 21.8922C19.142 22.1625 19.411 22.0856 19.5501 21.871L19.6349 21.6205L19.6362 17.5459C19.6362 16.947 19.3633 16.8622 18.7008 16.7681C18.3974 16.7243 18.2053 16.4182 18.2981 16.1267C18.6174 15.1144 19.6653 14.5963 21.1187 14.5963L22.4582 14.5645C23.5419 14.5645 24.5236 15.0296 24.5236 16.4156V21.7756L24.619 21.8286C24.7965 21.8908 25.145 21.9041 25.4272 21.4615C26.6447 19.7442 28.0478 17.693 28.2452 16.621C28.2531 16.5773 28.2664 16.5362 28.2849 16.4964C28.5327 15.9757 29.2097 15.6086 29.4826 15.5251C29.521 15.5132 29.5978 15.4907 29.6879 15.4907L33.3459 15.4933L33.5724 15.496C33.6586 15.5066 33.7433 15.5251 33.8255 15.5543C34.0454 15.6338 34.2004 15.7782 34.3024 15.9425C34.5025 16.2685 34.4747 16.6342 34.4945 16.78C34.5025 16.829 34.5025 16.8794 34.4945 16.9297C34.1514 19.0764 31.6832 21.4827 30.6458 23.0437C30.3795 23.4107 30.3755 23.685 30.6233 23.9858L34.0666 28.2963C34.4641 28.8648 34.4429 29.4862 34.0202 29.9301C33.7447 30.2203 33.3446 30.382 32.9219 30.431L32.5245 30.4429H28.8652L28.9301 30.439C28.4492 30.5026 28.0756 30.3038 27.7947 30.0216L27.5615 29.7407ZM28.8652 29.4491L32.5483 29.4505C32.9365 29.473 33.1975 29.3537 33.3008 29.2451C33.3366 29.208 33.3856 29.1483 33.3379 29.0198L33.2584 28.8754L29.8509 24.6126C29.2666 23.901 29.362 23.1232 29.8284 22.4779C30.8154 20.9924 32.9352 18.8697 33.4347 17.1179L33.5022 16.8184L33.485 16.6289L33.4585 16.4845H33.3565H29.7529L29.6349 16.5402C29.5237 16.6024 29.3859 16.6992 29.2878 16.7919L29.1885 16.9152L29.0653 17.3564C28.6413 18.5424 27.5801 20.1258 26.6752 21.4165L26.2393 22.0313L25.9637 22.3705C25.2324 23.0821 24.1513 22.9522 23.7102 22.3586C23.6055 22.2181 23.53 22.0379 23.53 21.8312V16.4156C23.53 15.7743 23.2385 15.5583 22.4701 15.5583L21.1306 15.5901C20.4854 15.5901 20.0456 15.7001 19.7515 15.8591L19.5885 15.9651L19.7038 16.0061C20.194 16.2248 20.6298 16.6515 20.6298 17.5472L20.6259 21.6855C20.5305 22.9774 18.9512 23.5459 18.2451 22.5428L18.1497 22.3785C17.0951 20.7712 16.1743 19.2844 15.4046 17.1099L15.1992 16.4832L12.0606 16.4633C11.7374 16.4713 11.7188 16.5587 11.7241 16.5494C11.7029 16.5865 11.6777 16.6872 11.7016 16.9112L11.74 17.1457L12.2302 18.4682C14.7965 25.1121 18.045 29.4491 21.0935 29.4491L23.4001 29.4505C23.7128 29.4664 23.7804 29.1179 23.7963 28.882L23.8082 28.8104L24.2666 26.7579L24.2798 26.7075C24.3434 26.518 24.4415 26.3339 24.5925 26.1907C24.7979 25.996 25.0642 25.9085 25.345 25.9456C25.7372 25.9973 26.0803 26.2769 26.3599 26.6174L28.3565 29.1457C28.5618 29.4399 28.6969 29.4677 28.799 29.4544L28.8652 29.4491Z" fill="white" stroke="white" stroke-width="0.35"/>
</g>
<rect x="0.5" y="0.5" width="44" height="44" stroke="white"/>
<defs>
<clipPath id="clip0_1105_15532">
<rect width="24" height="24" fill="white" transform="translate(10.5 10.5)"/>
</clipPath>
</defs>
</svg>
