<svg width="431" height="148" viewBox="0 0 431 148" fill="none" xmlns="http://www.w3.org/2000/svg">
<path d="M160.509 49.3151C155.939 44.7739 151.37 40.2327 146.829 35.6632C145.813 34.6478 144.234 36.2274 145.249 37.2428C149.819 41.784 154.388 46.3252 158.929 50.8946C159.945 51.91 161.524 50.3305 160.509 49.3151Z" fill="#CCECBD"/>
<path d="M251.391 24.2675C248.711 27.3702 246.032 30.4446 243.352 33.5473C242.393 34.6474 244.029 36.2269 244.96 35.1269C247.639 32.0242 250.319 28.9497 252.999 25.847C253.958 24.7752 252.322 23.1674 251.391 24.2675Z" fill="#DBC9F2"/>
<path d="M275.76 40.824C269.104 43.8421 262.475 46.8884 255.819 49.9064C254.493 50.527 255.649 52.445 256.975 51.8526C263.632 48.8346 270.26 45.7883 276.917 42.7702C278.271 42.1497 277.114 40.2317 275.76 40.824Z" fill="#CCECBD"/>
<path d="M0.664062 123.582L10.3952 147.811L26.2753 127.954L0.664062 123.582Z" fill="#DBC9F2"/>
<path d="M391.094 74.5586L369.234 102.06L396.284 126.232L423.08 102.06L391.094 74.5586Z" fill="#CCECBD"/>
<path d="M378.036 95.1768H364.074L361.846 111.593L374.962 115.937L378.036 95.1768Z" fill="#F9E59C"/>
<path d="M29.267 84.8826C28.6465 89.2264 28.0259 93.5419 27.4054 97.8857C27.208 99.296 29.3516 99.9165 29.5773 98.478C30.1978 94.1342 30.8184 89.8187 31.4389 85.4749C31.6363 84.0646 29.4645 83.4441 29.267 84.8826Z" fill="#F9E59C"/>
<path d="M383.227 62.345C383.002 60.9347 380.83 61.527 381.055 62.9373C381.366 64.799 381.676 66.6606 381.986 68.5222C382.212 69.9325 384.384 69.3401 384.158 67.9298C383.848 66.0682 383.538 64.2066 383.227 62.345Z" fill="#DBC9F2"/>
<path d="M429.541 117.262C426.129 117.572 422.716 117.882 419.331 118.193C417.892 118.334 417.892 120.562 419.331 120.421C422.744 120.111 426.157 119.801 429.541 119.49C430.952 119.377 430.98 117.149 429.541 117.262Z" fill="#DBC9F2"/>
<path d="M14.3722 104.345C12.5106 103.104 10.649 101.863 8.78738 100.65C7.57452 99.86 6.44627 101.778 7.65913 102.596C9.52074 103.837 11.3824 105.078 13.244 106.291C14.4568 107.081 15.5851 105.135 14.3722 104.345Z" fill="#F9E59C"/>
<path d="M126.465 54.0527C95.4377 62.4582 67.0905 78.5639 43.9614 100.903C42.9178 101.919 44.4973 103.498 45.5409 102.483C68.4162 80.4256 96.3967 64.5454 127.057 56.2246C128.439 55.8297 127.847 53.6861 126.465 54.0527Z" fill="#DBC9F2"/>
<path d="M348.673 64.3761C336.714 54.25 322.837 47.1703 307.577 43.5035C306.167 43.165 305.574 45.3369 306.985 45.6753C321.849 49.2575 335.417 56.0834 347.066 65.9556C348.166 66.8864 349.774 65.3069 348.673 64.3761Z" fill="#DBC9F2"/>
<path d="M225.528 7.59685C220.395 2.60435 209.253 -2.21892 185.306 3.16847C184.939 3.25309 184.629 3.50694 184.516 3.87362C184.375 4.2403 184.432 4.63519 184.657 4.91726L189.452 11.4893C189.734 11.8842 190.214 12.0534 190.665 11.9124C200.848 8.86612 209.535 9.23281 215.148 12.9278C218.589 15.1843 220.677 18.6819 221.184 23.0539C222.482 34.1107 201.44 37.1005 201.243 37.1287C200.679 37.2134 200.255 37.7211 200.284 38.2852L201.214 57.0141C201.243 57.6065 201.75 58.086 202.343 58.086L206.433 58.086C206.743 58.086 207.025 57.9731 207.251 57.7475C207.448 57.5218 207.589 57.2398 207.561 56.9295L207.138 43.5316C211.369 42.6008 228.01 38.2288 230.492 25.536C231.846 18.428 230.098 12.0534 225.528 7.59685Z" fill="#000200"/>
<path d="M207.222 62.0059H201.609C201.073 62.0059 200.622 62.3726 200.509 62.8803L198.929 69.9318C198.873 70.2421 198.929 70.5523 199.099 70.8062C199.268 71.0601 199.55 71.2293 199.86 71.2857L207.025 72.3858C207.081 72.3858 207.137 72.3858 207.194 72.3858C207.448 72.3858 207.73 72.3011 207.927 72.1037C208.181 71.878 208.322 71.5678 208.322 71.2575V63.1059C208.35 62.5136 207.843 62.0059 207.222 62.0059Z" fill="#000200"/>
</svg>
