<svg width="35" height="36" viewBox="0 0 35 36" fill="none" xmlns="http://www.w3.org/2000/svg">
<path fill-rule="evenodd" clip-rule="evenodd" d="M4.375 7.54703C4.375 6.3399 5.35438 5.36133 6.5625 5.36133H28.4375C29.6456 5.36133 30.625 6.3399 30.625 7.54703V29.404C30.625 30.6112 29.6456 31.5897 28.4375 31.5897H6.5625C5.35438 31.5897 4.375 30.6112 4.375 29.404V7.54703ZM28.4375 7.54703H6.5625V29.404H28.4375V7.54703Z" fill="#131313"/>
<path d="M6.5625 7.54703H28.4375V29.404H6.5625V7.54703Z" fill="#DBC9F2"/>
<path fill-rule="evenodd" clip-rule="evenodd" d="M10.9375 5.36133C11.5416 5.36133 12.0312 5.85061 12.0312 6.45418V30.4969C12.0312 31.1004 11.5416 31.5897 10.9375 31.5897C10.3334 31.5897 9.84375 31.1004 9.84375 30.4969V6.45418C9.84375 5.85061 10.3334 5.36133 10.9375 5.36133Z" fill="#131313"/>
<path fill-rule="evenodd" clip-rule="evenodd" d="M14.2188 16.2901C14.2188 15.6866 14.7084 15.1973 15.3125 15.1973H24.0625C24.6666 15.1973 25.1562 15.6866 25.1562 16.2901C25.1562 16.8937 24.6666 17.383 24.0625 17.383H15.3125C14.7084 17.383 14.2188 16.8937 14.2188 16.2901Z" fill="#131313"/>
<path fill-rule="evenodd" clip-rule="evenodd" d="M14.2188 20.6612C14.2188 20.0576 14.7084 19.5684 15.3125 19.5684H24.0625C24.6666 19.5684 25.1562 20.0576 25.1562 20.6612C25.1562 21.2648 24.6666 21.7541 24.0625 21.7541H15.3125C14.7084 21.7541 14.2188 21.2648 14.2188 20.6612Z" fill="#131313"/>
</svg>
