<svg width="702" height="558" viewBox="0 0 702 558" fill="none" xmlns="http://www.w3.org/2000/svg">
<path d="M493.296 453.108C489.721 449.324 495.45 443.562 499.025 447.389C500.705 449.195 502.557 450.657 504.538 451.861L504.021 427.695C499.068 428.985 494.115 430.404 489.205 431.909C484.165 433.457 482.054 425.588 487.051 424.083C487.18 424.04 487.309 423.997 487.439 423.954C492.65 421.159 498.121 419.568 503.849 419.095L500.274 255.91L-14.5723 303.124L-4.49329 501.956L410.123 499.806C408.53 497.527 407.065 495.162 405.687 492.754C402.844 490.088 399.915 487.508 397.374 484.541C395.995 483.767 394.617 483.036 393.282 482.262C391.387 481.23 389.535 480.241 387.596 479.295C386.089 478.564 384.323 477.747 383.418 476.285C381.954 473.963 383.548 471.942 385.96 471.555C385.701 470.867 385.486 470.136 385.227 469.448C383.591 469.061 382.083 468.416 381.308 466.911C380.188 464.761 381.48 462.568 383.418 461.407C383.72 461.02 384.064 460.633 384.495 460.332C384.797 460.074 385.098 459.859 385.4 459.644C382.729 457.537 383.504 452.291 387.769 452.377C390.31 452.506 391.516 452.506 392.55 452.721C395.048 452.979 397.546 453.452 399.958 454.054C399.183 451.689 401.207 448.808 403.835 448.722C408.357 448.55 412.578 449.926 416.197 452.334C416.412 452.291 416.67 452.291 416.929 452.463C424.165 456.118 430.626 460.719 436.354 466.395C436.398 466.438 436.441 466.438 436.484 466.481C435.105 460.375 433.684 454.269 431.487 448.335C429.851 443.949 436.785 441.24 438.896 445.196C442.471 451.861 442.988 455.043 447.639 461.02C453.971 469.104 466.075 478.306 476.067 480.413C485.414 482.391 495.278 481.273 504.754 482.477C504.883 482.477 504.969 482.52 505.098 482.52L504.624 461.106C500.533 459.257 496.656 456.634 493.296 453.108Z" fill="#DBC9F2"/>
<path d="M470.941 395.875L461.939 309.703L330.912 342.168L341.25 439.993L470.941 395.875Z" fill="white"/>
<path d="M447.425 111.602C417.489 114.569 386.348 105.883 360.935 81.7171C350.985 72.2141 342.457 61.1631 335.178 49.0371H394.23C417.145 66.3661 435.451 87.6941 447.425 111.602Z" fill="#F9E59C"/>
<path d="M263.892 429.372C260.101 435.908 256.311 442.401 252.564 448.937C251.487 450.743 254.33 452.42 255.406 450.571C259.197 444.035 262.987 437.542 266.734 431.006C267.768 429.2 264.969 427.566 263.892 429.372Z" fill="#F9E59C"/>
<path d="M65.7148 387.146L73.0372 402.54L93.3674 397.853L79.5411 384.179L65.7148 387.146Z" fill="#DBC9F2"/>
<path d="M254.244 467.384C250.066 469.104 245.931 470.867 241.753 472.587C239.814 473.404 240.676 476.543 242.614 475.726C246.792 474.006 250.927 472.243 255.105 470.523C257.043 469.749 256.182 466.567 254.244 467.384Z" fill="#F9E59C"/>
<path d="M697.33 557.426C697.631 557.598 697.933 557.684 698.234 557.684C698.493 557.684 698.751 557.598 698.924 557.641C699.441 557.383 699.742 556.867 699.785 556.265C699.828 554.889 705.6 416.988 693.755 338.47L693.281 335.202C691.946 327.032 690.438 319.679 688.802 313.401C688.242 311.251 687.639 308.929 687.036 306.435C681.479 283.946 672.133 246.278 643.791 218.027L643.791 218.026C643.705 217.941 643.661 217.898 643.575 217.855C636.813 211.061 629.146 205.041 620.79 199.967C616.009 197.086 610.625 194.42 604.81 192.012C594.946 187.97 583.36 184.53 569.361 181.52L566.432 180.918C550.539 177.736 533.74 176.102 516.511 176.102C499.239 176.102 482.053 178.123 465.513 182.165C464.652 182.38 464.092 183.283 464.307 184.143C464.523 185.003 465.427 185.562 466.289 185.347C482.57 181.391 499.455 179.37 516.511 179.37C533.525 179.37 550.108 180.961 565.786 184.1H565.916L568.672 184.659C582.455 187.626 593.87 190.98 603.561 194.979C609.203 197.301 614.458 199.924 619.067 202.719C627.294 207.664 634.789 213.598 641.422 220.263C641.508 220.306 641.551 220.392 641.637 220.435C669.204 248.041 678.033 283.559 683.848 307.123C684.494 309.66 685.054 311.982 685.614 314.132C687.208 320.281 688.715 327.548 690.008 335.589L690.481 338.814C701.379 410.753 697.373 532.959 696.598 553.126L615.578 501.268L615.449 501.139C614.975 500.666 614.2 500.537 613.554 500.881C585.987 515.716 553.295 524.918 516.425 528.186C515.262 528.272 514.142 528.186 512.979 528.143L512.29 528.1C486.49 527.67 461.895 523.241 439.153 514.985C366.963 488.798 323.891 428.512 323.891 353.735C323.891 350.639 323.977 347.457 324.149 344.361C324.192 343.458 323.503 342.684 322.599 342.641C321.694 342.598 320.919 343.286 320.876 344.189C320.703 347.328 320.617 350.553 320.617 353.735C320.617 429.974 364.508 491.378 438.033 518.081C461.12 526.466 486.102 530.938 512.204 531.411L512.85 531.454C514.099 531.54 515.391 531.583 516.727 531.497C553.64 528.186 586.461 519.027 614.243 504.278L697.33 557.426Z" fill="#131313"/>
<path d="M521.379 443.089C521.293 443.132 521.207 443.175 521.078 443.218L508.242 450.27C507.94 450.442 507.725 450.7 507.553 451.001C509.146 451.302 510.783 451.474 512.377 451.775L522.671 446.099C522.714 446.099 522.714 446.056 522.757 446.056C522.284 445.024 521.81 444.078 521.379 443.089Z" fill="#131313"/>
<path d="M559.067 425.845C558.507 425.845 557.947 425.544 557.646 424.985C557.215 424.211 557.517 423.179 558.292 422.749L571.774 415.353L499.67 400.174C498.981 400.045 498.464 399.486 498.378 398.798L482.355 280.333L409.993 299.468C409.132 299.683 408.227 299.167 407.969 298.307C407.753 297.447 408.27 296.544 409.132 296.286L483.303 276.635C483.733 276.506 484.25 276.592 484.638 276.85C485.026 277.108 485.284 277.538 485.37 278.011L501.479 397.164L576.77 413.031C577.459 413.16 577.933 413.719 578.062 414.407C578.192 415.095 577.847 415.74 577.244 416.084L559.929 425.63C559.584 425.759 559.326 425.845 559.067 425.845Z" fill="#131313"/>
<path d="M350.942 451.731C350.253 451.731 349.607 451.301 349.392 450.613C349.09 449.753 349.564 448.807 350.426 448.549L499.457 396.992C500.318 396.691 501.266 397.164 501.524 398.024C501.826 398.884 501.352 399.83 500.49 400.088L351.459 451.645C351.287 451.731 351.115 451.731 350.942 451.731Z" fill="#131313"/>
<path d="M350.554 429.156C350.252 429.156 349.951 429.07 349.692 428.898C349.262 428.64 349.003 428.167 348.96 427.694L339.484 338.168C339.398 337.265 340.044 336.448 340.949 336.362C341.81 336.276 342.672 336.921 342.758 337.824L352.018 425.286L478.566 382.243L469.908 299.21L382.514 320.882C381.652 321.097 380.748 320.581 380.532 319.678C380.317 318.818 380.834 317.915 381.738 317.7L470.985 295.598C471.459 295.469 471.932 295.555 472.32 295.856C472.708 296.114 472.966 296.544 473.009 297.017L482.011 383.189C482.098 383.963 481.624 384.651 480.891 384.909L351.2 429.027C350.898 429.113 350.726 429.156 350.554 429.156Z" fill="#131313"/>
<path d="M365.673 355.583C364.941 355.583 364.252 355.067 364.079 354.293C363.864 353.39 364.424 352.53 365.328 352.358L409.176 342.64C410.081 342.468 410.942 342.984 411.115 343.887C411.33 344.79 410.77 345.65 409.865 345.822L366.018 355.54C365.931 355.583 365.802 355.583 365.673 355.583Z" fill="#131313"/>
<path d="M369.98 384.351C369.248 384.351 368.559 383.878 368.387 383.104C368.171 382.244 368.688 381.341 369.593 381.126L400.949 373.214C401.811 372.999 402.715 373.515 402.931 374.418C403.146 375.278 402.629 376.181 401.725 376.396L370.368 384.308C370.282 384.351 370.153 384.351 369.98 384.351Z" fill="#131313"/>
<path d="M499.369 457.064C498.938 456.247 497.948 455.989 497.129 456.376L465.04 473.576C464.825 473.705 464.653 473.834 464.523 474.006C465.385 474.78 466.289 475.468 467.194 476.113L498.637 459.257C499.498 458.827 499.8 457.838 499.369 457.064Z" fill="#131313"/>
<path d="M350.554 429.156C350.252 429.156 349.951 429.07 349.692 428.898C349.262 428.64 349.003 428.167 348.96 427.694L339.484 338.168C339.398 337.265 340.044 336.448 340.949 336.362C341.81 336.276 342.672 336.921 342.758 337.824L352.018 425.286L478.566 382.243L469.908 299.21L382.514 320.882C381.652 321.097 380.748 320.581 380.532 319.678C380.317 318.818 380.834 317.915 381.738 317.7L470.985 295.598C471.459 295.469 471.932 295.555 472.32 295.856C472.708 296.114 472.966 296.544 473.009 297.017L482.011 383.189C482.098 383.963 481.624 384.651 480.891 384.909L351.2 429.027C350.898 429.113 350.726 429.156 350.554 429.156Z" fill="#131313"/>
<path d="M609 333L614.5 328L619.5 313H606.5L598 308L589.5 298.5L579 276L576 269H572L565.5 266L565 263L570 258L572.5 254.5L561 219L560.5 209.5V201L567.5 199L617.5 209.5C623.167 210.833 640 220.1 662 246.5C684 272.9 693.833 344.833 696 377.5C695.833 378.833 696 388 698 414C700 440 698.833 518.833 698 555L614.5 503L583.5 516.5L548 525.5L522 529.5H504L470 525.5L448.5 519L447.5 514L452 494.5L462 482.5L477 479L504 482.5L518.5 480L540.5 473L564 459.5L576.5 446.5L586.5 429L592.5 408L594 395L603 352.5L609 333Z" fill="white"/>
<path d="M572 431L584 428.5L578 444L560 463.5L541.5 471.5L502.5 460.5L494.5 454L492 447.5L497 446L506.5 451L513.5 450L521 447.5L517.5 435L508.5 427L497 428.5L487.5 431L483 428.5L487.5 423L507 416L515.5 412L534 414.5L563 428.5L572 431Z" fill="white" stroke="black"/>
<path d="M453.5 467L471.5 477L463.5 481.5L452.5 493.5L447.5 512.5L449 519.5L427.5 512.5L410.5 502L402.5 490L390.5 481.5L381.5 475L383.5 472.5L384.5 469.5L381 465.5L383 462L384.5 458.5L383.5 455L391.5 452.5L403.5 453.5L398.5 450.5L404.5 448L414 450L436 464.5L432.5 452.5V443.5L437 443L442 452.5L453.5 467Z" fill="white" stroke="black"/>
<path d="M498.252 483.466C471.719 483.466 456.041 471.727 450.657 466.782C445.186 461.794 442.99 456.892 441.181 452.936C439.932 450.227 438.855 447.862 437.046 446.056C435.064 444.121 433.686 443.863 433.212 444.164C432.523 444.637 431.877 447.389 434.246 452.85C438.338 462.267 436.916 465.793 436.572 466.438C436.313 466.911 435.883 467.212 435.409 467.298C434.892 467.384 434.375 467.212 434.031 466.868C428.431 461.579 412.064 448.163 403.535 449.324C401.812 449.539 400.52 450.399 399.616 451.904C399.142 452.678 398.151 452.936 397.376 452.463C396.601 451.99 396.342 451.001 396.816 450.227C398.237 447.862 400.348 446.486 403.105 446.099C412.58 444.809 427.742 456.978 433.772 462.224C433.557 460.504 432.911 457.924 431.317 454.183C428.69 448.077 428.733 443.347 431.446 441.498C432.437 440.81 435.194 439.649 439.415 443.734C441.698 445.97 442.947 448.679 444.239 451.603C446.005 455.473 447.986 459.816 452.939 464.374C460.563 471.383 489.594 492.453 542.617 470.437C584.483 453.022 590.642 413.247 596.113 378.116C600.162 352.058 603.65 329.569 620.535 319.851C621.31 319.421 622.344 319.679 622.775 320.453C623.205 321.227 622.947 322.259 622.172 322.689C606.622 331.59 603.263 353.391 599.343 378.589C593.787 414.537 587.455 455.344 543.866 473.447C526.077 480.8 510.915 483.466 498.252 483.466Z" fill="#131313"/>
<path d="M427.998 471.727C427.696 471.727 427.395 471.641 427.136 471.469C422.011 468.244 418.22 465.32 414.904 462.783C407.667 457.236 403.317 453.882 392.894 453.323C389.275 453.108 385.743 455.344 385.442 456.806C385.27 457.58 386.949 458.225 387.466 458.397C388.328 458.698 388.759 459.644 388.5 460.461C388.199 461.321 387.294 461.751 386.433 461.493C382.039 459.988 382.039 457.279 382.255 456.161C382.901 452.764 388.156 449.754 393.109 450.012C404.566 450.571 409.735 454.613 416.928 460.16C420.202 462.697 423.906 465.535 428.902 468.674C429.678 469.147 429.893 470.179 429.419 470.953C429.074 471.469 428.558 471.727 427.998 471.727Z" fill="#131313"/>
<path d="M422.486 474.866C400.389 459.773 389.234 454.14 381.653 460.891C379.499 462.783 379.37 464.589 379.671 465.793C380.318 468.588 383.893 470.523 386.692 471.641C388.372 471.813 390.009 472.028 391.689 472.286C391.861 472.114 391.99 471.856 392.076 471.598C392.292 470.738 391.775 469.835 390.913 469.577C387.812 468.76 383.29 466.696 382.859 465.019C382.73 464.546 383.074 463.987 383.806 463.342C389.75 458.096 400.432 463.729 420.633 477.575C420.935 477.747 421.236 477.876 421.538 477.876C422.055 477.876 422.572 477.618 422.873 477.145C423.39 476.414 423.218 475.382 422.486 474.866Z" fill="#131313"/>
<path d="M415.551 506.944C415.249 506.944 414.905 506.858 414.603 506.643C409.176 502.902 406.075 498.387 403.318 494.431C400.476 490.303 398.02 486.734 393.541 484.713C384.194 480.413 380.619 477.747 380.361 474.866C380.274 473.834 380.576 472.372 382.514 470.996C387.898 467.255 392.981 468.158 410.985 480.628C411.718 481.144 411.933 482.176 411.416 482.907C410.899 483.638 409.865 483.81 409.133 483.337C390.741 470.566 387.769 471.34 384.409 473.662C383.936 474.006 383.634 474.35 383.634 474.565C383.72 475.511 385.745 477.532 394.919 481.746C400.217 484.154 403.017 488.282 406.032 492.625C408.746 496.538 411.502 500.58 416.455 504.02C417.188 504.536 417.403 505.568 416.886 506.299C416.585 506.686 416.068 506.944 415.551 506.944Z" fill="#131313"/>
<path d="M440.017 470.093C439.759 470.093 439.457 470.007 439.199 469.878L434.289 467.126C433.513 466.696 433.212 465.707 433.642 464.89C434.073 464.116 435.064 463.815 435.882 464.245L440.793 466.997C441.568 467.427 441.869 468.416 441.439 469.233C441.137 469.792 440.62 470.093 440.017 470.093Z" fill="#131313"/>
<path d="M660.761 412.215C659.943 412.172 659.081 412.817 659.038 413.72C656.928 439.305 636.081 482.004 618.722 504.364C618.421 504.751 618.292 505.224 618.421 505.697C618.507 506.17 618.852 506.557 619.282 506.815L645.169 520.403C645.427 520.532 645.686 520.575 645.944 520.575C646.504 520.575 647.021 520.317 647.323 519.801C658.995 500.967 662.226 417.461 662.355 413.935C662.355 412.989 661.666 412.258 660.761 412.215Z" fill="#131313"/>
<path d="M448.761 521.564C448.072 521.564 447.383 521.091 447.168 520.403C444.971 513.05 447.727 497.871 455.136 487.895C460.391 480.843 467.282 477.102 475.122 477.059C476.026 477.059 476.758 477.79 476.758 478.693C476.758 479.596 476.026 480.327 475.122 480.327C468.273 480.37 462.415 483.552 457.763 489.83C450.57 499.505 448.546 513.609 450.312 519.457C450.57 520.317 450.053 521.22 449.192 521.478C449.106 521.521 448.934 521.564 448.761 521.564Z" fill="#131313"/>
<path d="M573.325 431.651C563.117 431.651 554.761 426.749 548.214 422.879C546.922 422.105 545.673 421.417 544.51 420.729C531.545 413.548 513.885 409.979 506.735 417.418C506.089 418.063 505.055 418.106 504.409 417.461C503.763 416.816 503.72 415.784 504.366 415.139C512.722 406.41 531.674 409.893 546.06 417.848C547.266 418.536 548.515 419.267 549.851 420.041C558.465 425.115 569.233 431.436 583.06 426.663C583.921 426.362 584.869 426.835 585.127 427.695C585.428 428.555 584.955 429.501 584.093 429.759C580.346 431.092 576.728 431.651 573.325 431.651Z" fill="#131313"/>
<path d="M543.131 473.576C542.959 473.576 542.744 473.533 542.572 473.49C535.981 471.039 528.788 469.362 521.897 467.728C508.114 464.46 496.182 461.665 492.306 453.968C490.152 449.711 490.109 446.744 492.09 445.153C495.321 442.659 502.04 445.927 505.572 448.98C508.544 451.517 516.599 448.507 520.475 446.658C519.571 443.218 516.556 433.457 510.482 429.888C508.07 428.469 505.529 428.211 502.643 429.114C490.195 432.941 486.146 433.5 483.821 431.78C482.27 430.662 482.098 428.813 482.098 427.566C482.098 425.889 483.433 424.083 486.06 422.32C492.952 417.633 507.812 413.29 517.891 417.289C518.752 417.633 519.14 418.579 518.795 419.396C518.451 420.256 517.503 420.643 516.685 420.299C507.984 416.859 494.287 420.815 488.128 424.857C485.931 426.319 485.414 427.308 485.414 427.523C485.414 428.125 485.5 428.899 485.802 429.114C487.439 430.318 496.742 427.48 501.739 425.975C505.486 424.814 509.018 425.201 512.205 427.093C520.82 432.167 523.878 446.615 524.007 447.26C524.136 447.991 523.835 448.679 523.189 449.023C521.768 449.754 509.061 456.247 503.505 451.517C499.844 448.421 495.192 447.045 494.201 447.819C493.943 448.034 493.641 449.238 495.321 452.592C498.508 458.956 510.267 461.708 522.715 464.632C529.736 466.266 537.015 467.986 543.778 470.48C544.639 470.781 545.07 471.727 544.768 472.587C544.424 473.189 543.778 473.576 543.131 473.576Z" fill="#131313"/>
<path d="M527.368 417.934C526.98 417.934 526.636 417.805 526.334 417.547C523.491 415.182 516.729 414.58 515.135 414.623C514.877 414.666 514.618 414.666 514.36 414.623C513.714 414.451 513.197 413.892 513.111 413.204C513.025 412.559 513.369 411.871 513.972 411.57C515.006 411.011 524.396 411.699 528.402 415.01C529.091 415.569 529.177 416.601 528.617 417.332C528.315 417.762 527.842 417.934 527.368 417.934Z" fill="#131313"/>
<path d="M556.916 465.879C556.183 465.879 555.537 465.406 555.322 464.675C552.307 453.108 555.02 436.682 572.68 428.555C573.499 428.168 574.489 428.555 574.877 429.372C575.265 430.189 574.877 431.178 574.059 431.565C558.208 438.875 555.753 453.538 558.466 463.901C558.682 464.761 558.165 465.664 557.303 465.879C557.217 465.879 557.045 465.879 556.916 465.879Z" fill="#131313"/>
<path d="M602.701 265.627C602.356 268.078 601.28 271.346 598.351 271.561C596.24 271.733 596.283 275.001 598.394 274.829C602.873 274.485 605.285 270.572 605.888 266.444C606.19 264.38 603.002 263.52 602.701 265.627Z" fill="#131313"/>
<path d="M571.733 270.487C569.623 270.487 567.727 270.057 566.306 269.154C564.669 268.122 563.679 266.574 563.42 264.639C562.602 258.92 571.518 254.835 572.552 254.362C573.37 253.975 574.361 254.362 574.705 255.179C575.05 255.996 574.705 256.985 573.887 257.329C571.389 258.447 566.306 261.543 566.694 264.123C566.823 265.112 567.297 265.8 568.072 266.316C569.795 267.391 573.025 267.434 576.299 266.402C577.16 266.101 578.065 266.617 578.366 267.477C578.625 268.337 578.151 269.24 577.29 269.541C575.351 270.186 573.456 270.487 571.733 270.487Z" fill="#131313"/>
<path d="M578.41 236.172L579.4 239.268C580.693 243.267 574.404 245.288 573.155 241.246L572.164 238.15C570.915 234.108 577.161 232.13 578.41 236.172Z" fill="#131313"/>
<path d="M566.649 219.703C568.673 219.66 570.698 219.962 572.679 219.747C574.747 219.532 575.479 222.713 573.411 222.928C571.129 223.143 568.846 222.886 566.52 222.972C564.409 223.015 564.538 219.746 566.649 219.703Z" fill="#131313"/>
<path d="M629.581 308.24C622.69 310.605 614.592 312.325 607.787 310.82C595.425 308.111 588.016 297.189 578.325 267.562C578.024 266.702 577.119 266.229 576.258 266.53C575.396 266.831 574.922 267.734 575.224 268.594C584.011 295.469 591.678 310.648 607.098 314.045C614.42 315.636 622.819 314.002 629.969 311.637C629.84 310.476 629.711 309.358 629.581 308.24Z" fill="#131313"/>
<path d="M573.154 257.544C572.465 257.544 571.819 257.114 571.603 256.383C569.277 248.944 567.253 242.021 564.884 234.023C563.506 229.336 562.041 224.348 560.361 218.715C555.796 203.45 558.294 191.367 567.985 181.821C568.631 181.176 569.665 181.176 570.311 181.821C570.957 182.466 570.957 183.498 570.311 184.143C561.567 192.786 559.371 203.794 563.549 217.769C565.228 223.402 566.693 228.433 568.071 233.12C570.397 241.118 572.422 247.998 574.747 255.394C575.006 256.254 574.532 257.157 573.671 257.458C573.498 257.501 573.326 257.544 573.154 257.544Z" fill="#131313"/>
<path d="M642.716 219.058C640.82 219.703 638.968 220.477 637.202 221.337C610.196 218.327 584.18 208.695 563.031 191.194C564.496 188.399 566.477 185.604 569.148 182.981C581.509 185.647 593.44 188.915 604.295 193.387C609.808 195.666 615.106 198.246 620.059 201.256C628.717 206.502 636.212 212.479 642.716 219.058Z" fill="#131313"/>
<path d="M643.534 293.707C642.845 293.707 642.198 293.276 641.983 292.588L628.2 250.577C628.071 250.147 628.114 249.674 628.329 249.287C628.544 248.9 628.889 248.6 629.32 248.471C634.79 246.966 638.623 244.428 640.433 241.117C642.069 238.107 641.595 235.399 641.165 234.066C640.476 231.873 639.054 230.239 636.987 229.207C632.679 227.143 625.616 227.83 616.527 231.184C615.666 231.485 614.718 231.055 614.417 230.238C614.115 229.378 614.546 228.433 615.364 228.132C625.443 224.348 633.196 223.745 638.408 226.239C642.026 228.002 643.62 230.926 644.266 233.033C645.257 236.215 644.912 239.656 643.275 242.666C641.811 245.332 638.667 248.857 631.775 251.093L645.041 291.513C645.343 292.373 644.869 293.276 644.008 293.577C643.878 293.706 643.706 293.707 643.534 293.707Z" fill="#131313"/>
<path d="M692.249 338.556C677.26 350.51 656.929 356.315 638.236 351.112C628.932 348.532 619.844 342.856 615.752 333.869C610.885 323.248 614.46 311.423 618.939 301.361C622.17 294.051 626.132 286.999 628.071 279.173C629.751 272.508 626.305 256.082 629.837 250.105C631.732 246.966 646.333 244.343 641.552 233.163C636.125 220.435 616.053 231.486 616.053 231.486C592.751 222.284 581.035 205.858 563.074 191.195C574.187 189.905 589.133 191.152 604.338 193.388C609.851 195.667 615.149 198.247 620.102 201.257C670.497 231.744 680.49 287.171 687.382 313.659C689.061 320.066 690.526 327.376 691.818 335.288C691.904 336.363 692.077 337.438 692.249 338.556Z" fill="#131313"/>
<path d="M591.504 188.873C585.387 185.39 576.213 184.358 569.407 182.423C569.192 182.38 569.02 182.38 568.848 182.38C568.632 182.208 568.374 182.079 568.029 182.036C560.578 181.176 547.527 181.778 547.785 192.399C548 201.558 561.051 203.966 567.943 204.783C575.524 205.686 591.504 204.224 594.39 194.893C595.208 192.055 593.959 190.292 591.504 188.873Z" fill="#131313"/>
<path d="M56.5 227.5L46 247.5L64.5 275.5L55.5 353L117.5 319.5L124 323.5L156 339L194 348L205.5 341.5L220 338L235 339L246.5 350.5L253 352.5L258.5 350.5L265 348L269 344.5V335L262.5 324L255.5 319L252 314.5L258.5 313.5L269 317L275 324L282 328.5L285 324L281 317L280 313.5L290 309.5L301 319.5L313 324L316.5 323V319L306 305L308 303L315 301L329.5 307.5L343.5 323H347.5L350 319.5L349.5 314.5L352.5 307.5L354.5 301.5L356 297.5L354.5 291L350.5 286L310 289L288.5 290L286.5 286L269 291L267.5 289L251.5 236.5L240.5 213L229.5 194L215.5 177L195.5 164.5L194 161.5L204.5 158L213.5 143L217.5 112.5L218.5 53.5L211 43.5H138.5L135 87.5L130 88.5L117.5 92.5L113.5 95.5V100.5L116.5 108.5L128 112.5V153.5L113.5 170L94 183L69.5 208.5L56.5 227.5Z" fill="white"/>
<path d="M287.622 323.462L283.1 325.01L278.06 327.977L272.547 330.256L280.257 336.405L296.151 330.256L287.622 323.462Z" fill="white"/>
<path d="M363.688 310.992L350.724 316.324L342.583 319.205L326 326.171L337.5 331.073L370.02 315.12L363.688 310.992Z" fill="white"/>
<path d="M246.059 355.584C199.282 355.584 154.659 343.759 117.013 321.442L55.8935 355.412C55.3335 355.713 54.6874 355.67 54.1706 355.326C53.6537 354.982 53.3952 354.38 53.4814 353.778L63.6896 276.163C39.7843 247.009 27.1641 212.996 27.1641 177.865C27.1641 143.465 37.4584 110.828 56.8841 83.4366C61.8375 76.2986 67.5661 69.4615 73.8978 63.0975L81.737 55.4865C121.881 19.2375 178.693 0.102539 246.059 0.102539C265.829 0.102539 285.47 2.25254 304.422 6.50954C320.617 10.1645 336.167 15.2815 350.639 21.7315C395.004 41.3395 429.893 72.9875 448.845 110.914C455.348 123.9 459.957 137.531 462.499 151.377C464.092 160.106 464.911 169.007 464.911 177.908C464.911 254.147 415.851 315.594 333.712 342.297C307.911 350.682 280.043 355.154 250.84 355.627C249.289 355.584 247.653 355.584 246.059 355.584ZM117.057 317.916C117.358 317.916 117.66 318.002 117.918 318.131C155.262 340.491 199.584 352.316 246.102 352.316C247.696 352.187 249.246 352.316 250.84 352.273C279.699 351.8 307.265 347.414 332.764 339.115C413.525 312.885 461.723 252.599 461.723 177.822C461.723 169.136 460.948 160.407 459.354 151.893C456.856 138.348 452.376 125.018 446.002 112.333C433.87 88.1093 415.122 66.4697 391.476 49C378.772 39.6138 364.655 31.4313 349.39 24.6985C335.133 18.3345 319.799 13.2605 303.819 9.69153C285.083 5.52053 265.657 3.37054 246.145 3.37054C179.598 3.37054 123.517 22.2475 84.0199 57.9375L83.6753 58.2385L76.1806 65.4195C70.0213 71.6115 64.4218 78.3195 59.5546 85.3285C40.5166 112.161 30.4376 144.153 30.4376 177.865C30.4376 201.87 36.4655 225.316 48.0618 247C53.1872 256.584 59.4003 265.823 66.6616 274.615C66.9631 274.959 67.0923 275.432 67.0062 275.862L57.1426 350.94L116.238 318.088C116.497 317.959 116.755 317.916 117.057 317.916Z" fill="#131313"/>
<path d="M391.476 49C378.772 39.6138 364.655 31.4313 349.39 24.6985C335.133 18.3345 319.799 13.2605 303.819 9.69153C285.083 5.52053 265.657 3.37054 246.145 3.37054C179.598 3.37054 123.517 22.2475 84.0199 57.9375L83.6753 58.2385L76.1806 65.4195C70.0213 71.6115 64.4218 78.3195 59.5546 85.3285C40.5166 112.161 30.4376 144.153 30.4376 177.865C30.4376 201.87 36.4655 225.316 48.0618 247L58.5 223.5L80.5 195.5L110.5 171L128 153.5V129.5V111.5L119.5 110L114 105.5L112.5 99L115 94L124 89.5L127 76.5L135.5 49L159 35.5L194 38L218 51V65.5C218 66.7 217 103.667 216.5 122L215 135.5L212.5 147L206.5 156.5L200.5 159.5L195.5 161.5L194 163.5C195 164.167 197.7 165.9 200.5 167.5C204 169.5 213 177.5 218 180.5C222 182.9 232.333 197.5 237 204.5L249 232L263.5 270.5L268.5 291.5L277.5 288.5L288 286.5L267.5 49H391.476Z" fill="#CCECBD"/>
<path d="M287.796 292.115C286.935 292.115 286.246 291.47 286.16 290.61L266.432 49.1653C266.389 48.6923 266.562 48.2623 266.863 47.9183C267.165 47.5743 267.595 47.4023 268.069 47.4023H394.229C395.133 47.4023 395.865 48.1333 395.865 49.0363C395.865 49.9393 395.133 50.6703 394.229 50.6703H269.835L289.304 288.718L425.327 279.946C426.188 279.903 427.007 280.591 427.05 281.494C427.093 282.397 426.404 283.171 425.499 283.214L287.882 292.072C287.882 292.115 287.839 292.115 287.796 292.115Z" fill="#131313"/>
<path d="M426.921 280.936C426.663 280.291 425.974 279.904 425.327 279.947L390.74 282.183C390.223 282.226 389.793 282.484 389.491 282.914C389.19 283.344 389.146 283.86 389.276 284.333L396.555 306.994C396.727 307.51 397.158 307.94 397.675 308.069C397.804 308.112 397.976 308.112 398.106 308.112C398.493 308.112 398.924 307.983 399.225 307.682L426.49 282.785C427.05 282.312 427.223 281.581 426.921 280.936Z" fill="#131313"/>
<path d="M300.76 291.256C299.942 291.256 299.21 290.611 299.124 289.794L274.529 49.2085C274.443 48.3055 275.089 47.4886 275.994 47.4026C276.941 47.3596 277.717 47.9616 277.803 48.8646L302.397 289.45C302.483 290.353 301.837 291.17 300.933 291.256C300.89 291.256 300.803 291.256 300.76 291.256Z" fill="#131313"/>
<path d="M137.773 89.9722C139.625 72.6002 139.97 59.0123 148.24 52.3903C163.918 39.8343 211.427 47.0152 218.233 54.8412C216.122 40.5652 206.431 27.4073 175.332 26.3753C138.548 25.1283 125.756 40.0492 124.938 64.5162C124.119 88.9832 124.119 88.9832 124.119 88.9832L124.421 89.4992C129.805 89.0692 132.346 89.8002 137.773 89.9722Z" fill="#131313"/>
<path d="M184.981 221.724C184.593 221.724 184.205 221.595 183.861 221.294L135.102 177.262C130.149 172.79 127.306 166.426 127.263 159.804L126.919 112.848C120.156 112.547 116.366 110.139 114.385 108.118C112.145 105.796 110.939 102.786 111.068 99.6472C111.154 97.5402 111.8 94.4873 114.686 91.9933C118.735 88.3813 125.928 87.0053 135.964 87.8653C136.868 87.9513 137.515 88.7253 137.471 89.6283C137.385 90.5313 136.61 91.1763 135.706 91.1333C126.703 90.3593 120.199 91.5203 116.883 94.4443C115.289 95.8633 114.471 97.6263 114.385 99.7763C114.342 101.066 114.6 103.603 116.797 105.839C119.252 108.333 123.301 109.623 128.599 109.623C129.503 109.623 130.235 110.354 130.235 111.257L130.58 159.804C130.623 165.523 133.078 171.027 137.342 174.854L183.516 216.521L184.808 178.208C184.851 177.305 185.713 176.531 186.488 176.617C187.393 176.66 188.082 177.391 188.082 178.294L186.66 220.133C186.66 220.778 186.23 221.337 185.67 221.595C185.411 221.681 185.196 221.724 184.981 221.724Z" fill="#131313"/>
<path d="M190.494 112.031C190.278 112.031 190.063 112.031 189.848 112.031C188.943 111.988 188.254 111.257 188.254 110.354C188.297 109.451 189.159 108.72 189.934 108.763C192.777 108.849 195.146 108.204 196.222 106.957C196.825 106.269 197.084 105.452 196.912 104.377C196.61 102.012 191.226 100.507 188.814 100.163C187.996 100.034 187.393 99.303 187.393 98.486L187.866 84.468C187.909 83.565 188.771 82.877 189.546 82.877C190.451 82.92 191.14 83.651 191.14 84.554L190.709 97.153C193.595 97.755 199.582 99.561 200.142 103.947C200.4 105.968 199.884 107.774 198.635 109.15C196.998 110.999 194.112 112.031 190.494 112.031Z" fill="#131313"/>
<path d="M200.83 88.2523L200.744 91.3053C200.615 95.2613 206.731 95.4763 206.861 91.5203L206.947 88.4673C207.119 84.5543 200.96 84.3393 200.83 88.2523Z" fill="#131313"/>
<path d="M163.918 87.0482L163.832 90.1012C163.703 94.0572 169.819 94.2722 169.948 90.3162L170.035 87.2632C170.207 83.3072 164.047 83.0922 163.918 87.0482Z" fill="#131313"/>
<path d="M165.598 72.2989C163.1 72.7289 160.688 73.3309 158.362 74.2339C156.51 74.9649 158.017 77.6309 159.826 76.9429C161.894 76.1259 164.134 75.6959 166.33 75.2659C168.225 74.9219 167.536 71.9119 165.598 72.2989Z" fill="#131313"/>
<path d="M208.239 73.2025C206.732 72.0845 205.009 71.2675 203.545 70.0635C202.037 68.8165 199.797 70.8805 201.305 72.1705C202.942 73.5465 204.837 74.5355 206.603 75.8255C208.196 76.9435 209.833 74.3205 208.239 73.2025Z" fill="#131313"/>
<path d="M170.249 125.104C167.966 124.674 164.951 123.513 164.865 120.804C164.822 118.826 161.764 118.74 161.807 120.718C161.936 124.889 165.511 127.34 169.345 128.071C171.24 128.372 172.188 125.491 170.249 125.104Z" fill="#131313"/>
<path d="M186.402 179.928C186.273 179.928 186.144 179.928 186.015 179.885C185.239 179.67 166.589 174.983 163.014 164.448C162.842 163.932 162.928 163.33 163.272 162.9C163.617 162.47 164.177 162.255 164.737 162.298C164.952 162.298 187.867 164.491 200.788 157.611C215.864 149.57 216.251 122.48 216.855 77.6312C216.941 72.8582 216.984 67.9132 217.07 62.7962C217.458 40.3932 203.804 29.0412 175.246 28.0952C142.425 27.0202 127.436 38.2862 126.531 64.6452L125.713 89.1122C125.67 90.0152 124.895 90.8322 124.033 90.7032C123.129 90.6602 122.439 89.9292 122.439 89.0262L123.258 64.5592C124.205 36.3082 140.745 23.6232 175.333 24.8272C205.613 25.8592 220.731 38.6302 220.3 62.8392C220.214 67.9992 220.128 72.9442 220.085 77.6742C219.439 123.77 219.051 151.591 202.253 160.535C198.161 162.685 193.294 164.061 188.427 164.835V164.878L187.953 178.38C187.953 178.853 187.694 179.326 187.307 179.627C187.091 179.799 186.747 179.928 186.402 179.928ZM167.321 165.738C171.155 171.414 180.717 174.854 184.852 176.144L185.239 165.222C177.917 166.082 171.068 165.91 167.321 165.738Z" fill="#131313"/>
<path d="M164.564 163.889C167.881 173.736 186.402 178.294 186.402 178.294L186.876 164.749L164.564 163.889Z" fill="#131313"/>
<path d="M281.204 329.913C278.749 329.913 276.682 327.591 274.097 324.71C269.316 319.335 262.726 311.982 250.364 315.895C249.503 316.196 248.598 315.68 248.297 314.82C248.039 313.96 248.512 313.056 249.374 312.755C263.76 308.197 271.47 316.798 276.553 322.517C278.362 324.538 280.472 326.86 281.42 326.602C282.755 326.215 282.927 325.483 282.927 324.795C283.014 319.979 271.944 307.381 250.537 300.458C249.331 300.071 248.125 299.641 246.833 299.254C225.813 292.245 196.998 282.613 131.613 325.914C130.838 326.43 129.847 326.214 129.331 325.44C128.814 324.667 129.029 323.678 129.804 323.162C196.567 279.001 226.201 288.891 247.866 296.115C249.115 296.545 250.321 296.932 251.527 297.319C272.418 304.07 286.287 316.969 286.158 324.795C286.115 327.203 284.693 328.967 282.281 329.698C281.937 329.87 281.592 329.913 281.204 329.913Z" fill="#131313"/>
<path d="M265.224 349.434C264.75 349.434 264.276 349.219 263.932 348.832C263.372 348.144 263.458 347.112 264.19 346.51C266.775 344.446 267.938 341.651 267.679 338.211C267.076 330.729 259.582 321.699 249.072 315.765C248.297 315.335 247.995 314.303 248.469 313.529C248.9 312.755 249.933 312.454 250.709 312.927C262.295 319.506 270.264 329.31 270.953 337.996C271.297 342.511 269.704 346.338 266.258 349.09C265.956 349.348 265.612 349.434 265.224 349.434Z" fill="#131313"/>
<path d="M256.005 352.745C255.144 352.745 254.412 352.057 254.369 351.197C254.326 350.294 255.015 349.52 255.919 349.477C258.461 349.305 261.648 348.703 262.337 346.768C264.448 340.877 248.166 325.526 241.189 318.99C240.542 318.388 240.499 317.313 241.102 316.668C241.705 316.023 242.782 315.98 243.428 316.582C256.005 328.407 268.023 340.576 265.395 347.843C264.362 350.724 261.217 352.358 256.092 352.702C256.049 352.745 256.049 352.745 256.005 352.745Z" fill="#131313"/>
<path d="M253.164 354.508C249.675 354.508 244.679 351.068 238.39 344.403C224.564 329.611 195.059 349.004 194.758 349.219C193.983 349.735 192.992 349.52 192.475 348.746C191.958 348.015 192.174 346.983 192.949 346.467C194.241 345.607 225.081 325.354 240.803 342.167C249.072 350.982 252.992 351.584 253.724 351.111C254.112 350.853 254.327 349.262 253.121 346.639C249.719 339.372 238.606 330.256 233.265 325.87C232.576 325.311 232.446 324.279 233.049 323.548C233.609 322.86 234.643 322.731 235.375 323.333C240.932 327.891 252.432 337.351 256.136 345.263C257.945 349.133 257.73 352.401 255.619 353.82C254.844 354.25 254.069 354.508 253.164 354.508Z" fill="#131313"/>
<path d="M117.054 321.183C116.451 321.183 115.848 320.839 115.547 320.237C104.52 296.716 110.852 270.357 111.11 269.239C111.326 268.379 112.23 267.82 113.092 268.035C113.953 268.25 114.513 269.153 114.298 270.013C114.255 270.271 108.009 296.415 118.519 318.861C118.906 319.678 118.562 320.667 117.743 321.054C117.528 321.14 117.27 321.183 117.054 321.183Z" fill="#131313"/>
<path d="M152.461 226.927C152.418 226.927 152.375 226.927 152.332 226.927C151.858 226.884 151.385 226.626 151.126 226.239L111.198 170.296C110.724 169.651 110.81 168.791 111.327 168.232L127.695 151.032C128.341 150.387 129.375 150.344 130.021 150.989C130.667 151.634 130.71 152.666 130.064 153.311L114.644 169.479L152.677 222.713L167.408 207.405C168.054 206.76 169.088 206.717 169.734 207.362C170.38 208.007 170.423 209.039 169.777 209.684L153.711 226.411C153.323 226.755 152.892 226.927 152.461 226.927Z" fill="#131313"/>
<path d="M268.068 292.115C267.336 292.115 266.69 291.642 266.474 290.868C241.708 194.376 216.51 177.52 194.026 165.437L201.478 209.34C201.564 209.899 201.349 210.501 200.918 210.888C200.487 211.275 199.841 211.361 199.324 211.189L184.981 206.029C184.12 205.728 183.689 204.782 183.99 203.922C184.292 203.062 185.24 202.632 186.101 202.933L197.774 207.104L190.236 162.685C190.15 162.083 190.408 161.438 190.882 161.094C191.399 160.707 192.045 160.664 192.605 160.965C215.261 173.005 243.431 187.969 269.662 290.051C269.877 290.911 269.36 291.814 268.499 292.029C268.327 292.072 268.197 292.115 268.068 292.115Z" fill="#131313"/>
<path d="M46.5451 249.244C46.3298 249.244 46.1144 249.201 45.899 249.115C45.0807 248.771 44.6499 247.825 44.9945 246.965C63.8172 201.6 100.73 175.026 111.628 167.974C112.403 167.501 113.394 167.716 113.911 168.447C114.384 169.221 114.212 170.21 113.437 170.726C102.755 177.649 66.4877 203.75 48.0957 248.255C47.7942 248.857 47.1912 249.244 46.5451 249.244Z" fill="#131313"/>
<path d="M194.974 295.684C194.156 295.684 193.467 295.082 193.337 294.265L183.345 220.348C183.215 219.445 183.861 218.628 184.766 218.499C185.671 218.37 186.489 219.015 186.618 219.918L196.611 293.835C196.74 294.738 196.094 295.555 195.19 295.684C195.146 295.641 195.06 295.684 194.974 295.684Z" fill="#131313"/>
<path d="M251.097 300.586C250.494 300.586 249.891 300.242 249.632 299.683C249.245 298.866 249.546 297.877 250.365 297.49C275.261 285.192 286.89 284.418 287.364 284.418C288.269 284.375 289.044 285.063 289.087 285.966C289.13 286.869 288.441 287.643 287.536 287.686C287.407 287.686 275.95 288.46 251.829 300.414C251.571 300.5 251.312 300.586 251.097 300.586Z" fill="#131313"/>
<path d="M346.762 325.655C344.608 325.655 342.239 323.935 339.784 320.538C329.619 306.563 316.051 299.081 308.901 303.467C307.738 304.155 307.695 304.757 307.652 304.972C307.437 306.864 310.71 310.132 313.295 312.712C316.654 316.023 319.54 318.904 318.851 321.699C318.636 322.645 317.86 324.365 315.19 324.881C309.203 326.085 295.204 320.022 286.073 307.466C285.556 306.735 285.685 305.703 286.417 305.187C287.15 304.671 288.183 304.8 288.7 305.531C296.841 316.711 309.59 322.645 314.501 321.656C315.491 321.441 315.577 321.054 315.621 320.925C315.879 319.893 312.778 316.84 310.926 314.991C307.48 311.551 303.905 308.025 304.335 304.542C304.508 302.994 305.455 301.661 307.135 300.629C315.879 295.254 331.04 302.951 342.369 318.56C344.651 321.699 346.202 322.43 346.805 322.344C347.107 322.301 347.322 321.871 347.408 321.613C348.269 319.377 347.451 313.529 342.842 308.068C337.631 301.919 330.179 295.899 330.136 295.856C329.447 295.297 329.318 294.265 329.878 293.534C330.437 292.846 331.471 292.717 332.203 293.276C332.505 293.534 339.956 299.554 345.384 305.961C350.638 312.153 351.931 319.119 350.509 322.774C349.863 324.408 348.743 325.397 347.236 325.569C347.107 325.612 346.934 325.655 346.762 325.655Z" fill="#131313"/>
<path d="M349.475 315.98C349.087 315.98 348.699 315.851 348.355 315.55C347.666 314.948 347.622 313.916 348.268 313.228C348.398 313.099 351.111 310.003 350.508 305.488C349.905 301.102 346.459 296.888 340.214 292.889C339.439 292.416 339.223 291.384 339.697 290.61C340.171 289.836 341.205 289.621 341.98 290.094C349.087 294.652 353.05 299.683 353.782 305.058C354.557 311.121 350.853 315.206 350.724 315.378C350.379 315.808 349.948 315.98 349.475 315.98Z" fill="#131313"/>
<path d="M352.232 306.304C351.887 306.304 351.542 306.176 351.241 305.961C350.509 305.402 350.379 304.369 350.939 303.681C351.241 303.295 358.176 294.136 349.906 287.686C349.173 287.127 349.087 286.094 349.647 285.406C350.207 284.675 351.241 284.59 351.93 285.149C360.588 291.943 356.754 301.575 353.524 305.746C353.222 306.09 352.748 306.304 352.232 306.304Z" fill="#131313"/>
<path d="M278.318 316.066C277.672 316.066 277.026 315.679 276.767 314.991C276.466 314.131 276.853 313.185 277.715 312.884L289.603 308.369C290.464 308.025 291.412 308.455 291.714 309.315C292.015 310.175 291.627 311.121 290.766 311.422L278.878 315.937C278.706 316.023 278.533 316.066 278.318 316.066Z" fill="#131313"/>
<path d="M259.625 322.903C258.936 322.903 258.333 322.473 258.074 321.828C257.773 320.968 258.204 320.022 259.065 319.721L268.886 316.238C269.747 315.937 270.695 316.367 270.996 317.227C271.298 318.087 270.867 319.033 270.006 319.334L260.185 322.817C260.013 322.903 259.84 322.903 259.625 322.903Z" fill="#131313"/>
</svg>
