<svg width="667" height="543" viewBox="0 0 667 543" fill="none" xmlns="http://www.w3.org/2000/svg">
<path d="M214.999 41L0.611328 145.114L107.935 283.425L291.216 194.093L214.999 41ZM155.638 198.268L114.275 138.5H181.469L155.638 198.268Z" fill="#DBC9F2"/>
<path d="M513.057 229.56V317.912C513.057 317.912 658.89 309.775 658.89 312.374C658.89 314.973 666.635 233.947 666.635 233.947L513.057 229.56Z" fill="#F9E59C"/>
<path d="M319.393 9.74316H331.861V48.5518L319.393 47.785" fill="#F9E59C"/>
<path d="M320.371 64.9102H329.52V85.6138H322.116" fill="#F9E59C"/>
<path d="M552.122 167.235H535.738L548.249 183.423L552.122 167.235Z" fill="#F9E59C"/>
<path d="M578 182.183L584.085 197.477L598.639 190.703L594.681 178.094L578 182.183Z" fill="#F9E59C"/>
<path d="M603.149 154.324C595.872 153.898 588.638 153.429 581.361 153.003C578.978 152.875 578.978 156.582 581.361 156.709C588.638 157.135 595.872 157.604 603.149 158.03C605.532 158.2 605.532 154.494 603.149 154.324Z" fill="#F9E59C"/>
<path d="M466.29 376.444L585.825 328.093L522.887 451.675L380.203 540.582L466.29 376.444Z" fill="#131313"/>
<path d="M380.204 542.456C379.736 542.456 379.31 542.286 378.927 541.945C378.332 541.391 378.161 540.454 378.544 539.73L464.631 375.592C464.844 375.209 465.185 374.91 465.568 374.74L585.102 326.389C585.826 326.091 586.634 326.304 587.188 326.858C587.698 327.411 587.826 328.263 587.485 328.945L524.548 452.528C524.378 452.826 524.165 453.081 523.867 453.252L381.183 542.158C380.885 542.371 380.544 542.456 380.204 542.456ZM467.61 377.935L385.013 535.385L521.441 450.398L581.911 331.714L467.61 377.935Z" fill="#131313"/>
<path d="M380.204 542.456C379.906 542.456 379.566 542.371 379.268 542.201L278.967 484.563C278.372 484.222 278.031 483.583 278.031 482.901C278.031 482.22 278.457 481.581 279.053 481.283L335.862 452.229C336.799 451.761 337.905 452.144 338.373 453.039C338.841 453.976 338.458 455.084 337.565 455.552L283.819 483.029L381.14 538.963C382.034 539.474 382.332 540.624 381.821 541.519C381.48 542.115 380.842 542.456 380.204 542.456Z" fill="#131313"/>
<path d="M344.289 495.554C344.076 495.554 343.821 495.511 343.608 495.426L323.224 487.63C322.544 487.374 322.075 486.735 322.033 486.054C321.99 485.33 322.331 484.648 322.969 484.307L340.459 474.254C341.012 473.913 341.693 473.913 342.289 474.254L359.778 483.839C360.374 484.179 360.757 484.776 360.757 485.457C360.757 486.139 360.417 486.778 359.821 487.076L345.182 495.383C344.927 495.468 344.629 495.554 344.289 495.554ZM328.246 485.543L344.161 491.634L355.14 485.415L341.48 477.917L328.246 485.543Z" fill="#131313"/>
<path d="M406.332 417.085C405.609 417.085 404.971 416.701 404.63 415.977C404.205 415.04 404.63 413.932 405.566 413.506L418.418 407.627C419.354 407.201 420.46 407.627 420.886 408.565C421.311 409.502 420.886 410.609 419.95 411.035L407.098 416.914C406.843 417.042 406.588 417.085 406.332 417.085Z" fill="#131313"/>
<path d="M501.611 348.286C501.355 348.286 501.1 348.243 500.845 348.115C500.164 347.817 499.738 347.135 499.738 346.411V241.743C499.738 241.232 499.951 240.763 500.291 240.422C500.632 240.082 501.1 239.911 501.653 239.911L655.231 244.299C655.742 244.299 656.253 244.555 656.593 244.938C656.933 245.321 657.104 245.833 657.061 246.344C657.061 246.344 655.189 265.982 653.274 285.578C652.338 295.376 651.359 305.217 650.635 312.544C649.997 318.849 649.657 322.3 649.316 324.217C649.359 324.344 649.359 324.43 649.359 324.557H649.274C648.848 326.56 648.423 326.517 647.444 326.474C647.061 326.474 646.678 326.304 646.38 326.048C639.571 324.813 569.187 327.667 522.292 329.968L502.972 347.817C502.547 348.115 502.079 348.286 501.611 348.286ZM503.483 243.617V342.151L520.164 326.73C520.505 326.432 520.888 326.261 521.356 326.219C593.102 322.683 634.89 321.448 645.869 322.47C646.891 313.055 651.231 268.198 653.189 247.877L503.483 243.617Z" fill="#131313"/>
<path d="M621.614 286.771H531.314C530.293 286.771 529.441 285.919 529.441 284.897C529.441 283.874 530.293 283.022 531.314 283.022H621.614C622.635 283.022 623.486 283.874 623.486 284.897C623.486 285.919 622.635 286.771 621.614 286.771Z" fill="#131313"/>
<path d="M106.452 274.63C105.898 274.63 105.345 274.375 105.005 273.949L1.59797 145.169C1.25754 144.743 1.12988 144.146 1.21499 143.593C1.34265 143.039 1.72564 142.57 2.23629 142.315L216.624 38.2429C217.561 37.8169 218.624 38.1577 219.092 39.0949L291.349 182.614C291.562 183.04 291.605 183.594 291.435 184.063C291.264 184.531 290.924 184.915 290.498 185.128L107.26 274.46C107.005 274.588 106.707 274.63 106.452 274.63ZM5.98105 144.658L106.962 270.455L287.179 182.572L216.624 42.3751L5.98105 144.658Z" fill="#131313"/>
<path d="M156.409 201.572C155.813 201.572 155.218 201.273 154.877 200.762L113.515 140.994C113.132 140.441 113.089 139.674 113.387 139.077C113.727 138.481 114.323 138.098 115.046 138.098H182.24C182.878 138.098 183.431 138.396 183.814 138.95C184.155 139.461 184.197 140.142 183.984 140.696L158.111 200.464C157.856 201.103 157.26 201.529 156.579 201.572C156.537 201.572 156.452 201.572 156.409 201.572ZM118.621 141.804L156.026 195.906L179.431 141.804H118.621Z" fill="#131313"/>
<path d="M323.946 128.896H261.306C260.284 128.896 259.433 128.044 259.433 127.021C259.433 125.999 260.284 125.147 261.306 125.147H321.946L315.052 4.67398H184.24L187.73 55.1124C187.815 56.1348 187.006 57.0294 185.985 57.1146C184.964 57.1572 184.07 56.433 183.985 55.368L180.368 2.96998C180.325 2.45878 180.495 1.94758 180.878 1.56418C181.219 1.18078 181.729 0.967773 182.24 0.967773H316.839C317.818 0.967773 318.626 1.73458 318.711 2.71438L325.775 126.936C325.818 127.447 325.605 127.958 325.265 128.342C324.924 128.683 324.456 128.896 323.946 128.896Z" fill="#131313"/>
<path d="M288.499 27.1238H213.859C212.837 27.1238 211.986 26.2718 211.986 25.2494C211.986 24.227 212.837 23.375 213.859 23.375H288.499C289.52 23.375 290.371 24.227 290.371 25.2494C290.371 26.2718 289.563 27.1238 288.499 27.1238Z" fill="#131313"/>
<path d="M288.498 50.4265H233.007C231.986 50.4265 231.135 49.5745 231.135 48.5521C231.135 47.5297 231.986 46.6777 233.007 46.6777H288.54C289.562 46.6777 290.413 47.5297 290.413 48.5521C290.37 49.5745 289.562 50.4265 288.498 50.4265Z" fill="#131313"/>
<path d="M170.5 265L205 252.5L244 233.5L267.5 211.5L302.5 165L390 179V246.5L418.5 257L468 283.5L501 306V346L522.5 329.5L528 340.5L532.5 349L473 376L455 409.5L438 412.5L413 407.5L392.5 404L395 406.5L414 421L429.5 444.5L422.5 457.5L407.5 437.5L394.5 433.5L388.5 434.5L404.5 448.5L412.5 465.5L411.5 474.5L407.5 479L403.5 476.5L400 470.5L396.5 471.5L398 482.5L394 484L387.5 482.5L382 485.5L361.5 469L334 451.5L295 444H242L207.5 447.5L150.5 445.5L110.5 436L87 423L73 406L66 392L63.5 375.5V363.5L67.5 348L73.5 336L82 322.5L109.5 298.5L139 280.5L170.5 265Z" fill="white"/>
<path d="M190.539 363.237C188.964 363.237 187.475 362.428 186.071 360.809C184.666 359.19 183.22 356.208 184.539 351.054C188.198 336.825 210.752 314.886 238.455 304.961C262.753 296.27 293.861 301.467 336.968 308.709C371.65 314.546 414.842 321.788 466.971 323.321C467.992 323.364 468.801 324.216 468.758 325.238C468.716 326.261 467.78 327.07 466.843 327.027C414.417 325.451 371.139 318.209 336.33 312.33C293.818 305.174 263.094 300.019 239.689 308.411C210.667 318.806 191.135 340.361 188.156 351.906C187.645 353.865 187.347 356.549 188.879 358.253C189.262 358.722 190.028 359.489 190.624 359.403C191.986 359.318 194.113 356.081 196.028 353.184C200.326 346.666 206.156 337.763 217.093 338.103C218.114 338.146 218.923 338.998 218.88 340.02C218.837 341.043 217.859 341.852 216.965 341.81C208.156 341.554 203.135 349.137 199.092 355.229C196.284 359.489 194.028 362.897 190.837 363.11C190.752 363.237 190.624 363.237 190.539 363.237Z" fill="#131313"/>
<path d="M198.539 381.726C196.581 381.726 194.794 381.087 193.39 379.809C191.347 377.935 190.539 375.081 191.262 372.014C192.581 366.348 203.348 349.393 220.199 335.846C221.008 335.207 222.157 335.335 222.795 336.144C223.433 336.954 223.306 338.104 222.497 338.743C205.433 352.503 195.816 368.733 194.837 372.866C194.454 374.612 194.794 376.103 195.858 377.083C196.922 378.063 198.582 378.318 200.284 377.722C201.262 377.381 202.326 377.935 202.624 378.915C202.965 379.895 202.411 380.96 201.433 381.258C200.496 381.556 199.475 381.726 198.539 381.726Z" fill="#131313"/>
<path d="M207.434 389.735C206.029 389.735 204.753 389.437 203.646 388.841C202.285 388.116 200.029 386.199 200.029 381.684C200.029 372.78 219.008 352.758 231.775 341.512C232.541 340.83 233.732 340.916 234.413 341.682C235.094 342.449 235.009 343.642 234.243 344.324C217.434 359.148 203.774 375.933 203.774 381.684C203.774 383.643 204.327 384.964 205.476 385.603C207.136 386.498 209.987 385.986 212.583 384.368C213.434 383.814 214.583 384.069 215.136 384.921C215.689 385.773 215.434 386.924 214.583 387.477C212.2 388.968 209.689 389.735 207.434 389.735Z" fill="#131313"/>
<path d="M218.158 393.74C216.966 393.74 215.306 393.357 213.86 391.525C212.285 389.523 211.732 387.137 212.115 384.411C214.03 371.332 238.711 353.611 241.52 351.651C242.371 351.055 243.52 351.268 244.116 352.12C244.711 352.972 244.499 354.122 243.647 354.718C234.626 361.066 217.136 375.592 215.774 384.964C215.519 386.668 215.86 388.074 216.753 389.224C217.306 389.949 217.775 390.034 218.115 390.034C220.966 390.034 225.86 383.942 228.456 380.662C229.775 379 230.839 377.722 231.647 376.913C241.094 368.137 254.243 367.072 265.988 367.03C267.01 367.03 267.861 367.882 267.861 368.904C267.861 369.927 267.01 370.779 265.988 370.779C265.733 370.821 265.52 370.779 265.265 370.779C253.988 370.779 242.499 371.929 234.2 379.639C233.562 380.236 232.498 381.556 231.349 382.962C227.562 387.776 222.796 393.74 218.158 393.74Z" fill="#131313"/>
<path d="M292.456 302.235C290.414 300.957 288.541 304.194 290.584 305.43C313.052 319.445 319.733 347.646 306.074 370.395C304.839 372.44 308.074 374.314 309.265 372.269C323.946 347.817 316.627 317.315 292.456 302.235Z" fill="#131313"/>
<path d="M314.075 307.049C313.777 307.091 313.479 307.177 313.138 307.177C311.819 307.219 310.585 307.432 309.309 307.645C328.245 324.983 331.224 352.29 316.245 373.334C314.841 375.294 318.075 377.168 319.436 375.209C334.756 353.653 332.288 325.537 314.075 307.049Z" fill="#131313"/>
<path d="M444.418 413.506C423.609 413.506 400.672 408.99 377.608 398.085C376.671 397.659 376.288 396.551 376.714 395.614C377.139 394.677 378.246 394.293 379.182 394.719C429.566 418.533 479.184 411.12 505.994 393.271C521.739 382.791 530.079 368.563 529.398 353.227C529.058 345.687 525.866 337.593 519.951 329.2C519.356 328.348 519.568 327.198 520.377 326.602C521.228 326.005 522.377 326.218 522.973 327.028C529.356 336.016 532.76 344.749 533.101 353.056C533.824 369.756 524.93 385.134 508.079 396.381C492.717 406.605 470.248 413.506 444.418 413.506Z" fill="#131313"/>
<path d="M502.844 305.643C466.715 274.545 409.948 250.22 388.628 244.512C388.671 245.79 388.628 247.068 388.586 248.346C410.289 254.395 465.269 278.208 500.461 308.497C500.801 308.795 501.227 308.966 501.652 308.966C502.163 308.966 502.674 308.753 503.057 308.327C503.695 307.475 503.61 306.324 502.844 305.643Z" fill="#131313"/>
<path d="M366.075 306.878L351.691 313.098L383.522 317.911C377.266 314.887 371.309 311.394 366.075 306.878Z" fill="#131313"/>
<path d="M383.184 486.692C379.609 486.692 375.907 483.455 370.162 478.428C365.013 473.912 357.906 467.693 347.779 461.005C326.501 446.989 278.756 442.175 216.797 447.756C178.583 451.207 109.816 451.888 78.368 417.382C64.0272 401.663 59.2186 380.363 64.0272 354.079C76.1126 288.006 214.924 246.045 220.839 244.298C221.818 244 222.839 244.554 223.137 245.534C223.435 246.514 222.882 247.536 221.903 247.834C172.668 262.446 77.0488 303.64 67.6869 354.718C63.091 379.809 67.6443 400.044 81.134 414.826C111.518 448.097 178.966 447.373 216.456 444.007C279.224 438.342 327.863 443.368 349.821 457.852C360.204 464.668 367.396 470.973 372.63 475.616C377.737 480.089 381.396 483.327 383.609 482.944C384.29 482.816 384.843 481.836 385.056 480.43C385.78 475.233 381.652 462.581 360.63 451.888C359.694 451.42 359.353 450.312 359.821 449.375C360.29 448.438 361.396 448.097 362.332 448.565C385.141 460.238 389.652 474.424 388.716 480.984C388.29 484.094 386.631 486.181 384.29 486.607C383.95 486.65 383.567 486.692 383.184 486.692Z" fill="#131313"/>
<path d="M393.824 486.608C390.334 486.608 386.419 483.541 385.1 479.621C384.76 478.642 385.313 477.577 386.249 477.278C387.228 476.938 388.292 477.491 388.589 478.429C389.526 481.155 392.377 483.115 394.121 482.859C395.483 482.646 395.653 480.559 395.653 479.366C395.653 465.819 387.611 453.976 371.695 444.178C370.802 443.624 370.546 442.474 371.1 441.622C371.653 440.728 372.802 440.472 373.653 441.026C390.462 451.42 399.356 464.711 399.356 479.408C399.356 485.202 396.079 486.352 394.675 486.565C394.419 486.608 394.122 486.608 393.824 486.608Z" fill="#131313"/>
<path d="M407.61 480.899C403.439 480.899 399.312 476.255 397.95 470.036C396.077 461.345 387.269 455.083 387.184 455.04C386.333 454.444 381.439 449.417 382.035 448.565C382.63 447.713 388.46 451.419 389.311 451.973C389.737 452.271 399.397 459.087 401.567 469.226C402.673 474.466 405.822 477.15 407.652 477.15C408.844 477.107 409.78 475.531 410.12 472.932C411.227 464.412 405.184 444.177 386.12 436.041C385.439 435.742 384.971 435.061 384.971 434.294C384.971 433.527 385.481 432.846 386.162 432.59C386.333 432.505 404.205 425.987 416.12 444.902C425.057 459.045 427.738 461.558 428.206 461.942C428.844 462.24 429.312 462.879 429.312 463.603C429.312 464.625 428.504 465.477 427.482 465.52C426.546 465.52 424.759 465.605 412.929 446.861C406.29 436.339 397.78 434.848 392.503 435.104C408.461 444.561 415.184 462.666 413.78 473.401C412.929 479.919 409.312 480.771 407.78 480.813C407.737 480.856 407.695 480.899 407.61 480.899Z" fill="#131313"/>
<path d="M429.864 447.756C429.14 447.756 428.46 447.33 428.162 446.648C418.332 424.965 397.608 406.86 366.501 392.802C332.968 377.636 298.244 370.053 266.073 370.735C264.881 370.735 264.2 369.926 264.158 368.903C264.115 367.881 264.966 367.029 265.988 366.986C298.712 366.219 333.989 374.015 368.033 389.394C399.948 403.835 421.31 422.579 431.523 445.072C431.949 446.009 431.523 447.117 430.587 447.543C430.374 447.713 430.119 447.756 429.864 447.756Z" fill="#131313"/>
<path d="M335.736 378.063C334.97 377.722 334.204 377.381 333.438 377.083C299.905 380.917 282.415 417.936 300.926 446.265C301.99 446.564 303.097 446.777 304.161 446.99C304.714 446.436 304.927 445.584 304.373 444.774C286.841 418.661 302.756 383.942 334.119 380.704C335.608 380.576 336.119 379.085 335.736 378.063Z" fill="#131313"/>
<path d="M318.033 373.675C286.543 378.659 269.053 416.104 286.202 444.22C287.436 446.265 290.67 444.391 289.394 442.346C273.053 415.465 290.968 378.744 322.458 376.912C323.437 376.87 324.033 376.188 324.203 375.421C322.118 374.868 320.075 374.356 318.033 373.675Z" fill="#131313"/>
<path d="M146.073 361.448C145.222 361.448 144.498 360.895 144.286 360.043C144.03 359.063 144.626 358.04 145.647 357.785C156.796 355.016 186.414 357.614 187.648 357.742C188.67 357.827 189.436 358.722 189.35 359.744C189.265 360.767 188.372 361.534 187.35 361.448C187.053 361.406 157.094 358.765 146.583 361.406C146.371 361.406 146.2 361.448 146.073 361.448Z" fill="#131313"/>
<path d="M288.415 224.149C304.628 221.849 316.118 171.836 316.118 171.836C325.607 180.612 380.885 187.428 388.63 183.424C388.63 161.272 371.481 144.019 333.778 144.019C289.181 144.019 274.287 162.635 274.287 192.412C274.287 222.19 274.287 222.19 274.287 222.19L274.67 222.829C281.138 222.062 281.862 224.192 288.415 224.149Z" fill="#131313"/>
<path d="M358.588 255.077C357.567 255.077 356.716 254.225 356.716 253.203C356.716 252.18 357.567 251.328 358.588 251.328C362.078 251.328 364.929 250.391 366.248 248.815C367.014 247.92 367.269 246.855 367.014 245.535C366.503 242.595 359.993 240.934 356.886 240.593C355.95 240.508 355.227 239.698 355.227 238.761V221.721C355.227 220.699 356.078 219.847 357.099 219.847C358.12 219.847 358.971 220.699 358.971 221.721V237.142C362.418 237.739 369.823 239.656 370.674 244.896C371.057 247.281 370.504 249.454 369.057 251.2C367.014 253.714 363.312 255.077 358.588 255.077Z" fill="#131313"/>
<path d="M371.693 218.142V221.848C371.693 226.619 379.14 226.662 379.14 221.848V218.142C379.14 213.371 371.693 213.371 371.693 218.142Z" fill="#131313"/>
<path d="M321.949 218.142V221.848C321.949 226.619 329.396 226.662 329.396 221.848V218.142C329.396 213.371 321.949 213.371 321.949 218.142Z" fill="#131313"/>
<path d="M325.778 200.634C322.799 201.273 319.905 202.082 317.097 203.318C314.884 204.255 316.799 207.492 318.969 206.513C321.48 205.448 324.118 204.809 326.757 204.212C329.14 203.701 328.118 200.123 325.778 200.634Z" fill="#131313"/>
<path d="M379.525 199.952C377.439 199.057 375.141 198.546 373.141 197.481C371.056 196.373 368.929 199.483 371.056 200.548C373.397 201.741 375.907 202.423 378.29 203.445C380.503 204.382 381.737 200.889 379.525 199.952Z" fill="#131313"/>
<path d="M335.354 264.236C332.588 263.81 328.885 262.532 328.673 259.209C328.545 256.824 324.8 256.824 324.97 259.209C325.268 264.279 329.737 267.09 334.375 267.814C336.715 268.155 337.737 264.577 335.354 264.236Z" fill="#131313"/>
<path d="M343.439 313.14C342.503 313.14 341.652 312.416 341.567 311.436C341.481 310.414 342.247 309.519 343.269 309.434C354.588 308.497 363.865 306.111 370.078 302.533C388.078 292.139 387.44 259.166 386.376 204.553C386.249 198.759 386.163 192.753 386.036 186.491C385.61 159.184 368.503 145.893 333.822 145.893C293.948 145.893 276.161 160.249 276.161 192.455V222.232C276.161 223.254 275.31 224.106 274.288 224.106C273.267 224.106 272.416 223.254 272.416 222.232V192.455C272.416 158.162 291.906 142.187 333.779 142.187C370.418 142.187 389.27 157.097 389.738 186.448C389.823 192.71 389.951 198.717 390.078 204.51C391.185 260.487 391.823 294.311 371.95 305.813C365.184 309.732 355.652 312.203 343.609 313.226C343.524 313.14 343.482 313.14 343.439 313.14Z" fill="#131313"/>
<path d="M288.628 220.442C276.415 219.846 267.819 221.805 263.096 226.321C259.777 229.473 259.096 233.18 259.096 235.693C259.096 239.484 260.628 243.063 263.436 245.747C265.947 248.175 270.67 250.944 279.096 250.944H279.266C280.628 255.843 284.118 273.181 268.287 280.338C269.777 281.019 271.309 281.573 272.883 282.127C290.16 271.605 282.501 248.686 282.415 248.473C282.16 247.706 281.479 247.152 280.586 247.238C274.16 247.493 269.138 246.045 266.032 243.105C263.266 240.422 262.84 237.354 262.84 235.736C262.84 233.094 263.819 230.879 265.692 229.047C269.607 225.299 277.479 223.637 288.501 224.191C289.437 224.234 290.416 223.467 290.458 222.444C290.416 221.379 289.65 220.485 288.628 220.442Z" fill="#131313"/>
<path d="M292.416 158.417C271.096 157.266 254.032 171.708 250.968 192.411C227.861 185.425 204.839 195.947 188.711 212.902C177.349 224.873 166.711 245.661 181.179 258.569C180.583 259.762 181.562 261.679 183.307 261.338C209.818 255.715 242.883 250.688 260.032 277.228C268.713 290.69 280.671 277.952 282.33 265.896C282.458 264.917 282.501 263.979 282.501 263.042C282.756 262.744 282.969 262.403 283.011 261.935C283.352 258.143 283.479 253.713 280.458 250.901C278.884 249.453 276.926 248.771 275.011 248.984C273.905 248.26 272.713 247.578 271.564 246.939C271.054 246.854 270.543 246.726 270.032 246.556C266.202 245.321 263.053 242.466 261.862 238.547C259.223 230.07 266.458 223.424 274.5 223.595C275.564 222.87 276.543 222.146 277.309 221.422C292.884 206.043 292.501 182.443 291.352 162.123C291.735 162.123 292.075 162.123 292.458 162.123C294.799 162.251 294.799 158.544 292.416 158.417Z" fill="#131313"/>
<path d="M428.633 263.341C428.803 263.256 428.931 263.128 429.058 263C429.441 262.873 429.782 262.659 430.037 262.233C437.484 249.837 441.399 233.904 434.122 220.485C428.505 210.091 417.441 204.042 405.909 205.32C405.781 191.432 403.228 174.051 385.015 167.235C384.972 167.022 386.419 170.686 385.015 171.41C385.312 171.623 385.653 171.836 385.993 172.092C389.781 196.672 390.376 221.465 387.866 246.258C387.653 248.516 413.909 253.671 424.973 262.02C426.25 262.404 427.441 262.873 428.633 263.341Z" fill="#131313"/>
<path d="M281.352 303.938C282.799 303.981 284.204 303.981 285.65 304.023C285.948 303.171 285.608 302.234 284.799 301.808C276.331 296.995 276.161 280.466 276.161 280.295C276.161 279.273 275.31 278.421 274.288 278.421C273.267 278.421 272.416 279.273 272.416 280.295C272.416 281.02 272.586 297.208 281.352 303.938Z" fill="#131313"/>
<path d="M301.353 297.932L297.65 304.407L316.63 306.579C311.48 303.768 306.374 300.914 301.353 297.932Z" fill="#131313"/>
<path d="M316.629 308.412C316.544 308.412 316.502 308.412 316.416 308.412L297.437 306.24C296.799 306.154 296.288 305.771 295.99 305.217C295.693 304.663 295.735 303.982 296.033 303.471L299.735 296.995C299.99 296.569 300.416 296.229 300.884 296.101C301.352 295.973 301.863 296.058 302.288 296.314C307.225 299.253 312.289 302.065 317.48 304.919C318.246 305.345 318.629 306.282 318.374 307.134C318.119 307.901 317.395 308.412 316.629 308.412ZM300.629 302.874L307.48 303.641C305.65 302.619 303.82 301.554 301.991 300.489L300.629 302.874Z" fill="#131313"/>
<path d="M324.714 234.885C322.118 234.885 319.48 234.288 317.012 233.053C310.544 229.815 306.799 223.255 306.799 215.033C306.799 214.011 307.607 213.159 308.629 213.159C309.565 213.201 310.501 213.968 310.501 214.99C310.544 221.764 313.522 227.131 318.671 229.687C323.055 231.86 328.246 231.519 331.821 228.835C335.948 225.768 337.48 220.145 336.204 213.031C336.034 212.008 336.714 211.071 337.693 210.858C338.714 210.688 339.651 211.369 339.863 212.349C341.949 223.936 337.097 229.517 334.034 231.817C331.438 233.862 328.118 234.885 324.714 234.885Z" fill="#131313"/>
<path d="M377.481 232.754C375.183 232.754 372.885 232.2 370.757 231.135C364.757 228.068 361.268 221.38 361.268 212.732C361.268 211.709 362.119 210.857 363.14 210.857C364.161 210.857 365.012 211.709 365.012 212.732C365.012 219.931 367.736 225.427 372.459 227.812C376.162 229.687 380.502 229.346 383.821 226.96C387.907 223.978 389.609 218.398 388.545 211.667C388.375 210.644 389.055 209.707 390.077 209.537C391.098 209.366 392.034 210.048 392.204 211.07C393.524 219.25 391.268 226.151 385.992 229.942C383.481 231.817 380.502 232.754 377.481 232.754Z" fill="#131313"/>
<path d="M338.545 221.892C337.907 221.892 337.268 221.551 336.928 220.912C336.417 220.017 336.758 218.867 337.651 218.398C338.205 218.1 351.694 210.858 363.95 216.694C364.886 217.12 365.269 218.228 364.844 219.165C364.418 220.102 363.312 220.486 362.375 220.06C351.822 215.033 339.609 221.636 339.481 221.679C339.183 221.806 338.843 221.892 338.545 221.892Z" fill="#131313"/>
</svg>
