<svg width="574" height="549" viewBox="0 0 574 549" fill="none" xmlns="http://www.w3.org/2000/svg">
<path d="M11.1966 253.894C9.06678 250.568 5.92626 248.11 3.3994 245.145C1.95548 243.446 -0.463091 245.904 0.944732 247.603C3.2911 250.351 6.25114 252.592 8.20044 255.629C9.42777 257.472 12.3878 255.773 11.1966 253.894Z" fill="#DBC9F2"/>
<path d="M439.174 485.905L491.155 485.109L490.072 437.789C468.377 447.369 452.133 465.263 439.174 485.905Z" fill="#CCECBD"/>
<path d="M422.931 1.34988C421.487 3.33813 419.899 5.18178 418.166 6.88083C416.578 8.43528 419.033 10.8935 420.621 9.33904C422.57 7.42309 424.303 5.32638 425.927 3.12123C427.227 1.27758 424.231 -0.457615 422.931 1.34988Z" fill="#DBC9F2"/>
<path d="M411.488 213.912L430.62 205.2L427.299 223.42L411.488 213.912Z" fill="#CCECBD"/>
<path d="M433.759 447.441H16.7912L9.89648 88.5078L426.865 78.1689L431.666 322.651L433.218 402.398L433.398 411.725L433.759 447.441Z" fill="#F9E59C"/>
<path d="M32.8204 493.749C31.8819 493.749 31.1238 492.99 31.0877 492.05L20.7637 39.9579C20.7637 39.4879 20.9442 39.0541 21.2691 38.7288C21.5939 38.4034 22.0271 38.2227 22.4964 38.2227H480.833C481.772 38.2227 482.566 38.9818 482.566 39.9217L483.071 102.823C483.071 103.763 482.313 104.558 481.374 104.558C480.436 104.558 479.642 103.799 479.642 102.859L479.172 41.6569H24.2291L34.4809 490.278L489.388 483.446L487.15 387.468C487.114 386.528 487.872 385.733 488.847 385.696C489.749 385.66 490.579 386.419 490.616 387.396L492.89 485.109C492.89 485.579 492.709 486.013 492.42 486.338C492.096 486.663 491.662 486.844 491.193 486.88L32.8204 493.749Z" fill="#131313"/>
<path d="M181.146 166.085H77.6894C74.2962 166.085 71.5527 163.338 71.5527 159.94V145.082C71.5527 141.684 74.2962 138.937 77.6894 138.937L181.146 141.142C184.54 141.142 187.283 143.889 187.283 147.287V159.94C187.319 163.302 184.54 166.085 181.146 166.085Z" fill="white"/>
<path d="M85.1268 96.5684C85.1268 99.9665 83.7912 102.822 78.9902 102.822C75.597 102.822 72.8535 99.9665 72.8535 96.5684C72.8535 93.1703 75.597 90.4229 78.9902 90.4229C82.3834 90.4229 85.1268 93.2064 85.1268 96.5684Z" fill="#131313"/>
<path d="M79.0266 104.558C74.6949 104.558 71.1934 100.979 71.1934 96.5692C71.1934 92.2312 74.731 88.7246 79.0266 88.7246C83.3584 88.7246 86.8599 92.2673 86.8599 96.5692C86.8599 101.739 84.0804 104.558 79.0266 104.558ZM79.0266 92.1589C76.6081 92.1589 74.6227 94.1471 74.6227 96.5692C74.6227 99.0274 76.6442 101.088 79.0266 101.088C82.1672 101.088 83.4306 99.7865 83.4306 96.5692C83.4306 94.1471 81.4452 92.1589 79.0266 92.1589Z" fill="#131313"/>
<path d="M103.175 104.558C98.8433 104.558 95.3418 100.979 95.3418 96.5692C95.3418 92.2312 98.8794 88.7246 103.175 88.7246C107.507 88.7246 111.008 92.2673 111.008 96.5692C111.044 101.739 108.265 104.558 103.175 104.558ZM103.175 92.1589C100.756 92.1589 98.7711 94.1471 98.7711 96.5692C98.7711 99.0274 100.793 101.088 103.175 101.088C106.316 101.088 107.579 99.7865 107.579 96.5692C107.579 94.1471 105.63 92.1589 103.175 92.1589Z" fill="#131313"/>
<path d="M84.5134 479.687C74.2977 479.687 66.0312 471.228 66.0312 460.816C66.0312 450.586 74.3338 442.308 84.5134 442.308C94.7292 442.308 102.996 450.622 102.996 460.816C102.996 473.18 96.6063 479.687 84.5134 479.687ZM84.5134 445.778C76.2109 445.778 69.4606 452.538 69.4606 460.853C69.4606 469.203 76.3553 476.252 84.5134 476.252C94.7653 476.252 99.5663 471.372 99.5663 460.853C99.5663 452.538 92.816 445.778 84.5134 445.778Z" fill="#131313"/>
<path d="M125.845 104.558C121.513 104.558 118.012 100.979 118.012 96.5692C118.012 92.2312 121.549 88.7246 125.845 88.7246C130.141 88.7246 133.678 92.2673 133.678 96.5692C133.678 101.739 130.899 104.558 125.845 104.558ZM125.845 92.1589C123.426 92.1589 121.441 94.1471 121.441 96.5692C121.441 99.0274 123.463 101.088 125.845 101.088C128.986 101.088 130.249 99.7865 130.249 96.5692C130.249 94.1471 128.264 92.1589 125.845 92.1589Z" fill="#131313"/>
<path d="M121.477 198.367H79.0257C78.0871 198.367 77.293 197.608 77.293 196.632C77.293 195.656 78.051 194.896 79.0257 194.896H121.513C122.452 194.896 123.246 195.656 123.246 196.632C123.246 197.608 122.452 198.367 121.477 198.367Z" fill="#131313"/>
<path d="M106.136 221.358H78.9905C78.052 221.358 77.2578 220.599 77.2578 219.623C77.2578 218.647 78.0159 217.888 78.9905 217.888H106.136C107.075 217.888 107.869 218.647 107.869 219.623C107.869 220.599 107.111 221.358 106.136 221.358Z" fill="#131313"/>
<path d="M84.512 466.275C83.5734 466.275 82.7793 465.516 82.7793 464.54V438.512C82.7793 437.572 83.5374 436.776 84.512 436.776C85.4505 436.776 86.2447 437.536 86.2447 438.512V464.54C86.2447 465.516 85.4505 466.275 84.512 466.275Z" fill="#131313"/>
<path d="M266.807 526.645H244.426C243.488 526.645 242.693 525.886 242.693 524.91V488.832C242.693 487.892 243.451 487.097 244.426 487.097C245.401 487.097 246.159 487.856 246.159 488.832V523.175H265.002L262.764 488.615C262.692 487.675 263.414 486.844 264.388 486.772C265.363 486.699 266.157 487.422 266.229 488.398L268.576 524.765C268.612 525.235 268.431 525.705 268.106 526.067C267.745 526.428 267.312 526.645 266.807 526.645Z" fill="#131313"/>
<path d="M265.581 505.497L264.498 488.543L244.428 488.832V524.91H244.5C251.431 518.331 258.398 511.787 265.581 505.497Z" fill="#131313"/>
<path d="M324.998 548.625H187.428C186.778 548.625 186.165 548.227 185.876 547.649C185.587 547.034 185.696 546.347 186.093 545.805C196.344 533.37 233.886 520.789 266.916 523.175C299.657 525.525 324.962 544.721 326.045 545.516C326.622 545.95 326.875 546.745 326.622 547.432C326.406 548.155 325.756 548.625 324.998 548.625ZM191.616 545.191H319.439C310.775 539.624 290.524 528.381 266.7 526.646C237.749 524.513 204.25 534.563 191.616 545.191Z" fill="#131313"/>
<path d="M469.353 270.776C468.415 270.776 467.657 270.017 467.621 269.077L465.96 189.836C465.924 188.896 466.682 188.101 467.657 188.064H467.693C468.631 188.064 469.39 188.824 469.426 189.764L471.086 269.004C471.122 269.944 470.364 270.74 469.39 270.776H469.353Z" fill="#131313"/>
<path d="M365.571 431.499L55.2006 433.343L54.623 304.07C54.623 304.07 145.807 225.336 234.644 234.915C234.644 232.999 233.958 184.125 233.922 179.1C233.886 176.895 229.157 177.328 227.496 176.895C227.496 176.895 220.205 173.388 217.1 169.845C216.198 167.279 216.198 161.82 216.162 159.145C223.092 153.614 224.248 153.65 232.478 150.071C235.041 148.951 239.228 99.5698 257.999 94.798C258.649 94.6534 327.488 94.798 331.675 109.981C331.314 110.596 332 172.629 332.686 197.609C328.788 223.673 317.02 227.866 302.328 233.903C302.689 236.361 301.353 240.121 301.714 242.579C307.851 242.326 345.501 265.137 362.575 282.453C369.362 289.321 376.942 296.153 382.357 304.251C388.277 309.312 394.089 313.831 400.731 317.482C412.715 324.134 424.7 323.302 433.219 321.205V402.362C365.463 402.362 326.152 356.271 326.152 356.271L321.857 375.322C384.451 403.049 365.571 431.499 365.571 431.499Z" fill="white"/>
<path d="M232.443 233.108C219.953 232.168 164.939 230.288 110.648 264.523C83.8631 281.405 51.808 302.625 51.1583 307.613C51.0861 308.119 51.2666 308.77 51.6275 309.168C51.9524 309.529 52.4217 309.71 52.891 309.71C53.3241 309.71 53.7212 309.565 54.0822 309.24C54.4071 308.951 54.5876 308.553 54.6237 308.156C55.3817 306.927 61.6628 299.516 112.525 267.451C172.881 229.385 234.067 236.723 234.681 236.796C235.114 236.832 235.547 236.723 235.908 236.47C234.753 235.277 233.598 234.193 232.443 233.108Z" fill="#131313"/>
<path d="M322.182 375.358C322.074 375.358 322.001 375.358 321.893 375.322C320.955 375.177 320.305 374.273 320.485 373.333C320.521 373.116 324.023 352.222 334.094 330.315C334.491 329.447 335.502 329.05 336.368 329.483C337.235 329.881 337.596 330.893 337.199 331.761C327.344 353.234 323.734 374.526 323.698 374.743C323.59 375.611 323.012 375.358 322.182 375.358Z" fill="#131313"/>
<path d="M430.62 462.733H411.489C410.55 462.733 409.756 461.974 409.756 460.998C409.756 460.058 410.514 459.263 411.489 459.263H430.62C431.559 459.263 432.353 460.022 432.353 460.998C432.353 461.974 431.559 462.733 430.62 462.733Z" fill="#131313"/>
<path d="M240.781 150.433C229.483 149.854 221.505 151.698 217.101 155.855C214.033 158.784 213.383 162.182 213.383 164.531C213.383 168.038 214.827 171.364 217.426 173.858C219.736 176.063 224.032 178.63 231.684 178.702L233.056 233.144C232.154 233.072 230.926 232.999 229.446 232.891C230.204 234.12 230.999 235.313 231.829 236.506C233.562 236.651 234.536 236.759 234.608 236.759C235.114 236.831 235.619 236.651 235.98 236.325C236.341 236 236.558 235.494 236.558 234.988L235.078 176.895C235.078 176.425 234.861 175.991 234.536 175.666C234.211 175.34 233.742 175.196 233.273 175.196C227.317 175.449 222.66 174.111 219.808 171.364C217.209 168.869 216.848 166.014 216.848 164.531C216.848 162.109 217.751 160.013 219.483 158.35C223.129 154.879 230.421 153.325 240.601 153.867C241.467 153.903 242.37 153.18 242.406 152.24C242.478 151.3 241.756 150.469 240.781 150.433Z" fill="#131313"/>
<path d="M302.184 175.413C301.246 175.413 300.452 174.654 300.452 173.678C300.452 172.702 301.21 171.943 302.184 171.943C305.397 171.943 308.068 171.075 309.296 169.629C309.982 168.797 310.234 167.821 310.018 166.592C309.548 163.881 303.52 162.363 300.632 162.037C299.766 161.929 299.08 161.206 299.08 160.338V144.541C299.08 143.601 299.838 142.806 300.813 142.806C301.751 142.806 302.545 143.565 302.545 144.541V158.856C305.758 159.435 312.581 161.206 313.411 166.05C313.772 168.291 313.267 170.28 311.931 171.87C309.982 174.148 306.552 175.413 302.184 175.413Z" fill="#131313"/>
<path d="M280.489 154.373C280.128 154.373 279.767 154.265 279.442 154.011C276.41 151.698 269.01 149.746 266.447 149.204C265.508 148.987 264.931 148.083 265.111 147.143C265.328 146.203 266.23 145.625 267.169 145.805C267.566 145.878 277.276 148.011 281.536 151.264C282.294 151.842 282.438 152.927 281.861 153.686C281.536 154.156 281.03 154.373 280.489 154.373Z" fill="#131313"/>
<path d="M313.627 148.372V151.806C313.627 156.253 320.522 156.253 320.522 151.806V148.372C320.522 143.925 313.627 143.925 313.627 148.372Z" fill="#131313"/>
<path d="M273.449 131.707C270.669 132.322 267.998 133.045 265.399 134.166C263.378 135.033 265.11 138.034 267.132 137.13C269.442 136.118 271.897 135.539 274.351 134.997C276.517 134.563 275.615 131.238 273.449 131.707Z" fill="#131313"/>
<path d="M321.388 131.093C319.619 129.9 317.67 129.032 316.009 127.731C314.277 126.357 311.822 128.779 313.555 130.189C315.468 131.708 317.634 132.756 319.619 134.093C321.496 135.323 323.229 132.358 321.388 131.093Z" fill="#131313"/>
<path d="M280.669 191.029C278.106 190.631 274.677 189.439 274.496 186.366C274.352 184.161 270.923 184.161 271.067 186.366C271.356 191.065 275.471 193.668 279.767 194.355C281.896 194.68 282.835 191.354 280.669 191.029Z" fill="#131313"/>
<path d="M275.759 281.44C248.325 281.44 227.352 262.064 225.8 235.168C225.727 234.228 226.486 233.397 227.424 233.361C228.363 233.325 229.193 234.048 229.229 234.987C230.709 260.654 250.094 278.404 276.445 278.006C289.874 277.825 297.924 272.403 302.328 267.848C307.309 262.678 310.233 255.81 310.089 249.484C310.052 248.544 310.811 247.748 311.785 247.712H311.821C312.76 247.712 313.518 248.471 313.554 249.411C313.698 256.75 310.522 264.341 304.818 270.234C299.981 275.259 291.137 281.259 276.517 281.44C276.229 281.44 276.012 281.44 275.759 281.44Z" fill="#131313"/>
<path d="M334.781 135.611C334.672 130.261 334.564 124.658 334.492 118.874C334.059 91.653 316.623 77.8438 282.655 77.8438C243.85 77.8438 225.801 92.6652 225.801 124.441V152.06C225.801 153 226.559 153.795 227.533 153.795C228.328 153.795 228.977 153.253 229.194 152.53C234.212 152.132 236.377 153.325 241.973 153.289C244.102 151.807 244.175 117.681 253.235 109.909C269.263 96.1357 317.201 100.727 329.835 108.39C330.593 111.608 330.99 115.114 331.063 118.91C331.171 124.694 331.279 130.297 331.351 135.648C332.326 186.258 332.94 216.84 316.262 226.456C301.968 234.735 276.121 233.144 275.869 233.144C275.255 233.108 274.714 233.361 274.389 233.831C274.028 234.301 273.956 234.915 274.172 235.458C278.576 247.17 299.585 251.725 300.488 251.942C300.596 251.978 300.74 251.978 300.849 251.978C301.246 251.978 301.607 251.834 301.931 251.581C302.329 251.255 302.581 250.749 302.581 250.243V234.988C302.581 234.952 302.581 234.879 302.581 234.843C308.068 233.759 313.519 232.06 318.031 229.457C336.405 218.829 335.791 187.523 334.781 135.611Z" fill="#131313"/>
<path d="M193.204 367.333C191.436 363.031 182.447 356.669 173.711 356.669C166.781 356.669 162.304 358.404 159.453 360.501V360.465C159.308 360.212 156.132 354.355 143.678 350.632C140.61 349.728 137.433 349.439 134.22 349.584L145.338 339.317C146.024 338.666 146.096 337.582 145.447 336.895C144.797 336.208 143.714 336.136 143.028 336.787L128.372 350.343C113.644 353.307 100.072 363.501 99.3135 364.08C98.5554 364.658 98.411 365.743 98.9886 366.502C99.3134 366.936 99.8549 367.189 100.36 367.189C100.721 367.189 101.082 367.08 101.407 366.827C101.66 366.646 125.376 348.788 142.775 353.922C153.677 357.139 156.457 362.019 156.493 362.019C156.637 362.308 156.854 362.525 157.142 362.706C155.049 365.128 154.58 367.406 154.543 367.623C154.363 368.562 154.977 369.43 155.915 369.611C156.854 369.792 157.756 369.177 157.937 368.273C158.009 367.948 159.814 360.067 173.82 360.067C181.184 360.067 188.909 365.67 190.136 368.599C190.425 369.249 191.039 369.647 191.724 369.647C191.941 369.647 192.158 369.611 192.374 369.502C193.132 369.213 193.565 368.201 193.204 367.333Z" fill="#131313"/>
<path d="M179.415 433.343C178.729 433.343 178.043 432.91 177.79 432.223C167.935 405.869 180.1 381.613 184.071 374.78C186.273 371.021 191.219 364.586 195.911 364.478C197.247 364.478 198.98 364.875 200.388 367.008C201.723 369.069 200.099 372.177 197.175 377.853C194.54 382.914 191.291 389.24 189.594 395.964C186.057 410.027 188.331 425.643 191.507 430.668C192.013 431.463 191.796 432.548 190.966 433.054C190.172 433.56 189.089 433.343 188.583 432.512C184.613 426.222 182.663 409.34 186.237 395.133C188.042 388.011 191.544 381.215 194.106 376.262C195.623 373.334 197.536 369.647 197.391 368.707C196.922 368.02 196.381 367.912 195.984 367.948C193.529 368.02 189.45 372.467 187.067 376.552C183.277 383.022 171.69 406.122 181.039 431.03C181.364 431.933 180.931 432.91 180.028 433.235C179.812 433.307 179.595 433.343 179.415 433.343Z" fill="#131313"/>
<path d="M366.366 415.124C365.428 415.124 364.633 414.365 364.633 413.389C364.633 408.834 364.633 400.302 332.651 382.3C314.566 372.141 277.926 372.214 242.55 372.25C227.93 372.286 212.805 372.286 198.871 371.635C197.933 371.599 197.175 370.768 197.247 369.828C197.283 368.888 198.149 368.129 199.052 368.201C212.913 368.852 228.002 368.852 242.586 368.816C280.092 368.779 315.504 368.707 334.383 379.335C365.536 396.868 368.135 406.122 368.135 413.425C368.063 414.365 367.305 415.124 366.366 415.124Z" fill="#131313"/>
<path d="M366.871 429.222C366.546 429.222 366.221 429.113 365.933 428.933C365.139 428.39 364.922 427.342 365.463 426.547C366.727 424.667 366.98 422.353 366.222 419.642C364.958 415.159 358.821 403.158 328.643 388.951C327.777 388.553 327.416 387.505 327.813 386.637C328.21 385.769 329.257 385.408 330.123 385.806C352.613 396.398 366.619 408.074 369.543 418.666C370.553 422.317 370.12 425.679 368.315 428.39C367.954 428.933 367.413 429.222 366.871 429.222Z" fill="#131313"/>
<path d="M365.681 433.343C365.464 433.343 365.284 433.307 365.067 433.234C364.165 432.909 363.732 431.897 364.057 431.029C365.898 426.077 360.194 416.244 322.472 397.482C321.605 397.048 321.28 396.036 321.678 395.168C322.111 394.301 323.121 393.975 323.988 394.373C357.017 410.821 370.807 422.823 367.269 432.186C367.053 432.909 366.403 433.343 365.681 433.343Z" fill="#131313"/>
<path d="M354.237 433.343C354.093 433.343 353.912 433.307 353.732 433.271C352.829 433.018 352.288 432.042 352.577 431.138C354.454 424.703 340.376 420.076 329.041 416.316C324.853 414.943 320.919 413.641 317.67 412.268C316.804 411.906 316.37 410.894 316.768 409.99C317.129 409.123 318.139 408.725 319.042 409.086C322.146 410.388 326.009 411.689 330.124 413.027C343.516 417.437 358.713 422.462 355.898 432.114C355.645 432.873 354.959 433.343 354.237 433.343Z" fill="#131313"/>
<path d="M537.796 89.701L344.238 137.202C344.238 137.202 339.004 149.204 341.603 154.59C344.166 159.977 344.743 164.351 344.743 164.351L549.816 153.506C549.816 153.506 570.609 144.577 569.959 118.874C569.309 93.1714 559.382 87.3874 556.097 85.7245C552.776 84.0978 545.16 82.0734 537.796 89.701Z" fill="white"/>
<path d="M557.396 92.4483C554.617 90.8938 551.476 90.2793 548.119 90.2793C537.362 90.2793 528.662 103.076 528.662 118.91C528.662 124.586 529.817 129.9 531.767 134.346C539.78 120.067 547.866 105.788 557.396 92.4483Z" fill="#131313"/>
<path d="M536.965 142.371C540.105 145.625 543.968 147.541 548.083 147.541C558.84 147.541 567.54 134.744 567.54 118.91C567.54 109.547 565.988 103.04 563.389 98.5938C553.57 112.475 545.34 127.478 536.965 142.371Z" fill="#131313"/>
<path d="M548.119 155.349C534.149 155.349 522.814 139.009 522.814 118.91C522.814 98.8105 534.185 82.4707 548.119 82.4707C564.905 82.4707 573.424 94.7255 573.424 118.91C573.424 139.009 562.053 155.349 548.119 155.349ZM548.119 85.9411C536.062 85.9411 526.244 100.726 526.244 118.91C526.244 137.093 536.062 151.879 548.119 151.879C560.176 151.879 569.995 137.093 569.995 118.91C569.995 96.7138 562.811 85.9411 548.119 85.9411Z" fill="#131313"/>
<path d="M344.672 164.387C344.094 164.387 343.553 164.098 343.228 163.592C337.308 154.446 337.344 145.77 343.3 137.853C343.517 137.527 343.878 137.31 344.239 137.238L536.93 86.4112C537.869 86.1582 538.807 86.7366 539.024 87.6403C539.276 88.5441 538.735 89.5201 537.796 89.737L345.719 140.419C341.171 146.782 341.134 153.506 345.611 160.916L444.519 156.542C445.422 156.506 446.288 157.229 446.324 158.205C446.36 159.145 445.638 159.976 444.664 160.013L344.744 164.351C344.744 164.387 344.708 164.387 344.672 164.387Z" fill="#131313"/>
<path d="M344.202 158.277L340.051 150.867L343.877 143.456C344.202 142.841 344.13 142.155 343.697 141.612C343.299 141.07 342.614 140.853 341.964 140.998L325.9 144.685C325.323 144.83 324.853 145.227 324.673 145.77C324.528 146.131 321.568 154.482 324.817 159.977C325.142 160.519 325.684 160.808 326.297 160.808H342.686C343.299 160.808 343.877 160.483 344.166 159.94C344.491 159.47 344.491 158.784 344.202 158.277Z" fill="#131313"/>
<path d="M482.746 158.241C481.843 158.241 481.049 157.518 481.013 156.578C480.977 155.638 481.699 154.806 482.674 154.77L548.011 151.878C548.877 151.842 549.78 152.565 549.816 153.541C549.852 154.481 549.13 155.312 548.155 155.349L482.818 158.241C482.818 158.241 482.782 158.241 482.746 158.241Z" fill="#131313"/>
<path d="M430.404 320.735C442.533 315.457 451.774 314.011 455.059 303.094C458.38 292.177 464.769 277.03 471.05 269.005C471.05 269.005 470.148 258.485 476.393 257.364C476.393 257.364 483.179 243.013 477.873 219.226C472.603 195.439 466.249 189.113 455.167 177.473C444.085 165.832 441.955 154.228 445.132 146.817C448.309 139.407 458.705 120.536 464.047 120.97C469.39 121.404 474.155 126.718 470.473 132.538C466.791 138.358 461.015 140.78 465.202 145.914C469.39 151.047 477.151 151.589 482.927 157.373C496.716 157.879 509.964 156.867 509.964 156.867C509.964 156.867 537.471 198.078 542.2 228.733C546.965 259.389 547.181 271.029 547.181 271.029C547.181 271.029 553.354 275.042 552.235 279.488C551.116 283.934 548.011 284.766 548.011 284.766C548.011 284.766 543.788 329.158 532.706 342.895C521.624 356.632 498.196 389.709 473.505 395.891C448.814 402.073 429.79 401.567 427.697 401.567C425.603 401.567 430.404 320.735 430.404 320.735Z" fill="white"/>
<path d="M420.08 324.314C407.229 324.314 392.717 316.976 370.77 294.056C341.314 263.293 324.203 251.183 300.343 244.242C299.44 243.989 298.899 243.013 299.187 242.109C299.44 241.205 300.379 240.663 301.317 240.952C325.864 248.11 343.335 260.437 373.297 291.671C404.341 324.097 419.105 322.904 431.559 318.892C450.077 312.927 455.023 303.202 455.095 303.094C455.528 302.226 456.539 301.865 457.405 302.299C458.271 302.696 458.632 303.745 458.199 304.576C457.983 305.01 452.712 315.674 432.642 322.145C428.491 323.483 424.375 324.314 420.08 324.314Z" fill="#131313"/>
<path d="M548.119 274.283C548.083 274.283 548.083 274.283 548.119 274.283C547.144 274.246 546.386 273.487 546.386 272.511C547.18 233.686 535.665 197.825 508.989 156.217C508.483 155.421 508.7 154.337 509.494 153.831C510.288 153.325 511.371 153.542 511.877 154.337C538.914 196.56 550.646 233.035 549.816 272.547C549.816 273.523 549.057 274.283 548.119 274.283Z" fill="#131313"/>
<path d="M431.342 405.326C394.269 405.326 358.64 389.348 325.141 357.68C324.455 357.03 324.419 355.945 325.069 355.258C325.719 354.571 326.802 354.535 327.488 355.186C365.824 391.408 406.903 406.7 449.571 400.59C504.657 390.252 546.314 340.148 546.386 284.043C546.386 283.103 547.18 282.344 548.119 282.308C549.057 282.308 549.851 283.067 549.851 284.043C549.743 341.774 506.895 393.36 450.149 403.989C443.832 404.892 437.551 405.326 431.342 405.326Z" fill="#131313"/>
<path d="M459.245 324.35C458.415 324.35 457.657 323.736 457.549 322.868L457.151 320.446C455.094 307.83 451.267 284.332 470.977 264.703C471.663 264.016 472.746 264.016 473.396 264.703C474.081 265.389 474.081 266.474 473.396 267.125C454.949 285.489 458.595 307.866 460.545 319.868L460.942 322.29C461.086 323.23 460.436 324.097 459.498 324.242C459.426 324.35 459.353 324.35 459.245 324.35Z" fill="#131313"/>
<path d="M352.648 379.732C352.396 379.515 352.143 379.298 351.818 379.009C337.812 366.79 333.444 340.111 333.444 340.111C333.444 340.111 332.758 339.605 328.86 348.064C324.961 356.523 328.86 359.56 328.86 359.56C328.86 359.56 346.078 374.309 352.54 379.804L352.648 379.732Z" fill="#131313"/>
<path d="M478.632 257.979C478.523 257.979 478.379 257.979 478.271 257.943C477.332 257.762 476.755 256.822 476.935 255.882C479.715 242.687 475.888 200.826 466.43 190.957L466.033 190.559C453.796 177.798 438.527 161.892 442.642 147.866C445.927 136.659 456.359 123.573 464.084 120.97C467.369 119.85 469.571 120.717 470.834 121.657C475.238 124.911 473.506 132.177 465.636 143.347C465.095 144.106 464.95 145.046 465.239 145.914C465.528 146.781 466.178 147.468 467.08 147.757C477.26 151.228 495.562 159.072 503.828 172.773C504.333 173.605 504.081 174.653 503.25 175.159C502.456 175.665 501.373 175.412 500.868 174.581C493.143 161.82 475.672 154.373 465.925 151.047C464.012 150.396 462.532 148.914 461.918 146.998C461.305 145.082 461.629 143.022 462.785 141.395C468.885 132.755 471.159 126.284 468.741 124.513C467.838 123.862 466.647 123.79 465.131 124.296C458.417 126.574 448.887 138.756 445.891 148.914C442.353 160.988 457.442 176.75 468.452 188.245L468.849 188.643C479.895 200.175 482.963 243.772 480.22 256.677C480.148 257.437 479.426 257.979 478.632 257.979Z" fill="#131313"/>
<path d="M522.489 291.273C512.345 291.273 501.372 289.502 492.058 285.887C479.171 280.862 471.699 273.198 470.472 263.691C469.894 259.353 472.132 255.051 475.417 254.075C476.392 253.786 479.821 253.243 482.204 258.304C485.597 265.498 491.77 270.595 500.541 273.451C519.204 279.524 542.415 273.704 547.252 271.065C547.794 270.74 548.48 270.776 549.021 271.138C549.49 271.463 553.714 274.283 553.966 278.295C554.075 279.741 553.642 281.874 551.151 283.971C545.447 288.779 534.51 291.273 522.489 291.273ZM476.717 257.328C476.608 257.328 476.5 257.328 476.392 257.364C475.092 257.726 473.504 260.22 473.901 263.221C475.237 273.523 485.2 279.488 493.322 282.633C512.309 290.044 539.347 289.393 548.985 281.296C550.104 280.356 550.609 279.416 550.573 278.476C550.465 276.958 549.021 275.439 547.938 274.572C540.285 278.042 517.219 282.452 499.531 276.741C489.784 273.596 482.926 267.884 479.135 259.786C478.738 258.991 477.836 257.328 476.717 257.328Z" fill="#131313"/>
<path d="M472.205 433.342H55.2009C54.2624 433.342 53.5043 432.583 53.4682 431.643L46.5735 72.746C46.5374 71.8061 47.2955 71.0108 48.2701 70.9746L465.238 60.6357C465.708 60.6719 466.141 60.8165 466.466 61.1057C466.791 61.431 466.971 61.8648 467.007 62.3348L467.837 106.835C467.837 107.775 467.115 108.571 466.141 108.607C465.238 108.643 464.408 107.848 464.372 106.908L463.578 64.1423L50.075 74.3727L56.8975 429.872H470.437L470.112 395.927C470.112 394.987 470.87 394.192 471.808 394.192C472.747 394.192 473.541 394.951 473.541 395.891L473.866 431.571C473.866 432.041 473.685 432.475 473.36 432.8C473.108 433.162 472.675 433.342 472.205 433.342Z" fill="#131313"/>
</svg>
