<svg width="35" height="36" viewBox="0 0 35 36" fill="none" xmlns="http://www.w3.org/2000/svg">
<path fill-rule="evenodd" clip-rule="evenodd" d="M17.5 6.45426C10.8553 6.45426 5.46875 11.8364 5.46875 18.4756C5.46875 25.1148 10.8553 30.497 17.5 30.497C24.1447 30.497 29.5312 25.1148 29.5312 18.4756C29.5312 11.8364 24.1447 6.45426 17.5 6.45426ZM3.28125 18.4756C3.28125 10.6293 9.6472 4.26855 17.5 4.26855C25.3528 4.26855 31.7188 10.6293 31.7188 18.4756C31.7188 26.3219 25.3528 32.6827 17.5 32.6827C9.6472 32.6827 3.28125 26.3219 3.28125 18.4756Z" fill="#131313"/>
<path d="M5.46875 18.4756C5.46875 11.8364 10.8553 6.45426 17.5 6.45426C24.1447 6.45426 29.5312 11.8364 29.5312 18.4756C29.5312 25.1148 24.1447 30.497 17.5 30.497C10.8553 30.497 5.46875 25.1148 5.46875 18.4756Z" fill="#F9E59C"/>
<path d="M12.5781 17.383C13.4842 17.383 14.2188 16.6491 14.2188 15.7438C14.2188 14.8384 13.4842 14.1045 12.5781 14.1045C11.672 14.1045 10.9375 14.8384 10.9375 15.7438C10.9375 16.6491 11.672 17.383 12.5781 17.383Z" fill="#131313"/>
<path fill-rule="evenodd" clip-rule="evenodd" d="M19.6875 15.7432C19.6875 15.1397 20.1772 14.6504 20.7812 14.6504H24.0625C24.6666 14.6504 25.1562 15.1397 25.1562 15.7432C25.1562 16.3468 24.6666 16.8361 24.0625 16.8361H20.7812C20.1772 16.8361 19.6875 16.3468 19.6875 15.7432Z" fill="#131313"/>
<path fill-rule="evenodd" clip-rule="evenodd" d="M11.2636 20.809C11.786 20.506 12.4554 20.6835 12.7586 21.2055C13.2407 22.0353 13.9323 22.724 14.7645 23.2028C15.5966 23.6815 16.54 23.9335 17.5002 23.9335C18.4604 23.9335 19.4038 23.6815 20.2359 23.2028C21.068 22.724 21.7597 22.0353 22.2417 21.2055C22.545 20.6835 23.2143 20.506 23.7367 20.809C24.2592 21.112 24.4369 21.7808 24.1336 22.3028C23.4593 23.4636 22.4916 24.4272 21.3274 25.0969C20.1633 25.7667 18.8435 26.1192 17.5002 26.1192C16.1568 26.1192 14.8371 25.7667 13.6729 25.0969C12.5088 24.4272 11.5411 23.4636 10.8667 22.3028C10.5635 21.7808 10.7412 21.112 11.2636 20.809Z" fill="#131313"/>
</svg>
