<svg width="35" height="36" viewBox="0 0 35 36" fill="none" xmlns="http://www.w3.org/2000/svg">
<path fill-rule="evenodd" clip-rule="evenodd" d="M14.7398 7.44042C14.3398 7.78649 13.8606 8.15091 13.3126 8.37864C12.7605 8.60809 12.1642 8.68624 11.6392 8.72071C11.2955 8.74328 10.912 8.74939 10.5624 8.75497C10.3966 8.75761 10.2384 8.76013 10.0957 8.76423C9.04428 8.79445 8.50908 8.92361 8.22457 9.20788C7.94166 9.49056 7.8176 10.0094 7.7909 11.0534C7.78748 11.1872 7.78544 11.3338 7.78331 11.4876C7.77835 11.8444 7.77286 12.2393 7.74836 12.5991C7.71214 13.1313 7.62941 13.7316 7.39361 14.2942C7.16028 14.8509 6.79539 15.3343 6.44514 15.7397C6.2062 16.0162 5.93056 16.3037 5.68042 16.5646C5.57397 16.6756 5.47214 16.7818 5.37972 16.8803C5.04181 17.2405 4.78069 17.5462 4.60303 17.8342C4.42979 18.115 4.375 18.3173 4.375 18.4757C4.375 18.6326 4.43038 18.8382 4.6074 19.1257C4.78793 19.4189 5.0526 19.7304 5.39157 20.0932C5.48847 20.197 5.59596 20.3094 5.70826 20.4268C5.95466 20.6845 6.22419 20.9664 6.45565 21.2336C6.802 21.6333 7.16672 22.1121 7.39465 22.6596C7.62428 23.2113 7.70249 23.8071 7.73699 24.3317C7.75958 24.6751 7.7657 25.0583 7.77128 25.4075C7.77392 25.5733 7.77645 25.7314 7.78055 25.8739C7.8108 26.9245 7.94006 27.4592 8.22457 27.7435C8.50748 28.0262 9.02674 28.1501 10.0716 28.1768C10.2055 28.1802 10.3523 28.1823 10.5062 28.1844C10.8633 28.1893 11.2585 28.1948 11.6186 28.2193C12.1512 28.2555 12.7521 28.3382 13.3151 28.5738C13.8722 28.8069 14.356 29.1715 14.7617 29.5214C15.0385 29.7602 15.3262 30.0356 15.5873 30.2855C15.6984 30.3919 15.8047 30.4936 15.9033 30.586C16.2638 30.9236 16.5698 31.1845 16.858 31.362C17.139 31.5351 17.3415 31.5899 17.5 31.5899C17.6571 31.5899 17.8628 31.5345 18.1505 31.3577C18.444 31.1773 18.7558 30.9128 19.1189 30.5742C19.2227 30.4773 19.3352 30.3699 19.4528 30.2577C19.7107 30.0115 19.9928 29.7422 20.2602 29.511C20.6602 29.1649 21.1394 28.8005 21.6874 28.5727C22.2395 28.3433 22.8358 28.2651 23.3608 28.2307C23.7045 28.2081 24.088 28.202 24.4375 28.1964C24.6034 28.1938 24.7616 28.1912 24.9043 28.1871C25.9557 28.1569 26.4909 28.0278 26.7754 27.7435C27.0583 27.4608 27.1824 26.942 27.2091 25.8979C27.2125 25.7642 27.2146 25.6175 27.2167 25.4637C27.2217 25.107 27.2271 24.712 27.2516 24.3522C27.2879 23.8201 27.3706 23.2197 27.6064 22.6572C27.8397 22.1005 28.2046 21.6171 28.5549 21.2117C28.7938 20.9352 29.0694 20.6477 29.3196 20.3868C29.426 20.2758 29.5279 20.1695 29.6203 20.071C29.9582 19.7109 30.2193 19.4051 30.397 19.1172C30.5702 18.8364 30.625 18.6341 30.625 18.4757C30.625 18.3188 30.5696 18.1132 30.3926 17.8257C30.2121 17.5325 29.9474 17.221 29.6084 16.8581C29.5115 16.7544 29.404 16.642 29.2917 16.5245C29.0453 16.2668 28.7758 15.9849 28.5444 15.7178C28.198 15.3181 27.8333 14.8393 27.6054 14.2917C27.3757 13.7401 27.2975 13.1442 27.263 12.6197C27.2404 12.2763 27.2343 11.8931 27.2287 11.5439C27.2261 11.3781 27.2236 11.22 27.2194 11.0774C27.1892 10.0269 27.0599 9.49216 26.7754 9.20788C26.4925 8.92521 25.9733 8.80125 24.9284 8.77457C24.7945 8.77116 24.6477 8.76912 24.4938 8.76698C24.1368 8.76203 23.7415 8.75654 23.3814 8.73207C22.8488 8.69588 22.2479 8.61322 21.6849 8.37761C21.1278 8.14447 20.644 7.77988 20.2383 7.42992C19.9615 7.19117 19.6738 6.91576 19.4127 6.66583C19.3015 6.55947 19.1952 6.45772 19.0967 6.36537C18.7362 6.02774 18.4302 5.76684 18.142 5.58932C17.861 5.41622 17.6585 5.36148 17.5 5.36148C17.3429 5.36148 17.1372 5.41682 16.8495 5.59369C16.556 5.77407 16.2442 6.03852 15.8811 6.37722C15.7773 6.47404 15.6648 6.58144 15.5472 6.69365C15.2893 6.93984 15.0072 7.20915 14.7398 7.44042ZM15.7033 3.73205C16.1982 3.42781 16.8026 3.17578 17.5 3.17578C18.196 3.17578 18.7967 3.42499 19.2899 3.72873C19.7759 4.02806 20.2149 4.41689 20.5928 4.77082C20.7303 4.89967 20.8573 5.02129 20.9786 5.13754C21.2172 5.36615 21.4342 5.57402 21.6677 5.77543C22.0088 6.06966 22.2873 6.26004 22.5299 6.36158C22.7667 6.46066 23.0887 6.52143 23.5298 6.55141C23.831 6.57188 24.123 6.57577 24.4465 6.58008C24.6153 6.58233 24.7926 6.58469 24.9842 6.58959C25.9457 6.61414 27.3473 6.68826 28.3222 7.66236C29.2955 8.63487 29.3782 10.0467 29.406 11.0146C29.412 11.2214 29.4149 11.4106 29.4176 11.59C29.4223 11.9016 29.4265 12.1835 29.4458 12.4764C29.475 12.9196 29.5335 13.2322 29.6251 13.4524C29.7185 13.6767 29.9023 13.9458 30.1981 14.2871C30.3956 14.5151 30.5985 14.727 30.8217 14.9601C30.9435 15.0873 31.0712 15.2208 31.2075 15.3667C31.5641 15.7483 31.9548 16.1916 32.2558 16.6804C32.5603 17.175 32.8125 17.7788 32.8125 18.4757C32.8125 19.1711 32.5631 19.7714 32.2591 20.2641C31.9595 20.7497 31.5704 21.1884 31.2161 21.5659C31.0872 21.7034 30.9655 21.8302 30.8491 21.9514C30.6203 22.1899 30.4123 22.4067 30.2107 22.64C29.9162 22.9808 29.7257 23.259 29.6241 23.5015C29.5249 23.7381 29.4641 24.0598 29.4341 24.5005C29.4136 24.8015 29.4097 25.0933 29.4054 25.4164C29.4031 25.5851 29.4008 25.7623 29.3959 25.9538C29.3713 26.9144 29.2971 28.3149 28.3222 29.289C27.3489 30.2615 25.9359 30.3441 24.9672 30.3719C24.7602 30.3779 24.5709 30.3807 24.3914 30.3834C24.0795 30.3882 23.7973 30.3924 23.5043 30.4117C23.0606 30.4408 22.7478 30.4992 22.5275 30.5908C22.303 30.6841 22.0336 30.8678 21.692 31.1634C21.4639 31.3607 21.2518 31.5634 21.0184 31.7864C20.8911 31.9081 20.7575 32.0358 20.6116 32.1719C20.2296 32.5282 19.786 32.9186 19.2967 33.2193C18.8018 33.5236 18.1974 33.7756 17.5 33.7756C16.804 33.7756 16.2033 33.5264 15.7101 33.2226C15.2241 32.9233 14.7851 32.5345 14.4072 32.1805C14.2697 32.0517 14.1427 31.9301 14.0214 31.8138C13.7828 31.5852 13.5658 31.3773 13.3323 31.1759C12.9912 30.8817 12.7127 30.6913 12.4701 30.5898C12.2333 30.4907 11.9113 30.4299 11.4702 30.4C11.169 30.3795 10.877 30.3756 10.5535 30.3713C10.3847 30.369 10.2074 30.3667 10.0158 30.3618C9.05432 30.3372 7.65268 30.2631 6.67777 29.289C5.70447 28.3165 5.62182 26.9046 5.59396 25.9368C5.588 25.73 5.58514 25.5407 5.58243 25.3614C5.57773 25.0497 5.57347 24.7678 5.5542 24.475C5.52505 24.0318 5.46654 23.7192 5.37489 23.499C5.28152 23.2747 5.09765 23.0056 4.80186 22.6642C4.60438 22.4363 4.40149 22.2244 4.1783 21.9912C4.05655 21.864 3.92876 21.7306 3.79251 21.5847C3.43593 21.203 3.0452 20.7598 2.74422 20.2709C2.43973 19.7764 2.1875 19.1725 2.1875 18.4757C2.1875 17.7803 2.43691 17.18 2.74091 16.6873C3.04048 16.2017 3.42963 15.763 3.78386 15.3854C3.91281 15.248 4.03453 15.1212 4.15087 14.9999C4.37967 14.7615 4.58772 14.5447 4.78929 14.3114C5.08376 13.9706 5.27429 13.6923 5.37592 13.4499C5.47508 13.2133 5.53591 12.8916 5.56591 12.4508C5.58639 12.1499 5.59029 11.8581 5.5946 11.5349C5.59685 11.3663 5.59922 11.1891 5.60412 10.9976C5.62869 10.037 5.70287 8.63646 6.67777 7.66236C7.65108 6.68986 9.06412 6.60728 10.0328 6.57944C10.2397 6.57349 10.4291 6.57063 10.6086 6.56792C10.9205 6.56322 11.2027 6.55896 11.4957 6.53972C11.9394 6.51058 12.2522 6.45213 12.4725 6.36055C12.697 6.26725 12.9664 6.08354 13.308 5.78799C13.5361 5.59067 13.7482 5.38795 13.9816 5.16494C14.1089 5.04329 14.2425 4.91561 14.3884 4.77947C14.7704 4.42318 15.214 4.03278 15.7033 3.73205Z" fill="#131313"/>
<path d="M13.3126 8.37864C13.8606 8.15091 14.3398 7.78649 14.7398 7.44042C15.0072 7.20915 15.2893 6.93984 15.5472 6.69365C15.6648 6.58144 15.7773 6.47404 15.8811 6.37722C16.2442 6.03852 16.556 5.77407 16.8495 5.59369C17.1372 5.41682 17.3429 5.36148 17.5 5.36148C17.6585 5.36148 17.861 5.41622 18.142 5.58932C18.4302 5.76684 18.7362 6.02774 19.0967 6.36537C19.1952 6.45772 19.3015 6.55947 19.4127 6.66583C19.6738 6.91576 19.9615 7.19117 20.2383 7.42992C20.644 7.77988 21.1278 8.14447 21.6849 8.37761C22.2479 8.61322 22.8488 8.69588 23.3814 8.73207C23.7415 8.75654 24.1368 8.76203 24.4938 8.76698C24.6477 8.76912 24.7945 8.77116 24.9284 8.77457C25.9733 8.80125 26.4925 8.92521 26.7754 9.20788C27.0599 9.49216 27.1892 10.0269 27.2194 11.0774C27.2236 11.22 27.2261 11.3781 27.2287 11.5439C27.2343 11.8931 27.2404 12.2763 27.263 12.6197C27.2975 13.1442 27.3757 13.7401 27.6054 14.2917C27.8333 14.8393 28.198 15.3181 28.5444 15.7178C28.7758 15.9849 29.0453 16.2668 29.2917 16.5245C29.404 16.642 29.5115 16.7544 29.6084 16.8581C29.9474 17.221 30.2121 17.5325 30.3926 17.8257C30.5696 18.1132 30.625 18.3188 30.625 18.4757C30.625 18.6341 30.5702 18.8364 30.397 19.1172C30.2193 19.4051 29.9582 19.7109 29.6203 20.071C29.5279 20.1695 29.426 20.2758 29.3196 20.3868C29.0694 20.6477 28.7938 20.9352 28.5549 21.2117C28.2046 21.6171 27.8397 22.1005 27.6064 22.6572C27.3706 23.2197 27.2879 23.8201 27.2516 24.3522C27.2271 24.712 27.2217 25.107 27.2167 25.4637C27.2146 25.6175 27.2125 25.7642 27.2091 25.8979C27.1824 26.942 27.0583 27.4608 26.7754 27.7435C26.4909 28.0278 25.9557 28.1569 24.9043 28.1871C24.7616 28.1912 24.6034 28.1938 24.4375 28.1964C24.088 28.202 23.7045 28.2081 23.3608 28.2307C22.8358 28.2651 22.2395 28.3433 21.6874 28.5727C21.1394 28.8005 20.6602 29.1649 20.2602 29.511C19.9928 29.7422 19.7107 30.0115 19.4528 30.2577C19.3352 30.3699 19.2227 30.4773 19.1189 30.5742C18.7558 30.9128 18.444 31.1773 18.1505 31.3577C17.8628 31.5345 17.6571 31.5899 17.5 31.5899C17.3415 31.5899 17.139 31.5351 16.858 31.362C16.5698 31.1845 16.2638 30.9236 15.9033 30.586C15.8047 30.4936 15.6984 30.3919 15.5873 30.2855C15.3262 30.0356 15.0385 29.7602 14.7617 29.5214C14.356 29.1715 13.8722 28.8069 13.3151 28.5738C12.7521 28.3382 12.1512 28.2555 11.6186 28.2193C11.2585 28.1948 10.8633 28.1893 10.5062 28.1844C10.3523 28.1823 10.2055 28.1802 10.0716 28.1768C9.02674 28.1501 8.50748 28.0262 8.22457 27.7435C7.94006 27.4592 7.8108 26.9245 7.78055 25.8739C7.77645 25.7314 7.77392 25.5733 7.77128 25.4075C7.7657 25.0583 7.75958 24.6751 7.73699 24.3317C7.70249 23.8071 7.62428 23.2113 7.39465 22.6596C7.16672 22.1121 6.802 21.6333 6.45565 21.2336C6.22419 20.9664 5.95466 20.6845 5.70826 20.4268C5.59596 20.3094 5.48847 20.197 5.39157 20.0932C5.0526 19.7304 4.78793 19.4189 4.6074 19.1257C4.43038 18.8382 4.375 18.6326 4.375 18.4757C4.375 18.3173 4.42979 18.115 4.60303 17.8342C4.78069 17.5462 5.04181 17.2405 5.37972 16.8803C5.47214 16.7818 5.57397 16.6756 5.68042 16.5646C5.93056 16.3037 6.2062 16.0162 6.44514 15.7397C6.79539 15.3343 7.16028 14.8509 7.39361 14.2942C7.62941 13.7316 7.71214 13.1313 7.74836 12.5991C7.77286 12.2393 7.77835 11.8444 7.78331 11.4876C7.78544 11.3338 7.78748 11.1872 7.7909 11.0534C7.8176 10.0094 7.94166 9.49056 8.22457 9.20788C8.50908 8.92361 9.04428 8.79445 10.0957 8.76423C10.2384 8.76013 10.3966 8.75761 10.5624 8.75497C10.912 8.74939 11.2955 8.74328 11.6392 8.72071C12.1642 8.68624 12.7605 8.60809 13.3126 8.37864Z" fill="#F9E59C"/>
<path fill-rule="evenodd" clip-rule="evenodd" d="M24.307 14.443C24.724 14.8797 24.7077 15.5715 24.2706 15.9881L16.2452 23.638C15.8224 24.0411 15.1571 24.0408 14.7346 23.6374L10.7287 19.8124C10.292 19.3954 10.2763 18.7036 10.6936 18.2673C11.111 17.8309 11.8033 17.8152 12.24 18.2322L15.4909 21.3363L22.7606 14.4066C23.1977 13.99 23.89 14.0063 24.307 14.443Z" fill="#131313"/>
</svg>
