<svg width="35" height="36" viewBox="0 0 35 36" fill="none" xmlns="http://www.w3.org/2000/svg">
<path fill-rule="evenodd" clip-rule="evenodd" d="M4.375 7.54703C4.375 6.3399 5.35438 5.36133 6.5625 5.36133H28.4375C29.6456 5.36133 30.625 6.3399 30.625 7.54703V29.404C30.625 30.6112 29.6456 31.5897 28.4375 31.5897H6.5625C5.35438 31.5897 4.375 30.6112 4.375 29.404V7.54703ZM28.4375 7.54703H6.5625V29.404H28.4375V7.54703Z" fill="#131313"/>
<path d="M6.5625 7.54703H28.4375V29.404H6.5625V7.54703Z" fill="#DBC9F2"/>
<path fill-rule="evenodd" clip-rule="evenodd" d="M24.0625 3.17578C24.6666 3.17578 25.1562 3.66507 25.1562 4.26863V8.64003C25.1562 9.2436 24.6666 9.73288 24.0625 9.73288C23.4584 9.73288 22.9688 9.2436 22.9688 8.64003V4.26863C22.9688 3.66507 23.4584 3.17578 24.0625 3.17578Z" fill="#131313"/>
<path fill-rule="evenodd" clip-rule="evenodd" d="M10.9375 3.17578C11.5416 3.17578 12.0312 3.66507 12.0312 4.26863V8.64003C12.0312 9.2436 11.5416 9.73288 10.9375 9.73288C10.3334 9.73288 9.84375 9.2436 9.84375 8.64003V4.26863C9.84375 3.66507 10.3334 3.17578 10.9375 3.17578Z" fill="#131313"/>
<path fill-rule="evenodd" clip-rule="evenodd" d="M4.375 13.0118C4.375 12.4082 4.86469 11.9189 5.46875 11.9189H29.5312C30.1353 11.9189 30.625 12.4082 30.625 13.0118C30.625 13.6154 30.1353 14.1046 29.5312 14.1046H5.46875C4.86469 14.1046 4.375 13.6154 4.375 13.0118Z" fill="#131313"/>
<path fill-rule="evenodd" clip-rule="evenodd" d="M23.2179 17.7262C23.6322 18.1655 23.6116 18.8572 23.1719 19.2711L16.7872 25.2818C16.3648 25.6793 15.7053 25.6782 15.2844 25.2792L11.8254 22.0007C11.3871 21.5853 11.3689 20.8936 11.7846 20.4557C12.2003 20.0178 12.8926 19.9995 13.3309 20.4149L16.0397 22.9824L21.6718 17.6803C22.1115 17.2664 22.8037 17.2869 23.2179 17.7262Z" fill="#131313"/>
</svg>
