<svg width="35" height="36" viewBox="0 0 35 36" fill="none" xmlns="http://www.w3.org/2000/svg">
<path fill-rule="evenodd" clip-rule="evenodd" d="M3.28125 11.9191C3.28125 10.712 4.26063 9.7334 5.46875 9.7334H29.5312C30.7394 9.7334 31.7188 10.712 31.7188 11.9191V29.4047C31.7188 30.6118 30.7394 31.5904 29.5312 31.5904H5.46875C4.26063 31.5904 3.28125 30.6118 3.28125 29.4047V11.9191ZM29.5312 11.9191H5.46875V29.4047H29.5312V11.9191Z" fill="#131313"/>
<path d="M5.46875 11.9191H29.5312V29.4047H5.46875V11.9191Z" fill="#DBC9F2"/>
<path fill-rule="evenodd" clip-rule="evenodd" d="M11.8986 6.32159C12.5139 5.70675 13.3485 5.36133 14.2188 5.36133H20.7812C21.6515 5.36133 22.4861 5.70675 23.1014 6.32159C23.7168 6.93644 24.0625 7.77035 24.0625 8.63988V10.8256C24.0625 11.4291 23.5728 11.9184 22.9688 11.9184C22.3647 11.9184 21.875 11.4291 21.875 10.8256V8.63988C21.875 8.35004 21.7598 8.07207 21.5546 7.86712C21.3495 7.66217 21.0713 7.54703 20.7812 7.54703H14.2188C13.9287 7.54703 13.6505 7.66217 13.4454 7.86712C13.2402 8.07207 13.125 8.35004 13.125 8.63988V10.8256C13.125 11.4291 12.6353 11.9184 12.0312 11.9184C11.4272 11.9184 10.9375 11.4291 10.9375 10.8256V8.63988C10.9375 7.77035 11.2832 6.93644 11.8986 6.32159Z" fill="#131313"/>
<path fill-rule="evenodd" clip-rule="evenodd" d="M31.572 17.6973C31.8744 18.2198 31.6957 18.8883 31.1728 19.1904C27.0175 21.5916 22.3011 22.8534 17.5009 22.848C12.6989 22.8601 7.97979 21.5977 3.82627 19.1897C3.30379 18.8867 3.12599 18.218 3.42914 17.6959C3.7323 17.1739 4.40161 16.9962 4.92409 17.2991C8.74305 19.5132 13.0821 20.6738 17.4973 20.6623L17.5015 20.6623C21.9169 20.6676 26.2554 19.5071 30.0776 17.2984C30.6005 16.9962 31.2696 17.1748 31.572 17.6973Z" fill="#131313"/>
<path fill-rule="evenodd" clip-rule="evenodd" d="M14.7656 17.3829C14.7656 16.7793 15.2553 16.29 15.8594 16.29H19.1406C19.7447 16.29 20.2344 16.7793 20.2344 17.3829C20.2344 17.9865 19.7447 18.4757 19.1406 18.4757H15.8594C15.2553 18.4757 14.7656 17.9865 14.7656 17.3829Z" fill="#131313"/>
</svg>
