<svg width="35" height="36" viewBox="0 0 35 36" fill="none" xmlns="http://www.w3.org/2000/svg">
<path fill-rule="evenodd" clip-rule="evenodd" d="M4.375 21.7541C4.375 20.5469 5.35438 19.5684 6.5625 19.5684H28.4375C29.6456 19.5684 30.625 20.5469 30.625 21.7541V28.3112C30.625 29.5183 29.6456 30.4969 28.4375 30.4969H6.5625C5.35438 30.4969 4.375 29.5183 4.375 28.3112V21.7541ZM28.4375 21.7541H6.5625V28.3112H28.4375V21.7541Z" fill="#131313"/>
<path d="M6.5625 21.7541H28.4375V28.3112H6.5625V21.7541Z" fill="#F9E59C"/>
<path fill-rule="evenodd" clip-rule="evenodd" d="M4.375 8.6398C4.375 7.43267 5.35438 6.4541 6.5625 6.4541H28.4375C29.6456 6.4541 30.625 7.43267 30.625 8.6398V15.1969C30.625 16.404 29.6456 17.3826 28.4375 17.3826H6.5625C5.35438 17.3826 4.375 16.404 4.375 15.1969V8.6398ZM28.4375 8.6398H6.5625V15.1969H28.4375V8.6398Z" fill="#131313"/>
<path d="M6.5625 8.6398H28.4375V15.1969H6.5625V8.6398Z" fill="#F9E59C"/>
<path d="M24.6094 13.5578C25.5155 13.5578 26.25 12.8239 26.25 11.9186C26.25 11.0132 25.5155 10.2793 24.6094 10.2793C23.7033 10.2793 22.9688 11.0132 22.9688 11.9186C22.9688 12.8239 23.7033 13.5578 24.6094 13.5578Z" fill="#131313"/>
<path d="M24.6094 26.6721C25.5155 26.6721 26.25 25.9382 26.25 25.0328C26.25 24.1275 25.5155 23.3936 24.6094 23.3936C23.7033 23.3936 22.9688 24.1275 22.9688 25.0328C22.9688 25.9382 23.7033 26.6721 24.6094 26.6721Z" fill="#131313"/>
</svg>
